<svg xmlns="http://www.w3.org/2000/svg" width="85" height="85" viewBox="0 0 85 85">
  <g id="Grupo_159369" data-name="Grupo 159369" transform="translate(9439 5535)">
    <rect id="Rectángulo_46166" data-name="Rectángulo 46166" width="85" height="85" rx="12" transform="translate(-9439 -5535)" fill="#083142"/>
    <g id="Coding" transform="translate(-9424 -5520)">
      <path id="Trazado_602793" data-name="Trazado 602793" d="M50.321,3H4.264A4.269,4.269,0,0,0,0,7.264v30.7a4.269,4.269,0,0,0,4.264,4.264h16.2v3.412H17.058A2.561,2.561,0,0,0,14.5,48.2v3.412a.853.853,0,0,0,.853.853H39.233a.853.853,0,0,0,.853-.853V48.2a2.561,2.561,0,0,0-2.559-2.559H34.116V42.233h16.2a4.269,4.269,0,0,0,4.264-4.264V7.264A4.269,4.269,0,0,0,50.321,3ZM38.38,48.2v2.559H16.2V48.2a.854.854,0,0,1,.853-.853H37.527A.854.854,0,0,1,38.38,48.2Zm-5.97-2.559H22.175V42.233H32.41Zm20.469-7.676a2.561,2.561,0,0,1-2.559,2.559H4.264a2.561,2.561,0,0,1-2.559-2.559V7.264A2.561,2.561,0,0,1,4.264,4.706H50.321a2.561,2.561,0,0,1,2.559,2.559Z" fill="#fff"/>
      <path id="Trazado_602794" data-name="Trazado 602794" d="M50.909,7H4.853A.853.853,0,0,0,4,7.853V35.145A.853.853,0,0,0,4.853,36H50.909a.853.853,0,0,0,.853-.853V7.853A.853.853,0,0,0,50.909,7ZM9.117,12.117H19.352V34.292H9.117Zm11.94,0H46.645V34.292H21.058Zm25.587-1.706H9.117V8.706H46.645ZM5.706,8.706H7.412V34.292H5.706Zm44.35,25.587H48.35V8.706h1.706Z" transform="translate(-0.588 -0.588)" fill="#fff"/>
      <path id="Trazado_602795" data-name="Trazado 602795" d="M6.559,43H4.853a.853.853,0,0,0,0,1.706H6.559a.853.853,0,1,0,0-1.706Z" transform="translate(-0.588 -5.884)" fill="#fff"/>
      <path id="Trazado_602796" data-name="Trazado 602796" d="M11.559,43H9.853a.853.853,0,1,0,0,1.706h1.706a.853.853,0,1,0,0-1.706Z" transform="translate(-1.324 -5.884)" fill="#fff"/>
      <path id="Trazado_602797" data-name="Trazado 602797" d="M16.559,43H14.853a.853.853,0,1,0,0,1.706h1.706a.853.853,0,0,0,0-1.706Z" transform="translate(-2.06 -5.884)" fill="#fff"/>
      <path id="Trazado_602798" data-name="Trazado 602798" d="M14.559,16.706a.853.853,0,0,0,0-1.706H12.853a.853.853,0,0,0,0,1.706Z" transform="translate(-1.765 -1.765)" fill="#fff"/>
      <path id="Trazado_602799" data-name="Trazado 602799" d="M28.559,15H26.853a.853.853,0,0,0,0,1.706h1.706a.853.853,0,1,0,0-1.706Z" transform="translate(-3.825 -1.765)" fill="#fff"/>
      <path id="Trazado_602800" data-name="Trazado 602800" d="M32.853,16.706h8.529a.853.853,0,0,0,0-1.706H32.853a.853.853,0,1,0,0,1.706Z" transform="translate(-4.708 -1.765)" fill="#fff"/>
      <path id="Trazado_602801" data-name="Trazado 602801" d="M32.853,20.706h3.412a.853.853,0,1,0,0-1.706H32.853a.853.853,0,1,0,0,1.706Z" transform="translate(-4.708 -2.354)" fill="#fff"/>
      <path id="Trazado_602802" data-name="Trazado 602802" d="M44.793,27H32.853a.853.853,0,0,0,0,1.706h11.94a.853.853,0,0,0,0-1.706Z" transform="translate(-4.708 -3.531)" fill="#fff"/>
      <path id="Trazado_602803" data-name="Trazado 602803" d="M32.853,32.706h4.264a.853.853,0,1,0,0-1.706H32.853a.853.853,0,0,0,0,1.706Z" transform="translate(-4.708 -4.119)" fill="#fff"/>
      <path id="Trazado_602804" data-name="Trazado 602804" d="M39.676,35H32.853a.853.853,0,0,0,0,1.706h6.823a.853.853,0,0,0,0-1.706Z" transform="translate(-4.708 -4.708)" fill="#fff"/>
      <path id="Trazado_602805" data-name="Trazado 602805" d="M40,19.853a.853.853,0,0,0,.853.853h8.529a.853.853,0,0,0,0-1.706H40.853a.853.853,0,0,0-.853.853Z" transform="translate(-5.884 -2.354)" fill="#fff"/>
      <path id="Trazado_602806" data-name="Trazado 602806" d="M38.853,23a.853.853,0,1,0,0,1.706h6.823a.853.853,0,1,0,0-1.706Z" transform="translate(-5.59 -2.942)" fill="#fff"/>
      <path id="Trazado_602807" data-name="Trazado 602807" d="M28.559,19H26.853a.853.853,0,1,0,0,1.706h1.706a.853.853,0,0,0,0-1.706Z" transform="translate(-3.825 -2.354)" fill="#fff"/>
      <path id="Trazado_602808" data-name="Trazado 602808" d="M28.559,23H26.853a.853.853,0,1,0,0,1.706h1.706a.853.853,0,0,0,0-1.706Z" transform="translate(-3.825 -2.942)" fill="#fff"/>
      <path id="Trazado_602809" data-name="Trazado 602809" d="M32.853,24.706h1.706a.853.853,0,1,0,0-1.706H32.853a.853.853,0,0,0,0,1.706Z" transform="translate(-4.708 -2.942)" fill="#fff"/>
      <path id="Trazado_602810" data-name="Trazado 602810" d="M28.559,27H26.853a.853.853,0,1,0,0,1.706h1.706a.853.853,0,0,0,0-1.706Z" transform="translate(-3.825 -3.531)" fill="#fff"/>
      <path id="Trazado_602811" data-name="Trazado 602811" d="M28.559,31H26.853a.853.853,0,0,0,0,1.706h1.706a.853.853,0,0,0,0-1.706Z" transform="translate(-3.825 -4.119)" fill="#fff"/>
      <path id="Trazado_602812" data-name="Trazado 602812" d="M28.559,35H26.853a.853.853,0,0,0,0,1.706h1.706a.853.853,0,0,0,0-1.706Z" transform="translate(-3.825 -4.708)" fill="#fff"/>
      <path id="Trazado_602813" data-name="Trazado 602813" d="M15,19.853a.853.853,0,0,0,.853.853h1.706a.853.853,0,0,0,0-1.706H15.853A.853.853,0,0,0,15,19.853Z" transform="translate(-2.207 -2.354)" fill="#fff"/>
      <path id="Trazado_602814" data-name="Trazado 602814" d="M16.412,23.853A.853.853,0,0,0,15.559,23H13.853a.853.853,0,0,0,0,1.706h1.706A.853.853,0,0,0,16.412,23.853Z" transform="translate(-1.912 -2.942)" fill="#fff"/>
      <path id="Trazado_602815" data-name="Trazado 602815" d="M16.853,27a.853.853,0,1,0,0,1.706h1.706a.853.853,0,1,0,0-1.706Z" transform="translate(-2.354 -3.531)" fill="#fff"/>
      <path id="Trazado_602816" data-name="Trazado 602816" d="M16.412,31.853A.853.853,0,0,0,15.559,31H13.853a.853.853,0,1,0,0,1.706h1.706A.853.853,0,0,0,16.412,31.853Z" transform="translate(-1.912 -4.119)" fill="#fff"/>
      <path id="Trazado_602817" data-name="Trazado 602817" d="M18.559,35H16.853a.853.853,0,0,0,0,1.706h1.706a.853.853,0,0,0,0-1.706Z" transform="translate(-2.354 -4.708)" fill="#fff"/>
      <path id="Trazado_602818" data-name="Trazado 602818" d="M46.162,31.25a.853.853,0,0,0-1.206,0L43.25,32.956a.853.853,0,0,0,0,1.206l1.706,1.706a.853.853,0,1,0,1.206-1.206l-1.1-1.1,1.1-1.1A.853.853,0,0,0,46.162,31.25Z" transform="translate(-6.326 -4.119)" fill="#fff"/>
      <path id="Trazado_602819" data-name="Trazado 602819" d="M49.456,31.25a.853.853,0,1,0-1.206,1.206l1.1,1.1-1.1,1.1a.853.853,0,1,0,1.206,1.206l1.706-1.706a.853.853,0,0,0,0-1.206Z" transform="translate(-7.061 -4.119)" fill="#fff"/>
      <path id="Trazado_602820" data-name="Trazado 602820" d="M45.853,16.706h.853a.853.853,0,0,0,0-1.706h-.853a.853.853,0,1,0,0,1.706Z" transform="translate(-6.62 -1.765)" fill="#fff"/>
      <path id="Trazado_602821" data-name="Trazado 602821" d="M50.706,27h-.853a.853.853,0,1,0,0,1.706h.853a.853.853,0,0,0,0-1.706Z" transform="translate(-7.208 -3.531)" fill="#fff"/>
    </g>
  </g>
</svg>
