<svg xmlns="http://www.w3.org/2000/svg" width="85" height="85" viewBox="0 0 85 85">
  <g id="Grupo_159370" data-name="Grupo 159370" transform="translate(9439 5076)">
    <rect id="Rectángulo_46168" data-name="Rectángulo 46168" width="85" height="85" rx="12" transform="translate(-9439 -5076)" fill="#083142"/>
    <g id="sitio-web" transform="translate(-9424 -5068.416)">
      <g id="Grupo_159279" data-name="Grupo 159279" transform="translate(0 8.533)">
        <g id="Grupo_159278" data-name="Grupo 159278">
          <path id="Trazado_602822" data-name="Trazado 602822" d="M50.945,8.533H3.64A3.644,3.644,0,0,0,0,12.173V42.194a.91.91,0,0,0,.91.91H53.675a.91.91,0,0,0,.91-.91V12.173A3.644,3.644,0,0,0,50.945,8.533Zm1.82,32.751H1.82V12.173a1.822,1.822,0,0,1,1.82-1.82H50.945a1.822,1.822,0,0,1,1.82,1.82Z" transform="translate(0 -8.533)" fill="#fff"/>
        </g>
      </g>
      <g id="Grupo_159281" data-name="Grupo 159281" transform="translate(0 41.284)">
        <g id="Grupo_159280" data-name="Grupo 159280">
          <path id="Trazado_602823" data-name="Trazado 602823" d="M53.675,315.733H.91a.91.91,0,0,0-.91.91v4.548a3.644,3.644,0,0,0,3.64,3.64H50.945a3.644,3.644,0,0,0,3.64-3.64v-4.548A.91.91,0,0,0,53.675,315.733Zm-.91,5.458a1.822,1.822,0,0,1-1.82,1.82H3.64a1.822,1.822,0,0,1-1.82-1.82v-3.638H52.766v3.638Z" transform="translate(0 -315.733)" fill="#fff"/>
        </g>
      </g>
      <g id="Grupo_159283" data-name="Grupo 159283" transform="translate(23.654 44.923)">
        <g id="Grupo_159282" data-name="Grupo 159282">
          <path id="Trazado_602824" data-name="Trazado 602824" d="M228.235,349.867h-5.458a.91.91,0,1,0,0,1.819h5.458a.91.91,0,1,0,0-1.819Z" transform="translate(-221.867 -349.867)" fill="#fff"/>
        </g>
      </g>
      <g id="Grupo_159285" data-name="Grupo 159285" transform="translate(3.639 12.172)">
        <g id="Grupo_159284" data-name="Grupo 159284">
          <path id="Trazado_602825" data-name="Trazado 602825" d="M80.531,42.667H35.044a.91.91,0,0,0-.91.91V72.689a.91.91,0,0,0,.91.91H80.531a.91.91,0,0,0,.91-.91V43.577A.91.91,0,0,0,80.531,42.667Zm-.91,29.112H35.953V44.486H79.621Z" transform="translate(-34.134 -42.667)" fill="#fff"/>
        </g>
      </g>
      <g id="Grupo_159287" data-name="Grupo 159287" transform="translate(12.737 55.84)">
        <g id="Grupo_159286" data-name="Grupo 159286">
          <path id="Trazado_602826" data-name="Trazado 602826" d="M145.85,452.267H122.2a2.729,2.729,0,1,0,0,5.458H145.85a2.729,2.729,0,1,0,0-5.458Zm0,3.639H122.2a.91.91,0,1,1,0-1.819H145.85a.91.91,0,1,1,0,1.819Z" transform="translate(-119.467 -452.267)" fill="#fff"/>
        </g>
      </g>
      <g id="Grupo_159289" data-name="Grupo 159289" transform="translate(16.376 48.562)">
        <g id="Grupo_159288" data-name="Grupo 159288">
          <path id="Trazado_602827" data-name="Trazado 602827" d="M174.525,391.279c-3.019,0-4.549-2.142-4.549-6.368a.91.91,0,0,0-.91-.91h-9.1a.91.91,0,0,0-.91.91c0,4.226-1.53,6.368-4.549,6.368a.91.91,0,1,0,0,1.819h20.014a.91.91,0,1,0,0-1.819Zm-15.583,0a8.716,8.716,0,0,0,1.912-5.458h7.328a8.705,8.705,0,0,0,1.912,5.458Z" transform="translate(-153.601 -384.001)" fill="#fff"/>
        </g>
      </g>
      <g id="Grupo_159291" data-name="Grupo 159291" transform="translate(31.847 27.638)">
        <g id="Grupo_159290" data-name="Grupo 159290">
          <path id="Trazado_602828" data-name="Trazado 602828" d="M310.348,195.432l-2.2-2.2,1.222-1.222a.91.91,0,0,0-.381-1.515l-9.1-2.729a.91.91,0,0,0-1.133,1.133l2.729,9.1a.909.909,0,0,0,1.515.382l1.286-1.287,2.2,2.2a.909.909,0,0,0,1.286,0l2.573-2.574A.909.909,0,0,0,310.348,195.432Zm-3.216,1.931-2-2a1.189,1.189,0,0,0-1.679,0l-.657.657L300.99,190l6.02,1.806-.7.7a1.031,1.031,0,0,0,0,1.457l2.111,2.111Z" transform="translate(-298.723 -187.731)" fill="#fff"/>
        </g>
      </g>
      <g id="Grupo_159293" data-name="Grupo 159293" transform="translate(11.827 15.811)">
        <g id="Grupo_159292" data-name="Grupo 159292">
          <path id="Trazado_602829" data-name="Trazado 602829" d="M137.317,76.8H111.844a.91.91,0,0,0-.91.91v4.549a.91.91,0,0,0,.91.91h25.473a.91.91,0,0,0,.91-.91V77.71A.91.91,0,0,0,137.317,76.8Zm-.91,4.549H112.753V78.62h23.654Z" transform="translate(-110.934 -76.8)" fill="#fff"/>
        </g>
      </g>
      <g id="Grupo_159295" data-name="Grupo 159295" transform="translate(15.466 25.818)">
        <g id="Grupo_159294" data-name="Grupo 159294">
          <path id="Trazado_602830" data-name="Trazado 602830" d="M153.255,170.667h-7.278a.91.91,0,0,0-.91.91v3.639a.91.91,0,0,0,.91.91h7.278a.91.91,0,0,0,.91-.91v-3.639A.91.91,0,0,0,153.255,170.667Zm-.91,3.639h-5.458v-1.82h5.458Z" transform="translate(-145.067 -170.667)" fill="#fff"/>
        </g>
      </g>
      <g id="Grupo_159297" data-name="Grupo 159297" transform="translate(11.827 15.811)">
        <g id="Grupo_159296" data-name="Grupo 159296">
          <path id="Trazado_602831" data-name="Trazado 602831" d="M137.317,76.8H111.844a.91.91,0,0,0-.91.91V94.995a.91.91,0,0,0,.91.91H133.5a.91.91,0,0,0,.872-1.172l-1.152-3.84,3.835,1.151a.91.91,0,0,0,1.171-.872V77.71A.91.91,0,0,0,137.317,76.8Zm-.91,13.15-4.282-1.285a.91.91,0,0,0-1.133,1.134l1.286,4.287H112.753V78.62h23.654Z" transform="translate(-110.934 -76.8)" fill="#fff"/>
        </g>
      </g>
    </g>
  </g>
</svg>
