<svg xmlns="http://www.w3.org/2000/svg" width="85" height="85" viewBox="0 0 85 85">
  <g id="Grupo_159374" data-name="Grupo 159374" transform="translate(9439 3320)">
    <rect id="Rectángulo_46175" data-name="Rectángulo 46175" width="85" height="85" rx="12" transform="translate(-9439 -3320)" fill="#083142"/>
    <g id="Line" transform="translate(-9426 -3307)">
      <path id="Trazado_602854" data-name="Trazado 602854" d="M56.585,15.053V5.56A3.564,3.564,0,0,0,53.025,2H5.56A3.564,3.564,0,0,0,2,5.56v9.493a3.564,3.564,0,0,0,3.56,3.56v2.373A3.564,3.564,0,0,0,2,24.546v9.493A3.564,3.564,0,0,0,5.56,37.6v2.373A3.564,3.564,0,0,0,2,43.532v9.493a3.564,3.564,0,0,0,3.56,3.56H53.025a3.564,3.564,0,0,0,3.56-3.56V43.532a3.564,3.564,0,0,0-3.56-3.56V37.6a3.564,3.564,0,0,0,3.56-3.56V24.546a3.564,3.564,0,0,0-3.56-3.56V18.613A3.564,3.564,0,0,0,56.585,15.053Zm-52.212,0V5.56A1.188,1.188,0,0,1,5.56,4.373H53.025A1.187,1.187,0,0,1,54.212,5.56v9.493a1.187,1.187,0,0,1-1.187,1.187H5.56a1.188,1.188,0,0,1-1.187-1.187ZM54.212,43.532v9.493a1.187,1.187,0,0,1-1.187,1.187H5.56a1.188,1.188,0,0,1-1.187-1.187V43.532A1.188,1.188,0,0,1,5.56,42.345H53.025a1.187,1.187,0,0,1,1.187,1.187Zm-3.56-3.56H7.933V37.6H50.652Zm3.56-15.426v9.493a1.187,1.187,0,0,1-1.187,1.187H5.56a1.188,1.188,0,0,1-1.187-1.187V24.546A1.188,1.188,0,0,1,5.56,23.359H53.025a1.187,1.187,0,0,1,1.187,1.187Zm-3.56-3.56H7.933V18.613H50.652Z" transform="translate(0 0)" fill="#fff"/>
      <path id="Trazado_602855" data-name="Trazado 602855" d="M9.56,13.12A3.56,3.56,0,1,0,6,9.56,3.56,3.56,0,0,0,9.56,13.12Zm0-4.747A1.187,1.187,0,1,1,8.373,9.56,1.187,1.187,0,0,1,9.56,8.373Z" transform="translate(0.747 0.747)" fill="#fff"/>
      <path id="Trazado_602856" data-name="Trazado 602856" d="M18.56,13.12A3.56,3.56,0,1,0,15,9.56,3.56,3.56,0,0,0,18.56,13.12Zm0-4.747A1.187,1.187,0,1,1,17.373,9.56,1.187,1.187,0,0,1,18.56,8.373Z" transform="translate(2.426 0.747)" fill="#fff"/>
      <path id="Trazado_602857" data-name="Trazado 602857" d="M29.187,10.373H45.8A1.187,1.187,0,1,0,45.8,8H29.187a1.187,1.187,0,1,0,0,2.373Z" transform="translate(4.852 1.12)" fill="#fff"/>
      <path id="Trazado_602858" data-name="Trazado 602858" d="M9.56,22a3.56,3.56,0,1,0,3.56,3.56A3.56,3.56,0,0,0,9.56,22Zm0,4.747a1.187,1.187,0,1,1,1.187-1.187A1.187,1.187,0,0,1,9.56,26.747Z" transform="translate(0.747 3.733)" fill="#fff"/>
      <path id="Trazado_602859" data-name="Trazado 602859" d="M18.56,22a3.56,3.56,0,1,0,3.56,3.56A3.56,3.56,0,0,0,18.56,22Zm0,4.747a1.187,1.187,0,1,1,1.187-1.187A1.187,1.187,0,0,1,18.56,26.747Z" transform="translate(2.426 3.733)" fill="#fff"/>
      <path id="Trazado_602860" data-name="Trazado 602860" d="M45.8,24H29.187a1.187,1.187,0,1,0,0,2.373H45.8A1.187,1.187,0,1,0,45.8,24Z" transform="translate(4.852 4.106)" fill="#fff"/>
      <path id="Trazado_602861" data-name="Trazado 602861" d="M9.56,38a3.56,3.56,0,1,0,3.56,3.56A3.56,3.56,0,0,0,9.56,38Zm0,4.747a1.187,1.187,0,1,1,1.187-1.187A1.187,1.187,0,0,1,9.56,42.747Z" transform="translate(0.747 6.719)" fill="#fff"/>
      <path id="Trazado_602862" data-name="Trazado 602862" d="M18.56,38a3.56,3.56,0,1,0,3.56,3.56A3.56,3.56,0,0,0,18.56,38Zm0,4.747a1.187,1.187,0,1,1,1.187-1.187A1.187,1.187,0,0,1,18.56,42.747Z" transform="translate(2.426 6.719)" fill="#fff"/>
      <path id="Trazado_602863" data-name="Trazado 602863" d="M45.8,40H29.187a1.187,1.187,0,0,0,0,2.373H45.8A1.187,1.187,0,1,0,45.8,40Z" transform="translate(4.852 7.092)" fill="#fff"/>
    </g>
  </g>
</svg>
