<svg xmlns="http://www.w3.org/2000/svg" width="400" height="378" viewBox="0 0 400 378">
  <g id="Grupo_159407" data-name="Grupo 159407" transform="translate(-180 -6569)">
    <path id="Trazado_602917" data-name="Trazado 602917" d="M0,0H400V378H0Z" transform="translate(180 6569)" fill="#ff8e7c"/>
    <path id="Trazado_602919" data-name="Trazado 602919" d="M18.5,0h253a18.5,18.5,0,0,1,0,37H18.5a18.5,18.5,0,0,1,0-37Z" transform="translate(235 6839.2)" fill="#fff"/>
    <path id="Feature_One" data-name="Feature One" d="M18.292,14.474h-1.67V19H13.537V6.2h5.036a5.621,5.621,0,0,1,3.56,1.01,3.421,3.421,0,0,1,1.283,2.853,4.155,4.155,0,0,1-.541,2.213A3.837,3.837,0,0,1,21.183,13.7l2.672,5.167V19h-3.3ZM16.622,12.1h1.951a1.751,1.751,0,0,0,1.323-.463,1.788,1.788,0,0,0,.444-1.291,1.809,1.809,0,0,0-.448-1.3,1.735,1.735,0,0,0-1.318-.471H16.622Zm13.122,7.075A4.889,4.889,0,0,1,26.2,17.871a4.507,4.507,0,0,1-1.354-3.4v-.246a5.84,5.84,0,0,1,.541-2.575,3.955,3.955,0,0,1,1.578-1.727,4.763,4.763,0,0,1,2.461-.611,4.117,4.117,0,0,1,3.164,1.244,4.887,4.887,0,0,1,1.16,3.467v1.151H27.863a2.135,2.135,0,0,0,.694,1.257,2.066,2.066,0,0,0,1.389.457,2.662,2.662,0,0,0,2.2-.984l1.354,1.6a3.784,3.784,0,0,1-1.569,1.217A5.3,5.3,0,0,1,29.744,19.176ZM29.41,11.6q-1.3,0-1.547,1.723h2.988v-.229a1.467,1.467,0,0,0-.36-1.1A1.434,1.434,0,0,0,29.41,11.6Zm5.159,2.575a5.809,5.809,0,0,1,.976-3.56,3.211,3.211,0,0,1,2.725-1.3,2.731,2.731,0,0,1,2.145,1V5.5h2.971V19H40.721l-.149-1.02a2.8,2.8,0,0,1-2.32,1.2,3.205,3.205,0,0,1-2.689-1.3A5.993,5.993,0,0,1,34.569,14.175Zm2.962.185q0,2.531,1.477,2.531a1.458,1.458,0,0,0,1.406-.826V12.443a1.419,1.419,0,0,0-1.389-.844q-1.371,0-1.485,2.215Zm13.2,3.612a3.054,3.054,0,0,1-2.54,1.2,3,3,0,0,1-2.369-.91,3.826,3.826,0,0,1-.8-2.615V9.49h2.962v6.179a1.065,1.065,0,0,0,1.187,1.222,1.548,1.548,0,0,0,1.45-.729V9.49H53.6V19H50.82ZM57.939,9.49l.1,1.116a3.225,3.225,0,0,1,2.716-1.292,2.713,2.713,0,0,1,2.219.888,4.226,4.226,0,0,1,.76,2.672V19H60.76V13a1.6,1.6,0,0,0-.29-1.059,1.342,1.342,0,0,0-1.055-.338,1.413,1.413,0,0,0-1.292.686V19H55.162V9.49ZM65,14.175a5.809,5.809,0,0,1,.976-3.56,3.211,3.211,0,0,1,2.725-1.3,2.731,2.731,0,0,1,2.145,1V5.5h2.971V19H71.149L71,17.98a2.8,2.8,0,0,1-2.32,1.2,3.205,3.205,0,0,1-2.689-1.3A5.993,5.993,0,0,1,65,14.175Zm2.962.185q0,2.531,1.477,2.531a1.458,1.458,0,0,0,1.406-.826V12.443a1.419,1.419,0,0,0-1.389-.844q-1.371,0-1.485,2.215ZM80.852,19a3.344,3.344,0,0,1-.281-.853,2.754,2.754,0,0,1-2.285,1.028A3.374,3.374,0,0,1,76,18.363a2.588,2.588,0,0,1-.94-2.043A2.66,2.66,0,0,1,76.2,13.981a5.821,5.821,0,0,1,3.322-.791h.914v-.5q0-1.316-1.134-1.316a.927.927,0,0,0-1.055,1.042H75.289a2.655,2.655,0,0,1,1.173-2.239,4.931,4.931,0,0,1,2.993-.86,4.323,4.323,0,0,1,2.874.888,3.086,3.086,0,0,1,1.081,2.435v4.21a4.311,4.311,0,0,0,.4,2V19ZM79,17.066a1.652,1.652,0,0,0,.918-.237,1.487,1.487,0,0,0,.523-.536V14.772h-.861q-1.547,0-1.547,1.389a.848.848,0,0,0,.272.655A.986.986,0,0,0,79,17.066ZM87.769,9.49l.1,1.116a3.225,3.225,0,0,1,2.716-1.292A2.713,2.713,0,0,1,92.8,10.2a4.226,4.226,0,0,1,.76,2.672V19H90.59V13a1.6,1.6,0,0,0-.29-1.059,1.342,1.342,0,0,0-1.055-.338,1.413,1.413,0,0,0-1.292.686V19H84.992V9.49Zm11.452,7.4a1.317,1.317,0,0,0,.967-.338,1.241,1.241,0,0,0,.334-.945H103.3a3.288,3.288,0,0,1-1.121,2.566,4.168,4.168,0,0,1-2.887,1,4.22,4.22,0,0,1-3.27-1.3,5.125,5.125,0,0,1-1.2-3.6v-.123a5.792,5.792,0,0,1,.532-2.544,3.872,3.872,0,0,1,1.534-1.7,4.573,4.573,0,0,1,2.373-.593,4.116,4.116,0,0,1,2.944,1.028,3.647,3.647,0,0,1,1.09,2.786h-2.777a1.626,1.626,0,0,0-.36-1.134,1.244,1.244,0,0,0-.967-.4q-1.151,0-1.345,1.468a10.357,10.357,0,0,0-.062,1.283,4.068,4.068,0,0,0,.343,1.986A1.187,1.187,0,0,0,99.221,16.891ZM107.676,19h-2.971V9.49h2.971ZM104.53,7.038A1.322,1.322,0,0,1,104.987,6a1.943,1.943,0,0,1,2.373,0,1.322,1.322,0,0,1,.457,1.037,1.322,1.322,0,0,1-.457,1.037,1.943,1.943,0,0,1-2.373,0A1.322,1.322,0,0,1,104.53,7.038ZM114.857,19a3.344,3.344,0,0,1-.281-.853,2.754,2.754,0,0,1-2.285,1.028,3.374,3.374,0,0,1-2.285-.813,2.588,2.588,0,0,1-.94-2.043,2.66,2.66,0,0,1,1.143-2.338,5.821,5.821,0,0,1,3.322-.791h.914v-.5q0-1.316-1.134-1.316a.927.927,0,0,0-1.055,1.042h-2.962a2.655,2.655,0,0,1,1.173-2.239,4.931,4.931,0,0,1,2.993-.86,4.323,4.323,0,0,1,2.874.888,3.086,3.086,0,0,1,1.081,2.435v4.21a4.311,4.311,0,0,0,.4,2V19ZM113,17.066a1.652,1.652,0,0,0,.918-.237,1.487,1.487,0,0,0,.523-.536V14.772h-.861q-1.547,0-1.547,1.389a.848.848,0,0,0,.272.655A.986.986,0,0,0,113,17.066Zm10.16-2.892a5.809,5.809,0,0,1,.976-3.56,3.211,3.211,0,0,1,2.725-1.3,2.731,2.731,0,0,1,2.145,1V5.5h2.971V19h-2.663l-.149-1.02a2.8,2.8,0,0,1-2.32,1.2,3.205,3.205,0,0,1-2.689-1.3A5.993,5.993,0,0,1,123.163,14.175Zm2.962.185q0,2.531,1.477,2.531a1.458,1.458,0,0,0,1.406-.826V12.443a1.419,1.419,0,0,0-1.389-.844q-1.371,0-1.485,2.215Zm12.138,4.816a4.889,4.889,0,0,1-3.542-1.305,4.507,4.507,0,0,1-1.354-3.4v-.246a5.84,5.84,0,0,1,.541-2.575,3.955,3.955,0,0,1,1.578-1.727,4.763,4.763,0,0,1,2.461-.611,4.117,4.117,0,0,1,3.164,1.244,4.887,4.887,0,0,1,1.16,3.467v1.151h-5.889a2.135,2.135,0,0,0,.694,1.257,2.066,2.066,0,0,0,1.389.457,2.662,2.662,0,0,0,2.2-.984l1.354,1.6a3.784,3.784,0,0,1-1.569,1.217A5.3,5.3,0,0,1,138.262,19.176Zm-.334-7.576q-1.3,0-1.547,1.723h2.988v-.229a1.467,1.467,0,0,0-.36-1.1A1.434,1.434,0,0,0,137.928,11.6Zm14.994,4.729a.684.684,0,0,0-.4-.606,6.016,6.016,0,0,0-1.5-.475A6.853,6.853,0,0,1,149.2,14.6a3.062,3.062,0,0,1-1.1-.971,2.319,2.319,0,0,1-.378-1.31,2.628,2.628,0,0,1,1.081-2.158,4.453,4.453,0,0,1,2.83-.848,4.934,4.934,0,0,1,3.023.853,2.666,2.666,0,0,1,1.143,2.241h-2.971q0-1.143-1.2-1.143a1.194,1.194,0,0,0-.782.259.8.8,0,0,0-.316.646.737.737,0,0,0,.387.642,3.654,3.654,0,0,0,1.235.4,10.671,10.671,0,0,1,1.49.378,2.706,2.706,0,0,1,2.145,2.646,2.491,2.491,0,0,1-1.156,2.118,5.068,5.068,0,0,1-2.993.817,5.172,5.172,0,0,1-2.18-.439,3.645,3.645,0,0,1-1.494-1.2,2.707,2.707,0,0,1-.536-1.591h2.769a1.145,1.145,0,0,0,.439.962,1.808,1.808,0,0,0,1.081.3,1.422,1.422,0,0,0,.91-.246A.787.787,0,0,0,152.922,16.328Zm8.842,2.848a4.889,4.889,0,0,1-3.542-1.305,4.507,4.507,0,0,1-1.354-3.4v-.246a5.84,5.84,0,0,1,.541-2.575,3.955,3.955,0,0,1,1.578-1.727,4.763,4.763,0,0,1,2.461-.611,4.117,4.117,0,0,1,3.164,1.244,4.887,4.887,0,0,1,1.16,3.467v1.151h-5.889a2.135,2.135,0,0,0,.694,1.257,2.066,2.066,0,0,0,1.389.457,2.662,2.662,0,0,0,2.2-.984l1.354,1.6a3.784,3.784,0,0,1-1.569,1.217A5.3,5.3,0,0,1,161.764,19.176ZM161.43,11.6q-1.3,0-1.547,1.723h2.988v-.229a1.467,1.467,0,0,0-.36-1.1A1.434,1.434,0,0,0,161.43,11.6Zm11.285.571-.976-.07a1.752,1.752,0,0,0-1.793.879V19h-2.962V9.49h2.777l.1,1.222a2.294,2.294,0,0,1,2.083-1.4,2.888,2.888,0,0,1,.826.105Zm5.019,3.3,1.5-5.985h3.12l-3.1,9.51h-3.023l-3.1-9.51h3.129ZM186.365,19h-2.971V9.49h2.971ZM183.218,7.038A1.322,1.322,0,0,1,183.675,6a1.943,1.943,0,0,1,2.373,0,1.322,1.322,0,0,1,.457,1.037,1.322,1.322,0,0,1-.457,1.037,1.943,1.943,0,0,1-2.373,0A1.322,1.322,0,0,1,183.218,7.038Zm4.6,7.137a5.809,5.809,0,0,1,.976-3.56,3.211,3.211,0,0,1,2.725-1.3,2.731,2.731,0,0,1,2.145,1V5.5h2.971V19h-2.663l-.149-1.02a2.8,2.8,0,0,1-2.32,1.2,3.205,3.205,0,0,1-2.689-1.3A5.993,5.993,0,0,1,187.815,14.175Zm2.962.185q0,2.531,1.477,2.531a1.458,1.458,0,0,0,1.406-.826V12.443a1.419,1.419,0,0,0-1.389-.844q-1.371,0-1.485,2.215Zm7.163-.2a5.613,5.613,0,0,1,.554-2.536,3.96,3.96,0,0,1,1.591-1.709,4.791,4.791,0,0,1,2.435-.6,4.373,4.373,0,0,1,3.366,1.323,5.076,5.076,0,0,1,1.23,3.6v.105a4.925,4.925,0,0,1-1.235,3.529,4.384,4.384,0,0,1-3.344,1.305,4.434,4.434,0,0,1-3.261-1.217,4.761,4.761,0,0,1-1.327-3.3Zm2.962.185a3.538,3.538,0,0,0,.413,1.934,1.376,1.376,0,0,0,1.222.615q1.582,0,1.617-2.435v-.3q0-2.558-1.635-2.558-1.485,0-1.608,2.206Zm13.271-2.171-.976-.07a1.752,1.752,0,0,0-1.793.879V19h-2.962V9.49h2.777l.1,1.222a2.294,2.294,0,0,1,2.083-1.4,2.888,2.888,0,0,1,.826.105Zm5.669,7a4.889,4.889,0,0,1-3.542-1.305,4.507,4.507,0,0,1-1.354-3.4v-.246a5.84,5.84,0,0,1,.541-2.575,3.955,3.955,0,0,1,1.578-1.727,4.763,4.763,0,0,1,2.461-.611,4.117,4.117,0,0,1,3.164,1.244,4.887,4.887,0,0,1,1.16,3.467v1.151h-5.889a2.135,2.135,0,0,0,.694,1.257,2.066,2.066,0,0,0,1.389.457,2.662,2.662,0,0,0,2.2-.984l1.354,1.6a3.784,3.784,0,0,1-1.569,1.217A5.3,5.3,0,0,1,219.842,19.176Zm-.334-7.576q-1.3,0-1.547,1.723h2.988v-.229a1.467,1.467,0,0,0-.36-1.1A1.434,1.434,0,0,0,219.508,11.6Zm10.512,4.729a.684.684,0,0,0-.4-.606,6.016,6.016,0,0,0-1.5-.475,6.853,6.853,0,0,1-1.828-.646,3.062,3.062,0,0,1-1.1-.971,2.319,2.319,0,0,1-.378-1.31,2.628,2.628,0,0,1,1.081-2.158,4.453,4.453,0,0,1,2.83-.848,4.934,4.934,0,0,1,3.023.853,2.666,2.666,0,0,1,1.143,2.241h-2.971q0-1.143-1.2-1.143a1.194,1.194,0,0,0-.782.259.8.8,0,0,0-.316.646.737.737,0,0,0,.387.642,3.654,3.654,0,0,0,1.235.4,10.671,10.671,0,0,1,1.49.378,2.706,2.706,0,0,1,2.145,2.646,2.491,2.491,0,0,1-1.156,2.118,5.068,5.068,0,0,1-2.993.817,5.172,5.172,0,0,1-2.18-.439,3.645,3.645,0,0,1-1.494-1.2,2.707,2.707,0,0,1-.536-1.591h2.769a1.145,1.145,0,0,0,.439.962,1.808,1.808,0,0,0,1.081.3,1.422,1.422,0,0,0,.91-.246A.787.787,0,0,0,230.02,16.328Z" transform="translate(242 6845.2)" fill="#12263f"/>
    <g id="Trazado_602920" data-name="Trazado 602920" transform="translate(489.75 6844.2)" fill="#fff">
      <path d="M 14 27.5 C 10.39402008056641 27.5 7.003870010375977 26.09576034545898 4.454060077667236 23.54594039916992 C 1.904240012168884 20.99612998962402 0.5 17.60597991943359 0.5 14 C 0.5 10.39402008056641 1.904240012168884 7.003870010375977 4.454060077667236 4.454060077667236 C 7.003870010375977 1.904240012168884 10.39402008056641 0.5 14 0.5 C 17.60597991943359 0.5 20.99612998962402 1.904240012168884 23.54594039916992 4.454060077667236 C 26.09576034545898 7.003870010375977 27.5 10.39402008056641 27.5 14 C 27.5 17.60597991943359 26.09576034545898 20.99612998962402 23.54594039916992 23.54594039916992 C 20.99612998962402 26.09576034545898 17.60597991943359 27.5 14 27.5 Z" stroke="none"/>
      <path d="M 14 1 C 10.5275707244873 1 7.262990951538086 2.352239608764648 4.807609558105469 4.807609558105469 C 2.352239608764648 7.262990951538086 1 10.5275707244873 1 14 C 1 17.47241973876953 2.352239608764648 20.73701095581055 4.807609558105469 23.19239044189453 C 7.262990951538086 25.64776039123535 10.5275707244873 27 14 27 C 17.47241973876953 27 20.73701095581055 25.64776039123535 23.19239044189453 23.19239044189453 C 25.64776039123535 20.73701095581055 27 17.47241973876953 27 14 C 27 10.5275707244873 25.64776039123535 7.262990951538086 23.19239044189453 4.807609558105469 C 20.73701095581055 2.352239608764648 17.47241973876953 1 14 1 M 14 0 C 21.73197937011719 0 28 6.268009185791016 28 14 C 28 21.73197937011719 21.73197937011719 28 14 28 C 6.268009185791016 28 0 21.73197937011719 0 14 C 0 6.268009185791016 6.268009185791016 0 14 0 Z" stroke="none" fill="#707070"/>
    </g>
    <path id="Icon_ionic-ios-arrow-back" data-name="Icon ionic-ios-arrow-back" d="M1.94,5.9,6.2,1.437A.868.868,0,0,0,6.2.246a.782.782,0,0,0-1.139,0L.234,5.3A.871.871,0,0,0,.211,6.464l4.846,5.09a.783.783,0,0,0,1.139,0,.868.868,0,0,0,0-1.191Z" transform="translate(509.55 6854.201) rotate(90)" fill="#636363"/>
    <path id="Trazado_602918" data-name="Trazado 602918" d="M90.5,0C140.482,0,181,40.742,181,91s-40.518,91-90.5,91S0,141.258,0,91,40.518,0,90.5,0Z" transform="translate(290 6639)" fill="#ffe7e3"/>
    <path id="Trazado_601469" data-name="Trazado 601469" d="M43,44H73.046v7.512H43Z" transform="translate(357.871 6708.749)" fill="#ffeaa7"/>
    <path id="Trazado_601470" data-name="Trazado 601470" d="M43,32H73.046v7.511H43Z" transform="translate(357.871 6698.214)" fill="#ffeaa7"/>
    <path id="Trazado_601471" data-name="Trazado 601471" d="M45.634,48H77.557a3.767,3.767,0,0,1,3.756,3.756v7.511a3.767,3.767,0,0,1-3.756,3.756h-33.8A3.767,3.767,0,0,1,40,59.267V51.756A3.767,3.767,0,0,1,43.756,48Z" transform="translate(355.237 6712.26)" fill="#fcd770"/>
    <path id="Trazado_601472" data-name="Trazado 601472" d="M45.634,36H77.557a3.767,3.767,0,0,1,3.756,3.756v7.511a3.767,3.767,0,0,1-3.756,3.756h-33.8A3.767,3.767,0,0,1,40,47.267V39.756A3.767,3.767,0,0,1,43.756,36Z" transform="translate(355.237 6701.726)" fill="#fcd770"/>
    <path id="Trazado_601473" data-name="Trazado 601473" d="M40,35.267V27.756A3.767,3.767,0,0,1,43.756,24h33.8a3.767,3.767,0,0,1,3.756,3.756v7.511a3.767,3.767,0,0,1-3.756,3.756h-33.8A3.767,3.767,0,0,1,40,35.267Z" transform="translate(355.237 6691.191)" fill="#fcd770"/>
    <path id="Trazado_601474" data-name="Trazado 601474" d="M14,58H32.779v7.511H14Z" transform="translate(332.413 6721.039)" fill="#aab2bd"/>
    <path id="Trazado_601475" data-name="Trazado 601475" d="M65.848,52v7.511a3.767,3.767,0,0,1-3.756,3.756H5.756A3.767,3.767,0,0,1,2,59.512V52Z" transform="translate(321.878 6715.771)" fill="#ccd1d9"/>
    <path id="Trazado_601476" data-name="Trazado 601476" d="M2,66.046V39.756A3.767,3.767,0,0,1,5.756,36H62.092a3.767,3.767,0,0,1,3.756,3.756v26.29Z" transform="translate(321.878 6701.726)" fill="#69d6f4"/>
    <path id="Trazado_601477" data-name="Trazado 601477" d="M22,40H40.779V55.023H22Z" transform="translate(339.436 6705.237)" fill="#ff826e"/>
    <path id="Trazado_601478" data-name="Trazado 601478" d="M40.8,27.512a7.511,7.511,0,0,1,0,15.023H14.511a7.511,7.511,0,0,1,0-15.023,7.658,7.658,0,0,1,2.385.413,11.268,11.268,0,0,1,21.52,0A7.658,7.658,0,0,1,40.8,27.512Z" transform="translate(326.267 6687.68)" fill="#e6e9ed"/>
    <path id="Trazado_601479" data-name="Trazado 601479" d="M40.8,9.511a7.511,7.511,0,0,1,0,15.023H14.511a7.511,7.511,0,0,1,0-15.023,7.658,7.658,0,0,1,2.385.413,11.268,11.268,0,0,1,21.52,0A7.658,7.658,0,0,1,40.8,9.511Z" transform="translate(326.267 6671.878)" fill="#e6e9ed"/>
    <path id="Trazado_601480" data-name="Trazado 601480" d="M62.97,35H6.634A5.641,5.641,0,0,0,1,40.634v33.8a5.64,5.64,0,0,0,5.634,5.634h16.9v3.756H17.9V87.58H51.7V83.825H46.069V80.069h16.9A5.64,5.64,0,0,0,68.6,74.435v-33.8A5.641,5.641,0,0,0,62.97,35ZM6.634,38.756H62.97a1.88,1.88,0,0,1,1.878,1.878V65.046H4.756V40.634A1.88,1.88,0,0,1,6.634,38.756Zm35.68,45.069H27.29V80.069H42.313ZM62.97,76.313H6.634a1.88,1.88,0,0,1-1.878-1.878V68.8H64.848v5.634A1.88,1.88,0,0,1,62.97,76.313Z" transform="translate(321 6700.848)"/>
    <path id="Trazado_601481" data-name="Trazado 601481" d="M43.535,39H21V57.779H43.535ZM39.779,54.023H24.756V42.756H39.779Z" transform="translate(338.558 6704.359)"/>
    <path id="Trazado_601482" data-name="Trazado 601482" d="M5,39H8.756v3.756H5Z" transform="translate(324.512 6704.359)"/>
    <path id="Trazado_601483" data-name="Trazado 601483" d="M9,39H27.779v3.756H9Z" transform="translate(328.023 6704.359)"/>
    <path id="Trazado_601484" data-name="Trazado 601484" d="M5,43H31.29v3.756H5Z" transform="translate(324.512 6707.871)"/>
    <path id="Trazado_601485" data-name="Trazado 601485" d="M5,47H31.29v3.756H5Z" transform="translate(324.512 6711.382)"/>
    <path id="Trazado_601486" data-name="Trazado 601486" d="M43,51h3.756v3.756H43Z" transform="translate(357.871 6714.894)"/>
    <path id="Trazado_601487" data-name="Trazado 601487" d="M47,51h3.756v3.756H47Z" transform="translate(361.382 6714.894)"/>
    <path id="Trazado_601488" data-name="Trazado 601488" d="M43,39h3.756v3.756H43Z" transform="translate(357.871 6704.359)"/>
    <path id="Trazado_601489" data-name="Trazado 601489" d="M47,39h3.756v3.756H47Z" transform="translate(361.382 6704.359)"/>
    <path id="Trazado_601490" data-name="Trazado 601490" d="M113.039,55.458V47.947a5.64,5.64,0,0,0-5.634-5.634H92.382V21.657a5.641,5.641,0,0,0-5.634-5.634H50.874A9.3,9.3,0,0,0,40.459,8.6a13.154,13.154,0,0,0-23.849,0A9.384,9.384,0,1,0,15.389,27.29H26.657v7.647A13.058,13.058,0,0,0,16.61,42.4a9.384,9.384,0,1,0-1.221,18.689H41.68A9.384,9.384,0,1,0,40.459,42.4a13.048,13.048,0,0,0-10.047-7.466V27.29H41.68a9.407,9.407,0,0,0,9.2-7.511H86.749a1.88,1.88,0,0,1,1.878,1.878V42.313H73.6a5.641,5.641,0,0,0-5.634,5.634v7.511A5.641,5.641,0,0,0,73.6,61.092v3.756a5.641,5.641,0,0,0-5.634,5.634v7.511A5.641,5.641,0,0,0,73.6,83.626v3.756a5.641,5.641,0,0,0-5.634,5.634v7.511a5.641,5.641,0,0,0,5.634,5.634h33.8a5.641,5.641,0,0,0,5.634-5.634V93.016a5.64,5.64,0,0,0-5.634-5.634V83.626a5.64,5.64,0,0,0,5.634-5.634V70.481a5.641,5.641,0,0,0-5.634-5.634V61.092A5.641,5.641,0,0,0,113.039,55.458ZM37.505,45.168l.569,1.84,1.825-.614a5.5,5.5,0,0,1,1.78-.325,5.634,5.634,0,1,1,0,11.267H15.389a5.634,5.634,0,1,1,0-11.267,5.544,5.544,0,0,1,1.78.323l1.825.616.569-1.838a9.392,9.392,0,0,1,17.941,0ZM41.68,23.534H15.389a5.634,5.634,0,0,1,0-11.267,5.544,5.544,0,0,1,1.78.323l1.825.616.569-1.838a9.392,9.392,0,0,1,17.941,0l.569,1.84,1.825-.614a5.5,5.5,0,0,1,1.78-.325,5.634,5.634,0,1,1,0,11.267ZM71.726,55.458V47.947A1.88,1.88,0,0,1,73.6,46.069h33.8a1.88,1.88,0,0,1,1.878,1.878v7.511a1.88,1.88,0,0,1-1.878,1.878H73.6A1.88,1.88,0,0,1,71.726,55.458Zm37.557,37.557v7.511a1.88,1.88,0,0,1-1.878,1.878H73.6a1.88,1.88,0,0,1-1.878-1.878V93.016A1.88,1.88,0,0,1,73.6,91.138h33.8A1.88,1.88,0,0,1,109.283,93.016Zm-5.634-5.634H77.359V83.626h26.29Zm5.634-16.9v7.511a1.88,1.88,0,0,1-1.878,1.878H73.6a1.88,1.88,0,0,1-1.878-1.878V70.481A1.88,1.88,0,0,1,73.6,68.6h33.8A1.88,1.88,0,0,1,109.283,70.481Zm-5.634-5.634H77.359V61.092h26.29Z" transform="translate(325.389 6671)"/>
    <path id="Trazado_601491" data-name="Trazado 601491" d="M43,27h3.756v3.756H43Z" transform="translate(357.871 6693.825)"/>
    <path id="Trazado_601492" data-name="Trazado 601492" d="M47,27h3.756v3.756H47Z" transform="translate(361.382 6693.825)"/>
  </g>
</svg>
