<svg xmlns="http://www.w3.org/2000/svg" width="400" height="378" viewBox="0 0 400 378">
  <g id="Grupo_159407" data-name="Grupo 159407" transform="translate(-600 -6569)">
    <g id="Grupo_159377" data-name="Grupo 159377">
      <rect id="Rectángulo_45563" data-name="Rectángulo 45563" width="400" height="378" transform="translate(600 6569)" fill="#ff8e7c"/>
      <g id="Grupo_157781" data-name="Grupo 157781" transform="translate(413.75 3565)">
        <g id="Grupo_157752" data-name="Grupo 157752" transform="translate(-414.75 2027.2)">
          <rect id="Rectángulo_36139" data-name="Rectángulo 36139" width="290" height="37" rx="18.5" transform="translate(656 1247)" fill="#fff"/>
          <path id="Feature_One" data-name="Feature One" d="M59.578,14.474h-1.67V19H54.823V6.2h5.036a5.621,5.621,0,0,1,3.56,1.01A3.421,3.421,0,0,1,64.7,10.066a4.155,4.155,0,0,1-.541,2.213A3.837,3.837,0,0,1,62.469,13.7l2.672,5.167V19h-3.3ZM57.908,12.1h1.951a1.751,1.751,0,0,0,1.323-.463,1.788,1.788,0,0,0,.444-1.291,1.809,1.809,0,0,0-.448-1.3,1.735,1.735,0,0,0-1.318-.471H57.908ZM71.03,19.176a4.889,4.889,0,0,1-3.542-1.305,4.507,4.507,0,0,1-1.354-3.4v-.246a5.84,5.84,0,0,1,.541-2.575,3.955,3.955,0,0,1,1.578-1.727,4.763,4.763,0,0,1,2.461-.611,4.117,4.117,0,0,1,3.164,1.244,4.887,4.887,0,0,1,1.16,3.467v1.151H69.149a2.135,2.135,0,0,0,.694,1.257,2.066,2.066,0,0,0,1.389.457,2.662,2.662,0,0,0,2.2-.984l1.354,1.6a3.784,3.784,0,0,1-1.569,1.217A5.3,5.3,0,0,1,71.03,19.176ZM70.7,11.6q-1.3,0-1.547,1.723h2.988v-.229a1.467,1.467,0,0,0-.36-1.1A1.434,1.434,0,0,0,70.7,11.6Zm5.159,2.575a5.809,5.809,0,0,1,.976-3.56,3.211,3.211,0,0,1,2.725-1.3,2.731,2.731,0,0,1,2.145,1V5.5H84.67V19H82.007l-.149-1.02a2.8,2.8,0,0,1-2.32,1.2,3.205,3.205,0,0,1-2.689-1.3A5.993,5.993,0,0,1,75.855,14.175Zm2.962.185q0,2.531,1.477,2.531a1.458,1.458,0,0,0,1.406-.826V12.443a1.419,1.419,0,0,0-1.389-.844q-1.371,0-1.485,2.215Zm13.2,3.612a3.054,3.054,0,0,1-2.54,1.2,3,3,0,0,1-2.369-.91,3.826,3.826,0,0,1-.8-2.615V9.49h2.962v6.179a1.065,1.065,0,0,0,1.187,1.222,1.548,1.548,0,0,0,1.45-.729V9.49h2.979V19H92.106ZM99.225,9.49l.1,1.116a3.225,3.225,0,0,1,2.716-1.292,2.713,2.713,0,0,1,2.219.888,4.226,4.226,0,0,1,.76,2.672V19h-2.971V13a1.6,1.6,0,0,0-.29-1.059A1.342,1.342,0,0,0,100.7,11.6a1.413,1.413,0,0,0-1.292.686V19H96.448V9.49Zm7.058,4.685a5.809,5.809,0,0,1,.976-3.56,3.211,3.211,0,0,1,2.725-1.3,2.731,2.731,0,0,1,2.145,1V5.5H115.1V19h-2.663l-.149-1.02a2.8,2.8,0,0,1-2.32,1.2,3.205,3.205,0,0,1-2.689-1.3A5.993,5.993,0,0,1,106.283,14.175Zm2.962.185q0,2.531,1.477,2.531a1.458,1.458,0,0,0,1.406-.826V12.443a1.419,1.419,0,0,0-1.389-.844q-1.371,0-1.485,2.215ZM122.138,19a3.344,3.344,0,0,1-.281-.853,2.754,2.754,0,0,1-2.285,1.028,3.374,3.374,0,0,1-2.285-.813,2.588,2.588,0,0,1-.94-2.043,2.66,2.66,0,0,1,1.143-2.338,5.821,5.821,0,0,1,3.322-.791h.914v-.5q0-1.316-1.134-1.316a.927.927,0,0,0-1.055,1.042h-2.962a2.655,2.655,0,0,1,1.173-2.239,4.931,4.931,0,0,1,2.993-.86,4.323,4.323,0,0,1,2.874.888,3.086,3.086,0,0,1,1.081,2.435v4.21a4.311,4.311,0,0,0,.4,2V19Zm-1.854-1.934a1.652,1.652,0,0,0,.918-.237,1.487,1.487,0,0,0,.523-.536V14.772h-.861q-1.547,0-1.547,1.389a.848.848,0,0,0,.272.655A.986.986,0,0,0,120.284,17.066Zm8.771-7.576.1,1.116a3.225,3.225,0,0,1,2.716-1.292,2.713,2.713,0,0,1,2.219.888,4.226,4.226,0,0,1,.76,2.672V19h-2.971V13a1.6,1.6,0,0,0-.29-1.059,1.342,1.342,0,0,0-1.055-.338,1.413,1.413,0,0,0-1.292.686V19h-2.962V9.49Zm11.452,7.4a1.317,1.317,0,0,0,.967-.338,1.241,1.241,0,0,0,.334-.945h2.777a3.288,3.288,0,0,1-1.121,2.566,4.168,4.168,0,0,1-2.887,1,4.22,4.22,0,0,1-3.27-1.3,5.125,5.125,0,0,1-1.2-3.6v-.123a5.792,5.792,0,0,1,.532-2.544,3.872,3.872,0,0,1,1.534-1.7,4.573,4.573,0,0,1,2.373-.593,4.116,4.116,0,0,1,2.944,1.028,3.647,3.647,0,0,1,1.09,2.786h-2.777a1.626,1.626,0,0,0-.36-1.134,1.244,1.244,0,0,0-.967-.4q-1.151,0-1.345,1.468a10.357,10.357,0,0,0-.062,1.283,4.068,4.068,0,0,0,.343,1.986A1.187,1.187,0,0,0,140.507,16.891ZM148.962,19h-2.971V9.49h2.971ZM145.816,7.038A1.322,1.322,0,0,1,146.273,6a1.943,1.943,0,0,1,2.373,0,1.322,1.322,0,0,1,.457,1.037,1.322,1.322,0,0,1-.457,1.037,1.943,1.943,0,0,1-2.373,0A1.322,1.322,0,0,1,145.816,7.038ZM156.143,19a3.344,3.344,0,0,1-.281-.853,2.754,2.754,0,0,1-2.285,1.028,3.374,3.374,0,0,1-2.285-.813,2.588,2.588,0,0,1-.94-2.043,2.66,2.66,0,0,1,1.143-2.338,5.821,5.821,0,0,1,3.322-.791h.914v-.5q0-1.316-1.134-1.316a.927.927,0,0,0-1.055,1.042H150.58a2.655,2.655,0,0,1,1.173-2.239,4.931,4.931,0,0,1,2.993-.86,4.323,4.323,0,0,1,2.874.888,3.086,3.086,0,0,1,1.081,2.435v4.21a4.311,4.311,0,0,0,.4,2V19Zm-1.854-1.934a1.652,1.652,0,0,0,.918-.237,1.487,1.487,0,0,0,.523-.536V14.772h-.861q-1.547,0-1.547,1.389a.848.848,0,0,0,.272.655A.986.986,0,0,0,154.289,17.066Zm10.16-2.892a5.809,5.809,0,0,1,.976-3.56,3.211,3.211,0,0,1,2.725-1.3,2.731,2.731,0,0,1,2.145,1V5.5h2.971V19H170.6l-.149-1.02a2.8,2.8,0,0,1-2.32,1.2,3.205,3.205,0,0,1-2.689-1.3A5.993,5.993,0,0,1,164.449,14.175Zm2.962.185q0,2.531,1.477,2.531a1.458,1.458,0,0,0,1.406-.826V12.443A1.419,1.419,0,0,0,168.9,11.6q-1.371,0-1.485,2.215Zm12.138,4.816a4.889,4.889,0,0,1-3.542-1.305,4.507,4.507,0,0,1-1.354-3.4v-.246a5.84,5.84,0,0,1,.541-2.575,3.955,3.955,0,0,1,1.578-1.727,4.763,4.763,0,0,1,2.461-.611,4.117,4.117,0,0,1,3.164,1.244,4.887,4.887,0,0,1,1.16,3.467v1.151h-5.889a2.135,2.135,0,0,0,.694,1.257,2.066,2.066,0,0,0,1.389.457,2.662,2.662,0,0,0,2.2-.984l1.354,1.6a3.784,3.784,0,0,1-1.569,1.217A5.3,5.3,0,0,1,179.548,19.176Zm-.334-7.576q-1.3,0-1.547,1.723h2.988v-.229a1.467,1.467,0,0,0-.36-1.1A1.434,1.434,0,0,0,179.214,11.6Zm15.768.571-.976-.07a1.752,1.752,0,0,0-1.793.879V19h-2.962V9.49h2.777l.1,1.222a2.294,2.294,0,0,1,2.083-1.4,2.888,2.888,0,0,1,.826.105Zm5.669,7a4.889,4.889,0,0,1-3.542-1.305,4.507,4.507,0,0,1-1.354-3.4v-.246a5.84,5.84,0,0,1,.541-2.575,3.955,3.955,0,0,1,1.578-1.727,4.763,4.763,0,0,1,2.461-.611,4.117,4.117,0,0,1,3.164,1.244,4.887,4.887,0,0,1,1.16,3.467v1.151H198.77a2.135,2.135,0,0,0,.694,1.257,2.066,2.066,0,0,0,1.389.457,2.662,2.662,0,0,0,2.2-.984l1.354,1.6a3.784,3.784,0,0,1-1.569,1.217A5.3,5.3,0,0,1,200.651,19.176Zm-.334-7.576q-1.3,0-1.547,1.723h2.988v-.229a1.467,1.467,0,0,0-.36-1.1A1.434,1.434,0,0,0,200.317,11.6Zm5.159,2.575a5.809,5.809,0,0,1,.976-3.56,3.211,3.211,0,0,1,2.725-1.3,2.731,2.731,0,0,1,2.145,1V5.5h2.971V19h-2.663l-.149-1.02a2.8,2.8,0,0,1-2.32,1.2,3.205,3.205,0,0,1-2.689-1.3A5.993,5.993,0,0,1,205.476,14.175Zm2.962.185q0,2.531,1.477,2.531a1.458,1.458,0,0,0,1.406-.826V12.443a1.419,1.419,0,0,0-1.389-.844q-1.371,0-1.485,2.215Z" transform="translate(667 1253)" fill="#12263f"/>
        </g>
        <g id="Elipse_5562" data-name="Elipse 5562" transform="translate(496 3279.2)" fill="#fff" stroke="#707070" stroke-width="1">
          <circle cx="14" cy="14" r="14" stroke="none"/>
          <circle cx="14" cy="14" r="13.5" fill="none"/>
        </g>
        <path id="Icon_ionic-ios-arrow-back" data-name="Icon ionic-ios-arrow-back" d="M1.94,5.9,6.2,1.437A.868.868,0,0,0,6.2.246a.782.782,0,0,0-1.139,0L.234,5.3A.871.871,0,0,0,.211,6.464l4.846,5.09a.783.783,0,0,0,1.139,0,.868.868,0,0,0,0-1.191Z" transform="translate(515.8 3289.201) rotate(90)" fill="#636363"/>
      </g>
      <ellipse id="Elipse_5569" data-name="Elipse 5569" cx="90.5" cy="91" rx="90.5" ry="91" transform="translate(710 6639)" fill="#ffe7e3"/>
      <g id="Grupo_157799" data-name="Grupo 157799" transform="translate(744 6673)">
        <g id="Grupo_157810" data-name="Grupo 157810" transform="translate(2.799 2.799)">
          <g id="Grupo_157799-2" data-name="Grupo 157799" transform="translate(30.284)">
            <path id="Trazado_601493" data-name="Trazado 601493" d="M56.924,81.174a39.531,39.531,0,0,1-31.04-15.007,10.635,10.635,0,0,0,2.249-6.586h1.8A5.4,5.4,0,0,0,32.7,49.54a21.266,21.266,0,0,0,4.229-7.378l.2-.576h-3.6l1.907-2.879a9.985,9.985,0,0,0,.63-10.041l-.738-1.476a21.491,21.491,0,0,1-11.894,3.6H18.83A39.59,39.59,0,1,1,56.924,81.174Z" transform="translate(-18.83 -2)" fill="#69d6f4"/>
          </g>
          <g id="Grupo_157801" data-name="Grupo 157801" transform="translate(68.378 79.174)">
            <ellipse id="Elipse_5571" data-name="Elipse 5571" cx="3.5" cy="4" rx="3.5" ry="4" transform="translate(-0.177 -0.41)" fill="#ef7385"/>
          </g>
          <g id="Grupo_157802" data-name="Grupo 157802" transform="translate(0 73.776)">
            <path id="Trazado_601495" data-name="Trazado 601495" d="M2,64.593A21.225,21.225,0,0,1,17.619,44.134L21.794,43l.378.2a15.322,15.322,0,0,0,13.64,0l.378-.2,4.175,1.134A21.225,21.225,0,0,1,55.982,64.593a8.97,8.97,0,0,1-9,9h-1.8V53.8a1.8,1.8,0,0,0-1.8-1.8H14.6a1.8,1.8,0,0,0-1.8,1.8V73.59H11a8.97,8.97,0,0,1-9-9Z" transform="translate(-2 -43)" fill="#fcd770"/>
          </g>
          <g id="Grupo_157803" data-name="Grupo 157803" transform="translate(10.796 100.767)">
            <path id="Trazado_601496" data-name="Trazado 601496" d="M40.389,61.6v1.8a1.8,1.8,0,0,1-1.8,1.8H9.8A1.8,1.8,0,0,1,8,63.4V58H40.389Z" transform="translate(-8 -58)" fill="#aab2bd"/>
          </g>
          <g id="Grupo_157804" data-name="Grupo 157804" transform="translate(10.796 82.773)">
            <path id="Trazado_601497" data-name="Trazado 601497" d="M40.389,58.8v7.2H8V49.8A1.8,1.8,0,0,1,9.8,48H38.59a1.8,1.8,0,0,1,1.8,1.8Z" transform="translate(-8 -48)" fill="#ccd1d9"/>
          </g>
          <g id="Grupo_157805" data-name="Grupo 157805" transform="translate(7.198 25.192)">
            <path id="Trazado_601498" data-name="Trazado 601498" d="M47.189,30.971a21.266,21.266,0,0,1-4.229,7.378,5.555,5.555,0,0,0-2.771-.756h-1.8a7.2,7.2,0,0,0-7.2-7.2H18.6a7.911,7.911,0,0,0-5.4,7.2H11.4a5.394,5.394,0,0,0-4.157,1.943l-.522-1.6A13.557,13.557,0,0,1,6,33.526,13.946,13.946,0,0,1,19.927,19.6H33.693A21.491,21.491,0,0,0,45.587,16l.738,1.476a9.985,9.985,0,0,1-.63,10.041L43.788,30.4h3.6Z" transform="translate(-6 -16)" fill="#656d78"/>
          </g>
          <g id="Grupo_157806" data-name="Grupo 157806" transform="translate(39.587 46.785)">
            <path id="Trazado_601499" data-name="Trazado 601499" d="M28.571,28.756A5.4,5.4,0,0,1,25.8,38.8H24V28h1.8A5.555,5.555,0,0,1,28.571,28.756Z" transform="translate(-24 -28)" fill="#f0d0b4"/>
          </g>
          <g id="Grupo_157807" data-name="Grupo 157807" transform="translate(19.794 67.658)">
            <path id="Trazado_601500" data-name="Trazado 601500" d="M25.866,39.6,27.4,45.718l-.378.2a15.322,15.322,0,0,1-13.64,0l-.378-.2L14.53,39.6a10.633,10.633,0,0,0,3.869.72H22A10.633,10.633,0,0,0,25.866,39.6Z" transform="translate(-13 -39.6)" fill="#f0d0b4"/>
          </g>
          <g id="Grupo_157808" data-name="Grupo 157808" transform="translate(14.395 39.587)">
            <path id="Trazado_601501" data-name="Trazado 601501" d="M10,31.2A7.911,7.911,0,0,1,15.4,24h12.6a7.2,7.2,0,0,1,7.2,7.2v10.8a10.635,10.635,0,0,1-2.249,6.586,10.758,10.758,0,0,1-4.678,3.491,10.633,10.633,0,0,1-3.869.72H20.8a10.633,10.633,0,0,1-3.869-.72A10.8,10.8,0,0,1,10,41.994V31.2Z" transform="translate(-10 -24)" fill="#f0d0b4"/>
          </g>
          <g id="Grupo_157809" data-name="Grupo 157809" transform="translate(7.198 46.785)">
            <path id="Trazado_601502" data-name="Trazado 601502" d="M13.2,28V38.8H11.4a5.4,5.4,0,1,1,0-10.8Z" transform="translate(-6 -28)" fill="#f0d0b4"/>
          </g>
          <g id="Rectángulo_45568" data-name="Rectángulo 45568" transform="translate(59.482 90.764)" fill="#fff" stroke="#000" stroke-width="4">
            <rect width="26" height="17" stroke="none"/>
            <rect x="2" y="2" width="22" height="13" fill="none"/>
          </g>
        </g>
        <g id="Grupo_157811" data-name="Grupo 157811" transform="translate(1 1)">
          <circle id="Elipse_5572" data-name="Elipse 5572" cx="1.5" cy="1.5" r="1.5" transform="translate(22 50.563)"/>
          <ellipse id="Elipse_5573" data-name="Elipse 5573" cx="2" cy="1.5" rx="2" ry="1.5" transform="translate(32 50.563)"/>
          <path id="Trazado_601503" data-name="Trazado 601503" d="M23.712,33.933a4.024,4.024,0,0,1-7.2,0l-.189-.38-3.219,1.61.189.38a7.623,7.623,0,0,0,13.636,0l.189-.38L23.9,33.552Z" transform="translate(8.678 25.022)"/>
          <path id="Trazado_601504" data-name="Trazado 601504" d="M0,0H3.6V6.489H0Z" transform="matrix(0.832, -0.555, 0.555, 0.832, 23.705, 42.374)"/>
          <path id="Trazado_601505" data-name="Trazado 601505" d="M0,0H3.6V6.489H0Z" transform="matrix(0.832, -0.555, 0.555, 0.832, 30.903, 42.372)"/>
          <path id="Trazado_601506" data-name="Trazado 601506" d="M59.473,45.448l2.588-2.5a19.2,19.2,0,0,0-27.779,0l2.588,2.5a15.593,15.593,0,0,1,22.6,0Z" transform="translate(25.605 27.779)"/>
          <path id="Trazado_601507" data-name="Trazado 601507" d="M54.4,45.25a10.8,10.8,0,0,0-17.17,0L40,47.544a7.2,7.2,0,0,1,11.622,0Z" transform="translate(27.962 30.976)"/>
          <path id="Trazado_601508" data-name="Trazado 601508" d="M39,50.4A5.4,5.4,0,1,0,44.4,45,5.4,5.4,0,0,0,39,50.4Zm7.2,0a1.8,1.8,0,1,1-1.8-1.8A1.8,1.8,0,0,1,46.2,50.4Z" transform="translate(29.378 34.174)"/>
          <path id="Trazado_601510" data-name="Trazado 601510" d="M71.177,1a41.518,41.518,0,0,0-39.4,28.791H23.93A15.736,15.736,0,0,0,9,50.5l.257.77A7.132,7.132,0,0,0,8.2,54.982a7.2,7.2,0,0,0,7.2,7.2h.144a12.614,12.614,0,0,0,6.478,9.285L21.1,75.116l-3.154.86A23.054,23.054,0,0,0,1,98.168a10.807,10.807,0,0,0,10.8,10.8,3.6,3.6,0,0,0,3.6,3.6H44.186a3.6,3.6,0,0,0,3.6-3.6,10.807,10.807,0,0,0,10.8-10.8,23.054,23.054,0,0,0-16.95-22.192l-3.153-.86-.914-3.651a12.689,12.689,0,0,0,2.51-1.8A41.291,41.291,0,0,0,58.009,81.633l1.146-3.412A37.719,37.719,0,0,1,42.388,66.833a12.5,12.5,0,0,0,1.655-4.653H57.9c.446,1.44.925,2.865,1.474,4.257L62.72,65.12c-.38-.966-.729-1.949-1.056-2.94h41.66A37.812,37.812,0,0,1,90.071,75.12l1.8,3.113A41.391,41.391,0,0,0,71.177,1ZM87.312,40.587a67.706,67.706,0,0,0-1.853-14.4h19.808a37.487,37.487,0,0,1,3.608,14.4Zm-36.165,0,.05-.077a11.772,11.772,0,0,0,1.985-6.555,11.9,11.9,0,0,0-1.247-5.287L50.7,26.192h6.2a67.705,67.705,0,0,0-1.853,14.4Zm-3.363,14.4a3.6,3.6,0,0,1-3.6,3.6v-7.2A3.6,3.6,0,0,1,47.785,54.982ZM60.625,26.192h21.1a63.351,63.351,0,0,1,1.985,14.4H58.642a63.254,63.254,0,0,1,1.983-14.4Zm1.063-3.6A50.468,50.468,0,0,1,71.177,5.421a50.468,50.468,0,0,1,9.488,17.172Zm41.615,0H84.471A54.888,54.888,0,0,0,75.4,4.851,37.791,37.791,0,0,1,103.3,22.593ZM66.938,4.869a54.891,54.891,0,0,0-9.055,17.724H39.022A37.983,37.983,0,0,1,66.938,4.869ZM37.03,26.192H49.039l-.453.3a19.573,19.573,0,0,1-10.886,3.3H35.565a36.82,36.82,0,0,1,1.465-3.6ZM11.8,54.982a3.6,3.6,0,0,1,3.6-3.6v7.2A3.6,3.6,0,0,1,11.8,54.982Zm3.6,53.982v-3.6H44.189v3.6Zm0-7.2v-14.4H44.186l0,14.4ZM40.684,79.449a19.447,19.447,0,0,1,14.3,18.719,7.2,7.2,0,0,1-7.2,7.2v-7.2h3.6v-3.6h-3.6v-7.2a3.6,3.6,0,0,0-3.6-3.6H15.4a3.6,3.6,0,0,0-3.6,3.6v7.2H8.2v3.6h3.6v7.2a7.2,7.2,0,0,1-7.2-7.2A19.448,19.448,0,0,1,18.9,79.449l3.53-.963a16.909,16.909,0,0,0,14.728,0Zm-5.807-3.9a13.7,13.7,0,0,1-10.174,0l.711-2.841a12.53,12.53,0,0,0,2.577.268h3.6a12.53,12.53,0,0,0,2.577-.268ZM31.59,69.378h-3.6a9.007,9.007,0,0,1-9-9v-10.5a6.092,6.092,0,0,1,4.167-5.783l-1.139-3.412a9.659,9.659,0,0,0-6.372,7.1H15.4a7.126,7.126,0,0,0-3.176.77A12.005,12.005,0,0,1,23.93,33.389H37.7a23.148,23.148,0,0,0,11.144-2.847,8.271,8.271,0,0,1,.743,3.412,8.183,8.183,0,0,1-1.38,4.558l-3.782,5.674h4.365a19.673,19.673,0,0,1-2.4,3.98,7.124,7.124,0,0,0-2.206-.381h-3.6v12.6a9.007,9.007,0,0,1-9,9Zm18.793-10.8a7.053,7.053,0,0,0-.939-8.479,23.147,23.147,0,0,0,3.2-5.916h2.379a67.456,67.456,0,0,0,1.873,14.4Zm8.238-14.4H83.715a63.593,63.593,0,0,1-1.988,14.4H60.611A63.406,63.406,0,0,1,58.621,44.186Zm26.809,14.4a67.594,67.594,0,0,0,1.882-14.4H108.9a37.712,37.712,0,0,1-3.62,14.4Z" transform="translate(-1 -1)"/>
          <path id="Trazado_601511" data-name="Trazado 601511" d="M30.392,4.6V1A23.419,23.419,0,0,0,7,24.392h3.6A19.817,19.817,0,0,1,30.392,4.6Z" transform="translate(3.796 -1)"/>
          <path id="Trazado_601512" data-name="Trazado 601512" d="M14.6,21.195a12.612,12.612,0,0,1,12.6-12.6V5A16.212,16.212,0,0,0,11,21.195Z" transform="translate(6.994 2.198)"/>
        </g>
      </g>
    </g>
  </g>
</svg>
