<svg id="Grupo_159411" data-name="Grupo 159411" xmlns="http://www.w3.org/2000/svg" width="820" height="502" viewBox="0 0 820 502">
  <path id="Trazado_601046" data-name="Trazado 601046" d="M9.308,0H810.692C815.833,0,820,4.477,820,10V502H0V10C0,4.477,4.167,0,9.308,0Z" fill="#fff"/>
  <g id="Grupo_159410" data-name="Grupo 159410">
    <g id="Grupo_20904" data-name="Grupo 20904" transform="translate(187.481 53)">
      <path id="Trazado_4472" data-name="Trazado 4472" d="M1516.388,371.25l109.19-1.106L1619.917,345Z" transform="translate(-1317.017 -171.879)" fill="#1565c0"/>
      <path id="Trazado_4473" data-name="Trazado 4473" d="M1516.388,356.778l103.8-26.122L1605.819,306Z" transform="translate(-1317.017 -157.407)" fill="#039be5"/>
      <g id="Grupo_20906" data-name="Grupo 20906" transform="translate(195.106)">
        <g id="Grupo_20904-2" data-name="Grupo 20904" transform="translate(3.007 1.617)">
          <path id="Trazado_4474" data-name="Trazado 4474" d="M1515.646,470.691a1.258,1.258,0,0,1-1.258-1.258V73.567a1.258,1.258,0,0,1,2.516,0V469.433A1.258,1.258,0,0,1,1515.646,470.691Z" transform="translate(-1514.388 -72.309)" fill="#00104e"/>
        </g>
        <g id="Grupo_20905" data-name="Grupo 20905" transform="translate(0)">
          <path id="Trazado_4475" data-name="Trazado 4475" d="M1509.607,77.624l4.265-4.267,4.265,4.267V74l-4.265-4.265L1509.607,74Z" transform="translate(-1509.607 -69.737)" fill="#00104e"/>
        </g>
      </g>
      <g id="Grupo_20910" data-name="Grupo 20910" transform="translate(0 195.106)">
        <g id="Grupo_20907" data-name="Grupo 20907" transform="translate(1.618 3.007)">
          <path id="Trazado_4476" data-name="Trazado 4476" d="M1596.209,387.253H1203.218a1.258,1.258,0,1,1,0-2.516h392.991a1.258,1.258,0,0,1,0,2.516Z" transform="translate(-1201.96 -384.737)" fill="#00104e"/>
        </g>
        <g id="Grupo_20908" data-name="Grupo 20908" transform="translate(390.856)">
          <path id="Trazado_4477" data-name="Trazado 4477" d="M1820.849,379.956l4.267,4.265-4.267,4.265h3.622l4.265-4.265-4.265-4.265Z" transform="translate(-1820.849 -379.956)" fill="#00104e"/>
        </g>
        <g id="Grupo_20909" data-name="Grupo 20909">
          <path id="Trazado_4478" data-name="Trazado 4478" d="M1207.274,379.956l-4.268,4.265,4.268,4.265h-3.621l-4.265-4.265,4.265-4.265Z" transform="translate(-1199.388 -379.956)" fill="#00104e"/>
        </g>
      </g>
      <g id="Grupo_20913" data-name="Grupo 20913" transform="translate(130.259 116.551)">
        <g id="Grupo_20911" data-name="Grupo 20911" transform="translate(0)">
          <path id="Trazado_4479" data-name="Trazado 4479" d="M1480.4,447.158a1.572,1.572,0,0,1-.1-3.141c.52-.036,52.312-3.945,81.952-38.144,15.581-17.978,22.432-41.184,20.36-68.975-4.1-55.02-49.167-79.371-89.264-78.686-40.056.671-81.459,25.421-83.7,79.195,1.27,28.409,14.4,50.371,36.985,61.841,23.643,12.01,54.163,10.348,75.945-4.134,18.974-12.616,28.455-32.845,26.7-56.962-2.278-31.24-31.791-46.889-58.37-45.765-21.222.9-45.867,13.229-45.481,45,.2,16.233,7.316,28.3,20.047,33.987,13.339,5.955,30.609,3.636,41.064-5.512,8.018-7.016,10.667-16.92,7.465-27.9-6.789-14.612-17.021-15-22.523-13.923-7.8,1.524-13.851,7.479-14.052,11.785a1.572,1.572,0,1,1-3.141-.146c.292-6.282,7.889-13.026,16.59-14.725,5.169-1.009,18.053-1.492,26.03,15.8a1.444,1.444,0,0,1,.081.214c3.619,12.269.644,23.374-8.377,31.267-11.333,9.917-30.013,12.447-44.417,6.016-13.916-6.213-21.7-19.289-21.909-36.82-.177-14.626,4.889-26.918,14.653-35.547,8.584-7.586,20.6-12.074,33.839-12.636,28.078-1.19,59.219,15.462,61.64,48.678,1.845,25.3-8.132,46.538-28.091,59.809-22.694,15.091-54.487,16.827-79.11,4.319-23.655-12.016-37.4-34.948-38.7-64.574,0-.045,0-.089,0-.134,1.03-25.154,10.8-46.312,28.248-61.186,15.521-13.228,36.309-20.719,58.539-21.091,22.754-.377,44.415,6.665,61.026,19.84,18.651,14.794,29.518,36.148,31.426,61.755,2.137,28.665-4.974,52.649-21.134,71.285-15.965,18.412-37.984,28.091-53.644,32.967a145.57,145.57,0,0,1-30.457,6.238C1480.469,447.157,1480.434,447.158,1480.4,447.158Z" transform="translate(-1406.5 -255.054)" fill="#ffa726"/>
        </g>
        <g id="Grupo_20912" data-name="Grupo 20912" transform="matrix(-0.07, 0.998, -0.998, -0.07, 87.555, 181.41)">
          <path id="Trazado_4480" data-name="Trazado 4480" d="M.391,1.434a.967.967,0,0,1,1.354.2l8.82,11.892L17.614.509a.968.968,0,1,1,1.7.921L11.545,15.788a.969.969,0,0,1-1.63.116L.191,2.79A.984.984,0,0,1,0,2.283.973.973,0,0,1,.391,1.434Z" transform="translate(0 0)" fill="#ffa726"/>
        </g>
      </g>
      <g id="Grupo_20917" data-name="Grupo 20917" transform="translate(198.812 128.769)">
        <g id="Grupo_20914" data-name="Grupo 20914" transform="translate(0 67.947)">
          <path id="Trazado_4481" data-name="Trazado 4481" d="M1516.129,385.65a.629.629,0,0,1-.313-1.174l3.274-1.877a.629.629,0,0,1,.625,1.091l-3.274,1.877A.623.623,0,0,1,1516.129,385.65Z" transform="translate(-1515.5 -382.516)" fill="#00104e"/>
        </g>
        <g id="Grupo_20915" data-name="Grupo 20915" transform="translate(10.052 5.763)">
          <path id="Trazado_4482" data-name="Trazado 4482" d="M1532.112,343.2a.629.629,0,0,1-.313-1.175l6.779-3.886a.629.629,0,0,1,.625,1.091l-6.779,3.887A.629.629,0,0,1,1532.112,343.2Zm13.556-7.773a.629.629,0,0,1-.313-1.175l6.778-3.886a.629.629,0,1,1,.626,1.091l-6.779,3.887A.622.622,0,0,1,1545.668,335.426Zm13.556-7.773a.629.629,0,0,1-.313-1.175l6.778-3.886a.629.629,0,0,1,.625,1.091l-6.778,3.887A.623.623,0,0,1,1559.224,327.653Zm13.556-7.773a.629.629,0,0,1-.314-1.174l6.779-3.887a.629.629,0,0,1,.625,1.091l-6.778,3.887A.625.625,0,0,1,1572.78,319.88Zm13.555-7.773a.629.629,0,0,1-.313-1.174l6.779-3.887a.629.629,0,0,1,.625,1.091l-6.779,3.887A.623.623,0,0,1,1586.335,312.107Zm13.557-7.773a.629.629,0,0,1-.313-1.175l6.777-3.886a.629.629,0,1,1,.625,1.091l-6.778,3.887A.621.621,0,0,1,1599.891,304.334Zm13.556-7.773a.629.629,0,0,1-.313-1.175l6.777-3.886a.629.629,0,0,1,.625,1.092l-6.777,3.886A.623.623,0,0,1,1613.448,296.561ZM1627,288.788a.629.629,0,0,1-.313-1.174l6.778-3.887a.629.629,0,0,1,.625,1.092l-6.778,3.886A.623.623,0,0,1,1627,288.788Z" transform="translate(-1531.482 -283.644)" fill="#00104e"/>
        </g>
        <g id="Grupo_20916" data-name="Grupo 20916" transform="translate(118.498)">
          <path id="Trazado_4483" data-name="Trazado 4483" d="M1704.542,277.615a.629.629,0,0,1-.313-1.174l3.273-1.877a.629.629,0,0,1,.625,1.092l-3.274,1.877A.622.622,0,0,1,1704.542,277.615Z" transform="translate(-1703.912 -274.48)" fill="#00104e"/>
        </g>
      </g>
      <g id="Grupo_20921" data-name="Grupo 20921" transform="translate(198.812 163.687)">
        <g id="Grupo_20918" data-name="Grupo 20918" transform="translate(0 33.996)">
          <path id="Trazado_4484" data-name="Trazado 4484" d="M1516.128,386.221a.629.629,0,0,1-.151-1.24l3.662-.91a.629.629,0,1,1,.3,1.221l-3.662.91A.668.668,0,0,1,1516.128,386.221Z" transform="translate(-1515.499 -384.053)" fill="#00104e"/>
        </g>
        <g id="Grupo_20919" data-name="Grupo 20919" transform="translate(10.675 2.651)">
          <path id="Trazado_4485" data-name="Trazado 4485" d="M1533.1,365.076a.629.629,0,0,1-.152-1.24l7.013-1.741a.629.629,0,0,1,.3,1.221l-7.013,1.742A.635.635,0,0,1,1533.1,365.076Zm14.025-3.482a.629.629,0,0,1-.151-1.24l7.012-1.741a.629.629,0,1,1,.3,1.221l-7.012,1.741A.634.634,0,0,1,1547.127,361.594Zm14.025-3.483a.629.629,0,0,1-.151-1.24l7.013-1.742a.629.629,0,0,1,.3,1.221l-7.013,1.742A.638.638,0,0,1,1561.152,358.111Zm14.026-3.483a.629.629,0,0,1-.151-1.24l7.013-1.741a.629.629,0,0,1,.3,1.221l-7.013,1.742A.631.631,0,0,1,1575.178,354.628Zm14.025-3.483a.629.629,0,0,1-.151-1.239l7.013-1.742a.629.629,0,1,1,.3,1.221l-7.013,1.742A.636.636,0,0,1,1589.2,351.145Zm14.026-3.482a.629.629,0,0,1-.151-1.24l7.013-1.741a.629.629,0,1,1,.3,1.221l-7.012,1.741A.636.636,0,0,1,1603.229,347.662Zm14.025-3.483a.629.629,0,0,1-.151-1.24l7.012-1.742a.629.629,0,0,1,.3,1.221l-7.012,1.742A.642.642,0,0,1,1617.254,344.179Zm14.025-3.483a.629.629,0,0,1-.151-1.239l7.012-1.741a.629.629,0,0,1,.3,1.221l-7.013,1.741A.632.632,0,0,1,1631.279,340.7Zm14.026-3.482a.629.629,0,0,1-.151-1.24l7.013-1.742a.629.629,0,0,1,.3,1.221l-7.013,1.741A.631.631,0,0,1,1645.305,337.214Z" transform="translate(-1532.473 -334.214)" fill="#00104e"/>
        </g>
        <g id="Grupo_20920" data-name="Grupo 20920" transform="translate(136.904)">
          <path id="Trazado_4486" data-name="Trazado 4486" d="M1733.805,332.167a.629.629,0,0,1-.151-1.24l3.662-.909a.629.629,0,1,1,.3,1.221l-3.662.909A.63.63,0,0,1,1733.805,332.167Z" transform="translate(-1733.176 -329.999)" fill="#00104e"/>
        </g>
      </g>
      <g id="Grupo_20925" data-name="Grupo 20925" transform="translate(198.812 198.594)">
        <g id="Grupo_20922" data-name="Grupo 20922">
          <path id="Trazado_4487" data-name="Trazado 4487" d="M1519.758,387.8a.641.641,0,0,1-.174-.024l-3.628-1.037a.629.629,0,1,1,.346-1.21l3.628,1.038a.629.629,0,0,1-.172,1.233Z" transform="translate(-1515.5 -385.501)" fill="#00104e"/>
        </g>
        <g id="Grupo_20923" data-name="Grupo 20923" transform="translate(10.575 3.025)">
          <path id="Trazado_4488" data-name="Trazado 4488" d="M1651.047,425.34a.669.669,0,0,1-.174-.024l-6.947-1.987a.629.629,0,0,1,.346-1.21l6.948,1.987a.629.629,0,0,1-.172,1.234Zm-13.894-3.974a.643.643,0,0,1-.174-.024l-6.947-1.987a.629.629,0,1,1,.346-1.21l6.947,1.987a.629.629,0,0,1-.172,1.233Zm-13.9-3.973a.662.662,0,0,1-.174-.024l-6.947-1.987a.629.629,0,1,1,.346-1.21l6.947,1.987a.629.629,0,0,1-.172,1.234Zm-13.894-3.973a.664.664,0,0,1-.173-.024l-6.947-1.987a.629.629,0,1,1,.347-1.209l6.947,1.987a.629.629,0,0,1-.173,1.234Zm-13.894-3.974a.641.641,0,0,1-.174-.024l-6.947-1.987a.629.629,0,0,1,.346-1.21l6.947,1.987a.629.629,0,0,1-.173,1.234Zm-13.894-3.973a.668.668,0,0,1-.174-.024l-6.947-1.987a.629.629,0,0,1,.346-1.21l6.947,1.987a.629.629,0,0,1-.172,1.234Zm-13.9-3.973a.634.634,0,0,1-.173-.025l-6.948-1.987a.629.629,0,0,1,.346-1.21l6.947,1.987a.629.629,0,0,1-.173,1.234Zm-13.894-3.974a.664.664,0,0,1-.174-.024l-6.948-1.987a.629.629,0,1,1,.347-1.21l6.948,1.987a.629.629,0,0,1-.173,1.234Zm-13.9-3.973a.661.661,0,0,1-.173-.024l-6.947-1.987a.629.629,0,0,1,.346-1.21l6.947,1.987a.629.629,0,0,1-.174,1.234Z" transform="translate(-1532.314 -390.311)" fill="#00104e"/>
        </g>
        <g id="Grupo_20924" data-name="Grupo 20924" transform="translate(135.626 38.782)">
          <path id="Trazado_4489" data-name="Trazado 4489" d="M1735.4,449.461a.607.607,0,0,1-.174-.025L1731.6,448.4a.629.629,0,0,1,.346-1.209l3.628,1.038a.629.629,0,0,1-.172,1.233Z" transform="translate(-1731.145 -447.165)" fill="#00104e"/>
        </g>
      </g>
      <g id="Grupo_20929" data-name="Grupo 20929" transform="translate(198.812 198.593)">
        <g id="Grupo_20926" data-name="Grupo 20926" transform="translate(0 0)">
          <path id="Trazado_4490" data-name="Trazado 4490" d="M1519.436,388.575a.633.633,0,0,1-.3-.077l-3.307-1.817a.629.629,0,1,1,.605-1.1l3.307,1.817a.629.629,0,0,1-.3,1.181Z" transform="translate(-1515.499 -385.501)" fill="#00104e"/>
        </g>
        <g id="Grupo_20927" data-name="Grupo 20927" transform="translate(9.641 5.295)">
          <path id="Trazado_4491" data-name="Trazado 4491" d="M1639.122,454.312a.632.632,0,0,1-.3-.077l-6.333-3.478a.629.629,0,1,1,.606-1.1l6.333,3.478a.629.629,0,0,1-.3,1.181Zm-12.667-6.957a.622.622,0,0,1-.3-.078l-6.333-3.478a.629.629,0,0,1,.606-1.1l6.333,3.479a.629.629,0,0,1-.3,1.181Zm-12.667-6.957a.623.623,0,0,1-.3-.078l-6.333-3.478a.629.629,0,1,1,.605-1.1l6.333,3.478a.629.629,0,0,1-.3,1.181Zm-12.666-6.957a.633.633,0,0,1-.3-.077l-6.333-3.479a.629.629,0,1,1,.606-1.1l6.333,3.478a.629.629,0,0,1-.3,1.181Zm-12.667-6.957a.629.629,0,0,1-.3-.077l-6.334-3.479a.629.629,0,0,1,.606-1.1l6.333,3.479a.629.629,0,0,1-.3,1.18Zm-12.667-6.957a.628.628,0,0,1-.3-.077l-6.333-3.479a.629.629,0,1,1,.605-1.1l6.334,3.479a.629.629,0,0,1-.3,1.18Zm-12.666-6.958a.633.633,0,0,1-.3-.077l-6.333-3.478a.629.629,0,1,1,.606-1.1l6.333,3.478a.629.629,0,0,1-.3,1.181Zm-12.667-6.957a.629.629,0,0,1-.3-.077l-6.334-3.479a.629.629,0,0,1,.606-1.1l6.334,3.479a.629.629,0,0,1-.3,1.181Zm-12.667-6.957a.627.627,0,0,1-.3-.077l-6.333-3.479a.629.629,0,1,1,.606-1.1l6.333,3.479a.629.629,0,0,1-.3,1.181Z" transform="translate(-1530.829 -393.92)" fill="#00104e"/>
        </g>
        <g id="Grupo_20928" data-name="Grupo 20928" transform="translate(123.639 67.909)">
          <path id="Trazado_4492" data-name="Trazado 4492" d="M1716.022,496.55a.632.632,0,0,1-.3-.077l-3.308-1.816a.629.629,0,0,1,.606-1.1l3.308,1.816a.629.629,0,0,1-.3,1.18Z" transform="translate(-1712.086 -493.477)" fill="#00104e"/>
        </g>
      </g>
      <g id="Grupo_20933" data-name="Grupo 20933" transform="translate(198.813 198.593)">
        <g id="Grupo_20930" data-name="Grupo 20930" transform="translate(0)">
          <path id="Trazado_4493" data-name="Trazado 4493" d="M1518.934,389.282a.628.628,0,0,1-.421-.162l-2.806-2.524a.629.629,0,0,1,.842-.935l2.806,2.524a.629.629,0,0,1-.421,1.1Z" transform="translate(-1515.5 -385.501)" fill="#00104e"/>
        </g>
        <g id="Grupo_20931" data-name="Grupo 20931" transform="translate(8.178 7.355)">
          <path id="Trazado_4494" data-name="Trazado 4494" d="M1620.461,480.6a.628.628,0,0,1-.421-.162l-5.372-4.832a.629.629,0,1,1,.842-.935l5.372,4.832a.629.629,0,0,1-.421,1.1Zm-10.745-9.664a.63.63,0,0,1-.421-.161l-5.372-4.833a.629.629,0,0,1,.842-.935l5.372,4.832a.629.629,0,0,1-.421,1.1Zm-10.745-9.664a.627.627,0,0,1-.421-.162l-5.372-4.832a.629.629,0,0,1,.842-.935l5.372,4.832a.629.629,0,0,1-.421,1.1Zm-10.745-9.664a.628.628,0,0,1-.421-.162l-5.372-4.832a.629.629,0,0,1,.842-.935l5.372,4.832a.629.629,0,0,1-.421,1.1Zm-10.745-9.664a.628.628,0,0,1-.421-.162l-5.372-4.832a.629.629,0,1,1,.842-.935l5.372,4.832a.629.629,0,0,1-.421,1.1Zm-10.745-9.664a.627.627,0,0,1-.421-.162l-5.372-4.832a.629.629,0,0,1,.841-.935l5.372,4.831a.629.629,0,0,1-.421,1.1Zm-10.745-9.664a.63.63,0,0,1-.421-.161l-5.372-4.833a.629.629,0,1,1,.841-.935l5.372,4.832a.629.629,0,0,1-.421,1.1Zm-10.745-9.664a.628.628,0,0,1-.421-.162l-5.372-4.831a.629.629,0,0,1,.842-.935l5.372,4.832a.629.629,0,0,1-.421,1.1Zm-10.744-9.664a.628.628,0,0,1-.421-.162l-5.372-4.832a.629.629,0,0,1,.842-.935l5.372,4.832a.629.629,0,0,1-.42,1.1Z" transform="translate(-1528.503 -397.196)" fill="#00104e"/>
        </g>
        <g id="Grupo_20932" data-name="Grupo 20932" transform="translate(104.88 94.332)">
          <path id="Trazado_4495" data-name="Trazado 4495" d="M1685.694,539.269a.626.626,0,0,1-.421-.162l-2.806-2.523a.629.629,0,1,1,.842-.935l2.806,2.523a.629.629,0,0,1-.421,1.1Z" transform="translate(-1682.259 -535.489)" fill="#00104e"/>
        </g>
      </g>
      <g id="Grupo_20937" data-name="Grupo 20937" transform="translate(198.812 198.593)">
        <g id="Grupo_20934" data-name="Grupo 20934" transform="translate(0 0)">
          <path id="Trazado_4496" data-name="Trazado 4496" d="M1518.236,389.889a.63.63,0,0,1-.523-.278l-2.107-3.131a.629.629,0,0,1,1.044-.7l2.107,3.131a.629.629,0,0,1-.521.98Z" transform="translate(-1515.5 -385.5)" fill="#00104e"/>
        </g>
        <g id="Grupo_20935" data-name="Grupo 20935" transform="translate(6.14 9.126)">
          <path id="Trazado_4497" data-name="Trazado 4497" d="M1594.462,503.186a.631.631,0,0,1-.523-.278l-4.033-5.995a.629.629,0,1,1,1.044-.7l4.033,5.995a.629.629,0,0,1-.521.981Zm-8.067-11.991a.63.63,0,0,1-.523-.277l-4.034-5.995a.629.629,0,1,1,1.044-.7l4.034,6a.629.629,0,0,1-.521.98Zm-8.067-11.99a.63.63,0,0,1-.523-.278l-4.033-5.995a.629.629,0,1,1,1.044-.7l4.033,5.995a.629.629,0,0,1-.521.981Zm-8.067-11.991a.63.63,0,0,1-.523-.277l-4.034-5.995a.63.63,0,0,1,1.045-.7l4.033,6a.63.63,0,0,1-.171.873A.621.621,0,0,1,1570.261,467.215Zm-8.068-11.99a.63.63,0,0,1-.523-.278l-4.034-5.995a.629.629,0,1,1,1.044-.7l4.035,5.995a.629.629,0,0,1-.522.98Zm-8.067-11.991a.632.632,0,0,1-.523-.277l-4.033-5.995a.629.629,0,0,1,1.044-.7l4.033,5.995a.629.629,0,0,1-.171.873A.622.622,0,0,1,1554.126,443.234Zm-8.067-11.99a.629.629,0,0,1-.522-.278l-4.033-5.995a.629.629,0,0,1,1.044-.7l4.033,5.995a.629.629,0,0,1-.521.98Zm-8.067-11.991a.63.63,0,0,1-.523-.277l-4.034-5.995a.629.629,0,1,1,1.044-.7l4.034,5.995a.628.628,0,0,1-.521.98Zm-8.067-11.99a.629.629,0,0,1-.523-.277l-4.033-6a.629.629,0,0,1,1.044-.7l4.033,5.995a.629.629,0,0,1-.521.98Z" transform="translate(-1525.263 -400.011)" fill="#00104e"/>
        </g>
        <g id="Grupo_20936" data-name="Grupo 20936" transform="translate(78.743 117.038)">
          <path id="Trazado_4498" data-name="Trazado 4498" d="M1643.437,575.979a.628.628,0,0,1-.523-.277l-2.107-3.131a.629.629,0,0,1,1.044-.7l2.107,3.131a.63.63,0,0,1-.171.873A.621.621,0,0,1,1643.437,575.979Z" transform="translate(-1640.701 -571.59)" fill="#00104e"/>
        </g>
      </g>
      <g id="Grupo_20941" data-name="Grupo 20941" transform="translate(198.813 198.592)">
        <g id="Grupo_20938" data-name="Grupo 20938" transform="translate(0)">
          <path id="Trazado_4499" data-name="Trazado 4499" d="M1517.229,390.367a.628.628,0,0,1-.6-.445l-1.1-3.609a.629.629,0,0,1,1.2-.367l1.1,3.609a.628.628,0,0,1-.418.785A.6.6,0,0,1,1517.229,390.367Z" transform="translate(-1515.5 -385.499)" fill="#00104e"/>
        </g>
        <g id="Grupo_20939" data-name="Grupo 20939" transform="translate(3.209 10.52)">
          <path id="Trazado_4500" data-name="Trazado 4500" d="M1557.067,520.979a.628.628,0,0,1-.6-.445l-2.108-6.911a.629.629,0,0,1,1.2-.367l2.107,6.911a.629.629,0,0,1-.6.813Zm-4.216-13.823a.628.628,0,0,1-.6-.445l-2.108-6.911a.629.629,0,1,1,1.2-.367l2.108,6.911a.629.629,0,0,1-.418.785A.62.62,0,0,1,1552.851,507.156Zm-4.216-13.823a.628.628,0,0,1-.6-.445l-2.108-6.911a.629.629,0,0,1,1.2-.367l2.108,6.911a.629.629,0,0,1-.6.813Zm-4.216-13.823a.628.628,0,0,1-.6-.445l-2.108-6.911a.629.629,0,0,1,1.2-.367l2.108,6.911a.629.629,0,0,1-.418.785A.605.605,0,0,1,1544.419,479.51Zm-4.216-13.823a.628.628,0,0,1-.6-.445l-2.108-6.911a.629.629,0,0,1,1.2-.367l2.108,6.911a.629.629,0,0,1-.6.813Zm-4.216-13.823a.629.629,0,0,1-.6-.445l-2.107-6.911a.629.629,0,1,1,1.2-.367l2.108,6.911a.629.629,0,0,1-.418.785A.6.6,0,0,1,1535.987,451.865Zm-4.216-13.823a.63.63,0,0,1-.6-.445l-2.108-6.911a.629.629,0,0,1,1.2-.367l2.108,6.911a.628.628,0,0,1-.418.785A.621.621,0,0,1,1531.771,438.042Zm-4.217-13.823a.629.629,0,0,1-.6-.445l-2.108-6.911a.629.629,0,1,1,1.2-.367l2.108,6.911a.628.628,0,0,1-.418.785A.6.6,0,0,1,1527.555,424.219Zm-4.215-13.822a.629.629,0,0,1-.6-.445l-2.108-6.911a.629.629,0,1,1,1.2-.367l2.108,6.911a.63.63,0,0,1-.6.813Z" transform="translate(-1520.602 -402.226)" fill="#00104e"/>
        </g>
        <g id="Grupo_20940" data-name="Grupo 20940" transform="translate(41.152 134.925)">
          <path id="Trazado_4501" data-name="Trazado 4501" d="M1582.663,604.9a.629.629,0,0,1-.6-.445l-1.1-3.609a.629.629,0,1,1,1.2-.367l1.1,3.609a.63.63,0,0,1-.6.813Z" transform="translate(-1580.933 -600.03)" fill="#00104e"/>
        </g>
      </g>
      <g id="Grupo_20944" data-name="Grupo 20944" transform="translate(251.962 40.387)">
        <g id="Grupo_20942" data-name="Grupo 20942" transform="translate(0 0)">
          <path id="Trazado_4502" data-name="Trazado 4502" d="M1656.467,170.391a1.259,1.259,0,0,1-1.216-.939c-4.25-16.187-14.542-26.589-30.592-30.914a63.746,63.746,0,0,0-23.2-1.65,1.258,1.258,0,1,1-.375-2.487,65.088,65.088,0,0,1,24.153,1.687c11.708,3.136,26.843,11.361,32.453,32.727a1.259,1.259,0,0,1-1.218,1.577Z" transform="translate(-1600.008 -133.952)" fill="#00104e"/>
        </g>
        <g id="Grupo_20943" data-name="Grupo 20943" transform="translate(44.928 24.008)">
          <path id="Trazado_4503" data-name="Trazado 4503" d="M1671.444,178.66l1.182-2.021,9.95,5.837,5.1-10.351,2.1,1.036-6.208,12.605Z" transform="translate(-1671.444 -172.124)" fill="#00104e"/>
        </g>
      </g>
    </g>
    <path id="Trazado_602928" data-name="Trazado 602928" d="M-8.215-2.842A3.019,3.019,0,0,1-9.231-.674a3.57,3.57,0,0,1-2.417.791,3.21,3.21,0,0,1-2.581-1.1,4.529,4.529,0,0,1-.94-3.032v-.521a5.114,5.114,0,0,1,.434-2.168A3.249,3.249,0,0,1-13.5-8.147a3.471,3.471,0,0,1,1.872-.5,3.478,3.478,0,0,1,2.379.791A3.244,3.244,0,0,1-8.2-5.637H-9.961a1.782,1.782,0,0,0-.46-1.2,1.7,1.7,0,0,0-1.2-.372,1.494,1.494,0,0,0-1.315.63,3.53,3.53,0,0,0-.448,1.954v.645a3.778,3.778,0,0,0,.419,2.021,1.466,1.466,0,0,0,1.321.639,1.735,1.735,0,0,0,1.216-.372,1.681,1.681,0,0,0,.46-1.151Zm.779-.387A3.76,3.76,0,0,1-7.072-4.91,2.659,2.659,0,0,1-6.026-6.053a3.051,3.051,0,0,1,1.585-.4,2.887,2.887,0,0,1,2.095.785,3.151,3.151,0,0,1,.905,2.133l.012.434A3.314,3.314,0,0,1-2.244-.765,2.831,2.831,0,0,1-4.43.117,2.845,2.845,0,0,1-6.618-.762a3.372,3.372,0,0,1-.817-2.391Zm1.693.12A2.37,2.37,0,0,0-5.4-1.726a1.121,1.121,0,0,0,.973.478,1.124,1.124,0,0,0,.961-.472,2.593,2.593,0,0,0,.346-1.511A2.346,2.346,0,0,0-3.469-4.6a1.124,1.124,0,0,0-.973-.487,1.105,1.105,0,0,0-.961.484A2.637,2.637,0,0,0-5.742-3.108ZM3.047-1.752a.546.546,0,0,0-.308-.489,3.494,3.494,0,0,0-.987-.319Q-.51-3.035-.51-4.482a1.742,1.742,0,0,1,.7-1.409,2.825,2.825,0,0,1,1.831-.565,3.04,3.04,0,0,1,1.931.568,1.791,1.791,0,0,1,.724,1.477H2.982a.819.819,0,0,0-.234-.6.992.992,0,0,0-.732-.237,1.013,1.013,0,0,0-.662.193.61.61,0,0,0-.234.492.522.522,0,0,0,.267.454,2.743,2.743,0,0,0,.9.3,7.346,7.346,0,0,1,1.066.284A1.752,1.752,0,0,1,4.693-1.822a1.654,1.654,0,0,1-.744,1.4A3.21,3.21,0,0,1,2.027.117,3.353,3.353,0,0,1,.612-.167a2.374,2.374,0,0,1-.97-.779A1.811,1.811,0,0,1-.709-2.016H.9a.884.884,0,0,0,.334.691,1.325,1.325,0,0,0,.832.24A1.226,1.226,0,0,0,2.8-1.269.574.574,0,0,0,3.047-1.752ZM7.811-7.9V-6.34H8.895V-5.1H7.811v3.164a.756.756,0,0,0,.135.5.677.677,0,0,0,.516.152,2.7,2.7,0,0,0,.5-.041V-.035A3.486,3.486,0,0,1,7.934.117a1.617,1.617,0,0,1-1.816-1.8V-5.1H5.191V-6.34h.926V-7.9ZM12.756.117a3.112,3.112,0,0,1-2.271-.855,3.041,3.041,0,0,1-.876-2.279v-.164A3.83,3.83,0,0,1,9.979-4.89a2.709,2.709,0,0,1,1.046-1.16,2.936,2.936,0,0,1,1.544-.407,2.631,2.631,0,0,1,2.048.82,3.333,3.333,0,0,1,.747,2.326v.691H11.326a1.573,1.573,0,0,0,.5,1,1.5,1.5,0,0,0,1.046.375A1.828,1.828,0,0,0,14.4-1.957l.832.932A2.542,2.542,0,0,1,14.2-.185,3.383,3.383,0,0,1,12.756.117Zm-.193-5.209a1.058,1.058,0,0,0-.817.341,1.768,1.768,0,0,0-.4.977H13.7v-.135a1.261,1.261,0,0,0-.3-.874A1.092,1.092,0,0,0,12.563-5.092ZM-28.772,11a1.88,1.88,0,0,1-.17-.568,2.049,2.049,0,0,1-1.6.686,2.251,2.251,0,0,1-1.544-.539A1.734,1.734,0,0,1-32.7,9.219a1.792,1.792,0,0,1,.747-1.547,3.686,3.686,0,0,1,2.159-.545h.779V6.764a1.045,1.045,0,0,0-.226-.7A.887.887,0,0,0-29.95,5.8,1.009,1.009,0,0,0-30.621,6a.7.7,0,0,0-.243.563h-1.693a1.7,1.7,0,0,1,.34-1.02,2.246,2.246,0,0,1,.961-.735,3.5,3.5,0,0,1,1.395-.267A2.767,2.767,0,0,1-28,5.132a2.06,2.06,0,0,1,.688,1.655V9.535a3.031,3.031,0,0,0,.252,1.365V11Zm-1.4-1.178a1.458,1.458,0,0,0,.691-.167,1.1,1.1,0,0,0,.469-.448V8.117h-.633Q-30.917,8.117-31,9L-31,9.1a.678.678,0,0,0,.223.521A.865.865,0,0,0-30.173,9.822Zm6.8-.07a1.111,1.111,0,0,0,.762-.258.9.9,0,0,0,.3-.686h1.588a2.172,2.172,0,0,1-.352,1.181,2.32,2.32,0,0,1-.946.832,2.962,2.962,0,0,1-1.327.3,2.752,2.752,0,0,1-2.145-.864,3.42,3.42,0,0,1-.785-2.388V7.754A3.381,3.381,0,0,1-25.5,5.416a2.72,2.72,0,0,1,2.139-.873,2.667,2.667,0,0,1,1.907.677,2.4,2.4,0,0,1,.729,1.8H-22.31a1.164,1.164,0,0,0-.3-.8,1.016,1.016,0,0,0-.773-.309,1.02,1.02,0,0,0-.894.431,2.5,2.5,0,0,0-.3,1.4v.176a2.531,2.531,0,0,0,.3,1.408A1.033,1.033,0,0,0-23.376,9.752Zm3.357-1.98a3.76,3.76,0,0,1,.363-1.682,2.659,2.659,0,0,1,1.046-1.143,3.051,3.051,0,0,1,1.585-.4,2.887,2.887,0,0,1,2.095.785,3.151,3.151,0,0,1,.905,2.133l.012.434a3.314,3.314,0,0,1-.814,2.341,2.831,2.831,0,0,1-2.186.882,2.845,2.845,0,0,1-2.188-.879,3.372,3.372,0,0,1-.817-2.391Zm1.693.12a2.37,2.37,0,0,0,.34,1.382,1.121,1.121,0,0,0,.973.478,1.124,1.124,0,0,0,.961-.472,2.593,2.593,0,0,0,.346-1.511A2.346,2.346,0,0,0-16.052,6.4a1.124,1.124,0,0,0-.973-.487,1.105,1.105,0,0,0-.961.484A2.637,2.637,0,0,0-18.325,7.892Zm6.943-3.232.053.709a2.228,2.228,0,0,1,1.822-.826,1.691,1.691,0,0,1,1.682.967,2.177,2.177,0,0,1,1.9-.967,1.891,1.891,0,0,1,1.535.6,2.761,2.761,0,0,1,.5,1.808V11h-1.7V6.957a1.207,1.207,0,0,0-.211-.788.935.935,0,0,0-.744-.249,1.057,1.057,0,0,0-1.055.727L-7.585,11H-9.278V6.963a1.193,1.193,0,0,0-.217-.8.944.944,0,0,0-.738-.246,1.1,1.1,0,0,0-1.043.6V11H-12.97V4.66Zm12.6,5.7a2.124,2.124,0,0,1-1.734.762,2,2,0,0,1-1.556-.586,2.5,2.5,0,0,1-.548-1.717V4.66H-.929v4.1q0,.991.9.991a1.223,1.223,0,0,0,1.184-.6V4.66h1.7V11H1.263ZM5.921,11h-1.7V2h1.7Zm5.068,0a1.88,1.88,0,0,1-.17-.568,2.049,2.049,0,0,1-1.6.686,2.251,2.251,0,0,1-1.544-.539,1.734,1.734,0,0,1-.612-1.359,1.792,1.792,0,0,1,.747-1.547A3.686,3.686,0,0,1,9.97,7.127h.779V6.764a1.045,1.045,0,0,0-.226-.7A.887.887,0,0,0,9.812,5.8,1.009,1.009,0,0,0,9.141,6a.7.7,0,0,0-.243.563H7.2a1.7,1.7,0,0,1,.34-1.02A2.246,2.246,0,0,1,8.5,4.81,3.5,3.5,0,0,1,9.9,4.543a2.767,2.767,0,0,1,1.86.589,2.06,2.06,0,0,1,.688,1.655V9.535A3.031,3.031,0,0,0,12.7,10.9V11Zm-1.4-1.178a1.458,1.458,0,0,0,.691-.167,1.1,1.1,0,0,0,.469-.448V8.117h-.633q-1.271,0-1.354.879l-.006.1a.678.678,0,0,0,.223.521A.865.865,0,0,0,9.589,9.822ZM15.776,3.1V4.66H16.86V5.9H15.776V9.066a.756.756,0,0,0,.135.5.677.677,0,0,0,.516.152,2.7,2.7,0,0,0,.5-.041v1.283a3.486,3.486,0,0,1-1.025.152,1.617,1.617,0,0,1-1.816-1.8V5.9h-.926V4.66h.926V3.1ZM19.591,11h-1.7V4.66h1.7Zm-1.8-7.98a.834.834,0,0,1,.255-.627,1.1,1.1,0,0,1,1.386,0,.829.829,0,0,1,.258.627.831.831,0,0,1-.261.633,1.086,1.086,0,0,1-1.377,0A.831.831,0,0,1,17.792,3.02Zm5.566,5.912L24.536,4.66h1.77L24.167,11H22.55L20.411,4.66h1.77Zm3.34-1.16a3.76,3.76,0,0,1,.363-1.682,2.659,2.659,0,0,1,1.046-1.143,3.051,3.051,0,0,1,1.585-.4,2.887,2.887,0,0,1,2.095.785,3.151,3.151,0,0,1,.905,2.133l.012.434a3.314,3.314,0,0,1-.814,2.341,3.157,3.157,0,0,1-4.374,0A3.372,3.372,0,0,1,26.7,7.848Zm1.693.12a2.37,2.37,0,0,0,.34,1.382,1.221,1.221,0,0,0,1.934.006,2.593,2.593,0,0,0,.346-1.511A2.346,2.346,0,0,0,30.665,6.4a1.124,1.124,0,0,0-.973-.487,1.105,1.105,0,0,0-.961.484A2.637,2.637,0,0,0,28.392,7.892Z" transform="translate(387 30)" fill="#111e61"/>
    <path id="Trazado_602929" data-name="Trazado 602929" d="M-40.395-1.412h3.732V0h-5.49V-8.531h1.758ZM-32.092,0a1.88,1.88,0,0,1-.17-.568,2.049,2.049,0,0,1-1.6.686,2.251,2.251,0,0,1-1.544-.539,1.734,1.734,0,0,1-.612-1.359,1.792,1.792,0,0,1,.747-1.547,3.686,3.686,0,0,1,2.159-.545h.779v-.363a1.045,1.045,0,0,0-.226-.7A.887.887,0,0,0-33.27-5.2,1.009,1.009,0,0,0-33.94-5a.7.7,0,0,0-.243.563h-1.693a1.7,1.7,0,0,1,.34-1.02,2.246,2.246,0,0,1,.961-.735,3.5,3.5,0,0,1,1.395-.267,2.767,2.767,0,0,1,1.86.589,2.06,2.06,0,0,1,.688,1.655v2.748A3.031,3.031,0,0,0-30.381-.1V0Zm-1.4-1.178a1.458,1.458,0,0,0,.691-.167,1.1,1.1,0,0,0,.469-.448v-1.09h-.633q-1.271,0-1.354.879l-.006.1a.678.678,0,0,0,.223.521A.865.865,0,0,0-33.492-1.178Zm5.719-5.162.053.732a2.213,2.213,0,0,1,1.822-.85,1.84,1.84,0,0,1,1.5.592,2.761,2.761,0,0,1,.5,1.77V0h-1.693V-4.055a1.1,1.1,0,0,0-.234-.782A1.049,1.049,0,0,0-26.6-5.08a1.165,1.165,0,0,0-1.072.609V0h-1.693V-6.34Zm7.107,4.975h3.1V0h-5.262V-1.031l2.982-3.943H-22.74V-6.34h5.08v1ZM-12.832,0A1.88,1.88,0,0,1-13-.568a2.049,2.049,0,0,1-1.6.686,2.251,2.251,0,0,1-1.544-.539,1.734,1.734,0,0,1-.612-1.359,1.792,1.792,0,0,1,.747-1.547,3.686,3.686,0,0,1,2.159-.545h.779v-.363a1.045,1.045,0,0,0-.226-.7A.887.887,0,0,0-14.01-5.2,1.009,1.009,0,0,0-14.681-5a.7.7,0,0,0-.243.563h-1.693a1.7,1.7,0,0,1,.34-1.02,2.246,2.246,0,0,1,.961-.735,3.5,3.5,0,0,1,1.395-.267,2.767,2.767,0,0,1,1.86.589,2.06,2.06,0,0,1,.688,1.655v2.748A3.031,3.031,0,0,0-11.121-.1V0Zm-1.4-1.178a1.458,1.458,0,0,0,.691-.167,1.1,1.1,0,0,0,.469-.448v-1.09h-.633q-1.271,0-1.354.879l-.006.1a.678.678,0,0,0,.223.521A.865.865,0,0,0-14.232-1.178ZM-8.484-6.34l.053.709a2.228,2.228,0,0,1,1.822-.826,1.691,1.691,0,0,1,1.682.967,2.177,2.177,0,0,1,1.9-.967,1.891,1.891,0,0,1,1.535.6,2.761,2.761,0,0,1,.5,1.808V0h-1.7V-4.043a1.207,1.207,0,0,0-.211-.788.935.935,0,0,0-.744-.249,1.057,1.057,0,0,0-1.055.727L-4.687,0H-6.381V-4.037a1.193,1.193,0,0,0-.217-.8.944.944,0,0,0-.738-.246,1.1,1.1,0,0,0-1.043.6V0h-1.693V-6.34ZM2.1,0H.4V-6.34H2.1ZM.3-7.98A.834.834,0,0,1,.56-8.607a.958.958,0,0,1,.694-.246.96.96,0,0,1,.691.246A.829.829,0,0,1,2.2-7.98a.831.831,0,0,1-.261.633.962.962,0,0,1-.688.246.962.962,0,0,1-.688-.246A.831.831,0,0,1,.3-7.98ZM6.416.117A3.112,3.112,0,0,1,4.146-.738,3.041,3.041,0,0,1,3.27-3.018v-.164A3.83,3.83,0,0,1,3.639-4.89,2.709,2.709,0,0,1,4.685-6.05a2.936,2.936,0,0,1,1.544-.407,2.631,2.631,0,0,1,2.048.82,3.333,3.333,0,0,1,.747,2.326v.691H4.986a1.573,1.573,0,0,0,.5,1,1.5,1.5,0,0,0,1.046.375,1.828,1.828,0,0,0,1.529-.709l.832.932a2.542,2.542,0,0,1-1.031.841A3.383,3.383,0,0,1,6.416.117ZM6.223-5.092a1.058,1.058,0,0,0-.817.341,1.768,1.768,0,0,0-.4.977H7.359v-.135a1.261,1.261,0,0,0-.3-.874A1.092,1.092,0,0,0,6.223-5.092Zm5.32-1.248.053.732a2.213,2.213,0,0,1,1.822-.85,1.84,1.84,0,0,1,1.5.592,2.761,2.761,0,0,1,.5,1.77V0H13.729V-4.055a1.1,1.1,0,0,0-.234-.782,1.049,1.049,0,0,0-.779-.243,1.165,1.165,0,0,0-1.072.609V0H9.949V-6.34ZM18.732-7.9V-6.34h1.084V-5.1H18.732v3.164a.756.756,0,0,0,.135.5.677.677,0,0,0,.516.152,2.7,2.7,0,0,0,.5-.041V-.035a3.486,3.486,0,0,1-1.025.152,1.617,1.617,0,0,1-1.816-1.8V-5.1h-.926V-6.34h.926V-7.9Zm1.588,4.67a3.76,3.76,0,0,1,.363-1.682,2.659,2.659,0,0,1,1.046-1.143,3.051,3.051,0,0,1,1.585-.4,2.887,2.887,0,0,1,2.095.785,3.151,3.151,0,0,1,.905,2.133l.012.434a3.314,3.314,0,0,1-.814,2.341,2.831,2.831,0,0,1-2.186.882,2.845,2.845,0,0,1-2.188-.879,3.372,3.372,0,0,1-.817-2.391Zm1.693.12a2.37,2.37,0,0,0,.34,1.382,1.121,1.121,0,0,0,.973.478,1.124,1.124,0,0,0,.961-.472,2.593,2.593,0,0,0,.346-1.511A2.346,2.346,0,0,0,24.287-4.6a1.124,1.124,0,0,0-.973-.487,1.105,1.105,0,0,0-.961.484A2.637,2.637,0,0,0,22.014-3.108ZM33.275.117A3.112,3.112,0,0,1,31-.738a3.041,3.041,0,0,1-.876-2.279v-.164A3.83,3.83,0,0,1,30.5-4.89a2.709,2.709,0,0,1,1.046-1.16,2.936,2.936,0,0,1,1.544-.407,2.631,2.631,0,0,1,2.048.82,3.333,3.333,0,0,1,.747,2.326v.691H31.846a1.573,1.573,0,0,0,.5,1,1.5,1.5,0,0,0,1.046.375,1.828,1.828,0,0,0,1.529-.709l.832.932a2.542,2.542,0,0,1-1.031.841A3.383,3.383,0,0,1,33.275.117Zm-.193-5.209a1.058,1.058,0,0,0-.817.341,1.768,1.768,0,0,0-.4.977h2.355v-.135a1.261,1.261,0,0,0-.3-.874A1.092,1.092,0,0,0,33.082-5.092ZM38.4-6.34l.053.732a2.213,2.213,0,0,1,1.822-.85,1.84,1.84,0,0,1,1.5.592,2.761,2.761,0,0,1,.5,1.77V0H40.588V-4.055a1.1,1.1,0,0,0-.234-.782,1.049,1.049,0,0,0-.779-.243,1.165,1.165,0,0,0-1.072.609V0H36.809V-6.34ZM-26.449,11.117a3.112,3.112,0,0,1-2.271-.855A3.041,3.041,0,0,1-29.6,7.982V7.818a3.83,3.83,0,0,1,.369-1.708,2.709,2.709,0,0,1,1.046-1.16,2.936,2.936,0,0,1,1.544-.407,2.631,2.631,0,0,1,2.048.82,3.333,3.333,0,0,1,.747,2.326v.691h-4.037a1.573,1.573,0,0,0,.5,1,1.5,1.5,0,0,0,1.046.375,1.828,1.828,0,0,0,1.529-.709l.832.932a2.542,2.542,0,0,1-1.031.841A3.383,3.383,0,0,1-26.449,11.117Zm-.193-5.209a1.058,1.058,0,0,0-.817.341,1.768,1.768,0,0,0-.4.977h2.355V7.091a1.261,1.261,0,0,0-.3-.874A1.092,1.092,0,0,0-26.643,5.908ZM-21.094,11h-1.7V2h1.7Zm5.971-6.34.053.709a2.228,2.228,0,0,1,1.822-.826,1.691,1.691,0,0,1,1.682.967,2.177,2.177,0,0,1,1.9-.967,1.891,1.891,0,0,1,1.535.6,2.761,2.761,0,0,1,.5,1.808V11h-1.7V6.957a1.207,1.207,0,0,0-.211-.788.935.935,0,0,0-.744-.249,1.057,1.057,0,0,0-1.055.727L-11.326,11H-13.02V6.963a1.193,1.193,0,0,0-.217-.8.944.944,0,0,0-.738-.246,1.1,1.1,0,0,0-1.043.6V11h-1.693V4.66ZM-3.4,11.117a3.112,3.112,0,0,1-2.271-.855,3.041,3.041,0,0,1-.876-2.279V7.818A3.83,3.83,0,0,1-6.182,6.11,2.709,2.709,0,0,1-5.136,4.95a2.936,2.936,0,0,1,1.544-.407,2.631,2.631,0,0,1,2.048.82A3.333,3.333,0,0,1-.8,7.689v.691H-4.834a1.573,1.573,0,0,0,.5,1,1.5,1.5,0,0,0,1.046.375,1.828,1.828,0,0,0,1.529-.709l.832.932a2.542,2.542,0,0,1-1.031.841A3.383,3.383,0,0,1-3.4,11.117ZM-3.6,5.908a1.058,1.058,0,0,0-.817.341,1.768,1.768,0,0,0-.4.977h2.355V7.091a1.261,1.261,0,0,0-.3-.874A1.092,1.092,0,0,0-3.6,5.908Zm7.324.34A4.6,4.6,0,0,0,3.117,6.2a1.24,1.24,0,0,0-1.26.65V11H.164V4.66h1.6l.047.756a1.569,1.569,0,0,1,1.412-.873,1.774,1.774,0,0,1,.527.076Zm3.34,3.5a1.111,1.111,0,0,0,.762-.258.9.9,0,0,0,.3-.686H9.721a2.172,2.172,0,0,1-.352,1.181,2.32,2.32,0,0,1-.946.832,2.962,2.962,0,0,1-1.327.3,2.752,2.752,0,0,1-2.145-.864,3.42,3.42,0,0,1-.785-2.388V7.754a3.381,3.381,0,0,1,.779-2.338,2.72,2.72,0,0,1,2.139-.873,2.667,2.667,0,0,1,1.907.677,2.4,2.4,0,0,1,.729,1.8H8.133a1.164,1.164,0,0,0-.3-.8,1.016,1.016,0,0,0-.773-.309,1.02,1.02,0,0,0-.894.431,2.5,2.5,0,0,0-.3,1.4v.176a2.531,2.531,0,0,0,.3,1.408A1.033,1.033,0,0,0,7.066,9.752ZM14.361,11a1.88,1.88,0,0,1-.17-.568,2.049,2.049,0,0,1-1.6.686,2.251,2.251,0,0,1-1.544-.539,1.734,1.734,0,0,1-.612-1.359,1.792,1.792,0,0,1,.747-1.547,3.686,3.686,0,0,1,2.159-.545h.779V6.764a1.045,1.045,0,0,0-.226-.7.887.887,0,0,0-.712-.264A1.009,1.009,0,0,0,12.513,6a.7.7,0,0,0-.243.563H10.576a1.7,1.7,0,0,1,.34-1.02,2.246,2.246,0,0,1,.961-.735,3.5,3.5,0,0,1,1.395-.267,2.767,2.767,0,0,1,1.86.589,2.06,2.06,0,0,1,.688,1.655V9.535a3.031,3.031,0,0,0,.252,1.365V11Zm-1.4-1.178a1.458,1.458,0,0,0,.691-.167,1.1,1.1,0,0,0,.469-.448V8.117h-.633q-1.271,0-1.354.879l-.006.1a.678.678,0,0,0,.223.521A.865.865,0,0,0,12.961,9.822Zm3.9-2.039a3.821,3.821,0,0,1,.665-2.361,2.158,2.158,0,0,1,1.819-.879,1.942,1.942,0,0,1,1.529.691V2h1.7v9H21.041l-.082-.674a1.993,1.993,0,0,1-1.629.791,2.152,2.152,0,0,1-1.8-.882A3.944,3.944,0,0,1,16.857,7.783Zm1.693.126a2.5,2.5,0,0,0,.311,1.367,1.012,1.012,0,0,0,.9.475,1.133,1.133,0,0,0,1.107-.663V6.583a1.117,1.117,0,0,0-1.1-.663Q18.551,5.92,18.551,7.909Zm5.068-.138a3.76,3.76,0,0,1,.363-1.682,2.659,2.659,0,0,1,1.046-1.143,3.051,3.051,0,0,1,1.585-.4,2.887,2.887,0,0,1,2.095.785,3.151,3.151,0,0,1,.905,2.133l.012.434a3.314,3.314,0,0,1-.814,2.341,3.157,3.157,0,0,1-4.374,0,3.372,3.372,0,0,1-.817-2.391Zm1.693.12a2.37,2.37,0,0,0,.34,1.382,1.221,1.221,0,0,0,1.934.006,2.593,2.593,0,0,0,.346-1.511A2.346,2.346,0,0,0,27.586,6.4a1.124,1.124,0,0,0-.973-.487,1.105,1.105,0,0,0-.961.484A2.637,2.637,0,0,0,25.313,7.892Z" transform="translate(387 468)" fill="#111e61"/>
    <path id="Trazado_602930" data-name="Trazado 602930" d="M2.52-1.412H6.252V0H.762V-8.531H2.52ZM10.822,0a1.88,1.88,0,0,1-.17-.568,2.049,2.049,0,0,1-1.6.686A2.251,2.251,0,0,1,7.509-.422,1.734,1.734,0,0,1,6.9-1.781a1.792,1.792,0,0,1,.747-1.547A3.686,3.686,0,0,1,9.8-3.873h.779v-.363a1.045,1.045,0,0,0-.226-.7A.887.887,0,0,0,9.645-5.2,1.009,1.009,0,0,0,8.974-5a.7.7,0,0,0-.243.563H7.037a1.7,1.7,0,0,1,.34-1.02,2.246,2.246,0,0,1,.961-.735,3.5,3.5,0,0,1,1.395-.267,2.767,2.767,0,0,1,1.86.589,2.06,2.06,0,0,1,.688,1.655v2.748A3.031,3.031,0,0,0,12.533-.1V0Zm-1.4-1.178a1.458,1.458,0,0,0,.691-.167,1.1,1.1,0,0,0,.469-.448v-1.09H9.949Q8.678-2.883,8.6-2l-.006.1a.678.678,0,0,0,.223.521A.865.865,0,0,0,9.422-1.178ZM15.141-6.34l.053.732a2.213,2.213,0,0,1,1.822-.85,1.84,1.84,0,0,1,1.5.592,2.761,2.761,0,0,1,.5,1.77V0H17.326V-4.055a1.1,1.1,0,0,0-.234-.782,1.049,1.049,0,0,0-.779-.243,1.165,1.165,0,0,0-1.072.609V0H13.547V-6.34Zm7.107,4.975h3.1V0H20.086V-1.031l2.982-3.943H20.174V-6.34h5.08v1ZM30.082,0a1.88,1.88,0,0,1-.17-.568,2.049,2.049,0,0,1-1.6.686,2.251,2.251,0,0,1-1.544-.539,1.734,1.734,0,0,1-.612-1.359A1.792,1.792,0,0,1,26.9-3.328a3.686,3.686,0,0,1,2.159-.545h.779v-.363a1.045,1.045,0,0,0-.226-.7A.887.887,0,0,0,28.9-5.2,1.009,1.009,0,0,0,28.233-5a.7.7,0,0,0-.243.563H26.3a1.7,1.7,0,0,1,.34-1.02A2.246,2.246,0,0,1,27.6-6.19a3.5,3.5,0,0,1,1.395-.267,2.767,2.767,0,0,1,1.86.589,2.06,2.06,0,0,1,.688,1.655v2.748A3.031,3.031,0,0,0,31.793-.1V0Zm-1.4-1.178a1.458,1.458,0,0,0,.691-.167,1.1,1.1,0,0,0,.469-.448v-1.09h-.633q-1.271,0-1.354.879l-.006.1a.678.678,0,0,0,.223.521A.865.865,0,0,0,28.682-1.178ZM34.43-6.34l.053.709A2.228,2.228,0,0,1,36.3-6.457a1.691,1.691,0,0,1,1.682.967,2.177,2.177,0,0,1,1.9-.967,1.891,1.891,0,0,1,1.535.6,2.761,2.761,0,0,1,.5,1.808V0h-1.7V-4.043a1.207,1.207,0,0,0-.211-.788.935.935,0,0,0-.744-.249,1.057,1.057,0,0,0-1.055.727L38.227,0H36.533V-4.037a1.193,1.193,0,0,0-.217-.8.944.944,0,0,0-.738-.246,1.1,1.1,0,0,0-1.043.6V0H32.842V-6.34ZM45.018,0h-1.7V-6.34h1.7Zm-1.8-7.98a.834.834,0,0,1,.255-.627.958.958,0,0,1,.694-.246.96.96,0,0,1,.691.246.829.829,0,0,1,.258.627.831.831,0,0,1-.261.633.962.962,0,0,1-.688.246.962.962,0,0,1-.688-.246A.831.831,0,0,1,43.219-7.98ZM49.33.117A3.112,3.112,0,0,1,47.06-.738a3.041,3.041,0,0,1-.876-2.279v-.164a3.83,3.83,0,0,1,.369-1.708A2.709,2.709,0,0,1,47.6-6.05a2.936,2.936,0,0,1,1.544-.407,2.631,2.631,0,0,1,2.048.82,3.333,3.333,0,0,1,.747,2.326v.691H47.9a1.573,1.573,0,0,0,.5,1,1.5,1.5,0,0,0,1.046.375,1.828,1.828,0,0,0,1.529-.709l.832.932a2.542,2.542,0,0,1-1.031.841A3.383,3.383,0,0,1,49.33.117Zm-.193-5.209a1.058,1.058,0,0,0-.817.341,1.768,1.768,0,0,0-.4.977h2.355v-.135a1.261,1.261,0,0,0-.3-.874A1.092,1.092,0,0,0,49.137-5.092Zm5.32-1.248.053.732a2.213,2.213,0,0,1,1.822-.85,1.84,1.84,0,0,1,1.5.592,2.761,2.761,0,0,1,.5,1.77V0H56.643V-4.055a1.1,1.1,0,0,0-.234-.782,1.049,1.049,0,0,0-.779-.243,1.165,1.165,0,0,0-1.072.609V0H52.863V-6.34ZM61.646-7.9V-6.34H62.73V-5.1H61.646v3.164a.756.756,0,0,0,.135.5.677.677,0,0,0,.516.152,2.7,2.7,0,0,0,.5-.041V-.035A3.486,3.486,0,0,1,61.77.117a1.617,1.617,0,0,1-1.816-1.8V-5.1h-.926V-6.34h.926V-7.9Zm1.588,4.67A3.76,3.76,0,0,1,63.6-4.91a2.659,2.659,0,0,1,1.046-1.143,3.051,3.051,0,0,1,1.585-.4,2.887,2.887,0,0,1,2.095.785,3.151,3.151,0,0,1,.905,2.133l.012.434a3.314,3.314,0,0,1-.814,2.341A2.831,2.831,0,0,1,66.24.117a2.845,2.845,0,0,1-2.188-.879,3.372,3.372,0,0,1-.817-2.391Zm1.693.12a2.37,2.37,0,0,0,.34,1.382,1.121,1.121,0,0,0,.973.478A1.124,1.124,0,0,0,67.2-1.72a2.593,2.593,0,0,0,.346-1.511A2.346,2.346,0,0,0,67.2-4.6a1.124,1.124,0,0,0-.973-.487,1.105,1.105,0,0,0-.961.484A2.637,2.637,0,0,0,64.928-3.108ZM76.189.117a3.112,3.112,0,0,1-2.271-.855,3.041,3.041,0,0,1-.876-2.279v-.164a3.83,3.83,0,0,1,.369-1.708,2.709,2.709,0,0,1,1.046-1.16A2.936,2.936,0,0,1,76-6.457a2.631,2.631,0,0,1,2.048.82A3.333,3.333,0,0,1,78.8-3.311v.691H74.76a1.573,1.573,0,0,0,.5,1,1.5,1.5,0,0,0,1.046.375,1.828,1.828,0,0,0,1.529-.709l.832.932a2.542,2.542,0,0,1-1.031.841A3.383,3.383,0,0,1,76.189.117ZM76-5.092a1.058,1.058,0,0,0-.817.341,1.768,1.768,0,0,0-.4.977h2.355v-.135a1.261,1.261,0,0,0-.3-.874A1.092,1.092,0,0,0,76-5.092Zm5.32-1.248.053.732a2.213,2.213,0,0,1,1.822-.85,1.84,1.84,0,0,1,1.5.592,2.761,2.761,0,0,1,.5,1.77V0H83.5V-4.055a1.1,1.1,0,0,0-.234-.782,1.049,1.049,0,0,0-.779-.243,1.165,1.165,0,0,0-1.072.609V0H79.723V-6.34ZM3.568,11.117A3.112,3.112,0,0,1,1.3,10.262,3.041,3.041,0,0,1,.422,7.982V7.818A3.83,3.83,0,0,1,.791,6.11,2.709,2.709,0,0,1,1.837,4.95a2.936,2.936,0,0,1,1.544-.407,2.631,2.631,0,0,1,2.048.82,3.333,3.333,0,0,1,.747,2.326v.691H2.139a1.573,1.573,0,0,0,.5,1,1.5,1.5,0,0,0,1.046.375,1.828,1.828,0,0,0,1.529-.709l.832.932a2.542,2.542,0,0,1-1.031.841A3.383,3.383,0,0,1,3.568,11.117ZM3.375,5.908a1.058,1.058,0,0,0-.817.341,1.768,1.768,0,0,0-.4.977H4.512V7.091a1.261,1.261,0,0,0-.3-.874A1.092,1.092,0,0,0,3.375,5.908ZM8.924,11h-1.7V2h1.7Zm5.971-6.34.053.709a2.228,2.228,0,0,1,1.822-.826,1.691,1.691,0,0,1,1.682.967,2.177,2.177,0,0,1,1.9-.967,1.891,1.891,0,0,1,1.535.6,2.761,2.761,0,0,1,.5,1.808V11H20.7V6.957a1.207,1.207,0,0,0-.211-.788.935.935,0,0,0-.744-.249,1.057,1.057,0,0,0-1.055.727L18.691,11H17V6.963a1.193,1.193,0,0,0-.217-.8.944.944,0,0,0-.738-.246,1.1,1.1,0,0,0-1.043.6V11H13.307V4.66Zm11.719,6.457a3.112,3.112,0,0,1-2.271-.855,3.041,3.041,0,0,1-.876-2.279V7.818a3.83,3.83,0,0,1,.369-1.708,2.709,2.709,0,0,1,1.046-1.16,2.936,2.936,0,0,1,1.544-.407,2.631,2.631,0,0,1,2.048.82,3.333,3.333,0,0,1,.747,2.326v.691H25.184a1.573,1.573,0,0,0,.5,1,1.5,1.5,0,0,0,1.046.375,1.828,1.828,0,0,0,1.529-.709l.832.932a2.542,2.542,0,0,1-1.031.841A3.383,3.383,0,0,1,26.613,11.117ZM26.42,5.908a1.058,1.058,0,0,0-.817.341,1.768,1.768,0,0,0-.4.977h2.355V7.091a1.261,1.261,0,0,0-.3-.874A1.092,1.092,0,0,0,26.42,5.908Zm7.324.34a4.6,4.6,0,0,0-.609-.047,1.24,1.24,0,0,0-1.26.65V11H30.182V4.66h1.6l.047.756a1.569,1.569,0,0,1,1.412-.873,1.774,1.774,0,0,1,.527.076Zm3.34,3.5a1.111,1.111,0,0,0,.762-.258.9.9,0,0,0,.3-.686h1.588a2.172,2.172,0,0,1-.352,1.181,2.32,2.32,0,0,1-.946.832,2.962,2.962,0,0,1-1.327.3,2.752,2.752,0,0,1-2.145-.864,3.42,3.42,0,0,1-.785-2.388V7.754a3.381,3.381,0,0,1,.779-2.338A2.72,2.72,0,0,1,37.1,4.543a2.667,2.667,0,0,1,1.907.677,2.4,2.4,0,0,1,.729,1.8H38.15a1.164,1.164,0,0,0-.3-.8,1.132,1.132,0,0,0-1.667.122,2.5,2.5,0,0,0-.3,1.4v.176a2.531,2.531,0,0,0,.3,1.408A1.033,1.033,0,0,0,37.084,9.752ZM44.379,11a1.88,1.88,0,0,1-.17-.568,2.049,2.049,0,0,1-1.6.686,2.251,2.251,0,0,1-1.544-.539,1.734,1.734,0,0,1-.612-1.359A1.792,1.792,0,0,1,41.2,7.672a3.686,3.686,0,0,1,2.159-.545h.779V6.764a1.045,1.045,0,0,0-.226-.7A.887.887,0,0,0,43.2,5.8,1.009,1.009,0,0,0,42.53,6a.7.7,0,0,0-.243.563H40.594a1.7,1.7,0,0,1,.34-1.02,2.246,2.246,0,0,1,.961-.735,3.5,3.5,0,0,1,1.395-.267,2.767,2.767,0,0,1,1.86.589,2.06,2.06,0,0,1,.688,1.655V9.535A3.031,3.031,0,0,0,46.09,10.9V11Zm-1.4-1.178a1.458,1.458,0,0,0,.691-.167,1.1,1.1,0,0,0,.469-.448V8.117h-.633q-1.271,0-1.354.879l-.006.1a.678.678,0,0,0,.223.521A.865.865,0,0,0,42.979,9.822Zm3.9-2.039a3.821,3.821,0,0,1,.665-2.361,2.158,2.158,0,0,1,1.819-.879,1.942,1.942,0,0,1,1.529.691V2h1.7v9H51.059l-.082-.674a1.993,1.993,0,0,1-1.629.791,2.152,2.152,0,0,1-1.8-.882A3.944,3.944,0,0,1,46.875,7.783Zm1.693.126a2.5,2.5,0,0,0,.311,1.367,1.012,1.012,0,0,0,.9.475,1.133,1.133,0,0,0,1.107-.663V6.583a1.117,1.117,0,0,0-1.1-.663Q48.568,5.92,48.568,7.909Zm5.068-.138A3.76,3.76,0,0,1,54,6.09a2.659,2.659,0,0,1,1.046-1.143,3.051,3.051,0,0,1,1.585-.4,2.887,2.887,0,0,1,2.095.785,3.151,3.151,0,0,1,.905,2.133l.012.434a3.314,3.314,0,0,1-.814,2.341,3.157,3.157,0,0,1-4.374,0,3.372,3.372,0,0,1-.817-2.391Zm1.693.12a2.37,2.37,0,0,0,.34,1.382A1.221,1.221,0,0,0,57.6,9.28a2.593,2.593,0,0,0,.346-1.511A2.346,2.346,0,0,0,57.6,6.4a1.124,1.124,0,0,0-.973-.487,1.105,1.105,0,0,0-.961.484A2.637,2.637,0,0,0,55.33,7.892Z" transform="translate(188 421)" fill="#111e61"/>
    <path id="Trazado_602931" data-name="Trazado 602931" d="M3.92-3.123H2.52V0H.762V-8.531h3.17a3.583,3.583,0,0,1,2.332.674,2.326,2.326,0,0,1,.82,1.9A2.625,2.625,0,0,1,6.706-4.5a2.578,2.578,0,0,1-1.146.929L7.406-.082V0H5.52ZM2.52-4.547H3.938a1.452,1.452,0,0,0,1.025-.337,1.2,1.2,0,0,0,.363-.929,1.289,1.289,0,0,0-.343-.949,1.424,1.424,0,0,0-1.052-.346H2.52ZM11.227.117A3.112,3.112,0,0,1,8.956-.738,3.041,3.041,0,0,1,8.08-3.018v-.164A3.83,3.83,0,0,1,8.449-4.89,2.709,2.709,0,0,1,9.5-6.05a2.936,2.936,0,0,1,1.544-.407,2.631,2.631,0,0,1,2.048.82,3.333,3.333,0,0,1,.747,2.326v.691H9.8a1.573,1.573,0,0,0,.5,1,1.5,1.5,0,0,0,1.046.375,1.828,1.828,0,0,0,1.529-.709l.832.932a2.542,2.542,0,0,1-1.031.841A3.383,3.383,0,0,1,11.227.117Zm-.193-5.209a1.058,1.058,0,0,0-.817.341,1.768,1.768,0,0,0-.4.977H12.17v-.135a1.261,1.261,0,0,0-.3-.874A1.092,1.092,0,0,0,11.033-5.092Zm6.059,3.023L18.27-6.34h1.77L17.9,0H16.283L14.145-6.34h1.77ZM22.57,0h-1.7V-6.34h1.7Zm-1.8-7.98a.834.834,0,0,1,.255-.627.958.958,0,0,1,.694-.246.96.96,0,0,1,.691.246.829.829,0,0,1,.258.627.831.831,0,0,1-.261.633.962.962,0,0,1-.688.246.962.962,0,0,1-.688-.246A.831.831,0,0,1,20.771-7.98ZM27.4-1.752a.546.546,0,0,0-.308-.489,3.494,3.494,0,0,0-.987-.319q-2.262-.475-2.262-1.922a1.742,1.742,0,0,1,.7-1.409,2.825,2.825,0,0,1,1.831-.565,3.04,3.04,0,0,1,1.931.568,1.791,1.791,0,0,1,.724,1.477H27.334a.819.819,0,0,0-.234-.6.992.992,0,0,0-.732-.237,1.013,1.013,0,0,0-.662.193.61.61,0,0,0-.234.492.522.522,0,0,0,.267.454,2.743,2.743,0,0,0,.9.3,7.346,7.346,0,0,1,1.066.284,1.752,1.752,0,0,1,1.342,1.705,1.654,1.654,0,0,1-.744,1.4,3.21,3.21,0,0,1-1.922.536,3.353,3.353,0,0,1-1.415-.284,2.374,2.374,0,0,1-.97-.779,1.811,1.811,0,0,1-.352-1.069h1.605a.884.884,0,0,0,.334.691,1.325,1.325,0,0,0,.832.24,1.226,1.226,0,0,0,.735-.185A.574.574,0,0,0,27.4-1.752ZM31.922,0h-1.7V-6.34h1.7Zm-1.8-7.98a.834.834,0,0,1,.255-.627.958.958,0,0,1,.694-.246.96.96,0,0,1,.691.246.829.829,0,0,1,.258.627.831.831,0,0,1-.261.633.962.962,0,0,1-.688.246.962.962,0,0,1-.688-.246A.831.831,0,0,1,30.123-7.98Zm2.93,4.752a3.76,3.76,0,0,1,.363-1.682,2.659,2.659,0,0,1,1.046-1.143,3.051,3.051,0,0,1,1.585-.4,2.887,2.887,0,0,1,2.095.785,3.151,3.151,0,0,1,.905,2.133l.012.434a3.314,3.314,0,0,1-.814,2.341,2.831,2.831,0,0,1-2.186.882A2.845,2.845,0,0,1,33.87-.762a3.372,3.372,0,0,1-.817-2.391Zm1.693.12a2.37,2.37,0,0,0,.34,1.382,1.121,1.121,0,0,0,.973.478,1.124,1.124,0,0,0,.961-.472,2.593,2.593,0,0,0,.346-1.511A2.346,2.346,0,0,0,37.02-4.6a1.124,1.124,0,0,0-.973-.487,1.105,1.105,0,0,0-.961.484A2.637,2.637,0,0,0,34.746-3.108ZM36.381-9h1.846L36.6-7.184H35.227ZM41.66-6.34l.053.732a2.213,2.213,0,0,1,1.822-.85,1.84,1.84,0,0,1,1.5.592,2.761,2.761,0,0,1,.5,1.77V0H43.846V-4.055a1.1,1.1,0,0,0-.234-.782,1.049,1.049,0,0,0-.779-.243,1.165,1.165,0,0,0-1.072.609V0H40.066V-6.34Z" transform="translate(188 238)" fill="#111e61"/>
    <path id="Trazado_602932" data-name="Trazado 602932" d="M2.631,0H.873V-8.531H2.631ZM3.885-3.217A3.821,3.821,0,0,1,4.55-5.578a2.158,2.158,0,0,1,1.819-.879A1.942,1.942,0,0,1,7.9-5.766V-9H9.6V0H8.068L7.986-.674A1.993,1.993,0,0,1,6.357.117a2.152,2.152,0,0,1-1.8-.882A3.944,3.944,0,0,1,3.885-3.217Zm1.693.126a2.5,2.5,0,0,0,.311,1.367,1.012,1.012,0,0,0,.9.475A1.133,1.133,0,0,0,7.9-1.911V-4.417A1.117,1.117,0,0,0,6.8-5.08Q5.578-5.08,5.578-3.091ZM13.828.117a3.112,3.112,0,0,1-2.271-.855,3.041,3.041,0,0,1-.876-2.279v-.164a3.83,3.83,0,0,1,.369-1.708A2.709,2.709,0,0,1,12.1-6.05a2.936,2.936,0,0,1,1.544-.407,2.631,2.631,0,0,1,2.048.82,3.333,3.333,0,0,1,.747,2.326v.691H12.4a1.573,1.573,0,0,0,.5,1,1.5,1.5,0,0,0,1.046.375,1.828,1.828,0,0,0,1.529-.709l.832.932a2.542,2.542,0,0,1-1.031.841A3.383,3.383,0,0,1,13.828.117Zm-.193-5.209a1.058,1.058,0,0,0-.817.341,1.768,1.768,0,0,0-.4.977h2.355v-.135a1.261,1.261,0,0,0-.3-.874A1.092,1.092,0,0,0,13.635-5.092Zm5.32-1.248.053.732a2.213,2.213,0,0,1,1.822-.85,1.84,1.84,0,0,1,1.5.592,2.761,2.761,0,0,1,.5,1.77V0H21.141V-4.055a1.1,1.1,0,0,0-.234-.782,1.049,1.049,0,0,0-.779-.243,1.165,1.165,0,0,0-1.072.609V0H17.361V-6.34ZM26.145-7.9V-6.34h1.084V-5.1H26.145v3.164a.756.756,0,0,0,.135.5.677.677,0,0,0,.516.152,2.7,2.7,0,0,0,.5-.041V-.035a3.486,3.486,0,0,1-1.025.152,1.617,1.617,0,0,1-1.816-1.8V-5.1h-.926V-6.34h.926V-7.9ZM29.959,0h-1.7V-6.34h1.7Zm-1.8-7.98a.834.834,0,0,1,.255-.627.958.958,0,0,1,.694-.246.96.96,0,0,1,.691.246.829.829,0,0,1,.258.627.831.831,0,0,1-.261.633.962.962,0,0,1-.688.246.962.962,0,0,1-.688-.246A.831.831,0,0,1,28.16-7.98ZM31.764,0V-5.1H30.82V-6.34h.943v-.293A2.378,2.378,0,0,1,32.5-8.476a2.959,2.959,0,0,1,2.042-.647,6.773,6.773,0,0,1,1.922.346l-.246,1.4a7.5,7.5,0,0,0-.891-.22,4.376,4.376,0,0,0-.68-.05q-1.184,0-1.184,1.049v.258h1.248V-5.1H33.463V0Zm5.49,0h-1.7V-6.34h1.7Zm4.037-1.248a1.111,1.111,0,0,0,.762-.258.9.9,0,0,0,.3-.686h1.588a2.172,2.172,0,0,1-.352,1.181,2.32,2.32,0,0,1-.946.832,2.962,2.962,0,0,1-1.327.3,2.752,2.752,0,0,1-2.145-.864,3.42,3.42,0,0,1-.785-2.388v-.111a3.381,3.381,0,0,1,.779-2.338,2.72,2.72,0,0,1,2.139-.873,2.667,2.667,0,0,1,1.907.677,2.4,2.4,0,0,1,.729,1.8H42.357a1.164,1.164,0,0,0-.3-.8,1.016,1.016,0,0,0-.773-.309,1.02,1.02,0,0,0-.894.431,2.5,2.5,0,0,0-.3,1.4v.176a2.531,2.531,0,0,0,.3,1.408A1.033,1.033,0,0,0,41.291-1.248ZM48.586,0a1.88,1.88,0,0,1-.17-.568,2.049,2.049,0,0,1-1.6.686,2.251,2.251,0,0,1-1.544-.539,1.734,1.734,0,0,1-.612-1.359,1.792,1.792,0,0,1,.747-1.547,3.686,3.686,0,0,1,2.159-.545h.779v-.363a1.045,1.045,0,0,0-.226-.7.887.887,0,0,0-.712-.264A1.009,1.009,0,0,0,46.737-5a.7.7,0,0,0-.243.563H44.8a1.7,1.7,0,0,1,.34-1.02A2.246,2.246,0,0,1,46.1-6.19,3.5,3.5,0,0,1,47.5-6.457a2.767,2.767,0,0,1,1.86.589,2.06,2.06,0,0,1,.688,1.655v2.748A3.031,3.031,0,0,0,50.3-.1V0Zm-1.4-1.178a1.458,1.458,0,0,0,.691-.167,1.1,1.1,0,0,0,.469-.448v-1.09h-.633q-1.271,0-1.354.879l-.006.1a.678.678,0,0,0,.223.521A.865.865,0,0,0,47.186-1.178Zm6.8-.07a1.111,1.111,0,0,0,.762-.258.9.9,0,0,0,.3-.686h1.588a2.172,2.172,0,0,1-.352,1.181,2.32,2.32,0,0,1-.946.832,2.962,2.962,0,0,1-1.327.3,2.752,2.752,0,0,1-2.145-.864,3.42,3.42,0,0,1-.785-2.388v-.111a3.381,3.381,0,0,1,.779-2.338A2.72,2.72,0,0,1,54-6.457a2.667,2.667,0,0,1,1.907.677,2.4,2.4,0,0,1,.729,1.8H55.049a1.164,1.164,0,0,0-.3-.8,1.016,1.016,0,0,0-.773-.309,1.02,1.02,0,0,0-.894.431,2.5,2.5,0,0,0-.3,1.4v.176a2.531,2.531,0,0,0,.3,1.408A1.033,1.033,0,0,0,53.982-1.248ZM59.391,0h-1.7V-6.34h1.7Zm-1.8-7.98a.834.834,0,0,1,.255-.627.958.958,0,0,1,.694-.246.96.96,0,0,1,.691.246.829.829,0,0,1,.258.627.831.831,0,0,1-.261.633.962.962,0,0,1-.688.246.962.962,0,0,1-.688-.246A.831.831,0,0,1,57.592-7.98Zm2.93,4.752a3.76,3.76,0,0,1,.363-1.682,2.659,2.659,0,0,1,1.046-1.143,3.051,3.051,0,0,1,1.585-.4,2.887,2.887,0,0,1,2.095.785,3.151,3.151,0,0,1,.905,2.133l.012.434a3.314,3.314,0,0,1-.814,2.341,2.831,2.831,0,0,1-2.186.882,2.845,2.845,0,0,1-2.188-.879,3.372,3.372,0,0,1-.817-2.391Zm1.693.12a2.37,2.37,0,0,0,.34,1.382,1.121,1.121,0,0,0,.973.478,1.124,1.124,0,0,0,.961-.472,2.593,2.593,0,0,0,.346-1.511A2.346,2.346,0,0,0,64.488-4.6a1.124,1.124,0,0,0-.973-.487,1.105,1.105,0,0,0-.961.484A2.637,2.637,0,0,0,62.215-3.108ZM63.85-9H65.7L64.072-7.184H62.7Zm5.279,2.66.053.732A2.213,2.213,0,0,1,71-6.457a1.84,1.84,0,0,1,1.5.592,2.761,2.761,0,0,1,.5,1.77V0H71.314V-4.055a1.1,1.1,0,0,0-.234-.782A1.049,1.049,0,0,0,70.3-5.08a1.165,1.165,0,0,0-1.072.609V0H67.535V-6.34ZM.387,7.783a3.821,3.821,0,0,1,.665-2.361,2.158,2.158,0,0,1,1.819-.879A1.942,1.942,0,0,1,4.4,5.234V2H6.1v9H4.57l-.082-.674a1.993,1.993,0,0,1-1.629.791,2.152,2.152,0,0,1-1.8-.882A3.944,3.944,0,0,1,.387,7.783Zm1.693.126a2.5,2.5,0,0,0,.311,1.367,1.012,1.012,0,0,0,.9.475A1.133,1.133,0,0,0,4.4,9.089V6.583A1.117,1.117,0,0,0,3.3,5.92Q2.08,5.92,2.08,7.909Zm8.25,3.208a3.112,3.112,0,0,1-2.271-.855,3.041,3.041,0,0,1-.876-2.279V7.818A3.83,3.83,0,0,1,7.553,6.11,2.709,2.709,0,0,1,8.6,4.95a2.936,2.936,0,0,1,1.544-.407,2.631,2.631,0,0,1,2.048.82,3.333,3.333,0,0,1,.747,2.326v.691H8.9a1.573,1.573,0,0,0,.5,1,1.5,1.5,0,0,0,1.046.375,1.828,1.828,0,0,0,1.529-.709l.832.932a2.542,2.542,0,0,1-1.031.841A3.383,3.383,0,0,1,10.33,11.117Zm-.193-5.209a1.058,1.058,0,0,0-.817.341,1.768,1.768,0,0,0-.4.977h2.355V7.091a1.261,1.261,0,0,0-.3-.874A1.092,1.092,0,0,0,10.137,5.908Zm6.486,1.863a3.76,3.76,0,0,1,.363-1.682,2.659,2.659,0,0,1,1.046-1.143,3.051,3.051,0,0,1,1.585-.4,2.887,2.887,0,0,1,2.095.785,3.151,3.151,0,0,1,.905,2.133l.012.434a3.314,3.314,0,0,1-.814,2.341,2.831,2.831,0,0,1-2.186.882,2.845,2.845,0,0,1-2.188-.879,3.372,3.372,0,0,1-.817-2.391Zm1.693.12a2.37,2.37,0,0,0,.34,1.382,1.221,1.221,0,0,0,1.934.006,2.593,2.593,0,0,0,.346-1.511A2.346,2.346,0,0,0,20.59,6.4a1.124,1.124,0,0,0-.973-.487,1.105,1.105,0,0,0-.961.484A2.637,2.637,0,0,0,18.316,7.892Zm11.068,0a3.839,3.839,0,0,1-.65,2.376,2.154,2.154,0,0,1-1.816.853,1.979,1.979,0,0,1-1.646-.791L25.2,11H23.672V2h1.693V5.229a1.929,1.929,0,0,1,1.541-.686,2.172,2.172,0,0,1,1.819.853,3.845,3.845,0,0,1,.659,2.4Zm-1.693-.123a2.522,2.522,0,0,0-.3-1.4,1.03,1.03,0,0,0-.908-.442,1.117,1.117,0,0,0-1.113.662v2.5a1.132,1.132,0,0,0,1.125.668,1.045,1.045,0,0,0,1.078-.809A4.171,4.171,0,0,0,27.691,7.766ZM32.221,4.66v6.686a2.268,2.268,0,0,1-.557,1.632,2.116,2.116,0,0,1-1.605.583,3.443,3.443,0,0,1-.838-.1V12.119a3.179,3.179,0,0,0,.533.053q.768,0,.768-.814V4.66ZM30.387,3.02a.834.834,0,0,1,.255-.627,1.1,1.1,0,0,1,1.389,0,.834.834,0,0,1,.255.627.831.831,0,0,1-.261.633,1.086,1.086,0,0,1-1.377,0A.831.831,0,0,1,30.387,3.02Zm6.076,8.1a3.112,3.112,0,0,1-2.271-.855,3.041,3.041,0,0,1-.876-2.279V7.818a3.83,3.83,0,0,1,.369-1.708,2.709,2.709,0,0,1,1.046-1.16,2.936,2.936,0,0,1,1.544-.407,2.631,2.631,0,0,1,2.048.82,3.333,3.333,0,0,1,.747,2.326v.691H35.033a1.573,1.573,0,0,0,.5,1,1.5,1.5,0,0,0,1.046.375A1.828,1.828,0,0,0,38.1,9.043l.832.932a2.542,2.542,0,0,1-1.031.841A3.383,3.383,0,0,1,36.463,11.117ZM36.27,5.908a1.058,1.058,0,0,0-.817.341,1.768,1.768,0,0,0-.4.977h2.355V7.091a1.261,1.261,0,0,0-.3-.874A1.092,1.092,0,0,0,36.27,5.908ZM42.059,3.1V4.66h1.084V5.9H42.059V9.066a.756.756,0,0,0,.135.5.677.677,0,0,0,.516.152,2.7,2.7,0,0,0,.5-.041v1.283a3.486,3.486,0,0,1-1.025.152,1.617,1.617,0,0,1-1.816-1.8V5.9h-.926V4.66h.926V3.1ZM45.873,11h-1.7V4.66h1.7Zm-1.8-7.98a.834.834,0,0,1,.255-.627,1.1,1.1,0,0,1,1.386,0,.829.829,0,0,1,.258.627.831.831,0,0,1-.261.633,1.086,1.086,0,0,1-1.377,0A.831.831,0,0,1,44.074,3.02Zm5.566,5.912L50.818,4.66h1.77L50.449,11H48.832L46.693,4.66h1.77Zm3.34-1.16a3.76,3.76,0,0,1,.363-1.682A2.659,2.659,0,0,1,54.39,4.947a3.051,3.051,0,0,1,1.585-.4,2.887,2.887,0,0,1,2.095.785,3.151,3.151,0,0,1,.905,2.133l.012.434a3.314,3.314,0,0,1-.814,2.341,3.157,3.157,0,0,1-4.374,0,3.372,3.372,0,0,1-.817-2.391Zm1.693.12a2.37,2.37,0,0,0,.34,1.382,1.221,1.221,0,0,0,1.934.006,2.593,2.593,0,0,0,.346-1.511A2.346,2.346,0,0,0,56.947,6.4a1.124,1.124,0,0,0-.973-.487,1.105,1.105,0,0,0-.961.484A2.637,2.637,0,0,0,54.674,7.892Zm8.789,1.356a.546.546,0,0,0-.308-.489,3.494,3.494,0,0,0-.987-.319q-2.262-.475-2.262-1.922a1.742,1.742,0,0,1,.7-1.409,2.825,2.825,0,0,1,1.831-.565,3.04,3.04,0,0,1,1.931.568,1.791,1.791,0,0,1,.724,1.477H63.4a.819.819,0,0,0-.234-.6.992.992,0,0,0-.732-.237,1.013,1.013,0,0,0-.662.193.61.61,0,0,0-.234.492.522.522,0,0,0,.267.454,2.743,2.743,0,0,0,.9.3,7.346,7.346,0,0,1,1.066.284,1.752,1.752,0,0,1,1.342,1.705,1.654,1.654,0,0,1-.744,1.4,3.21,3.21,0,0,1-1.922.536,3.353,3.353,0,0,1-1.415-.284,2.374,2.374,0,0,1-.97-.779,1.811,1.811,0,0,1-.352-1.069h1.605a.884.884,0,0,0,.334.691,1.325,1.325,0,0,0,.832.24,1.226,1.226,0,0,0,.735-.185A.574.574,0,0,0,63.463,9.248Z" transform="translate(188 65)" fill="#111e61"/>
    <path id="Trazado_602933" data-name="Trazado 602933" d="M-54.6,0V-8.531h2.625a3.986,3.986,0,0,1,2.013.507A3.534,3.534,0,0,1-48.58-6.583a4.446,4.446,0,0,1,.5,2.124v.393a4.458,4.458,0,0,1-.489,2.115,3.5,3.5,0,0,1-1.38,1.436A4.016,4.016,0,0,1-51.961,0Zm1.758-7.107v5.7H-52a1.909,1.909,0,0,0,1.576-.674,3.045,3.045,0,0,0,.557-1.928v-.451A3.093,3.093,0,0,0-50.4-6.437a1.9,1.9,0,0,0-1.576-.671ZM-44,.117a3.112,3.112,0,0,1-2.271-.855,3.041,3.041,0,0,1-.876-2.279v-.164a3.83,3.83,0,0,1,.369-1.708,2.709,2.709,0,0,1,1.046-1.16,2.936,2.936,0,0,1,1.544-.407,2.631,2.631,0,0,1,2.048.82,3.333,3.333,0,0,1,.747,2.326v.691h-4.037a1.573,1.573,0,0,0,.5,1,1.5,1.5,0,0,0,1.046.375,1.828,1.828,0,0,0,1.529-.709l.832.932a2.542,2.542,0,0,1-1.031.841A3.383,3.383,0,0,1-44,.117Zm-.193-5.209a1.058,1.058,0,0,0-.817.341,1.768,1.768,0,0,0-.4.977h2.355v-.135a1.261,1.261,0,0,0-.3-.874A1.092,1.092,0,0,0-44.191-5.092Zm7.2,3.34a.546.546,0,0,0-.308-.489,3.494,3.494,0,0,0-.987-.319q-2.262-.475-2.262-1.922a1.742,1.742,0,0,1,.7-1.409,2.825,2.825,0,0,1,1.831-.565,3.04,3.04,0,0,1,1.931.568,1.791,1.791,0,0,1,.724,1.477h-1.693a.819.819,0,0,0-.234-.6.992.992,0,0,0-.732-.237,1.013,1.013,0,0,0-.662.193.61.61,0,0,0-.234.492.522.522,0,0,0,.267.454,2.743,2.743,0,0,0,.9.3,7.346,7.346,0,0,1,1.066.284A1.752,1.752,0,0,1-35.35-1.822a1.654,1.654,0,0,1-.744,1.4,3.21,3.21,0,0,1-1.922.536,3.353,3.353,0,0,1-1.415-.284,2.374,2.374,0,0,1-.97-.779,1.811,1.811,0,0,1-.352-1.069h1.605a.884.884,0,0,0,.334.691,1.325,1.325,0,0,0,.832.24,1.226,1.226,0,0,0,.735-.185A.574.574,0,0,0-37-1.752ZM-30.586,0a1.88,1.88,0,0,1-.17-.568,2.049,2.049,0,0,1-1.6.686A2.251,2.251,0,0,1-33.9-.422a1.734,1.734,0,0,1-.612-1.359,1.792,1.792,0,0,1,.747-1.547,3.686,3.686,0,0,1,2.159-.545h.779v-.363a1.045,1.045,0,0,0-.226-.7.887.887,0,0,0-.712-.264A1.009,1.009,0,0,0-32.435-5a.7.7,0,0,0-.243.563h-1.693a1.7,1.7,0,0,1,.34-1.02,2.246,2.246,0,0,1,.961-.735,3.5,3.5,0,0,1,1.395-.267,2.767,2.767,0,0,1,1.86.589,2.06,2.06,0,0,1,.688,1.655v2.748A3.031,3.031,0,0,0-28.875-.1V0Zm-1.4-1.178a1.458,1.458,0,0,0,.691-.167,1.1,1.1,0,0,0,.469-.448v-1.09h-.633q-1.271,0-1.354.879l-.006.1a.678.678,0,0,0,.223.521A.865.865,0,0,0-31.986-1.178Zm7.723-3.574a4.6,4.6,0,0,0-.609-.047,1.24,1.24,0,0,0-1.26.65V0h-1.693V-6.34h1.6l.047.756a1.569,1.569,0,0,1,1.412-.873,1.774,1.774,0,0,1,.527.076Zm4.377,0A4.6,4.6,0,0,0-20.5-4.8a1.24,1.24,0,0,0-1.26.65V0h-1.693V-6.34h1.6l.047.756a1.569,1.569,0,0,1,1.412-.873,1.774,1.774,0,0,1,.527.076Zm.34,1.523a3.76,3.76,0,0,1,.363-1.682,2.659,2.659,0,0,1,1.046-1.143,3.051,3.051,0,0,1,1.585-.4,2.887,2.887,0,0,1,2.095.785,3.151,3.151,0,0,1,.905,2.133l.012.434a3.314,3.314,0,0,1-.814,2.341,2.831,2.831,0,0,1-2.186.882,2.845,2.845,0,0,1-2.188-.879,3.372,3.372,0,0,1-.817-2.391Zm1.693.12a2.37,2.37,0,0,0,.34,1.382,1.121,1.121,0,0,0,.973.478,1.124,1.124,0,0,0,.961-.472,2.593,2.593,0,0,0,.346-1.511A2.346,2.346,0,0,0-15.58-4.6a1.124,1.124,0,0,0-.973-.487,1.105,1.105,0,0,0-.961.484A2.637,2.637,0,0,0-17.854-3.108ZM-10.711,0h-1.7V-9h1.7Zm3.182,0h-1.7V-9h1.7ZM-6.4-3.229A3.76,3.76,0,0,1-6.035-4.91,2.659,2.659,0,0,1-4.989-6.053a3.051,3.051,0,0,1,1.585-.4,2.887,2.887,0,0,1,2.095.785A3.151,3.151,0,0,1-.4-3.539l.012.434A3.314,3.314,0,0,1-1.207-.765,2.831,2.831,0,0,1-3.393.117,2.845,2.845,0,0,1-5.581-.762,3.372,3.372,0,0,1-6.4-3.152Zm1.693.12a2.37,2.37,0,0,0,.34,1.382,1.121,1.121,0,0,0,.973.478,1.124,1.124,0,0,0,.961-.472,2.593,2.593,0,0,0,.346-1.511A2.346,2.346,0,0,0-2.432-4.6,1.124,1.124,0,0,0-3.4-5.092a1.105,1.105,0,0,0-.961.484A2.637,2.637,0,0,0-4.705-3.108ZM-67.137,7.783a3.821,3.821,0,0,1,.665-2.361,2.158,2.158,0,0,1,1.819-.879,1.942,1.942,0,0,1,1.529.691V2h1.7v9h-1.529l-.082-.674a1.993,1.993,0,0,1-1.629.791,2.152,2.152,0,0,1-1.8-.882A3.944,3.944,0,0,1-67.137,7.783Zm1.693.126a2.5,2.5,0,0,0,.311,1.367,1.012,1.012,0,0,0,.9.475,1.133,1.133,0,0,0,1.107-.663V6.583a1.117,1.117,0,0,0-1.1-.663Q-65.443,5.92-65.443,7.909Zm8.25,3.208a3.112,3.112,0,0,1-2.271-.855,3.041,3.041,0,0,1-.876-2.279V7.818a3.83,3.83,0,0,1,.369-1.708,2.709,2.709,0,0,1,1.046-1.16,2.936,2.936,0,0,1,1.544-.407,2.631,2.631,0,0,1,2.048.82,3.333,3.333,0,0,1,.747,2.326v.691h-4.037a1.573,1.573,0,0,0,.5,1,1.5,1.5,0,0,0,1.046.375,1.828,1.828,0,0,0,1.529-.709l.832.932a2.542,2.542,0,0,1-1.031.841A3.383,3.383,0,0,1-57.193,11.117Zm-.193-5.209a1.058,1.058,0,0,0-.817.341,1.768,1.768,0,0,0-.4.977h2.355V7.091a1.261,1.261,0,0,0-.3-.874A1.092,1.092,0,0,0-57.387,5.908ZM-51.838,11h-1.7V2h1.7Zm10.09-3.111a3.8,3.8,0,0,1-.665,2.347,2.132,2.132,0,0,1-1.8.882,1.975,1.975,0,0,1-1.553-.668v2.988h-1.693V4.66h1.57l.059.621a1.99,1.99,0,0,1,1.605-.738A2.147,2.147,0,0,1-42.4,5.41a3.905,3.905,0,0,1,.65,2.391Zm-1.693-.123A2.5,2.5,0,0,0-43.755,6.4a1.021,1.021,0,0,0-.911-.48,1.109,1.109,0,0,0-1.1.609v2.6a1.128,1.128,0,0,0,1.107.627Q-43.441,9.752-43.441,7.766Zm6.3-1.518a4.6,4.6,0,0,0-.609-.047,1.24,1.24,0,0,0-1.26.65V11H-40.7V4.66h1.6l.047.756a1.569,1.569,0,0,1,1.412-.873,1.774,1.774,0,0,1,.527.076Zm.34,1.523a3.76,3.76,0,0,1,.363-1.682,2.659,2.659,0,0,1,1.046-1.143,3.051,3.051,0,0,1,1.585-.4,2.887,2.887,0,0,1,2.095.785A3.151,3.151,0,0,1-30.8,7.461l.012.434a3.314,3.314,0,0,1-.814,2.341,2.831,2.831,0,0,1-2.186.882,2.845,2.845,0,0,1-2.188-.879A3.372,3.372,0,0,1-36.8,7.848Zm1.693.12a2.37,2.37,0,0,0,.34,1.382,1.121,1.121,0,0,0,.973.478,1.124,1.124,0,0,0,.961-.472,2.593,2.593,0,0,0,.346-1.511A2.346,2.346,0,0,0-32.83,6.4a1.124,1.124,0,0,0-.973-.487,1.105,1.105,0,0,0-.961.484A2.637,2.637,0,0,0-35.1,7.892Zm5.092-.108a3.821,3.821,0,0,1,.665-2.361,2.158,2.158,0,0,1,1.819-.879A1.942,1.942,0,0,1-26,5.234V2h1.7v9h-1.529l-.082-.674a1.993,1.993,0,0,1-1.629.791,2.152,2.152,0,0,1-1.8-.882A3.944,3.944,0,0,1-30.012,7.783Zm1.693.126a2.5,2.5,0,0,0,.311,1.367,1.012,1.012,0,0,0,.9.475A1.133,1.133,0,0,0-26,9.089V6.583a1.117,1.117,0,0,0-1.1-.663Q-28.318,5.92-28.318,7.909Zm9.129,2.446a2.124,2.124,0,0,1-1.734.762,2,2,0,0,1-1.556-.586,2.5,2.5,0,0,1-.548-1.717V4.66h1.693v4.1q0,.991.9.991a1.223,1.223,0,0,0,1.184-.6V4.66h1.7V11h-1.594Zm5.555-.6a1.111,1.111,0,0,0,.762-.258.9.9,0,0,0,.3-.686h1.588a2.172,2.172,0,0,1-.352,1.181,2.32,2.32,0,0,1-.946.832,2.962,2.962,0,0,1-1.327.3,2.752,2.752,0,0,1-2.145-.864,3.42,3.42,0,0,1-.785-2.388V7.754a3.381,3.381,0,0,1,.779-2.338,2.72,2.72,0,0,1,2.139-.873,2.667,2.667,0,0,1,1.907.677,2.4,2.4,0,0,1,.729,1.8h-1.588a1.164,1.164,0,0,0-.3-.8,1.016,1.016,0,0,0-.773-.309,1.02,1.02,0,0,0-.894.431,2.5,2.5,0,0,0-.3,1.4v.176a2.531,2.531,0,0,0,.3,1.408A1.033,1.033,0,0,0-13.635,9.752ZM-7.986,3.1V4.66H-6.9V5.9H-7.986V9.066a.756.756,0,0,0,.135.5.677.677,0,0,0,.516.152,2.7,2.7,0,0,0,.5-.041v1.283a3.486,3.486,0,0,1-1.025.152,1.617,1.617,0,0,1-1.816-1.8V5.9h-.926V4.66h.926V3.1ZM-6.4,7.771A3.76,3.76,0,0,1-6.035,6.09,2.659,2.659,0,0,1-4.989,4.947a3.051,3.051,0,0,1,1.585-.4,2.887,2.887,0,0,1,2.095.785A3.151,3.151,0,0,1-.4,7.461l.012.434a3.314,3.314,0,0,1-.814,2.341,2.831,2.831,0,0,1-2.186.882,2.845,2.845,0,0,1-2.188-.879A3.372,3.372,0,0,1-6.4,7.848Zm1.693.12a2.37,2.37,0,0,0,.34,1.382,1.121,1.121,0,0,0,.973.478,1.124,1.124,0,0,0,.961-.472,2.593,2.593,0,0,0,.346-1.511A2.346,2.346,0,0,0-2.432,6.4,1.124,1.124,0,0,0-3.4,5.908a1.105,1.105,0,0,0-.961.484A2.637,2.637,0,0,0-4.705,7.892Z" transform="translate(586 421)" fill="#111e61"/>
    <path id="Trazado_602934" data-name="Trazado 602934" d="M-92.074-1.119a2.6,2.6,0,0,1-1.21.929,4.887,4.887,0,0,1-1.808.308,3.506,3.506,0,0,1-1.852-.489,3.26,3.26,0,0,1-1.251-1.392,4.806,4.806,0,0,1-.454-2.092V-4.6a4.487,4.487,0,0,1,.9-2.988,3.134,3.134,0,0,1,2.528-1.061,3.237,3.237,0,0,1,2.15.683,2.974,2.974,0,0,1,1,1.937H-93.2a1.86,1.86,0,0,0-2.016-1.7,1.991,1.991,0,0,0-1.714.795,3.88,3.88,0,0,0-.589,2.3v.7a3.636,3.636,0,0,0,.656,2.284A2.127,2.127,0,0,0-95.086-.8a3.921,3.921,0,0,0,1.107-.14,1.713,1.713,0,0,0,.785-.473V-3.328h-1.975v-.92h3.094ZM-87.738.117a2.77,2.77,0,0,1-2.1-.847,3.142,3.142,0,0,1-.809-2.265v-.2a3.8,3.8,0,0,1,.36-1.685,2.811,2.811,0,0,1,1.008-1.16,2.534,2.534,0,0,1,1.4-.419,2.374,2.374,0,0,1,1.922.814,3.526,3.526,0,0,1,.686,2.332v.451h-4.295a2.254,2.254,0,0,0,.548,1.515,1.722,1.722,0,0,0,1.333.577A1.888,1.888,0,0,0-86.707-1a2.444,2.444,0,0,0,.7-.621l.662.516A2.662,2.662,0,0,1-87.738.117Zm-.135-5.684a1.446,1.446,0,0,0-1.1.478,2.321,2.321,0,0,0-.551,1.339h3.176v-.082a2.065,2.065,0,0,0-.445-1.28A1.361,1.361,0,0,0-87.873-5.566Zm7.553,3.885a.8.8,0,0,0-.331-.683,3.187,3.187,0,0,0-1.154-.419,5.457,5.457,0,0,1-1.307-.422,1.859,1.859,0,0,1-.715-.586,1.4,1.4,0,0,1-.231-.809A1.645,1.645,0,0,1-83.4-5.918a2.574,2.574,0,0,1,1.685-.539,2.649,2.649,0,0,1,1.749.557,1.768,1.768,0,0,1,.671,1.424h-1.09a.979.979,0,0,0-.378-.768,1.416,1.416,0,0,0-.952-.322,1.482,1.482,0,0,0-.926.258.812.812,0,0,0-.334.674.658.658,0,0,0,.311.592,3.821,3.821,0,0,0,1.122.381,5.847,5.847,0,0,1,1.315.434,1.919,1.919,0,0,1,.747.606,1.491,1.491,0,0,1,.243.864A1.623,1.623,0,0,1-79.916-.4,2.851,2.851,0,0,1-81.68.117a3.193,3.193,0,0,1-1.348-.27,2.192,2.192,0,0,1-.917-.753,1.815,1.815,0,0,1-.331-1.046h1.084a1.122,1.122,0,0,0,.437.864,1.693,1.693,0,0,0,1.075.319,1.748,1.748,0,0,0,.987-.249A.765.765,0,0,0-80.32-1.682Zm3.967-6.193V-6.34h1.184V-5.5h-1.184v3.937a.88.88,0,0,0,.158.572.666.666,0,0,0,.539.191,2.624,2.624,0,0,0,.516-.07V0a3.161,3.161,0,0,1-.832.116,1.35,1.35,0,0,1-1.1-.439,1.888,1.888,0,0,1-.369-1.248V-5.5h-1.154V-6.34h1.154V-7.875ZM-72.727,0h-1.084V-6.34h1.084ZM-73.9-8.021a.647.647,0,0,1,.161-.445.6.6,0,0,1,.478-.182.614.614,0,0,1,.48.182.64.64,0,0,1,.164.445.619.619,0,0,1-.164.439.626.626,0,0,1-.48.176.616.616,0,0,1-.478-.176A.626.626,0,0,1-73.9-8.021Zm2.619,4.793A3.745,3.745,0,0,1-70.913-4.9a2.732,2.732,0,0,1,1.02-1.148,2.775,2.775,0,0,1,1.491-.4,2.674,2.674,0,0,1,2.095.9,3.449,3.449,0,0,1,.8,2.385V-3.1a3.777,3.777,0,0,1-.354,1.661A2.692,2.692,0,0,1-66.876-.293a2.807,2.807,0,0,1-1.515.41,2.667,2.667,0,0,1-2.089-.9,3.432,3.432,0,0,1-.8-2.373Zm1.09.129A2.712,2.712,0,0,0-69.7-1.406a1.566,1.566,0,0,0,1.31.639,1.556,1.556,0,0,0,1.313-.647,2.966,2.966,0,0,0,.486-1.813,2.708,2.708,0,0,0-.5-1.69A1.574,1.574,0,0,0-68.4-5.566a1.557,1.557,0,0,0-1.295.639A2.944,2.944,0,0,0-70.189-3.1ZM-67.91-9H-66.6l-1.57,1.723-.873,0Zm4.787,2.66.035.8a2.31,2.31,0,0,1,1.9-.914q2.01,0,2.027,2.268V0h-1.084V-4.2a1.459,1.459,0,0,0-.313-1.014,1.256,1.256,0,0,0-.958-.328,1.564,1.564,0,0,0-.926.281,1.91,1.91,0,0,0-.621.738V0h-1.084V-6.34Zm8.3,3.117a3.714,3.714,0,0,1,.691-2.347,2.186,2.186,0,0,1,1.811-.888,2.2,2.2,0,0,1,1.764.762V-9h1.084V0h-1l-.053-.68a2.208,2.208,0,0,1-1.811.8,2.165,2.165,0,0,1-1.8-.9,3.756,3.756,0,0,1-.694-2.355Zm1.084.123a2.812,2.812,0,0,0,.445,1.688,1.44,1.44,0,0,0,1.23.609,1.581,1.581,0,0,0,1.506-.926V-4.641a1.593,1.593,0,0,0-1.494-.9,1.446,1.446,0,0,0-1.242.615A3.1,3.1,0,0,0-53.736-3.1ZM-45.158.117a2.77,2.77,0,0,1-2.1-.847,3.142,3.142,0,0,1-.809-2.265v-.2a3.8,3.8,0,0,1,.36-1.685A2.811,2.811,0,0,1-46.7-6.038a2.534,2.534,0,0,1,1.4-.419,2.374,2.374,0,0,1,1.922.814,3.526,3.526,0,0,1,.686,2.332v.451H-46.98a2.254,2.254,0,0,0,.548,1.515A1.722,1.722,0,0,0-45.1-.768,1.888,1.888,0,0,0-44.127-1a2.444,2.444,0,0,0,.7-.621l.662.516A2.662,2.662,0,0,1-45.158.117Zm-.135-5.684a1.446,1.446,0,0,0-1.1.478,2.321,2.321,0,0,0-.551,1.339h3.176v-.082a2.065,2.065,0,0,0-.445-1.28A1.361,1.361,0,0,0-45.293-5.566Zm9.9.2a3.248,3.248,0,0,0-.533-.041,1.428,1.428,0,0,0-1.447.908V0h-1.084V-6.34h1.055l.018.732a1.688,1.688,0,0,1,1.512-.85,1.107,1.107,0,0,1,.48.082ZM-33.223,0h-1.084V-6.34h1.084Zm-1.172-8.021a.647.647,0,0,1,.161-.445.6.6,0,0,1,.478-.182.614.614,0,0,1,.48.182.64.64,0,0,1,.164.445.619.619,0,0,1-.164.439.626.626,0,0,1-.48.176.616.616,0,0,1-.478-.176A.626.626,0,0,1-34.395-8.021ZM-28.857.117a2.77,2.77,0,0,1-2.1-.847,3.142,3.142,0,0,1-.809-2.265v-.2a3.8,3.8,0,0,1,.36-1.685A2.811,2.811,0,0,1-30.4-6.038a2.534,2.534,0,0,1,1.4-.419,2.374,2.374,0,0,1,1.922.814,3.526,3.526,0,0,1,.686,2.332v.451H-30.68a2.254,2.254,0,0,0,.548,1.515A1.722,1.722,0,0,0-28.8-.768,1.888,1.888,0,0,0-27.826-1a2.444,2.444,0,0,0,.7-.621l.662.516A2.662,2.662,0,0,1-28.857.117Zm-.135-5.684a1.446,1.446,0,0,0-1.1.478,2.321,2.321,0,0,0-.551,1.339h3.176v-.082a2.065,2.065,0,0,0-.445-1.28A1.361,1.361,0,0,0-28.992-5.566Zm7.553,3.885a.8.8,0,0,0-.331-.683,3.187,3.187,0,0,0-1.154-.419,5.457,5.457,0,0,1-1.307-.422,1.859,1.859,0,0,1-.715-.586,1.4,1.4,0,0,1-.231-.809,1.645,1.645,0,0,1,.659-1.318,2.574,2.574,0,0,1,1.685-.539,2.649,2.649,0,0,1,1.749.557,1.768,1.768,0,0,1,.671,1.424H-21.5a.979.979,0,0,0-.378-.768,1.416,1.416,0,0,0-.952-.322,1.482,1.482,0,0,0-.926.258.812.812,0,0,0-.334.674.658.658,0,0,0,.311.592,3.821,3.821,0,0,0,1.122.381,5.847,5.847,0,0,1,1.315.434,1.919,1.919,0,0,1,.747.606,1.491,1.491,0,0,1,.243.864A1.623,1.623,0,0,1-21.035-.4,2.851,2.851,0,0,1-22.8.117a3.193,3.193,0,0,1-1.348-.27,2.192,2.192,0,0,1-.917-.753,1.815,1.815,0,0,1-.331-1.046h1.084a1.122,1.122,0,0,0,.437.864A1.693,1.693,0,0,0-22.8-.768a1.748,1.748,0,0,0,.987-.249A.765.765,0,0,0-21.439-1.682ZM-19.2-3.223a3.726,3.726,0,0,1,.686-2.358A2.192,2.192,0,0,1-16.7-6.457a2.181,2.181,0,0,1,1.811.82l.053-.7h.99V-.152a2.579,2.579,0,0,1-.729,1.939,2.692,2.692,0,0,1-1.96.709A3.261,3.261,0,0,1-17.877,2.2a2.31,2.31,0,0,1-1-.8l.563-.65a2.12,2.12,0,0,0,1.705.861,1.661,1.661,0,0,0,1.233-.445,1.7,1.7,0,0,0,.442-1.254V-.633a2.228,2.228,0,0,1-1.775.75,2.166,2.166,0,0,1-1.8-.9A3.918,3.918,0,0,1-19.2-3.223Zm1.09.123a2.843,2.843,0,0,0,.439,1.685,1.428,1.428,0,0,0,1.23.612,1.588,1.588,0,0,0,1.506-.932V-4.629a1.606,1.606,0,0,0-1.494-.908,1.441,1.441,0,0,0-1.236.615A3.1,3.1,0,0,0-18.111-3.1Zm5.613-.129A3.745,3.745,0,0,1-12.132-4.9a2.732,2.732,0,0,1,1.02-1.148,2.775,2.775,0,0,1,1.491-.4,2.674,2.674,0,0,1,2.095.9,3.449,3.449,0,0,1,.8,2.385V-3.1a3.777,3.777,0,0,1-.354,1.661A2.692,2.692,0,0,1-8.095-.293a2.807,2.807,0,0,1-1.515.41,2.667,2.667,0,0,1-2.089-.9,3.432,3.432,0,0,1-.8-2.373Zm1.09.129a2.712,2.712,0,0,0,.489,1.693,1.566,1.566,0,0,0,1.31.639A1.556,1.556,0,0,0-8.3-1.415a2.966,2.966,0,0,0,.486-1.813,2.708,2.708,0,0,0-.5-1.69,1.574,1.574,0,0,0-1.315-.647,1.557,1.557,0,0,0-1.295.639A2.944,2.944,0,0,0-11.408-3.1Zm9.732,1.418a.8.8,0,0,0-.331-.683,3.187,3.187,0,0,0-1.154-.419,5.457,5.457,0,0,1-1.307-.422,1.859,1.859,0,0,1-.715-.586A1.4,1.4,0,0,1-5.414-4.6a1.645,1.645,0,0,1,.659-1.318A2.574,2.574,0,0,1-3.07-6.457,2.649,2.649,0,0,1-1.321-5.9,1.768,1.768,0,0,1-.65-4.477H-1.74a.979.979,0,0,0-.378-.768,1.416,1.416,0,0,0-.952-.322A1.482,1.482,0,0,0-4-5.309a.812.812,0,0,0-.334.674.658.658,0,0,0,.311.592A3.821,3.821,0,0,0-2.9-3.662a5.847,5.847,0,0,1,1.315.434,1.919,1.919,0,0,1,.747.606,1.491,1.491,0,0,1,.243.864A1.623,1.623,0,0,1-1.271-.4,2.851,2.851,0,0,1-3.035.117a3.193,3.193,0,0,1-1.348-.27A2.192,2.192,0,0,1-5.3-.905a1.815,1.815,0,0,1-.331-1.046h1.084a1.122,1.122,0,0,0,.437.864,1.693,1.693,0,0,0,1.075.319,1.748,1.748,0,0,0,.987-.249A.765.765,0,0,0-1.676-1.682Z" transform="translate(576.284 157.169) rotate(-30)" fill="#111e61"/>
    <path id="Trazado_602935" data-name="Trazado 602935" d="M-53.484-3.34V0h-1.125V-8.531h3.146a3.161,3.161,0,0,1,2.194.715,2.423,2.423,0,0,1,.794,1.893,2.391,2.391,0,0,1-.776,1.913,3.3,3.3,0,0,1-2.224.671Zm0-.92h2.021a2.021,2.021,0,0,0,1.383-.426,1.556,1.556,0,0,0,.48-1.23,1.608,1.608,0,0,0-.48-1.221A1.894,1.894,0,0,0-51.4-7.611h-2.086Zm9.34-1.107a3.248,3.248,0,0,0-.533-.041,1.428,1.428,0,0,0-1.447.908V0h-1.084V-6.34h1.055l.018.732a1.688,1.688,0,0,1,1.512-.85,1.107,1.107,0,0,1,.48.082Zm.592,2.139A3.745,3.745,0,0,1-43.187-4.9a2.732,2.732,0,0,1,1.02-1.148,2.775,2.775,0,0,1,1.491-.4,2.674,2.674,0,0,1,2.095.9,3.449,3.449,0,0,1,.8,2.385V-3.1a3.777,3.777,0,0,1-.354,1.661A2.692,2.692,0,0,1-39.149-.293a2.807,2.807,0,0,1-1.515.41,2.667,2.667,0,0,1-2.089-.9,3.432,3.432,0,0,1-.8-2.373Zm1.09.129a2.712,2.712,0,0,0,.489,1.693,1.566,1.566,0,0,0,1.31.639,1.556,1.556,0,0,0,1.313-.647,2.966,2.966,0,0,0,.486-1.813,2.708,2.708,0,0,0-.5-1.69,1.574,1.574,0,0,0-1.315-.647,1.557,1.557,0,0,0-1.295.639A2.944,2.944,0,0,0-42.463-3.1Zm7.512-4.775V-6.34h1.184V-5.5h-1.184v3.937a.88.88,0,0,0,.158.572.666.666,0,0,0,.539.191,2.624,2.624,0,0,0,.516-.07V0a3.161,3.161,0,0,1-.832.116,1.35,1.35,0,0,1-1.1-.439,1.888,1.888,0,0,1-.369-1.248V-5.5h-1.154V-6.34h1.154V-7.875Zm2.045,4.646A3.745,3.745,0,0,1-32.54-4.9a2.732,2.732,0,0,1,1.02-1.148,2.775,2.775,0,0,1,1.491-.4,2.674,2.674,0,0,1,2.095.9,3.449,3.449,0,0,1,.8,2.385V-3.1a3.777,3.777,0,0,1-.354,1.661A2.692,2.692,0,0,1-28.5-.293a2.807,2.807,0,0,1-1.515.41,2.667,2.667,0,0,1-2.089-.9,3.432,3.432,0,0,1-.8-2.373Zm1.09.129a2.712,2.712,0,0,0,.489,1.693,1.566,1.566,0,0,0,1.31.639,1.556,1.556,0,0,0,1.313-.647,2.966,2.966,0,0,0,.486-1.813,2.708,2.708,0,0,0-.5-1.69,1.574,1.574,0,0,0-1.315-.647,1.557,1.557,0,0,0-1.295.639A2.944,2.944,0,0,0-31.816-3.1ZM-24.3-7.875V-6.34h1.184V-5.5H-24.3v3.937a.88.88,0,0,0,.158.572.666.666,0,0,0,.539.191,2.624,2.624,0,0,0,.516-.07V0a3.161,3.161,0,0,1-.832.116,1.35,1.35,0,0,1-1.1-.439,1.888,1.888,0,0,1-.369-1.248V-5.5h-1.154V-6.34h1.154V-7.875ZM-20.678,0h-1.084V-6.34h1.084ZM-21.85-8.021a.647.647,0,0,1,.161-.445.6.6,0,0,1,.478-.182.614.614,0,0,1,.48.182.64.64,0,0,1,.164.445.619.619,0,0,1-.164.439.626.626,0,0,1-.48.176.616.616,0,0,1-.478-.176A.626.626,0,0,1-21.85-8.021ZM-13.588-3.1A3.8,3.8,0,0,1-14.25-.768a2.122,2.122,0,0,1-1.793.885,2.325,2.325,0,0,1-1.816-.732V2.438h-1.084V-6.34h.99l.053.7a2.233,2.233,0,0,1,1.84-.82,2.162,2.162,0,0,1,1.808.861,3.838,3.838,0,0,1,.665,2.4Zm-1.084-.123a2.8,2.8,0,0,0-.457-1.693,1.472,1.472,0,0,0-1.254-.621,1.593,1.593,0,0,0-1.477.873v3.029a1.6,1.6,0,0,0,1.488.867,1.465,1.465,0,0,0,1.239-.618A3.058,3.058,0,0,0-14.672-3.223Zm2.174-.006A3.745,3.745,0,0,1-12.132-4.9a2.732,2.732,0,0,1,1.02-1.148,2.775,2.775,0,0,1,1.491-.4,2.674,2.674,0,0,1,2.095.9,3.449,3.449,0,0,1,.8,2.385V-3.1a3.777,3.777,0,0,1-.354,1.661A2.692,2.692,0,0,1-8.095-.293a2.807,2.807,0,0,1-1.515.41,2.667,2.667,0,0,1-2.089-.9,3.432,3.432,0,0,1-.8-2.373Zm1.09.129a2.712,2.712,0,0,0,.489,1.693,1.566,1.566,0,0,0,1.31.639A1.556,1.556,0,0,0-8.3-1.415a2.966,2.966,0,0,0,.486-1.813,2.708,2.708,0,0,0-.5-1.69,1.574,1.574,0,0,0-1.315-.647,1.557,1.557,0,0,0-1.295.639A2.944,2.944,0,0,0-11.408-3.1Zm9.732,1.418a.8.8,0,0,0-.331-.683,3.187,3.187,0,0,0-1.154-.419,5.457,5.457,0,0,1-1.307-.422,1.859,1.859,0,0,1-.715-.586A1.4,1.4,0,0,1-5.414-4.6a1.645,1.645,0,0,1,.659-1.318A2.574,2.574,0,0,1-3.07-6.457,2.649,2.649,0,0,1-1.321-5.9,1.768,1.768,0,0,1-.65-4.477H-1.74a.979.979,0,0,0-.378-.768,1.416,1.416,0,0,0-.952-.322A1.482,1.482,0,0,0-4-5.309a.812.812,0,0,0-.334.674.658.658,0,0,0,.311.592A3.821,3.821,0,0,0-2.9-3.662a5.847,5.847,0,0,1,1.315.434,1.919,1.919,0,0,1,.747.606,1.491,1.491,0,0,1,.243.864A1.623,1.623,0,0,1-1.271-.4,2.851,2.851,0,0,1-3.035.117a3.193,3.193,0,0,1-1.348-.27A2.192,2.192,0,0,1-5.3-.905a1.815,1.815,0,0,1-.331-1.046h1.084a1.122,1.122,0,0,0,.437.864,1.693,1.693,0,0,0,1.075.319,1.748,1.748,0,0,0,.987-.249A.765.765,0,0,0-1.676-1.682Z" transform="translate(554.177 225.479) rotate(-13)" fill="#111e61"/>
    <path id="Trazado_602936" data-name="Trazado 602936" d="M-35.8,0V-8.531h2.408a3.877,3.877,0,0,1,1.969.492,3.329,3.329,0,0,1,1.321,1.4,4.558,4.558,0,0,1,.472,2.086v.545A4.574,4.574,0,0,1-30.1-1.893,3.277,3.277,0,0,1-31.427-.5a4.124,4.124,0,0,1-2.013.5Zm1.125-7.611V-.92h1.184a2.575,2.575,0,0,0,2.024-.809,3.344,3.344,0,0,0,.724-2.3v-.5a3.4,3.4,0,0,0-.683-2.261,2.429,2.429,0,0,0-1.937-.818ZM-26.924,0h-1.084V-6.34h1.084ZM-28.1-8.021a.647.647,0,0,1,.161-.445.6.6,0,0,1,.478-.182.614.614,0,0,1,.48.182.64.64,0,0,1,.164.445.619.619,0,0,1-.164.439.626.626,0,0,1-.48.176.616.616,0,0,1-.478-.176A.626.626,0,0,1-28.1-8.021Zm6.6,6.34a.8.8,0,0,0-.331-.683,3.187,3.187,0,0,0-1.154-.419,5.457,5.457,0,0,1-1.307-.422A1.859,1.859,0,0,1-25-3.791a1.4,1.4,0,0,1-.231-.809,1.645,1.645,0,0,1,.659-1.318,2.574,2.574,0,0,1,1.685-.539,2.649,2.649,0,0,1,1.749.557,1.768,1.768,0,0,1,.671,1.424h-1.09a.979.979,0,0,0-.378-.768,1.416,1.416,0,0,0-.952-.322,1.482,1.482,0,0,0-.926.258.812.812,0,0,0-.334.674.658.658,0,0,0,.311.592,3.821,3.821,0,0,0,1.122.381,5.847,5.847,0,0,1,1.315.434,1.919,1.919,0,0,1,.747.606,1.491,1.491,0,0,1,.243.864A1.623,1.623,0,0,1-21.094-.4a2.851,2.851,0,0,1-1.764.513,3.193,3.193,0,0,1-1.348-.27,2.192,2.192,0,0,1-.917-.753,1.815,1.815,0,0,1-.331-1.046h1.084a1.122,1.122,0,0,0,.437.864,1.693,1.693,0,0,0,1.075.319,1.748,1.748,0,0,0,.987-.249A.765.765,0,0,0-21.5-1.682Zm5.127,1.8a2.77,2.77,0,0,1-2.1-.847,3.142,3.142,0,0,1-.809-2.265v-.2a3.8,3.8,0,0,1,.36-1.685,2.811,2.811,0,0,1,1.008-1.16,2.534,2.534,0,0,1,1.4-.419,2.374,2.374,0,0,1,1.922.814A3.526,3.526,0,0,1-13.9-3.311v.451h-4.295a2.254,2.254,0,0,0,.548,1.515,1.722,1.722,0,0,0,1.333.577A1.888,1.888,0,0,0-15.34-1a2.444,2.444,0,0,0,.7-.621l.662.516A2.662,2.662,0,0,1-16.371.117Zm-.135-5.684a1.446,1.446,0,0,0-1.1.478,2.321,2.321,0,0,0-.551,1.339h3.176v-.082a2.065,2.065,0,0,0-.445-1.28A1.361,1.361,0,0,0-16.506-5.566Zm4.887-.773.035.8a2.31,2.31,0,0,1,1.9-.914q2.01,0,2.027,2.268V0H-8.742V-4.2a1.459,1.459,0,0,0-.313-1.014,1.256,1.256,0,0,0-.958-.328,1.564,1.564,0,0,0-.926.281,1.91,1.91,0,0,0-.621.738V0h-1.084V-6.34Zm3.586-2.473a1.457,1.457,0,0,1-.36,1.025,1.17,1.17,0,0,1-.9.393,1.32,1.32,0,0,1-.416-.059,2.244,2.244,0,0,1-.46-.24,1.992,1.992,0,0,0-.41-.22,1,1,0,0,0-.29-.038.538.538,0,0,0-.41.185.669.669,0,0,0-.17.472l-.727-.041a1.529,1.529,0,0,1,.354-1.037,1.137,1.137,0,0,1,.9-.41,1.092,1.092,0,0,1,.369.059,2.69,2.69,0,0,1,.445.229,2.62,2.62,0,0,0,.431.223.989.989,0,0,0,.331.053.524.524,0,0,0,.419-.2.7.7,0,0,0,.167-.463Zm1.723,5.584A3.745,3.745,0,0,1-5.944-4.9a2.732,2.732,0,0,1,1.02-1.148,2.775,2.775,0,0,1,1.491-.4,2.674,2.674,0,0,1,2.095.9,3.449,3.449,0,0,1,.8,2.385V-3.1A3.777,3.777,0,0,1-.894-1.438,2.692,2.692,0,0,1-1.907-.293a2.807,2.807,0,0,1-1.515.41,2.667,2.667,0,0,1-2.089-.9,3.432,3.432,0,0,1-.8-2.373Zm1.09.129a2.712,2.712,0,0,0,.489,1.693,1.566,1.566,0,0,0,1.31.639,1.556,1.556,0,0,0,1.313-.647,2.966,2.966,0,0,0,.486-1.813,2.708,2.708,0,0,0-.5-1.69,1.574,1.574,0,0,0-1.315-.647,1.557,1.557,0,0,0-1.295.639A2.944,2.944,0,0,0-5.221-3.1Z" transform="matrix(0.966, 0.259, -0.259, 0.966, 536.687, 290.354)" fill="#111e61"/>
    <path id="Trazado_602937" data-name="Trazado 602937" d="M-30.645-2.707a3.139,3.139,0,0,1-1,2.089,3.274,3.274,0,0,1-2.235.735A3.006,3.006,0,0,1-36.3-.967a4.361,4.361,0,0,1-.911-2.9v-.82a4.861,4.861,0,0,1,.425-2.092,3.173,3.173,0,0,1,1.2-1.386,3.353,3.353,0,0,1,1.8-.483,3.083,3.083,0,0,1,2.18.759,3.176,3.176,0,0,1,.955,2.1h-1.131a2.451,2.451,0,0,0-.636-1.481,1.924,1.924,0,0,0-1.368-.458,2.013,2.013,0,0,0-1.69.8,3.661,3.661,0,0,0-.612,2.269v.827a3.764,3.764,0,0,0,.58,2.211A1.874,1.874,0,0,0-33.879-.8a2.165,2.165,0,0,0,1.438-.425,2.357,2.357,0,0,0,.665-1.479Zm1.078-.521A3.745,3.745,0,0,1-29.2-4.9a2.732,2.732,0,0,1,1.02-1.148,2.775,2.775,0,0,1,1.491-.4,2.674,2.674,0,0,1,2.095.9,3.449,3.449,0,0,1,.8,2.385V-3.1a3.777,3.777,0,0,1-.354,1.661A2.692,2.692,0,0,1-25.163-.293a2.807,2.807,0,0,1-1.515.41,2.667,2.667,0,0,1-2.089-.9,3.432,3.432,0,0,1-.8-2.373Zm1.09.129a2.712,2.712,0,0,0,.489,1.693,1.566,1.566,0,0,0,1.31.639,1.556,1.556,0,0,0,1.313-.647,2.966,2.966,0,0,0,.486-1.813,2.708,2.708,0,0,0-.5-1.69,1.574,1.574,0,0,0-1.315-.647,1.557,1.557,0,0,0-1.295.639A2.944,2.944,0,0,0-28.477-3.1ZM-26.2-9h1.313l-1.57,1.723-.873,0Zm3.5,5.777a3.714,3.714,0,0,1,.691-2.347A2.186,2.186,0,0,1-20.2-6.457a2.2,2.2,0,0,1,1.764.762V-9h1.084V0h-1L-18.4-.68a2.208,2.208,0,0,1-1.811.8,2.165,2.165,0,0,1-1.8-.9A3.756,3.756,0,0,1-22.7-3.141Zm1.084.123a2.812,2.812,0,0,0,.445,1.688,1.44,1.44,0,0,0,1.23.609,1.581,1.581,0,0,0,1.506-.926V-4.641a1.593,1.593,0,0,0-1.494-.9,1.446,1.446,0,0,0-1.242.615A3.1,3.1,0,0,0-21.615-3.1ZM-14.49,0h-1.084V-6.34h1.084Zm-1.172-8.021a.647.647,0,0,1,.161-.445.6.6,0,0,1,.478-.182.614.614,0,0,1,.48.182.64.64,0,0,1,.164.445.619.619,0,0,1-.164.439.626.626,0,0,1-.48.176.616.616,0,0,1-.478-.176A.626.626,0,0,1-15.662-8.021Zm2.648,4.8a3.726,3.726,0,0,1,.686-2.358,2.192,2.192,0,0,1,1.816-.876,2.181,2.181,0,0,1,1.811.82l.053-.7h.99V-.152a2.579,2.579,0,0,1-.729,1.939,2.692,2.692,0,0,1-1.96.709A3.261,3.261,0,0,1-11.689,2.2a2.31,2.31,0,0,1-1-.8l.563-.65a2.12,2.12,0,0,0,1.705.861A1.661,1.661,0,0,0-9.19,1.166,1.7,1.7,0,0,0-8.748-.088V-.633a2.228,2.228,0,0,1-1.775.75,2.166,2.166,0,0,1-1.8-.9A3.918,3.918,0,0,1-13.014-3.223Zm1.09.123a2.843,2.843,0,0,0,.439,1.685,1.428,1.428,0,0,0,1.23.612,1.588,1.588,0,0,0,1.506-.932V-4.629a1.606,1.606,0,0,0-1.494-.908,1.441,1.441,0,0,0-1.236.615A3.1,3.1,0,0,0-11.924-3.1Zm5.613-.129A3.745,3.745,0,0,1-5.944-4.9a2.732,2.732,0,0,1,1.02-1.148,2.775,2.775,0,0,1,1.491-.4,2.674,2.674,0,0,1,2.095.9,3.449,3.449,0,0,1,.8,2.385V-3.1A3.777,3.777,0,0,1-.894-1.438,2.692,2.692,0,0,1-1.907-.293a2.807,2.807,0,0,1-1.515.41,2.667,2.667,0,0,1-2.089-.9,3.432,3.432,0,0,1-.8-2.373Zm1.09.129a2.712,2.712,0,0,0,.489,1.693,1.566,1.566,0,0,0,1.31.639,1.556,1.556,0,0,0,1.313-.647,2.966,2.966,0,0,0,.486-1.813,2.708,2.708,0,0,0-.5-1.69,1.574,1.574,0,0,0-1.315-.647,1.557,1.557,0,0,0-1.295.639A2.944,2.944,0,0,0-5.221-3.1Z" transform="translate(527.846 320.28) rotate(25)" fill="#111e61"/>
    <path id="Trazado_602938" data-name="Trazado 602938" d="M-61.77,0h-1.125V-8.531h1.125Zm2.912-6.34.035.8a2.31,2.31,0,0,1,1.9-.914q2.01,0,2.027,2.268V0H-55.98V-4.2a1.459,1.459,0,0,0-.313-1.014,1.256,1.256,0,0,0-.958-.328,1.564,1.564,0,0,0-.926.281,1.91,1.91,0,0,0-.621.738V0h-1.084V-6.34Zm7.066-1.535V-6.34h1.184V-5.5h-1.184v3.937a.88.88,0,0,0,.158.572.666.666,0,0,0,.539.191,2.624,2.624,0,0,0,.516-.07V0a3.161,3.161,0,0,1-.832.116,1.35,1.35,0,0,1-1.1-.439,1.888,1.888,0,0,1-.369-1.248V-5.5h-1.154V-6.34h1.154V-7.875Zm5.08,7.992a2.77,2.77,0,0,1-2.1-.847,3.142,3.142,0,0,1-.809-2.265v-.2a3.8,3.8,0,0,1,.36-1.685,2.811,2.811,0,0,1,1.008-1.16,2.534,2.534,0,0,1,1.4-.419,2.374,2.374,0,0,1,1.922.814,3.526,3.526,0,0,1,.686,2.332v.451h-4.295a2.254,2.254,0,0,0,.548,1.515,1.722,1.722,0,0,0,1.333.577A1.888,1.888,0,0,0-45.68-1a2.444,2.444,0,0,0,.7-.621l.662.516A2.662,2.662,0,0,1-46.711.117Zm-.135-5.684a1.446,1.446,0,0,0-1.1.478A2.321,2.321,0,0,0-48.5-3.75h3.176v-.082a2.065,2.065,0,0,0-.445-1.28A1.361,1.361,0,0,0-46.846-5.566Zm6.926.2a3.248,3.248,0,0,0-.533-.041A1.428,1.428,0,0,0-41.9-4.5V0h-1.084V-6.34h1.055l.018.732a1.688,1.688,0,0,1,1.512-.85,1.107,1.107,0,0,1,.48.082Zm.738,2.145A3.726,3.726,0,0,1-38.5-5.581a2.192,2.192,0,0,1,1.816-.876,2.181,2.181,0,0,1,1.811.82l.053-.7h.99V-.152a2.579,2.579,0,0,1-.729,1.939,2.692,2.692,0,0,1-1.96.709A3.261,3.261,0,0,1-37.857,2.2a2.31,2.31,0,0,1-1-.8L-38.3.75a2.12,2.12,0,0,0,1.705.861,1.661,1.661,0,0,0,1.233-.445,1.7,1.7,0,0,0,.442-1.254V-.633a2.228,2.228,0,0,1-1.775.75,2.166,2.166,0,0,1-1.8-.9A3.918,3.918,0,0,1-39.182-3.223Zm1.09.123a2.843,2.843,0,0,0,.439,1.685,1.428,1.428,0,0,0,1.23.612,1.588,1.588,0,0,0,1.506-.932V-4.629a1.606,1.606,0,0,0-1.494-.908,1.441,1.441,0,0,0-1.236.615A3.1,3.1,0,0,0-38.092-3.1Zm8.965-2.268a3.248,3.248,0,0,0-.533-.041,1.428,1.428,0,0,0-1.447.908V0h-1.084V-6.34h1.055l.018.732a1.688,1.688,0,0,1,1.512-.85,1.107,1.107,0,0,1,.48.082ZM-24.451,0A2.277,2.277,0,0,1-24.6-.668a2.419,2.419,0,0,1-1.8.785,2.238,2.238,0,0,1-1.538-.53,1.716,1.716,0,0,1-.6-1.345A1.792,1.792,0,0,1-27.794-3.3a3.55,3.55,0,0,1,2.118-.548h1.055v-.5a1.217,1.217,0,0,0-.34-.905,1.366,1.366,0,0,0-1-.337,1.581,1.581,0,0,0-.973.293.863.863,0,0,0-.393.709h-1.09a1.5,1.5,0,0,1,.337-.917,2.3,2.3,0,0,1,.914-.7A3.075,3.075,0,0,1-25.9-6.457a2.506,2.506,0,0,1,1.717.548A1.976,1.976,0,0,1-23.537-4.4v2.918a3.567,3.567,0,0,0,.223,1.389V0Zm-1.8-.826a1.905,1.905,0,0,0,.967-.264,1.6,1.6,0,0,0,.662-.686v-1.3h-.85q-1.992,0-1.992,1.166a.987.987,0,0,0,.34.8A1.306,1.306,0,0,0-26.25-.826Zm6.955.059a1.561,1.561,0,0,0,1.014-.352A1.237,1.237,0,0,0-17.8-2h1.025A1.966,1.966,0,0,1-17.15-.961a2.47,2.47,0,0,1-.923.785,2.663,2.663,0,0,1-1.222.293,2.612,2.612,0,0,1-2.06-.864,3.442,3.442,0,0,1-.765-2.364v-.182a3.817,3.817,0,0,1,.34-1.646A2.588,2.588,0,0,1-20.8-6.059a2.771,2.771,0,0,1,1.5-.4,2.543,2.543,0,0,1,1.772.639,2.283,2.283,0,0,1,.753,1.658H-17.8a1.494,1.494,0,0,0-.466-1.011,1.449,1.449,0,0,0-1.034-.4,1.517,1.517,0,0,0-1.28.595,2.793,2.793,0,0,0-.454,1.72v.205a2.737,2.737,0,0,0,.451,1.688A1.524,1.524,0,0,0-19.295-.768ZM-14.379,0h-1.084V-6.34h1.084Zm-1.172-8.021a.647.647,0,0,1,.161-.445.6.6,0,0,1,.478-.182.614.614,0,0,1,.48.182.64.64,0,0,1,.164.445.619.619,0,0,1-.164.439.626.626,0,0,1-.48.176.616.616,0,0,1-.478-.176A.626.626,0,0,1-15.551-8.021Zm2.619,4.793A3.745,3.745,0,0,1-12.565-4.9a2.732,2.732,0,0,1,1.02-1.148,2.775,2.775,0,0,1,1.491-.4,2.674,2.674,0,0,1,2.095.9,3.449,3.449,0,0,1,.8,2.385V-3.1a3.777,3.777,0,0,1-.354,1.661A2.692,2.692,0,0,1-8.528-.293a2.807,2.807,0,0,1-1.515.41,2.667,2.667,0,0,1-2.089-.9,3.432,3.432,0,0,1-.8-2.373Zm1.09.129a2.712,2.712,0,0,0,.489,1.693,1.566,1.566,0,0,0,1.31.639A1.556,1.556,0,0,0-8.73-1.415a2.966,2.966,0,0,0,.486-1.813,2.708,2.708,0,0,0-.5-1.69,1.574,1.574,0,0,0-1.315-.647,1.557,1.557,0,0,0-1.295.639A2.944,2.944,0,0,0-11.842-3.1ZM-9.562-9H-8.25L-9.82-7.277l-.873,0Zm4.787,2.66.035.8a2.31,2.31,0,0,1,1.9-.914q2.01,0,2.027,2.268V0H-1.9V-4.2a1.459,1.459,0,0,0-.313-1.014,1.256,1.256,0,0,0-.958-.328,1.564,1.564,0,0,0-.926.281,1.91,1.91,0,0,0-.621.738V0H-5.8V-6.34Z" transform="translate(527.642 364.739) rotate(41)" fill="#111e61"/>
    <path id="Trazado_602939" data-name="Trazado 602939" d="M-41.936-3.34V0h-1.125V-8.531h3.146a3.161,3.161,0,0,1,2.194.715,2.423,2.423,0,0,1,.794,1.893A2.391,2.391,0,0,1-37.7-4.011a3.3,3.3,0,0,1-2.224.671Zm0-.92h2.021a2.021,2.021,0,0,0,1.383-.426,1.556,1.556,0,0,0,.48-1.23,1.608,1.608,0,0,0-.48-1.221,1.894,1.894,0,0,0-1.318-.475h-2.086Zm9.34-1.107a3.248,3.248,0,0,0-.533-.041,1.428,1.428,0,0,0-1.447.908V0H-35.66V-6.34h1.055l.018.732a1.688,1.688,0,0,1,1.512-.85,1.107,1.107,0,0,1,.48.082Zm4.91,4.74a2.3,2.3,0,0,1-1.857.744,1.971,1.971,0,0,1-1.544-.589,2.549,2.549,0,0,1-.536-1.743V-6.34h1.084v4.1q0,1.441,1.172,1.441a1.623,1.623,0,0,0,1.652-.926V-6.34h1.084V0h-1.031Zm5.332.744a2.77,2.77,0,0,1-2.1-.847,3.142,3.142,0,0,1-.809-2.265v-.2a3.8,3.8,0,0,1,.36-1.685,2.811,2.811,0,0,1,1.008-1.16,2.534,2.534,0,0,1,1.4-.419,2.374,2.374,0,0,1,1.922.814,3.526,3.526,0,0,1,.686,2.332v.451h-4.295a2.254,2.254,0,0,0,.548,1.515,1.722,1.722,0,0,0,1.333.577A1.888,1.888,0,0,0-21.322-1a2.444,2.444,0,0,0,.7-.621l.662.516A2.662,2.662,0,0,1-22.354.117Zm-.135-5.684a1.446,1.446,0,0,0-1.1.478,2.321,2.321,0,0,0-.551,1.339h3.176v-.082a2.065,2.065,0,0,0-.445-1.28A1.361,1.361,0,0,0-22.488-5.566ZM-13.26-3.1a3.77,3.77,0,0,1-.668,2.335,2.134,2.134,0,0,1-1.793.882,2.21,2.21,0,0,1-1.857-.85L-17.631,0h-1V-9h1.084v3.357a2.2,2.2,0,0,1,1.811-.814,2.147,2.147,0,0,1,1.813.873,3.883,3.883,0,0,1,.659,2.391Zm-1.084-.123a2.929,2.929,0,0,0-.428-1.711,1.416,1.416,0,0,0-1.23-.6,1.591,1.591,0,0,0-1.541,1V-1.8a1.636,1.636,0,0,0,1.553,1,1.408,1.408,0,0,0,1.213-.6A3.115,3.115,0,0,0-14.344-3.223ZM-7.98,0a2.277,2.277,0,0,1-.152-.668,2.419,2.419,0,0,1-1.8.785,2.238,2.238,0,0,1-1.538-.53,1.716,1.716,0,0,1-.6-1.345A1.792,1.792,0,0,1-11.323-3.3a3.55,3.55,0,0,1,2.118-.548H-8.15v-.5a1.217,1.217,0,0,0-.34-.905,1.366,1.366,0,0,0-1-.337,1.581,1.581,0,0,0-.973.293.863.863,0,0,0-.393.709h-1.09A1.5,1.5,0,0,1-11.61-5.5a2.3,2.3,0,0,1,.914-.7,3.075,3.075,0,0,1,1.269-.258,2.506,2.506,0,0,1,1.717.548A1.976,1.976,0,0,1-7.066-4.4v2.918A3.567,3.567,0,0,0-6.844-.094V0Zm-1.8-.826a1.905,1.905,0,0,0,.967-.264,1.6,1.6,0,0,0,.662-.686v-1.3H-9q-1.992,0-1.992,1.166a.987.987,0,0,0,.34.8A1.306,1.306,0,0,0-9.779-.826Zm8.1-.855a.8.8,0,0,0-.331-.683,3.187,3.187,0,0,0-1.154-.419,5.457,5.457,0,0,1-1.307-.422,1.859,1.859,0,0,1-.715-.586A1.4,1.4,0,0,1-5.414-4.6a1.645,1.645,0,0,1,.659-1.318A2.574,2.574,0,0,1-3.07-6.457,2.649,2.649,0,0,1-1.321-5.9,1.768,1.768,0,0,1-.65-4.477H-1.74a.979.979,0,0,0-.378-.768,1.416,1.416,0,0,0-.952-.322A1.482,1.482,0,0,0-4-5.309a.812.812,0,0,0-.334.674.658.658,0,0,0,.311.592A3.821,3.821,0,0,0-2.9-3.662a5.847,5.847,0,0,1,1.315.434,1.919,1.919,0,0,1,.747.606,1.491,1.491,0,0,1,.243.864A1.623,1.623,0,0,1-1.271-.4,2.851,2.851,0,0,1-3.035.117a3.193,3.193,0,0,1-1.348-.27A2.192,2.192,0,0,1-5.3-.905a1.815,1.815,0,0,1-.331-1.046h1.084a1.122,1.122,0,0,0,.437.864,1.693,1.693,0,0,0,1.075.319,1.748,1.748,0,0,0,.987-.249A.765.765,0,0,0-1.676-1.682Z" transform="matrix(0.545, 0.839, -0.839, 0.545, 479.688, 380.104)" fill="#111e61"/>
    <path id="Trazado_602940" data-name="Trazado 602940" d="M-84.187,0h-1.125V-8.531h1.125Zm2.906-6.34.029.7a2.341,2.341,0,0,1,1.881-.82,1.813,1.813,0,0,1,1.811,1.02,2.4,2.4,0,0,1,.823-.738,2.431,2.431,0,0,1,1.2-.281q2.086,0,2.121,2.209V0H-74.5V-4.184A1.456,1.456,0,0,0-74.812-5.2a1.368,1.368,0,0,0-1.043-.337,1.437,1.437,0,0,0-1,.36,1.462,1.462,0,0,0-.463.97V0h-1.09V-4.154a1.209,1.209,0,0,0-1.354-1.383,1.45,1.45,0,0,0-1.459.908V0h-1.084V-6.34ZM-66.428-3.1A3.8,3.8,0,0,1-67.09-.768a2.122,2.122,0,0,1-1.793.885A2.325,2.325,0,0,1-70.7-.615V2.438h-1.084V-6.34h.99l.053.7a2.233,2.233,0,0,1,1.84-.82,2.162,2.162,0,0,1,1.808.861,3.838,3.838,0,0,1,.665,2.4Zm-1.084-.123a2.8,2.8,0,0,0-.457-1.693,1.472,1.472,0,0,0-1.254-.621,1.593,1.593,0,0,0-1.477.873v3.029a1.6,1.6,0,0,0,1.488.867,1.465,1.465,0,0,0,1.239-.618A3.058,3.058,0,0,0-67.512-3.223ZM-63.873,0h-1.084V-9h1.084Zm4.365.117a2.77,2.77,0,0,1-2.1-.847,3.142,3.142,0,0,1-.809-2.265v-.2a3.8,3.8,0,0,1,.36-1.685,2.811,2.811,0,0,1,1.008-1.16,2.534,2.534,0,0,1,1.4-.419,2.374,2.374,0,0,1,1.922.814,3.526,3.526,0,0,1,.686,2.332v.451H-61.33a2.254,2.254,0,0,0,.548,1.515,1.722,1.722,0,0,0,1.333.577A1.888,1.888,0,0,0-58.477-1a2.444,2.444,0,0,0,.7-.621l.662.516A2.662,2.662,0,0,1-59.508.117Zm-.135-5.684a1.446,1.446,0,0,0-1.1.478,2.321,2.321,0,0,0-.551,1.339h3.176v-.082a2.065,2.065,0,0,0-.445-1.28A1.361,1.361,0,0,0-59.643-5.566Zm4.881-.773.029.7a2.341,2.341,0,0,1,1.881-.82,1.813,1.813,0,0,1,1.811,1.02,2.4,2.4,0,0,1,.823-.738,2.431,2.431,0,0,1,1.2-.281q2.086,0,2.121,2.209V0h-1.084V-4.184A1.456,1.456,0,0,0-48.293-5.2a1.368,1.368,0,0,0-1.043-.337,1.437,1.437,0,0,0-1,.36,1.462,1.462,0,0,0-.463.97V0h-1.09V-4.154a1.209,1.209,0,0,0-1.354-1.383,1.45,1.45,0,0,0-1.459.908V0h-1.084V-6.34ZM-42.633.117a2.77,2.77,0,0,1-2.1-.847,3.142,3.142,0,0,1-.809-2.265v-.2a3.8,3.8,0,0,1,.36-1.685,2.811,2.811,0,0,1,1.008-1.16,2.534,2.534,0,0,1,1.4-.419,2.374,2.374,0,0,1,1.922.814,3.526,3.526,0,0,1,.686,2.332v.451h-4.295a2.254,2.254,0,0,0,.548,1.515,1.722,1.722,0,0,0,1.333.577A1.888,1.888,0,0,0-41.6-1a2.444,2.444,0,0,0,.7-.621l.662.516A2.662,2.662,0,0,1-42.633.117Zm-.135-5.684a1.446,1.446,0,0,0-1.1.478A2.321,2.321,0,0,0-44.42-3.75h3.176v-.082a2.065,2.065,0,0,0-.445-1.28A1.361,1.361,0,0,0-42.768-5.566Zm4.887-.773.035.8a2.31,2.31,0,0,1,1.9-.914q2.01,0,2.027,2.268V0H-35V-4.2a1.459,1.459,0,0,0-.313-1.014,1.256,1.256,0,0,0-.958-.328,1.564,1.564,0,0,0-.926.281,1.91,1.91,0,0,0-.621.738V0h-1.084V-6.34Zm7.066-1.535V-6.34h1.184V-5.5h-1.184v3.937a.88.88,0,0,0,.158.572.666.666,0,0,0,.539.191,2.624,2.624,0,0,0,.516-.07V0a3.161,3.161,0,0,1-.832.116,1.35,1.35,0,0,1-1.1-.439A1.888,1.888,0,0,1-31.9-1.57V-5.5h-1.154V-6.34H-31.9V-7.875ZM-24.451,0A2.277,2.277,0,0,1-24.6-.668a2.419,2.419,0,0,1-1.8.785,2.238,2.238,0,0,1-1.538-.53,1.716,1.716,0,0,1-.6-1.345A1.792,1.792,0,0,1-27.794-3.3a3.55,3.55,0,0,1,2.118-.548h1.055v-.5a1.217,1.217,0,0,0-.34-.905,1.366,1.366,0,0,0-1-.337,1.581,1.581,0,0,0-.973.293.863.863,0,0,0-.393.709h-1.09a1.5,1.5,0,0,1,.337-.917,2.3,2.3,0,0,1,.914-.7A3.075,3.075,0,0,1-25.9-6.457a2.506,2.506,0,0,1,1.717.548A1.976,1.976,0,0,1-23.537-4.4v2.918a3.567,3.567,0,0,0,.223,1.389V0Zm-1.8-.826a1.905,1.905,0,0,0,.967-.264,1.6,1.6,0,0,0,.662-.686v-1.3h-.85q-1.992,0-1.992,1.166a.987.987,0,0,0,.34.8A1.306,1.306,0,0,0-26.25-.826Zm6.955.059a1.561,1.561,0,0,0,1.014-.352A1.237,1.237,0,0,0-17.8-2h1.025A1.966,1.966,0,0,1-17.15-.961a2.47,2.47,0,0,1-.923.785,2.663,2.663,0,0,1-1.222.293,2.612,2.612,0,0,1-2.06-.864,3.442,3.442,0,0,1-.765-2.364v-.182a3.817,3.817,0,0,1,.34-1.646A2.588,2.588,0,0,1-20.8-6.059a2.771,2.771,0,0,1,1.5-.4,2.543,2.543,0,0,1,1.772.639,2.283,2.283,0,0,1,.753,1.658H-17.8a1.494,1.494,0,0,0-.466-1.011,1.449,1.449,0,0,0-1.034-.4,1.517,1.517,0,0,0-1.28.595,2.793,2.793,0,0,0-.454,1.72v.205a2.737,2.737,0,0,0,.451,1.688A1.524,1.524,0,0,0-19.295-.768ZM-14.379,0h-1.084V-6.34h1.084Zm-1.172-8.021a.647.647,0,0,1,.161-.445.6.6,0,0,1,.478-.182.614.614,0,0,1,.48.182.64.64,0,0,1,.164.445.619.619,0,0,1-.164.439.626.626,0,0,1-.48.176.616.616,0,0,1-.478-.176A.626.626,0,0,1-15.551-8.021Zm2.619,4.793A3.745,3.745,0,0,1-12.565-4.9a2.732,2.732,0,0,1,1.02-1.148,2.775,2.775,0,0,1,1.491-.4,2.674,2.674,0,0,1,2.095.9,3.449,3.449,0,0,1,.8,2.385V-3.1a3.777,3.777,0,0,1-.354,1.661A2.692,2.692,0,0,1-8.528-.293a2.807,2.807,0,0,1-1.515.41,2.667,2.667,0,0,1-2.089-.9,3.432,3.432,0,0,1-.8-2.373Zm1.09.129a2.712,2.712,0,0,0,.489,1.693,1.566,1.566,0,0,0,1.31.639A1.556,1.556,0,0,0-8.73-1.415a2.966,2.966,0,0,0,.486-1.813,2.708,2.708,0,0,0-.5-1.69,1.574,1.574,0,0,0-1.315-.647,1.557,1.557,0,0,0-1.295.639A2.944,2.944,0,0,0-11.842-3.1ZM-9.562-9H-8.25L-9.82-7.277l-.873,0Zm4.787,2.66.035.8a2.31,2.31,0,0,1,1.9-.914q2.01,0,2.027,2.268V0H-1.9V-4.2a1.459,1.459,0,0,0-.313-1.014,1.256,1.256,0,0,0-.958-.328,1.564,1.564,0,0,0-.926.281,1.91,1.91,0,0,0-.621.738V0H-5.8V-6.34Z" transform="translate(451.865 441.531) rotate(73)" fill="#111e61"/>
    <path id="Trazado_602941" data-name="Trazado 602941" d="M-52.389-3.7h-3.375v2.285H-51.8V0h-5.719V-8.531h5.707v1.424h-3.949v2.033h3.375Zm3.727,1.629,1.178-4.271h1.77L-47.854,0h-1.617l-2.139-6.34h1.77ZM-41.385,0a1.88,1.88,0,0,1-.17-.568,2.049,2.049,0,0,1-1.6.686A2.251,2.251,0,0,1-44.7-.422a1.734,1.734,0,0,1-.612-1.359,1.792,1.792,0,0,1,.747-1.547A3.686,3.686,0,0,1-42.4-3.873h.779v-.363a1.045,1.045,0,0,0-.226-.7.887.887,0,0,0-.712-.264A1.009,1.009,0,0,0-43.233-5a.7.7,0,0,0-.243.563H-45.17a1.7,1.7,0,0,1,.34-1.02,2.246,2.246,0,0,1,.961-.735,3.5,3.5,0,0,1,1.395-.267,2.767,2.767,0,0,1,1.86.589,2.06,2.06,0,0,1,.688,1.655v2.748A3.031,3.031,0,0,0-39.674-.1V0Zm-1.4-1.178a1.458,1.458,0,0,0,.691-.167,1.1,1.1,0,0,0,.469-.448v-1.09h-.633q-1.271,0-1.354.879l-.006.1a.678.678,0,0,0,.223.521A.865.865,0,0,0-42.785-1.178ZM-36.838,0h-1.7V-9h1.7Zm5.191-.645a2.124,2.124,0,0,1-1.734.762,2,2,0,0,1-1.556-.586,2.5,2.5,0,0,1-.548-1.717V-6.34h1.693v4.1q0,.991.9.991a1.223,1.223,0,0,0,1.184-.6V-6.34h1.7V0H-31.6ZM-25.055,0a1.88,1.88,0,0,1-.17-.568,2.049,2.049,0,0,1-1.6.686,2.251,2.251,0,0,1-1.544-.539,1.734,1.734,0,0,1-.612-1.359,1.792,1.792,0,0,1,.747-1.547,3.686,3.686,0,0,1,2.159-.545h.779v-.363a1.045,1.045,0,0,0-.226-.7.887.887,0,0,0-.712-.264A1.009,1.009,0,0,0-26.9-5a.7.7,0,0,0-.243.563H-28.84a1.7,1.7,0,0,1,.34-1.02,2.246,2.246,0,0,1,.961-.735,3.5,3.5,0,0,1,1.395-.267,2.767,2.767,0,0,1,1.86.589A2.06,2.06,0,0,1-23.6-4.213v2.748A3.031,3.031,0,0,0-23.344-.1V0Zm-1.4-1.178a1.458,1.458,0,0,0,.691-.167,1.1,1.1,0,0,0,.469-.448v-1.09h-.633q-1.271,0-1.354.879l-.006.1a.678.678,0,0,0,.223.521A.865.865,0,0,0-26.455-1.178Zm6.8-.07a1.111,1.111,0,0,0,.762-.258.9.9,0,0,0,.3-.686H-17a2.172,2.172,0,0,1-.352,1.181,2.32,2.32,0,0,1-.946.832,2.962,2.962,0,0,1-1.327.3,2.752,2.752,0,0,1-2.145-.864,3.42,3.42,0,0,1-.785-2.388v-.111a3.381,3.381,0,0,1,.779-2.338,2.72,2.72,0,0,1,2.139-.873,2.667,2.667,0,0,1,1.907.677A2.4,2.4,0,0,1-17-3.979h-1.588a1.164,1.164,0,0,0-.3-.8,1.016,1.016,0,0,0-.773-.309,1.02,1.02,0,0,0-.894.431,2.5,2.5,0,0,0-.3,1.4v.176a2.531,2.531,0,0,0,.3,1.408A1.033,1.033,0,0,0-19.658-1.248ZM-14.25,0h-1.7V-6.34h1.7Zm-1.8-7.98a.834.834,0,0,1,.255-.627.958.958,0,0,1,.694-.246.96.96,0,0,1,.691.246.829.829,0,0,1,.258.627.831.831,0,0,1-.261.633A.962.962,0,0,1-15.1-7.1a.962.962,0,0,1-.688-.246A.831.831,0,0,1-16.049-7.98Zm2.93,4.752a3.76,3.76,0,0,1,.363-1.682A2.659,2.659,0,0,1-11.71-6.053a3.051,3.051,0,0,1,1.585-.4,2.887,2.887,0,0,1,2.095.785,3.151,3.151,0,0,1,.905,2.133l.012.434A3.314,3.314,0,0,1-7.928-.765a2.831,2.831,0,0,1-2.186.882A2.845,2.845,0,0,1-12.3-.762a3.372,3.372,0,0,1-.817-2.391Zm1.693.12a2.37,2.37,0,0,0,.34,1.382,1.121,1.121,0,0,0,.973.478,1.124,1.124,0,0,0,.961-.472,2.593,2.593,0,0,0,.346-1.511A2.346,2.346,0,0,0-9.152-4.6a1.124,1.124,0,0,0-.973-.487,1.105,1.105,0,0,0-.961.484A2.637,2.637,0,0,0-11.426-3.108ZM-9.791-9h1.846L-9.568-7.184h-1.377Zm5.279,2.66.053.732a2.213,2.213,0,0,1,1.822-.85,1.84,1.84,0,0,1,1.5.592,2.761,2.761,0,0,1,.5,1.77V0H-2.326V-4.055a1.1,1.1,0,0,0-.234-.782A1.049,1.049,0,0,0-3.34-5.08a1.165,1.165,0,0,0-1.072.609V0H-6.105V-6.34ZM-53.01,11a1.88,1.88,0,0,1-.17-.568,2.049,2.049,0,0,1-1.6.686,2.251,2.251,0,0,1-1.544-.539,1.734,1.734,0,0,1-.612-1.359,1.792,1.792,0,0,1,.747-1.547,3.686,3.686,0,0,1,2.159-.545h.779V6.764a1.045,1.045,0,0,0-.226-.7.887.887,0,0,0-.712-.264A1.009,1.009,0,0,0-54.858,6a.7.7,0,0,0-.243.563h-1.693a1.7,1.7,0,0,1,.34-1.02,2.246,2.246,0,0,1,.961-.735A3.5,3.5,0,0,1-54.1,4.543a2.767,2.767,0,0,1,1.86.589,2.06,2.06,0,0,1,.688,1.655V9.535A3.031,3.031,0,0,0-51.3,10.9V11Zm-1.4-1.178a1.458,1.458,0,0,0,.691-.167,1.1,1.1,0,0,0,.469-.448V8.117h-.633q-1.271,0-1.354.879l-.006.1a.678.678,0,0,0,.223.521A.865.865,0,0,0-54.41,9.822ZM-48.463,11h-1.7V2h1.7Zm3.422-7.9V4.66h1.084V5.9h-1.084V9.066a.756.756,0,0,0,.135.5.677.677,0,0,0,.516.152,2.7,2.7,0,0,0,.5-.041v1.283a3.486,3.486,0,0,1-1.025.152,1.617,1.617,0,0,1-1.816-1.8V5.9h-.926V4.66h.926V3.1Zm4.945,8.016a3.112,3.112,0,0,1-2.271-.855,3.041,3.041,0,0,1-.876-2.279V7.818a3.83,3.83,0,0,1,.369-1.708,2.709,2.709,0,0,1,1.046-1.16,2.936,2.936,0,0,1,1.544-.407,2.631,2.631,0,0,1,2.048.82,3.333,3.333,0,0,1,.747,2.326v.691h-4.037a1.573,1.573,0,0,0,.5,1,1.5,1.5,0,0,0,1.046.375,1.828,1.828,0,0,0,1.529-.709l.832.932a2.542,2.542,0,0,1-1.031.841A3.383,3.383,0,0,1-40.1,11.117Zm-.193-5.209a1.058,1.058,0,0,0-.817.341,1.768,1.768,0,0,0-.4.977h2.355V7.091a1.261,1.261,0,0,0-.3-.874A1.092,1.092,0,0,0-40.289,5.908Zm7.324.34a4.6,4.6,0,0,0-.609-.047,1.24,1.24,0,0,0-1.26.65V11h-1.693V4.66h1.6l.047.756a1.569,1.569,0,0,1,1.412-.873,1.774,1.774,0,0,1,.527.076Zm2.373-1.588.053.732a2.213,2.213,0,0,1,1.822-.85,1.84,1.84,0,0,1,1.5.592,2.761,2.761,0,0,1,.5,1.77V11h-1.693V6.945a1.1,1.1,0,0,0-.234-.782,1.049,1.049,0,0,0-.779-.243,1.165,1.165,0,0,0-1.072.609V11h-1.693V4.66ZM-21.756,11a1.88,1.88,0,0,1-.17-.568,2.049,2.049,0,0,1-1.6.686,2.251,2.251,0,0,1-1.544-.539,1.734,1.734,0,0,1-.612-1.359,1.792,1.792,0,0,1,.747-1.547,3.686,3.686,0,0,1,2.159-.545H-22V6.764a1.045,1.045,0,0,0-.226-.7.887.887,0,0,0-.712-.264A1.009,1.009,0,0,0-23.6,6a.7.7,0,0,0-.243.563h-1.693a1.7,1.7,0,0,1,.34-1.02,2.246,2.246,0,0,1,.961-.735,3.5,3.5,0,0,1,1.395-.267,2.767,2.767,0,0,1,1.86.589A2.06,2.06,0,0,1-20.3,6.787V9.535a3.031,3.031,0,0,0,.252,1.365V11Zm-1.4-1.178a1.458,1.458,0,0,0,.691-.167A1.1,1.1,0,0,0-22,9.207V8.117h-.633q-1.271,0-1.354.879l-.006.1a.678.678,0,0,0,.223.521A.865.865,0,0,0-23.156,9.822ZM-16.969,3.1V4.66h1.084V5.9h-1.084V9.066a.756.756,0,0,0,.135.5.677.677,0,0,0,.516.152,2.7,2.7,0,0,0,.5-.041v1.283a3.486,3.486,0,0,1-1.025.152,1.617,1.617,0,0,1-1.816-1.8V5.9h-.926V4.66h.926V3.1Zm3.814,7.9h-1.7V4.66h1.7Zm-1.8-7.98a.834.834,0,0,1,.255-.627A.958.958,0,0,1-14,2.146a.96.96,0,0,1,.691.246.829.829,0,0,1,.258.627.831.831,0,0,1-.261.633A.962.962,0,0,1-14,3.9a.962.962,0,0,1-.688-.246A.831.831,0,0,1-14.953,3.02Zm5.566,5.912L-8.209,4.66h1.77L-8.578,11H-10.2l-2.139-6.34h1.77ZM-2.109,11a1.88,1.88,0,0,1-.17-.568,2.049,2.049,0,0,1-1.6.686,2.251,2.251,0,0,1-1.544-.539,1.734,1.734,0,0,1-.612-1.359,1.792,1.792,0,0,1,.747-1.547,3.686,3.686,0,0,1,2.159-.545h.779V6.764a1.045,1.045,0,0,0-.226-.7A.887.887,0,0,0-3.287,5.8,1.009,1.009,0,0,0-3.958,6a.7.7,0,0,0-.243.563H-5.895a1.7,1.7,0,0,1,.34-1.02,2.246,2.246,0,0,1,.961-.735A3.5,3.5,0,0,1-3.2,4.543a2.767,2.767,0,0,1,1.86.589A2.06,2.06,0,0,1-.65,6.787V9.535A3.031,3.031,0,0,0-.4,10.9V11Zm-1.4-1.178a1.458,1.458,0,0,0,.691-.167,1.1,1.1,0,0,0,.469-.448V8.117h-.633q-1.271,0-1.354.879l-.006.1a.678.678,0,0,0,.223.521A.865.865,0,0,0-3.51,9.822Z" transform="translate(586 65)" fill="#111e61"/>
    <path id="Trazado_602942" data-name="Trazado 602942" d="M-54.6,0V-8.531h2.625a3.986,3.986,0,0,1,2.013.507A3.534,3.534,0,0,1-48.58-6.583a4.446,4.446,0,0,1,.5,2.124v.393a4.458,4.458,0,0,1-.489,2.115,3.5,3.5,0,0,1-1.38,1.436A4.016,4.016,0,0,1-51.961,0Zm1.758-7.107v5.7H-52a1.909,1.909,0,0,0,1.576-.674,3.045,3.045,0,0,0,.557-1.928v-.451A3.093,3.093,0,0,0-50.4-6.437a1.9,1.9,0,0,0-1.576-.671ZM-44,.117a3.112,3.112,0,0,1-2.271-.855,3.041,3.041,0,0,1-.876-2.279v-.164a3.83,3.83,0,0,1,.369-1.708,2.709,2.709,0,0,1,1.046-1.16,2.936,2.936,0,0,1,1.544-.407,2.631,2.631,0,0,1,2.048.82,3.333,3.333,0,0,1,.747,2.326v.691h-4.037a1.573,1.573,0,0,0,.5,1,1.5,1.5,0,0,0,1.046.375,1.828,1.828,0,0,0,1.529-.709l.832.932a2.542,2.542,0,0,1-1.031.841A3.383,3.383,0,0,1-44,.117Zm-.193-5.209a1.058,1.058,0,0,0-.817.341,1.768,1.768,0,0,0-.4.977h2.355v-.135a1.261,1.261,0,0,0-.3-.874A1.092,1.092,0,0,0-44.191-5.092Zm7.2,3.34a.546.546,0,0,0-.308-.489,3.494,3.494,0,0,0-.987-.319q-2.262-.475-2.262-1.922a1.742,1.742,0,0,1,.7-1.409,2.825,2.825,0,0,1,1.831-.565,3.04,3.04,0,0,1,1.931.568,1.791,1.791,0,0,1,.724,1.477h-1.693a.819.819,0,0,0-.234-.6.992.992,0,0,0-.732-.237,1.013,1.013,0,0,0-.662.193.61.61,0,0,0-.234.492.522.522,0,0,0,.267.454,2.743,2.743,0,0,0,.9.3,7.346,7.346,0,0,1,1.066.284A1.752,1.752,0,0,1-35.35-1.822a1.654,1.654,0,0,1-.744,1.4,3.21,3.21,0,0,1-1.922.536,3.353,3.353,0,0,1-1.415-.284,2.374,2.374,0,0,1-.97-.779,1.811,1.811,0,0,1-.352-1.069h1.605a.884.884,0,0,0,.334.691,1.325,1.325,0,0,0,.832.24,1.226,1.226,0,0,0,.735-.185A.574.574,0,0,0-37-1.752ZM-30.586,0a1.88,1.88,0,0,1-.17-.568,2.049,2.049,0,0,1-1.6.686A2.251,2.251,0,0,1-33.9-.422a1.734,1.734,0,0,1-.612-1.359,1.792,1.792,0,0,1,.747-1.547,3.686,3.686,0,0,1,2.159-.545h.779v-.363a1.045,1.045,0,0,0-.226-.7.887.887,0,0,0-.712-.264A1.009,1.009,0,0,0-32.435-5a.7.7,0,0,0-.243.563h-1.693a1.7,1.7,0,0,1,.34-1.02,2.246,2.246,0,0,1,.961-.735,3.5,3.5,0,0,1,1.395-.267,2.767,2.767,0,0,1,1.86.589,2.06,2.06,0,0,1,.688,1.655v2.748A3.031,3.031,0,0,0-28.875-.1V0Zm-1.4-1.178a1.458,1.458,0,0,0,.691-.167,1.1,1.1,0,0,0,.469-.448v-1.09h-.633q-1.271,0-1.354.879l-.006.1a.678.678,0,0,0,.223.521A.865.865,0,0,0-31.986-1.178Zm7.723-3.574a4.6,4.6,0,0,0-.609-.047,1.24,1.24,0,0,0-1.26.65V0h-1.693V-6.34h1.6l.047.756a1.569,1.569,0,0,1,1.412-.873,1.774,1.774,0,0,1,.527.076Zm4.377,0A4.6,4.6,0,0,0-20.5-4.8a1.24,1.24,0,0,0-1.26.65V0h-1.693V-6.34h1.6l.047.756a1.569,1.569,0,0,1,1.412-.873,1.774,1.774,0,0,1,.527.076Zm.34,1.523a3.76,3.76,0,0,1,.363-1.682,2.659,2.659,0,0,1,1.046-1.143,3.051,3.051,0,0,1,1.585-.4,2.887,2.887,0,0,1,2.095.785,3.151,3.151,0,0,1,.905,2.133l.012.434a3.314,3.314,0,0,1-.814,2.341,2.831,2.831,0,0,1-2.186.882,2.845,2.845,0,0,1-2.188-.879,3.372,3.372,0,0,1-.817-2.391Zm1.693.12a2.37,2.37,0,0,0,.34,1.382,1.121,1.121,0,0,0,.973.478,1.124,1.124,0,0,0,.961-.472,2.593,2.593,0,0,0,.346-1.511A2.346,2.346,0,0,0-15.58-4.6a1.124,1.124,0,0,0-.973-.487,1.105,1.105,0,0,0-.961.484A2.637,2.637,0,0,0-17.854-3.108ZM-10.711,0h-1.7V-9h1.7Zm3.182,0h-1.7V-9h1.7ZM-6.4-3.229A3.76,3.76,0,0,1-6.035-4.91,2.659,2.659,0,0,1-4.989-6.053a3.051,3.051,0,0,1,1.585-.4,2.887,2.887,0,0,1,2.095.785A3.151,3.151,0,0,1-.4-3.539l.012.434A3.314,3.314,0,0,1-1.207-.765,2.831,2.831,0,0,1-3.393.117,2.845,2.845,0,0,1-5.581-.762,3.372,3.372,0,0,1-6.4-3.152Zm1.693.12a2.37,2.37,0,0,0,.34,1.382,1.121,1.121,0,0,0,.973.478,1.124,1.124,0,0,0,.961-.472,2.593,2.593,0,0,0,.346-1.511A2.346,2.346,0,0,0-2.432-4.6,1.124,1.124,0,0,0-3.4-5.092a1.105,1.105,0,0,0-.961.484A2.637,2.637,0,0,0-4.705-3.108Z" transform="matrix(0.875, 0.485, -0.485, 0.875, 500.268, 103.924)" fill="#111e61"/>
  </g>
</svg>
