<svg xmlns="http://www.w3.org/2000/svg" width="819" height="402" viewBox="0 0 819 402">
  <g id="Grupo_159412" data-name="Grupo 159412" transform="translate(3481 5477)">
    <path id="Trazado_602943" data-name="Trazado 602943" d="M10,0H809a10,10,0,0,1,10,10V402H0V10A10,10,0,0,1,10,0Z" transform="translate(-3481 -5477)" fill="#fff"/>
    <path id="Trazado_602944" data-name="Trazado 602944" d="M9.945-3.789A4.025,4.025,0,0,1,8.59-.9,4.76,4.76,0,0,1,5.367.156,4.28,4.28,0,0,1,1.926-1.316,6.038,6.038,0,0,1,.672-5.359v-.7A6.819,6.819,0,0,1,1.25-8.945,4.332,4.332,0,0,1,2.9-10.863a4.629,4.629,0,0,1,2.5-.668A4.637,4.637,0,0,1,8.57-10.477,4.326,4.326,0,0,1,9.961-7.516H7.617A2.376,2.376,0,0,0,7-9.113a2.271,2.271,0,0,0-1.605-.5,1.991,1.991,0,0,0-1.754.84,4.707,4.707,0,0,0-.6,2.605V-5.3a5.038,5.038,0,0,0,.559,2.7,1.954,1.954,0,0,0,1.762.852,2.314,2.314,0,0,0,1.621-.5A2.241,2.241,0,0,0,7.6-3.789ZM13.977,0H11.633V-11.375h2.344Zm11.1-3.789A4.025,4.025,0,0,1,23.723-.9,4.76,4.76,0,0,1,20.5.156a4.28,4.28,0,0,1-3.441-1.473A6.038,6.038,0,0,1,15.8-5.359v-.7a6.819,6.819,0,0,1,.578-2.891,4.332,4.332,0,0,1,1.652-1.918,4.629,4.629,0,0,1,2.5-.668A4.637,4.637,0,0,1,23.7-10.477a4.326,4.326,0,0,1,1.391,2.961H22.75a2.376,2.376,0,0,0-.613-1.6,2.271,2.271,0,0,0-1.605-.5,1.991,1.991,0,0,0-1.754.84,4.707,4.707,0,0,0-.6,2.605V-5.3a5.038,5.038,0,0,0,.559,2.7,1.954,1.954,0,0,0,1.762.852,2.314,2.314,0,0,0,1.621-.5,2.241,2.241,0,0,0,.613-1.535Zm3.883,1.906h4.977V0h-7.32V-11.375h2.344ZM44.125-5.43a6.867,6.867,0,0,1-.594,2.945,4.472,4.472,0,0,1-1.7,1.953A4.7,4.7,0,0,1,39.3.156a4.732,4.732,0,0,1-2.523-.68,4.515,4.515,0,0,1-1.719-1.941,6.67,6.67,0,0,1-.617-2.9V-5.93a6.831,6.831,0,0,1,.605-2.957,4.508,4.508,0,0,1,1.711-1.961,4.706,4.706,0,0,1,2.527-.684,4.706,4.706,0,0,1,2.527.684A4.508,4.508,0,0,1,43.52-8.887a6.811,6.811,0,0,1,.605,2.949ZM41.75-5.945a4.787,4.787,0,0,0-.641-2.719,2.088,2.088,0,0,0-1.828-.93,2.088,2.088,0,0,0-1.82.918,4.732,4.732,0,0,0-.648,2.691v.555a4.847,4.847,0,0,0,.641,2.7,2.082,2.082,0,0,0,1.844.961,2.064,2.064,0,0,0,1.813-.926,4.819,4.819,0,0,0,.641-2.7ZM49.813,0V-11.375h3.5A5.315,5.315,0,0,1,56-10.7a4.712,4.712,0,0,1,1.848,1.922,5.928,5.928,0,0,1,.664,2.832v.523a5.945,5.945,0,0,1-.652,2.82,4.672,4.672,0,0,1-1.84,1.914A5.355,5.355,0,0,1,53.336,0Zm2.344-9.477v7.594h1.133a2.545,2.545,0,0,0,2.1-.9,4.06,4.06,0,0,0,.742-2.57v-.6a4.124,4.124,0,0,0-.719-2.629,2.537,2.537,0,0,0-2.1-.895Zm14.9,4.547h-4.5v3.047h5.281V0H60.211V-11.375H67.82v1.9H62.555v2.711h4.5ZM77.4-2.82l2.578-8.555h2.609L78.625,0H76.18L72.234-11.375h2.6ZM86.148,0H83.8V-11.375h2.344ZM88.32,0V-11.375h3.5A5.315,5.315,0,0,1,94.5-10.7a4.712,4.712,0,0,1,1.848,1.922,5.928,5.928,0,0,1,.664,2.832v.523a5.945,5.945,0,0,1-.652,2.82,4.672,4.672,0,0,1-1.84,1.914A5.355,5.355,0,0,1,91.844,0Zm2.344-9.477v7.594H91.8a2.545,2.545,0,0,0,2.1-.9,4.06,4.06,0,0,0,.742-2.57v-.6a4.124,4.124,0,0,0-.719-2.629,2.537,2.537,0,0,0-2.1-.895Zm14.477,7.133h-4.109L100.25,0H97.758l4.234-11.375h2.172L108.422,0H105.93Zm-3.477-1.9h2.844L103.078-8.5Zm14.148.234V0h-2.344V-11.375h4.438a5.134,5.134,0,0,1,2.254.469,3.454,3.454,0,0,1,1.5,1.332,3.714,3.714,0,0,1,.523,1.965,3.266,3.266,0,0,1-1.145,2.637,4.767,4.767,0,0,1-3.168.965Zm0-1.9h2.094a2.059,2.059,0,0,0,1.418-.437,1.591,1.591,0,0,0,.488-1.25,1.876,1.876,0,0,0-.492-1.352,1.839,1.839,0,0,0-1.359-.531h-2.148ZM128-4.164h-1.867V0h-2.344V-11.375h4.227a4.778,4.778,0,0,1,3.109.9,3.1,3.1,0,0,1,1.094,2.539,3.5,3.5,0,0,1-.5,1.941,3.437,3.437,0,0,1-1.527,1.238l2.461,4.648V0h-2.516Zm-1.867-1.9h1.891a1.936,1.936,0,0,0,1.367-.449,1.606,1.606,0,0,0,.484-1.238,1.719,1.719,0,0,0-.457-1.266,1.9,1.9,0,0,0-1.4-.461h-1.883Zm17.211.633a6.867,6.867,0,0,1-.594,2.945,4.471,4.471,0,0,1-1.7,1.953,4.7,4.7,0,0,1-2.535.688,4.732,4.732,0,0,1-2.523-.68,4.515,4.515,0,0,1-1.719-1.941,6.67,6.67,0,0,1-.617-2.9V-5.93a6.831,6.831,0,0,1,.605-2.957,4.508,4.508,0,0,1,1.711-1.961,4.706,4.706,0,0,1,2.527-.684,4.706,4.706,0,0,1,2.527.684,4.508,4.508,0,0,1,1.711,1.961,6.811,6.811,0,0,1,.605,2.949Zm-2.375-.516a4.787,4.787,0,0,0-.641-2.719,2.088,2.088,0,0,0-1.828-.93,2.088,2.088,0,0,0-1.82.918,4.732,4.732,0,0,0-.648,2.691v.555a4.847,4.847,0,0,0,.641,2.7,2.082,2.082,0,0,0,1.844.961,2.064,2.064,0,0,0,1.813-.926,4.819,4.819,0,0,0,.641-2.7Zm11.977-3.531h-3.484V0h-2.344V-9.477H143.68v-1.9h9.266ZM163.406-5.43a6.867,6.867,0,0,1-.594,2.945,4.471,4.471,0,0,1-1.7,1.953,4.7,4.7,0,0,1-2.535.688,4.732,4.732,0,0,1-2.523-.68,4.515,4.515,0,0,1-1.719-1.941,6.67,6.67,0,0,1-.617-2.9V-5.93a6.831,6.831,0,0,1,.605-2.957,4.508,4.508,0,0,1,1.711-1.961,4.706,4.706,0,0,1,2.527-.684,4.706,4.706,0,0,1,2.527.684A4.508,4.508,0,0,1,162.8-8.887a6.811,6.811,0,0,1,.605,2.949Zm-2.375-.516a4.787,4.787,0,0,0-.641-2.719,2.088,2.088,0,0,0-1.828-.93,2.088,2.088,0,0,0-1.82.918,4.732,4.732,0,0,0-.648,2.691v.555a4.847,4.847,0,0,0,.641,2.7,2.082,2.082,0,0,0,1.844.961,2.064,2.064,0,0,0,1.813-.926,4.819,4.819,0,0,0,.641-2.7Zm11.977-3.531h-3.484V0H167.18V-9.477h-3.437v-1.9h9.266ZM176.836,0h-2.344V-11.375h2.344Zm4.516-4.008V0h-2.344V-11.375h4.438a5.134,5.134,0,0,1,2.254.469,3.454,3.454,0,0,1,1.5,1.332,3.714,3.714,0,0,1,.523,1.965,3.266,3.266,0,0,1-1.145,2.637,4.767,4.767,0,0,1-3.168.965Zm0-1.9h2.094a2.059,2.059,0,0,0,1.418-.437,1.591,1.591,0,0,0,.488-1.25,1.876,1.876,0,0,0-.492-1.352,1.839,1.839,0,0,0-1.359-.531h-2.148Zm13.008,3.563H190.25L189.469,0h-2.492l4.234-11.375h2.172L197.641,0h-2.492Zm-3.477-1.9h2.844L192.3-8.5ZM198.7,0V-11.375h3.5a5.315,5.315,0,0,1,2.684.676,4.712,4.712,0,0,1,1.848,1.922,5.928,5.928,0,0,1,.664,2.832v.523a5.945,5.945,0,0,1-.652,2.82,4.672,4.672,0,0,1-1.84,1.914,5.355,5.355,0,0,1-2.68.688Zm2.344-9.477v7.594h1.133a2.545,2.545,0,0,0,2.1-.9,4.06,4.06,0,0,0,.742-2.57v-.6a4.124,4.124,0,0,0-.719-2.629,2.537,2.537,0,0,0-2.1-.895Zm17.4,4.047a6.867,6.867,0,0,1-.594,2.945,4.471,4.471,0,0,1-1.7,1.953,4.7,4.7,0,0,1-2.535.688,4.732,4.732,0,0,1-2.523-.68,4.515,4.515,0,0,1-1.719-1.941,6.67,6.67,0,0,1-.617-2.9V-5.93a6.831,6.831,0,0,1,.605-2.957,4.508,4.508,0,0,1,1.711-1.961,4.706,4.706,0,0,1,2.527-.684,4.706,4.706,0,0,1,2.527.684,4.508,4.508,0,0,1,1.711,1.961,6.811,6.811,0,0,1,.605,2.949Zm-2.375-.516a4.787,4.787,0,0,0-.641-2.719,2.088,2.088,0,0,0-1.828-.93,2.088,2.088,0,0,0-1.82.918,4.732,4.732,0,0,0-.648,2.691v.555a4.847,4.847,0,0,0,.641,2.7,2.082,2.082,0,0,0,1.844.961,2.064,2.064,0,0,0,1.813-.926,4.819,4.819,0,0,0,.641-2.7Z" transform="translate(-3181 -5442)" fill="#00104e"/>
    <path id="Trazado_602945" data-name="Trazado 602945" d="M7.266-2.707a3.139,3.139,0,0,1-1,2.089A3.274,3.274,0,0,1,4.031.117,3.006,3.006,0,0,1,1.608-.967,4.361,4.361,0,0,1,.7-3.867v-.82a4.861,4.861,0,0,1,.425-2.092,3.173,3.173,0,0,1,1.2-1.386,3.353,3.353,0,0,1,1.8-.483,3.083,3.083,0,0,1,2.18.759,3.176,3.176,0,0,1,.955,2.1H6.135A2.451,2.451,0,0,0,5.5-7.27a1.924,1.924,0,0,0-1.368-.458,2.013,2.013,0,0,0-1.69.8,3.661,3.661,0,0,0-.612,2.269v.827a3.764,3.764,0,0,0,.58,2.211A1.874,1.874,0,0,0,4.031-.8,2.165,2.165,0,0,0,5.47-1.228a2.357,2.357,0,0,0,.665-1.479Zm1.078-.521A3.745,3.745,0,0,1,8.71-4.9a2.732,2.732,0,0,1,1.02-1.148,2.775,2.775,0,0,1,1.491-.4,2.674,2.674,0,0,1,2.095.9,3.449,3.449,0,0,1,.8,2.385V-3.1a3.777,3.777,0,0,1-.354,1.661A2.692,2.692,0,0,1,12.747-.293a2.807,2.807,0,0,1-1.515.41,2.667,2.667,0,0,1-2.089-.9,3.432,3.432,0,0,1-.8-2.373Zm1.09.129a2.712,2.712,0,0,0,.489,1.693,1.566,1.566,0,0,0,1.31.639,1.556,1.556,0,0,0,1.313-.647,2.966,2.966,0,0,0,.486-1.813,2.708,2.708,0,0,0-.5-1.69,1.574,1.574,0,0,0-1.315-.647,1.557,1.557,0,0,0-1.295.639A2.944,2.944,0,0,0,9.434-3.1Zm7.061-3.24.029.7a2.341,2.341,0,0,1,1.881-.82,1.813,1.813,0,0,1,1.811,1.02,2.4,2.4,0,0,1,.823-.738,2.431,2.431,0,0,1,1.2-.281q2.086,0,2.121,2.209V0H23.273V-4.184A1.456,1.456,0,0,0,22.963-5.2a1.368,1.368,0,0,0-1.043-.337,1.437,1.437,0,0,0-1,.36,1.462,1.462,0,0,0-.463.97V0h-1.09V-4.154a1.209,1.209,0,0,0-1.354-1.383,1.45,1.45,0,0,0-1.459.908V0H15.469V-6.34ZM27.17,0H26.086V-6.34H27.17ZM26-8.021a.647.647,0,0,1,.161-.445.6.6,0,0,1,.478-.182.614.614,0,0,1,.48.182.64.64,0,0,1,.164.445.619.619,0,0,1-.164.439.626.626,0,0,1-.48.176.616.616,0,0,1-.478-.176A.626.626,0,0,1,26-8.021ZM31.535.117a2.77,2.77,0,0,1-2.1-.847,3.142,3.142,0,0,1-.809-2.265v-.2a3.8,3.8,0,0,1,.36-1.685A2.811,2.811,0,0,1,30-6.038a2.534,2.534,0,0,1,1.4-.419,2.374,2.374,0,0,1,1.922.814,3.526,3.526,0,0,1,.686,2.332v.451H29.713a2.254,2.254,0,0,0,.548,1.515,1.722,1.722,0,0,0,1.333.577A1.888,1.888,0,0,0,32.566-1a2.444,2.444,0,0,0,.7-.621l.662.516A2.662,2.662,0,0,1,31.535.117ZM31.4-5.566a1.446,1.446,0,0,0-1.1.478,2.321,2.321,0,0,0-.551,1.339h3.176v-.082a2.065,2.065,0,0,0-.445-1.28A1.361,1.361,0,0,0,31.4-5.566Zm4.887-.773.035.8a2.31,2.31,0,0,1,1.9-.914q2.01,0,2.027,2.268V0H39.164V-4.2a1.459,1.459,0,0,0-.313-1.014,1.256,1.256,0,0,0-.958-.328,1.564,1.564,0,0,0-.926.281,1.91,1.91,0,0,0-.621.738V0H35.262V-6.34ZM42.9-.885h3.709V0H41.578V-.8l3.5-4.646H41.631v-.9h4.8v.768Zm4.547-2.344A3.745,3.745,0,0,1,47.815-4.9a2.732,2.732,0,0,1,1.02-1.148,2.775,2.775,0,0,1,1.491-.4,2.674,2.674,0,0,1,2.095.9,3.449,3.449,0,0,1,.8,2.385V-3.1a3.777,3.777,0,0,1-.354,1.661A2.692,2.692,0,0,1,51.853-.293a2.807,2.807,0,0,1-1.515.41,2.667,2.667,0,0,1-2.089-.9,3.432,3.432,0,0,1-.8-2.373Zm1.09.129a2.712,2.712,0,0,0,.489,1.693,1.566,1.566,0,0,0,1.31.639,1.556,1.556,0,0,0,1.313-.647,2.966,2.966,0,0,0,.486-1.813,2.708,2.708,0,0,0-.5-1.69,1.574,1.574,0,0,0-1.315-.647,1.557,1.557,0,0,0-1.295.639A2.944,2.944,0,0,0,48.539-3.1Z" transform="translate(-3184 -5404)" fill="#00104e"/>
    <path id="Trazado_602946" data-name="Trazado 602946" d="M2.115-3.34V0H.99V-8.531H4.137a3.161,3.161,0,0,1,2.194.715,2.423,2.423,0,0,1,.794,1.893,2.391,2.391,0,0,1-.776,1.913,3.3,3.3,0,0,1-2.224.671Zm0-.92H4.137A2.021,2.021,0,0,0,5.52-4.685,1.556,1.556,0,0,0,6-5.915a1.608,1.608,0,0,0-.48-1.221A1.894,1.894,0,0,0,4.2-7.611H2.115ZM12.24,0a2.277,2.277,0,0,1-.152-.668,2.419,2.419,0,0,1-1.8.785,2.238,2.238,0,0,1-1.538-.53,1.716,1.716,0,0,1-.6-1.345A1.792,1.792,0,0,1,8.9-3.3a3.55,3.55,0,0,1,2.118-.548H12.07v-.5a1.217,1.217,0,0,0-.34-.905,1.366,1.366,0,0,0-1-.337,1.581,1.581,0,0,0-.973.293.863.863,0,0,0-.393.709H8.273A1.5,1.5,0,0,1,8.61-5.5a2.3,2.3,0,0,1,.914-.7,3.075,3.075,0,0,1,1.269-.258,2.506,2.506,0,0,1,1.717.548A1.976,1.976,0,0,1,13.154-4.4v2.918a3.567,3.567,0,0,0,.223,1.389V0Zm-1.8-.826a1.905,1.905,0,0,0,.967-.264,1.6,1.6,0,0,0,.662-.686v-1.3h-.85q-1.992,0-1.992,1.166a.987.987,0,0,0,.34.8A1.306,1.306,0,0,0,10.441-.826Zm7.477-4.541a3.248,3.248,0,0,0-.533-.041,1.428,1.428,0,0,0-1.447.908V0H14.854V-6.34h1.055l.018.732a1.688,1.688,0,0,1,1.512-.85,1.107,1.107,0,0,1,.48.082ZM22.594,0a2.277,2.277,0,0,1-.152-.668,2.419,2.419,0,0,1-1.8.785A2.238,2.238,0,0,1,19.1-.413a1.716,1.716,0,0,1-.6-1.345A1.792,1.792,0,0,1,19.251-3.3a3.55,3.55,0,0,1,2.118-.548h1.055v-.5a1.217,1.217,0,0,0-.34-.905,1.366,1.366,0,0,0-1-.337,1.581,1.581,0,0,0-.973.293.863.863,0,0,0-.393.709h-1.09a1.5,1.5,0,0,1,.337-.917,2.3,2.3,0,0,1,.914-.7,3.075,3.075,0,0,1,1.269-.258,2.506,2.506,0,0,1,1.717.548A1.976,1.976,0,0,1,23.508-4.4v2.918A3.567,3.567,0,0,0,23.73-.094V0Zm-1.8-.826a1.905,1.905,0,0,0,.967-.264,1.6,1.6,0,0,0,.662-.686v-1.3h-.85q-1.992,0-1.992,1.166a.987.987,0,0,0,.34.8A1.306,1.306,0,0,0,20.795-.826Zm4.148-2.4a3.714,3.714,0,0,1,.691-2.347,2.186,2.186,0,0,1,1.811-.888,2.2,2.2,0,0,1,1.764.762V-9h1.084V0h-1l-.053-.68a2.208,2.208,0,0,1-1.811.8,2.165,2.165,0,0,1-1.8-.9,3.756,3.756,0,0,1-.694-2.355Zm1.084.123a2.812,2.812,0,0,0,.445,1.688A1.44,1.44,0,0,0,27.7-.8a1.581,1.581,0,0,0,1.506-.926V-4.641a1.593,1.593,0,0,0-1.494-.9,1.446,1.446,0,0,0-1.242.615A3.1,3.1,0,0,0,26.027-3.1ZM35.889,0a2.277,2.277,0,0,1-.152-.668,2.419,2.419,0,0,1-1.8.785,2.238,2.238,0,0,1-1.538-.53,1.716,1.716,0,0,1-.6-1.345A1.792,1.792,0,0,1,32.546-3.3a3.55,3.55,0,0,1,2.118-.548h1.055v-.5a1.217,1.217,0,0,0-.34-.905,1.366,1.366,0,0,0-1-.337,1.581,1.581,0,0,0-.973.293.863.863,0,0,0-.393.709h-1.09a1.5,1.5,0,0,1,.337-.917,2.3,2.3,0,0,1,.914-.7,3.075,3.075,0,0,1,1.269-.258,2.506,2.506,0,0,1,1.717.548A1.976,1.976,0,0,1,36.8-4.4v2.918a3.567,3.567,0,0,0,.223,1.389V0Zm-1.8-.826a1.905,1.905,0,0,0,.967-.264,1.6,1.6,0,0,0,.662-.686v-1.3h-.85q-1.992,0-1.992,1.166a.987.987,0,0,0,.34.8A1.306,1.306,0,0,0,34.09-.826Z" transform="translate(-3224 -5390)" fill="#00104e"/>
    <path id="Trazado_602947" data-name="Trazado 602947" d="M159.871,0c88.294,0,159.871,67.85,159.871,151.547S248.165,303.094,159.871,303.094,0,235.244,0,151.547,71.577,0,159.871,0Z" transform="translate(-3235.971 -5398.473)" fill="#ffca28"/>
    <g id="Grupo_20946" data-name="Grupo 20946" transform="translate(-3166.605 -5371.258)">
      <rect id="Rectángulo_4851" data-name="Rectángulo 4851" width="1.107" height="92.96" transform="matrix(0.79, -0.613, 0.613, 0.79, 0, 0.678)" fill="#2e3192"/>
    </g>
    <g id="Grupo_20947" data-name="Grupo 20947" transform="translate(-3039.852 -5200.43)">
      <rect id="Rectángulo_4852" data-name="Rectángulo 4852" width="1.106" height="94.096" transform="matrix(0.781, -0.625, 0.625, 0.781, 0, 0.691)" fill="#2e3192"/>
    </g>
    <g id="Grupo_20948" data-name="Grupo 20948" transform="translate(-3137.33 -5307.18)">
      <ellipse id="Elipse_1216" data-name="Elipse 1216" cx="62.456" cy="58.782" rx="62.456" ry="58.782" transform="translate(0.553 0.553)" fill="#fff"/>
      <path id="Trazado_4504" data-name="Trazado 4504" d="M973.77,643.4c-34.743,0-63.008-26.617-63.008-59.334s28.264-59.336,63.008-59.336,63.01,26.618,63.01,59.336S1008.513,643.4,973.77,643.4Zm0-117.564c-34.133,0-61.9,26.123-61.9,58.23s27.769,58.229,61.9,58.229,61.9-26.121,61.9-58.229S1007.9,525.836,973.77,525.836Z" transform="translate(-910.762 -524.73)" fill="#2e3192"/>
    </g>
    <path id="Trazado_4505" data-name="Trazado 4505" d="M944.7,585l7.893,12.531,31.919-18.651,3.9,5.669,6.784-22.428L972.711,561l3.907,5.348Z" transform="translate(-4044.501 -5828.072)" fill="#00104e"/>
    <path id="Trazado_4506" data-name="Trazado 4506" d="M991,426l5.484,6.483s60.646,4.052,112.08,72.019H1097.27l32.417,26.635,1.729-22.961h-12.967S1069.986,432,991,426Z" transform="translate(-4039.602 -5842.356)" fill="#ffa726"/>
    <g id="Grupo_20951" data-name="Grupo 20951" transform="translate(-3191.954 -5384.124)">
      <g id="Grupo_20949" data-name="Grupo 20949" transform="translate(0.378 0.29)">
        <rect id="Rectángulo_4853" data-name="Rectángulo 4853" width="0.553" height="19.27" transform="matrix(0.774, -0.633, 0.633, 0.774, 0, 0.35)" fill="#2e3192" stroke="#707070" stroke-width="1.5"/>
      </g>
      <g id="Grupo_20950" data-name="Grupo 20950">
        <path id="Trazado_4507" data-name="Trazado 4507" d="M864.867,455.6l-.075.548-2.7-.372-.174,2.721-.552-.036.213-3.314Z" transform="translate(-861.365 -455.148)" fill="#2e3192" stroke="#707070" stroke-width="1.5"/>
      </g>
    </g>
    <g id="Grupo_20954" data-name="Grupo 20954" transform="translate(-3170.071 -5398.627)">
      <g id="Grupo_20952" data-name="Grupo 20952" transform="translate(0)">
        <rect id="Rectángulo_4854" data-name="Rectángulo 4854" width="0.553" height="19.269" transform="translate(0 0.307) rotate(-33.69)" fill="#2e3192" stroke="#707070" stroke-width="1.5"/>
      </g>
      <g id="Grupo_20953" data-name="Grupo 20953" transform="translate(8.021 13.319)">
        <path id="Trazado_4508" data-name="Trazado 4508" d="M888.407,456.676l.128-.538,2.652.632.437-2.691.546.089-.533,3.278Z" transform="translate(-888.407 -454.078)" fill="#2e3192" stroke="#707070" stroke-width="1.5"/>
      </g>
    </g>
    <g id="Grupo_20955" data-name="Grupo 20955" transform="translate(-3236.242 -5247.479)">
      <rect id="Rectángulo_4855" data-name="Rectángulo 4855" width="98.547" height="1.106" fill="#2e3192"/>
    </g>
    <g id="Grupo_20956" data-name="Grupo 20956" transform="translate(-3042.974 -5375.824)">
      <rect id="Rectángulo_4856" data-name="Rectángulo 4856" width="92.728" height="1.106" transform="translate(0 76.931) rotate(-56.062)" fill="#2e3192"/>
    </g>
    <g id="Grupo_20957" data-name="Grupo 20957" transform="translate(-3170.275 -5200.423)">
      <rect id="Rectángulo_4857" data-name="Rectángulo 4857" width="96.993" height="1.105" transform="translate(0 77.16) rotate(-52.705)" fill="#2e3192"/>
    </g>
    <g id="Grupo_20958" data-name="Grupo 20958" transform="translate(-3012.687 -5251.591)">
      <rect id="Rectángulo_4858" data-name="Rectángulo 4858" width="1.107" height="96.351" transform="translate(0 1.106) rotate(-87.554)" fill="#2e3192"/>
    </g>
    <g id="Grupo_20963" data-name="Grupo 20963" transform="translate(-3137.033 -5299.073)">
      <line id="Línea_127" data-name="Línea 127" x1="94.248" y2="51.662" transform="translate(0.266 0.485)" fill="#fff"/>
      <g id="Grupo_20962" data-name="Grupo 20962" transform="translate(0)">
        <g id="Grupo_20959" data-name="Grupo 20959" transform="translate(93.278)">
          <rect id="Rectángulo_4859" data-name="Rectángulo 4859" width="1.106" height="1.106" transform="translate(0 0.531) rotate(-28.718)" fill="#2e3192"/>
        </g>
        <g id="Grupo_20960" data-name="Grupo 20960" transform="translate(2.934 1.608)">
          <path id="Trazado_4509" data-name="Trazado 4509" d="M914.214,582.931l-.531-.97,1.964-1.076.531.969Zm3.929-2.153-.532-.97,1.964-1.077.531.97Zm3.928-2.153-.532-.97,1.964-1.077.532.97ZM926,576.471l-.531-.97,1.963-1.076.532.97Zm3.928-2.153-.531-.97,1.964-1.077.531.97Zm3.928-2.153-.532-.97,1.965-1.077.531.97Zm3.929-2.153-.532-.97,1.963-1.076.532.97Zm3.927-2.153-.531-.97,1.964-1.076.532.97Zm3.929-2.153-.531-.97,1.963-1.077.531.97Zm3.928-2.153-.532-.97L951,561.506l.531.97Zm3.928-2.154-.532-.97,1.964-1.076.532.97Zm3.928-2.153-.531-.97,1.964-1.076.532.97Zm3.928-2.153-.531-.97,1.964-1.077.531.97Zm3.929-2.152-.532-.97,1.964-1.077.531.97Zm3.928-2.154-.532-.97,1.964-1.076.532.97Zm3.927-2.153-.531-.97,1.964-1.076.532.969Zm3.929-2.153-.531-.97,1.964-1.077.531.97Zm3.928-2.153-.532-.97,1.965-1.077.531.97Zm3.929-2.154-.532-.97,1.963-1.076.532.97Zm3.927-2.153-.531-.97,1.964-1.076.532.97Zm3.928-2.152-.531-.97,1.964-1.077.531.97Zm3.929-2.154-.532-.969,1.965-1.077.531.97Zm3.928-2.153-.532-.97,1.964-1.076.532.97Z" transform="translate(-913.683 -533.516)" fill="#2e3192"/>
        </g>
        <g id="Grupo_20961" data-name="Grupo 20961" transform="translate(0 51.13)">
          <rect id="Rectángulo_4860" data-name="Rectángulo 4860" width="1.106" height="1.106" transform="translate(0 0.532) rotate(-28.718)" fill="#2e3192"/>
        </g>
      </g>
    </g>
    <g id="Grupo_20968" data-name="Grupo 20968" transform="translate(-3111.334 -5251.529)">
      <line id="Línea_128" data-name="Línea 128" x1="98.417" y2="50.867" transform="translate(0.254 0.491)" fill="#fff"/>
      <g id="Grupo_20967" data-name="Grupo 20967" transform="translate(0)">
        <g id="Grupo_20964" data-name="Grupo 20964" transform="translate(97.434)">
          <rect id="Rectángulo_4861" data-name="Rectángulo 4861" width="1.106" height="1.106" transform="translate(0 0.508) rotate(-27.316)" fill="#2e3192"/>
        </g>
        <g id="Grupo_20965" data-name="Grupo 20965" transform="translate(2.951 1.525)">
          <path id="Trazado_4510" data-name="Trazado 4510" d="M937.447,625.234l-.508-.982,1.969-1.018.508.983Zm3.938-2.035-.508-.983,1.967-1.017.508.983Zm3.937-2.035-.508-.983,1.968-1.017.508.983Zm3.937-2.035-.508-.983,1.968-1.017.508.983Zm3.937-2.035-.508-.983,1.968-1.017.508.983Zm3.937-2.036-.508-.982,1.969-1.017.506.982Zm3.937-2.035-.508-.982,1.968-1.017.508.982ZM965,610.992l-.508-.983,1.969-1.017.508.983Zm3.938-2.035-.508-.983,1.967-1.017.508.983Zm3.936-2.036-.508-.983,1.97-1.017.508.983Zm3.938-2.035-.508-.983,1.968-1.017.508.983Zm3.937-2.035-.508-.982,1.968-1.017.508.982Zm3.937-2.035-.508-.982,1.968-1.017.508.982Zm3.937-2.034-.508-.983,1.968-1.018.508.983Zm3.937-2.036-.508-.983,1.969-1.017.508.983Zm3.938-2.035-.508-.983,1.967-1.017.508.983Zm3.936-2.035-.508-.983,1.969-1.017.508.983Zm3.938-2.035-.508-.982,1.968-1.018.508.982Zm3.936-2.036-.508-.982,1.969-1.017.508.982Zm3.938-2.034-.508-.983,1.968-1.017.508.983Zm3.937-2.035-.508-.983,1.968-1.017.508.983Zm3.937-2.035-.508-.983,1.968-1.018.508.983Zm3.938-2.036-.508-.983,1.967-1.017.508.983Zm3.936-2.035-.508-.983,1.969-1.016.508.982Z" transform="translate(-936.939 -576.435)" fill="#2e3192"/>
        </g>
        <g id="Grupo_20966" data-name="Grupo 20966" transform="translate(0 50.36)">
          <rect id="Rectángulo_4862" data-name="Rectángulo 4862" width="1.106" height="1.106" transform="translate(0 0.508) rotate(-27.316)" fill="#2e3192"/>
        </g>
      </g>
    </g>
    <path id="Trazado_602948" data-name="Trazado 602948" d="M-33.615-3.123h-1.4V0h-1.758V-8.531h3.17a3.583,3.583,0,0,1,2.332.674,2.326,2.326,0,0,1,.82,1.9A2.625,2.625,0,0,1-30.829-4.5a2.578,2.578,0,0,1-1.146.929l1.846,3.486V0h-1.887Zm-1.4-1.424H-33.6a1.452,1.452,0,0,0,1.025-.337,1.2,1.2,0,0,0,.363-.929,1.289,1.289,0,0,0-.343-.949A1.424,1.424,0,0,0-33.6-7.107h-1.412ZM-26.309.117a3.112,3.112,0,0,1-2.271-.855,3.041,3.041,0,0,1-.876-2.279v-.164a3.83,3.83,0,0,1,.369-1.708A2.709,2.709,0,0,1-28.04-6.05,2.936,2.936,0,0,1-26.5-6.457a2.631,2.631,0,0,1,2.048.82A3.333,3.333,0,0,1-23.7-3.311v.691h-4.037a1.573,1.573,0,0,0,.5,1,1.5,1.5,0,0,0,1.046.375,1.828,1.828,0,0,0,1.529-.709l.832.932a2.542,2.542,0,0,1-1.031.841A3.383,3.383,0,0,1-26.309.117ZM-26.5-5.092a1.058,1.058,0,0,0-.817.341,1.768,1.768,0,0,0-.4.977h2.355v-.135a1.261,1.261,0,0,0-.3-.874A1.092,1.092,0,0,0-26.5-5.092Zm6.4,3.844a1.111,1.111,0,0,0,.762-.258.9.9,0,0,0,.3-.686h1.588A2.172,2.172,0,0,1-17.8-1.011a2.32,2.32,0,0,1-.946.832,2.962,2.962,0,0,1-1.327.3,2.752,2.752,0,0,1-2.145-.864A3.42,3.42,0,0,1-23-3.135v-.111a3.381,3.381,0,0,1,.779-2.338,2.72,2.72,0,0,1,2.139-.873,2.667,2.667,0,0,1,1.907.677,2.4,2.4,0,0,1,.729,1.8h-1.588a1.164,1.164,0,0,0-.3-.8,1.016,1.016,0,0,0-.773-.309,1.02,1.02,0,0,0-.894.431,2.5,2.5,0,0,0-.3,1.4v.176a2.531,2.531,0,0,0,.3,1.408A1.033,1.033,0,0,0-20.1-1.248Zm3.357-1.98a3.76,3.76,0,0,1,.363-1.682,2.659,2.659,0,0,1,1.046-1.143,3.051,3.051,0,0,1,1.585-.4,2.887,2.887,0,0,1,2.095.785,3.151,3.151,0,0,1,.905,2.133l.012.434a3.314,3.314,0,0,1-.814,2.341A2.831,2.831,0,0,1-13.74.117a2.845,2.845,0,0,1-2.188-.879,3.372,3.372,0,0,1-.817-2.391Zm1.693.12a2.37,2.37,0,0,0,.34,1.382,1.121,1.121,0,0,0,.973.478,1.124,1.124,0,0,0,.961-.472,2.593,2.593,0,0,0,.346-1.511A2.346,2.346,0,0,0-12.779-4.6a1.124,1.124,0,0,0-.973-.487,1.105,1.105,0,0,0-.961.484A2.637,2.637,0,0,0-15.053-3.108ZM-7.91,0h-1.7V-9h1.7ZM-3.6.117A3.112,3.112,0,0,1-5.868-.738a3.041,3.041,0,0,1-.876-2.279v-.164A3.83,3.83,0,0,1-6.375-4.89,2.709,2.709,0,0,1-5.329-6.05a2.936,2.936,0,0,1,1.544-.407,2.631,2.631,0,0,1,2.048.82A3.333,3.333,0,0,1-.99-3.311v.691H-5.027a1.573,1.573,0,0,0,.5,1,1.5,1.5,0,0,0,1.046.375,1.828,1.828,0,0,0,1.529-.709l.832.932a2.542,2.542,0,0,1-1.031.841A3.383,3.383,0,0,1-3.6.117Zm-.193-5.209a1.058,1.058,0,0,0-.817.341,1.768,1.768,0,0,0-.4.977h2.355v-.135a1.261,1.261,0,0,0-.3-.874A1.092,1.092,0,0,0-3.791-5.092Zm6.4,3.844a1.111,1.111,0,0,0,.762-.258.9.9,0,0,0,.3-.686H5.262A2.172,2.172,0,0,1,4.91-1.011a2.32,2.32,0,0,1-.946.832,2.962,2.962,0,0,1-1.327.3A2.752,2.752,0,0,1,.492-.747,3.42,3.42,0,0,1-.293-3.135v-.111A3.381,3.381,0,0,1,.486-5.584a2.72,2.72,0,0,1,2.139-.873,2.667,2.667,0,0,1,1.907.677,2.4,2.4,0,0,1,.729,1.8H3.674a1.164,1.164,0,0,0-.3-.8A1.016,1.016,0,0,0,2.6-5.092,1.02,1.02,0,0,0,1.7-4.66a2.5,2.5,0,0,0-.3,1.4v.176a2.531,2.531,0,0,0,.3,1.408A1.033,1.033,0,0,0,2.607-1.248Zm6.258,0a1.111,1.111,0,0,0,.762-.258.9.9,0,0,0,.3-.686H11.52a2.172,2.172,0,0,1-.352,1.181,2.32,2.32,0,0,1-.946.832,2.962,2.962,0,0,1-1.327.3A2.752,2.752,0,0,1,6.75-.747a3.42,3.42,0,0,1-.785-2.388v-.111a3.381,3.381,0,0,1,.779-2.338,2.72,2.72,0,0,1,2.139-.873,2.667,2.667,0,0,1,1.907.677,2.4,2.4,0,0,1,.729,1.8H9.932a1.164,1.164,0,0,0-.3-.8,1.016,1.016,0,0,0-.773-.309,1.02,1.02,0,0,0-.894.431,2.5,2.5,0,0,0-.3,1.4v.176a2.531,2.531,0,0,0,.3,1.408A1.033,1.033,0,0,0,8.865-1.248ZM14.273,0h-1.7V-6.34h1.7Zm-1.8-7.98a.834.834,0,0,1,.255-.627.958.958,0,0,1,.694-.246.96.96,0,0,1,.691.246.829.829,0,0,1,.258.627.831.831,0,0,1-.261.633.962.962,0,0,1-.688.246.962.962,0,0,1-.688-.246A.831.831,0,0,1,12.475-7.98ZM15.4-3.229a3.76,3.76,0,0,1,.363-1.682,2.659,2.659,0,0,1,1.046-1.143,3.051,3.051,0,0,1,1.585-.4,2.887,2.887,0,0,1,2.095.785A3.151,3.151,0,0,1,21.4-3.539l.012.434A3.314,3.314,0,0,1,20.6-.765,2.831,2.831,0,0,1,18.41.117a2.845,2.845,0,0,1-2.188-.879A3.372,3.372,0,0,1,15.4-3.152Zm1.693.12a2.37,2.37,0,0,0,.34,1.382,1.121,1.121,0,0,0,.973.478,1.124,1.124,0,0,0,.961-.472,2.593,2.593,0,0,0,.346-1.511A2.346,2.346,0,0,0,19.371-4.6a1.124,1.124,0,0,0-.973-.487,1.105,1.105,0,0,0-.961.484A2.637,2.637,0,0,0,17.1-3.108ZM18.732-9h1.846L18.955-7.184H17.578Zm5.279,2.66.053.732a2.213,2.213,0,0,1,1.822-.85,1.84,1.84,0,0,1,1.5.592,2.761,2.761,0,0,1,.5,1.77V0H26.2V-4.055a1.1,1.1,0,0,0-.234-.782,1.049,1.049,0,0,0-.779-.243,1.165,1.165,0,0,0-1.072.609V0H22.418V-6.34ZM34.529-2.4,35.7-6.34h1.816L34.969.984l-.141.334a1.933,1.933,0,0,1-1.875,1.242,2.664,2.664,0,0,1-.75-.111V1.166l.258.006a1.393,1.393,0,0,0,.718-.146.962.962,0,0,0,.372-.486l.2-.521L31.529-6.34h1.822ZM-32.1,9.877h-1.4V13h-1.758V4.469h3.17a3.583,3.583,0,0,1,2.332.674,2.326,2.326,0,0,1,.82,1.9A2.625,2.625,0,0,1-29.314,8.5a2.578,2.578,0,0,1-1.146.929l1.846,3.486V13H-30.5Zm-1.4-1.424h1.418a1.452,1.452,0,0,0,1.025-.337,1.2,1.2,0,0,0,.363-.929,1.289,1.289,0,0,0-.343-.949,1.424,1.424,0,0,0-1.052-.346H-33.5Zm8.707,4.664a3.112,3.112,0,0,1-2.271-.855,3.041,3.041,0,0,1-.876-2.279V9.818a3.83,3.83,0,0,1,.369-1.708,2.709,2.709,0,0,1,1.046-1.16,2.936,2.936,0,0,1,1.544-.407,2.631,2.631,0,0,1,2.048.82,3.333,3.333,0,0,1,.747,2.326v.691h-4.037a1.573,1.573,0,0,0,.5,1,1.5,1.5,0,0,0,1.046.375,1.828,1.828,0,0,0,1.529-.709l.832.932a2.542,2.542,0,0,1-1.031.841A3.383,3.383,0,0,1-24.794,13.117Zm-.193-5.209a1.058,1.058,0,0,0-.817.341,1.768,1.768,0,0,0-.4.977h2.355V9.091a1.261,1.261,0,0,0-.3-.874A1.092,1.092,0,0,0-24.987,7.908ZM-20.815,13V7.9h-.943V6.66h.943V6.367a2.378,2.378,0,0,1,.735-1.843,2.959,2.959,0,0,1,2.042-.647,6.773,6.773,0,0,1,1.922.346l-.246,1.4a7.5,7.5,0,0,0-.891-.22,4.376,4.376,0,0,0-.68-.05q-1.184,0-1.184,1.049V6.66h1.248V7.9h-1.248V13Zm5.49,0h-1.7V6.66h1.7Zm2.959-6.34.053.732a2.213,2.213,0,0,1,1.822-.85,1.84,1.84,0,0,1,1.5.592,2.761,2.761,0,0,1,.5,1.77V13h-1.693V8.945a1.1,1.1,0,0,0-.234-.782,1.049,1.049,0,0,0-.779-.243,1.165,1.165,0,0,0-1.072.609V13H-13.96V6.66ZM-3.53,13a1.88,1.88,0,0,1-.17-.568,2.049,2.049,0,0,1-1.6.686,2.251,2.251,0,0,1-1.544-.539,1.734,1.734,0,0,1-.612-1.359,1.792,1.792,0,0,1,.747-1.547A3.686,3.686,0,0,1-4.55,9.127h.779V8.764A1.045,1.045,0,0,0-4,8.061.887.887,0,0,0-4.708,7.8,1.009,1.009,0,0,0-5.379,8a.7.7,0,0,0-.243.563H-7.315a1.7,1.7,0,0,1,.34-1.02,2.246,2.246,0,0,1,.961-.735A3.5,3.5,0,0,1-4.62,6.543a2.767,2.767,0,0,1,1.86.589,2.06,2.06,0,0,1,.688,1.655v2.748A3.031,3.031,0,0,0-1.819,12.9V13Zm-1.4-1.178a1.458,1.458,0,0,0,.691-.167,1.1,1.1,0,0,0,.469-.448v-1.09H-4.4q-1.271,0-1.354.879l-.006.1a.678.678,0,0,0,.223.521A.865.865,0,0,0-4.931,11.822ZM.817,6.66l.053.709a2.228,2.228,0,0,1,1.822-.826,1.691,1.691,0,0,1,1.682.967,2.177,2.177,0,0,1,1.9-.967,1.891,1.891,0,0,1,1.535.6,2.761,2.761,0,0,1,.5,1.808V13h-1.7V8.957a1.207,1.207,0,0,0-.211-.788.935.935,0,0,0-.744-.249,1.057,1.057,0,0,0-1.055.727L4.614,13H2.921V8.963a1.193,1.193,0,0,0-.217-.8.944.944,0,0,0-.738-.246,1.1,1.1,0,0,0-1.043.6V13H-.771V6.66ZM11.405,13h-1.7V6.66h1.7Zm-1.8-7.98a.834.834,0,0,1,.255-.627,1.1,1.1,0,0,1,1.386,0,.829.829,0,0,1,.258.627.831.831,0,0,1-.261.633,1.086,1.086,0,0,1-1.377,0A.831.831,0,0,1,9.606,5.02Zm6.111,8.1a3.112,3.112,0,0,1-2.271-.855,3.041,3.041,0,0,1-.876-2.279V9.818A3.83,3.83,0,0,1,12.94,8.11a2.709,2.709,0,0,1,1.046-1.16,2.936,2.936,0,0,1,1.544-.407,2.631,2.631,0,0,1,2.048.82,3.333,3.333,0,0,1,.747,2.326v.691H14.288a1.573,1.573,0,0,0,.5,1,1.5,1.5,0,0,0,1.046.375,1.828,1.828,0,0,0,1.529-.709l.832.932a2.542,2.542,0,0,1-1.031.841A3.383,3.383,0,0,1,15.718,13.117Zm-.193-5.209a1.058,1.058,0,0,0-.817.341,1.768,1.768,0,0,0-.4.977h2.355V9.091a1.261,1.261,0,0,0-.3-.874A1.092,1.092,0,0,0,15.524,7.908Zm5.32-1.248.053.732a2.213,2.213,0,0,1,1.822-.85,1.84,1.84,0,0,1,1.5.592,2.761,2.761,0,0,1,.5,1.77V13H23.03V8.945a1.1,1.1,0,0,0-.234-.782,1.049,1.049,0,0,0-.779-.243,1.165,1.165,0,0,0-1.072.609V13H19.251V6.66ZM28.034,5.1V6.66h1.084V7.9H28.034v3.164a.756.756,0,0,0,.135.5.677.677,0,0,0,.516.152,2.7,2.7,0,0,0,.5-.041v1.283a3.486,3.486,0,0,1-1.025.152,1.617,1.617,0,0,1-1.816-1.8V7.9h-.926V6.66h.926V5.1Zm1.588,4.67a3.76,3.76,0,0,1,.363-1.682,2.659,2.659,0,0,1,1.046-1.143,3.051,3.051,0,0,1,1.585-.4,2.887,2.887,0,0,1,2.095.785,3.151,3.151,0,0,1,.905,2.133l.012.434a3.314,3.314,0,0,1-.814,2.341,3.157,3.157,0,0,1-4.374,0,3.372,3.372,0,0,1-.817-2.391Zm1.693.12a2.37,2.37,0,0,0,.34,1.382,1.221,1.221,0,0,0,1.934.006,2.593,2.593,0,0,0,.346-1.511A2.346,2.346,0,0,0,33.589,8.4a1.124,1.124,0,0,0-.973-.487,1.105,1.105,0,0,0-.961.484A2.637,2.637,0,0,0,31.315,9.892Zm-67.55,12.892a3.821,3.821,0,0,1,.665-2.361,2.158,2.158,0,0,1,1.819-.879,1.942,1.942,0,0,1,1.529.691V17h1.7v9h-1.529l-.082-.674a1.993,1.993,0,0,1-1.629.791,2.152,2.152,0,0,1-1.8-.882A3.944,3.944,0,0,1-36.234,22.783Zm1.693.126a2.5,2.5,0,0,0,.311,1.367,1.012,1.012,0,0,0,.9.475,1.133,1.133,0,0,0,1.107-.663V21.583a1.117,1.117,0,0,0-1.1-.663Q-34.541,20.92-34.541,22.909Zm8.25,3.208a3.112,3.112,0,0,1-2.271-.855,3.041,3.041,0,0,1-.876-2.279v-.164a3.83,3.83,0,0,1,.369-1.708,2.709,2.709,0,0,1,1.046-1.16,2.936,2.936,0,0,1,1.544-.407,2.631,2.631,0,0,1,2.048.82,3.333,3.333,0,0,1,.747,2.326v.691h-4.037a1.573,1.573,0,0,0,.5,1,1.5,1.5,0,0,0,1.046.375,1.828,1.828,0,0,0,1.529-.709l.832.932a2.542,2.542,0,0,1-1.031.841A3.383,3.383,0,0,1-26.291,26.117Zm-.193-5.209a1.058,1.058,0,0,0-.817.341,1.768,1.768,0,0,0-.4.977h2.355v-.135a1.261,1.261,0,0,0-.3-.874A1.092,1.092,0,0,0-26.484,20.908Zm10.02,1.969h-1.4V26h-1.758V17.469h3.17a3.583,3.583,0,0,1,2.332.674,2.326,2.326,0,0,1,.82,1.9,2.625,2.625,0,0,1-.378,1.456,2.578,2.578,0,0,1-1.146.929l1.846,3.486V26h-1.887Zm-1.4-1.424h1.418a1.452,1.452,0,0,0,1.025-.337,1.2,1.2,0,0,0,.363-.929,1.289,1.289,0,0,0-.343-.949,1.424,1.424,0,0,0-1.052-.346h-1.412Zm8.707,4.664a3.112,3.112,0,0,1-2.271-.855,3.041,3.041,0,0,1-.876-2.279v-.164a3.83,3.83,0,0,1,.369-1.708,2.709,2.709,0,0,1,1.046-1.16,2.936,2.936,0,0,1,1.544-.407,2.631,2.631,0,0,1,2.048.82,3.333,3.333,0,0,1,.747,2.326v.691h-4.037a1.573,1.573,0,0,0,.5,1,1.5,1.5,0,0,0,1.046.375,1.828,1.828,0,0,0,1.529-.709l.832.932a2.542,2.542,0,0,1-1.031.841A3.383,3.383,0,0,1-9.158,26.117Zm-.193-5.209a1.058,1.058,0,0,0-.817.341,1.768,1.768,0,0,0-.4.977h2.355v-.135a1.261,1.261,0,0,0-.3-.874A1.092,1.092,0,0,0-9.352,20.908Zm3.5,1.863a3.79,3.79,0,0,1,.665-2.361,2.174,2.174,0,0,1,1.825-.867,1.947,1.947,0,0,1,1.623.779l.111-.662H-.141v8.777h-1.7V25.455a1.952,1.952,0,0,1-1.535.662,2.158,2.158,0,0,1-1.8-.879A3.975,3.975,0,0,1-5.854,22.771Zm1.693.12a2.486,2.486,0,0,0,.319,1.385,1.022,1.022,0,0,0,.9.475,1.139,1.139,0,0,0,1.1-.622V21.507a1.129,1.129,0,0,0-1.09-.6,1.035,1.035,0,0,0-.908.475A2.745,2.745,0,0,0-4.16,22.892Zm9.146,2.464a2.124,2.124,0,0,1-1.734.762A2,2,0,0,1,1.7,25.531a2.5,2.5,0,0,1-.548-1.717V19.66H2.842v4.1q0,.991.9.991a1.223,1.223,0,0,0,1.184-.6V19.66h1.7V26H5.033ZM9.691,26h-1.7V19.66h1.7Zm-1.8-7.98a.834.834,0,0,1,.255-.627.958.958,0,0,1,.694-.246.96.96,0,0,1,.691.246.895.895,0,0,1,0,1.26.962.962,0,0,1-.688.246.962.962,0,0,1-.688-.246A.831.831,0,0,1,7.893,18.02Zm6.627,6.229a.546.546,0,0,0-.308-.489,3.494,3.494,0,0,0-.987-.319q-2.262-.475-2.262-1.922a1.742,1.742,0,0,1,.7-1.409,2.824,2.824,0,0,1,1.831-.565,3.04,3.04,0,0,1,1.931.568,1.791,1.791,0,0,1,.724,1.477H14.455a.819.819,0,0,0-.234-.6.992.992,0,0,0-.732-.237,1.013,1.013,0,0,0-.662.193.61.61,0,0,0-.234.492.522.522,0,0,0,.267.454,2.743,2.743,0,0,0,.9.3,7.346,7.346,0,0,1,1.066.284,1.752,1.752,0,0,1,1.342,1.705,1.654,1.654,0,0,1-.744,1.4,3.21,3.21,0,0,1-1.922.536,3.353,3.353,0,0,1-1.415-.284,2.374,2.374,0,0,1-.97-.779,1.811,1.811,0,0,1-.352-1.069h1.605a.884.884,0,0,0,.334.691,1.325,1.325,0,0,0,.832.24,1.226,1.226,0,0,0,.735-.185A.574.574,0,0,0,14.52,24.248ZM19.043,26h-1.7V19.66h1.7Zm-1.8-7.98a.834.834,0,0,1,.255-.627,1.1,1.1,0,0,1,1.386,0,.895.895,0,0,1,0,1.26,1.086,1.086,0,0,1-1.377,0A.831.831,0,0,1,17.244,18.02Zm5.221.082V19.66h1.084V20.9H22.465v3.164a.756.756,0,0,0,.135.5.677.677,0,0,0,.516.152,2.7,2.7,0,0,0,.5-.041v1.283a3.486,3.486,0,0,1-1.025.152,1.617,1.617,0,0,1-1.816-1.8V20.9h-.926V19.66h.926V18.1Zm1.588,4.67a3.76,3.76,0,0,1,.363-1.682,2.659,2.659,0,0,1,1.046-1.143,3.051,3.051,0,0,1,1.585-.4,2.887,2.887,0,0,1,2.095.785,3.151,3.151,0,0,1,.905,2.133l.012.434a3.314,3.314,0,0,1-.814,2.341,3.157,3.157,0,0,1-4.374,0,3.372,3.372,0,0,1-.817-2.391Zm1.693.12a2.37,2.37,0,0,0,.34,1.382,1.221,1.221,0,0,0,1.934.006,2.593,2.593,0,0,0,.346-1.511A2.346,2.346,0,0,0,28.02,21.4a1.124,1.124,0,0,0-.973-.487,1.105,1.105,0,0,0-.961.484A2.637,2.637,0,0,0,25.746,22.892Zm8.789,1.356a.546.546,0,0,0-.308-.489,3.494,3.494,0,0,0-.987-.319q-2.262-.475-2.262-1.922a1.742,1.742,0,0,1,.7-1.409,2.824,2.824,0,0,1,1.831-.565,3.04,3.04,0,0,1,1.931.568,1.791,1.791,0,0,1,.724,1.477H34.471a.819.819,0,0,0-.234-.6.992.992,0,0,0-.732-.237,1.013,1.013,0,0,0-.662.193.61.61,0,0,0-.234.492.522.522,0,0,0,.267.454,2.743,2.743,0,0,0,.9.3,7.346,7.346,0,0,1,1.066.284,1.752,1.752,0,0,1,1.342,1.705,1.654,1.654,0,0,1-.744,1.4,3.21,3.21,0,0,1-1.922.536,3.353,3.353,0,0,1-1.415-.284,2.374,2.374,0,0,1-.97-.779,1.811,1.811,0,0,1-.352-1.069h1.605a.884.884,0,0,0,.334.691,1.325,1.325,0,0,0,.832.24,1.226,1.226,0,0,0,.735-.185A.574.574,0,0,0,34.535,24.248Z" transform="translate(-3079 -5356)" fill="#00104e"/>
    <path id="Trazado_602949" data-name="Trazado 602949" d="M-30.144-3.006V0H-31.9V-8.531h3.328a3.85,3.85,0,0,1,1.69.352,2.591,2.591,0,0,1,1.122,1,2.786,2.786,0,0,1,.393,1.474,2.45,2.45,0,0,1-.858,1.978,3.575,3.575,0,0,1-2.376.724Zm0-1.424h1.57a1.544,1.544,0,0,0,1.063-.328,1.193,1.193,0,0,0,.366-.937,1.407,1.407,0,0,0-.369-1.014,1.379,1.379,0,0,0-1.02-.4h-1.611Zm9.434-.322a4.6,4.6,0,0,0-.609-.047,1.24,1.24,0,0,0-1.26.65V0h-1.693V-6.34h1.6l.047.756a1.569,1.569,0,0,1,1.412-.873,1.774,1.774,0,0,1,.527.076Zm.34,1.523a3.76,3.76,0,0,1,.363-1.682,2.659,2.659,0,0,1,1.046-1.143,3.051,3.051,0,0,1,1.585-.4,2.887,2.887,0,0,1,2.095.785,3.151,3.151,0,0,1,.905,2.133l.012.434a3.314,3.314,0,0,1-.814,2.341,2.831,2.831,0,0,1-2.186.882,2.845,2.845,0,0,1-2.188-.879,3.372,3.372,0,0,1-.817-2.391Zm1.693.12a2.37,2.37,0,0,0,.34,1.382,1.121,1.121,0,0,0,.973.478A1.124,1.124,0,0,0-16.4-1.72a2.593,2.593,0,0,0,.346-1.511A2.346,2.346,0,0,0-16.4-4.6a1.124,1.124,0,0,0-.973-.487,1.105,1.105,0,0,0-.961.484A2.637,2.637,0,0,0-18.677-3.108Zm5.092-.108a3.821,3.821,0,0,1,.665-2.361A2.158,2.158,0,0,1-11.1-6.457a1.942,1.942,0,0,1,1.529.691V-9h1.7V0H-9.4l-.082-.674a1.993,1.993,0,0,1-1.629.791,2.152,2.152,0,0,1-1.8-.882A3.944,3.944,0,0,1-13.585-3.217Zm1.693.126a2.5,2.5,0,0,0,.311,1.367,1.012,1.012,0,0,0,.9.475,1.133,1.133,0,0,0,1.107-.663V-4.417a1.117,1.117,0,0,0-1.1-.663Q-11.892-5.08-11.892-3.091ZM-2.763-.645A2.124,2.124,0,0,1-4.5.117,2,2,0,0,1-6.053-.469,2.5,2.5,0,0,1-6.6-2.186V-6.34h1.693v4.1q0,.991.9.991a1.223,1.223,0,0,0,1.184-.6V-6.34h1.7V0H-2.716Zm5.555-.6a1.111,1.111,0,0,0,.762-.258.9.9,0,0,0,.3-.686H5.446a2.172,2.172,0,0,1-.352,1.181,2.32,2.32,0,0,1-.946.832,2.962,2.962,0,0,1-1.327.3A2.752,2.752,0,0,1,.677-.747,3.42,3.42,0,0,1-.108-3.135v-.111A3.381,3.381,0,0,1,.671-5.584,2.72,2.72,0,0,1,2.81-6.457a2.667,2.667,0,0,1,1.907.677,2.4,2.4,0,0,1,.729,1.8H3.858a1.164,1.164,0,0,0-.3-.8,1.016,1.016,0,0,0-.773-.309,1.02,1.02,0,0,0-.894.431,2.5,2.5,0,0,0-.3,1.4v.176a2.531,2.531,0,0,0,.3,1.408A1.033,1.033,0,0,0,2.792-1.248ZM8.44-7.9V-6.34H9.524V-5.1H8.44v3.164a.756.756,0,0,0,.135.5.677.677,0,0,0,.516.152,2.7,2.7,0,0,0,.5-.041V-.035A3.486,3.486,0,0,1,8.563.117a1.617,1.617,0,0,1-1.816-1.8V-5.1H5.821V-6.34h.926V-7.9Zm1.588,4.67a3.76,3.76,0,0,1,.363-1.682,2.659,2.659,0,0,1,1.046-1.143,3.051,3.051,0,0,1,1.585-.4,2.887,2.887,0,0,1,2.095.785,3.151,3.151,0,0,1,.905,2.133l.012.434A3.314,3.314,0,0,1,15.22-.765a2.831,2.831,0,0,1-2.186.882,2.845,2.845,0,0,1-2.188-.879,3.372,3.372,0,0,1-.817-2.391Zm1.693.12a2.37,2.37,0,0,0,.34,1.382,1.121,1.121,0,0,0,.973.478A1.124,1.124,0,0,0,14-1.72a2.593,2.593,0,0,0,.346-1.511A2.346,2.346,0,0,0,14-4.6a1.124,1.124,0,0,0-.973-.487,1.105,1.105,0,0,0-.961.484A2.637,2.637,0,0,0,11.722-3.108Zm8.08-.108a3.821,3.821,0,0,1,.665-2.361,2.158,2.158,0,0,1,1.819-.879,1.942,1.942,0,0,1,1.529.691V-9h1.7V0H23.985L23.9-.674a1.993,1.993,0,0,1-1.629.791,2.152,2.152,0,0,1-1.8-.882A3.944,3.944,0,0,1,19.8-3.217Zm1.693.126a2.5,2.5,0,0,0,.311,1.367,1.012,1.012,0,0,0,.9.475,1.133,1.133,0,0,0,1.107-.663V-4.417a1.117,1.117,0,0,0-1.1-.663Q21.5-5.08,21.5-3.091ZM29.745.117a3.112,3.112,0,0,1-2.271-.855A3.041,3.041,0,0,1,26.6-3.018v-.164a3.83,3.83,0,0,1,.369-1.708,2.709,2.709,0,0,1,1.046-1.16,2.936,2.936,0,0,1,1.544-.407,2.631,2.631,0,0,1,2.048.82,3.333,3.333,0,0,1,.747,2.326v.691H28.315a1.573,1.573,0,0,0,.5,1,1.5,1.5,0,0,0,1.046.375,1.828,1.828,0,0,0,1.529-.709l.832.932a2.542,2.542,0,0,1-1.031.841A3.383,3.383,0,0,1,29.745.117Zm-.193-5.209a1.058,1.058,0,0,0-.817.341,1.768,1.768,0,0,0-.4.977h2.355v-.135a1.261,1.261,0,0,0-.3-.874A1.092,1.092,0,0,0,29.552-5.092ZM-24.425,13h-1.7V6.66h1.7Zm-1.8-7.98a.834.834,0,0,1,.255-.627.958.958,0,0,1,.694-.246.96.96,0,0,1,.691.246.829.829,0,0,1,.258.627.831.831,0,0,1-.261.633.962.962,0,0,1-.688.246.962.962,0,0,1-.688-.246A.831.831,0,0,1-26.224,5.02Zm4.752,1.641.053.732a2.213,2.213,0,0,1,1.822-.85,1.84,1.84,0,0,1,1.5.592,2.761,2.761,0,0,1,.5,1.77V13h-1.693V8.945a1.1,1.1,0,0,0-.234-.782A1.049,1.049,0,0,0-20.3,7.92a1.165,1.165,0,0,0-1.072.609V13h-1.693V6.66Zm4.916,3.123a3.716,3.716,0,0,1,.694-2.35,2.25,2.25,0,0,1,1.872-.891,1.973,1.973,0,0,1,1.623.715l.07-.6h1.535v6.129a2.71,2.71,0,0,1-.378,1.447,2.427,2.427,0,0,1-1.063.938,3.739,3.739,0,0,1-1.605.322,3.476,3.476,0,0,1-1.359-.278,2.413,2.413,0,0,1-1-.718l.75-1.031a1.984,1.984,0,0,0,1.535.709,1.452,1.452,0,0,0,1.049-.36,1.352,1.352,0,0,0,.375-1.022v-.34A1.959,1.959,0,0,1-14,13.117a2.244,2.244,0,0,1-1.849-.894,3.715,3.715,0,0,1-.706-2.37Zm1.693.126a2.314,2.314,0,0,0,.346,1.353,1.1,1.1,0,0,0,.949.49,1.176,1.176,0,0,0,1.107-.581V8.5a1.173,1.173,0,0,0-1.1-.581,1.107,1.107,0,0,0-.958.5A2.608,2.608,0,0,0-14.862,9.909Zm8.32,3.208a3.112,3.112,0,0,1-2.271-.855,3.041,3.041,0,0,1-.876-2.279V9.818A3.83,3.83,0,0,1-9.319,8.11,2.709,2.709,0,0,1-8.273,6.95a2.936,2.936,0,0,1,1.544-.407,2.631,2.631,0,0,1,2.048.82,3.333,3.333,0,0,1,.747,2.326v.691H-7.972a1.573,1.573,0,0,0,.5,1,1.5,1.5,0,0,0,1.046.375A1.828,1.828,0,0,0-4.9,11.043l.832.932a2.542,2.542,0,0,1-1.031.841A3.383,3.383,0,0,1-6.542,13.117Zm-.193-5.209a1.058,1.058,0,0,0-.817.341,1.768,1.768,0,0,0-.4.977H-5.6V9.091a1.261,1.261,0,0,0-.3-.874A1.092,1.092,0,0,0-6.735,7.908Zm5.32-1.248.053.732A2.213,2.213,0,0,1,.46,6.543a1.84,1.84,0,0,1,1.5.592,2.761,2.761,0,0,1,.5,1.77V13H.771V8.945a1.1,1.1,0,0,0-.234-.782A1.049,1.049,0,0,0-.243,7.92a1.165,1.165,0,0,0-1.072.609V13H-3.009V6.66ZM5.534,13h-1.7V6.66h1.7Zm-1.8-7.98a.834.834,0,0,1,.255-.627.958.958,0,0,1,.694-.246.96.96,0,0,1,.691.246.829.829,0,0,1,.258.627.831.831,0,0,1-.261.633.962.962,0,0,1-.688.246A.962.962,0,0,1,4,5.652.831.831,0,0,1,3.735,5.02Zm6.111,8.1a3.112,3.112,0,0,1-2.271-.855A3.041,3.041,0,0,1,6.7,9.982V9.818A3.83,3.83,0,0,1,7.069,8.11,2.709,2.709,0,0,1,8.115,6.95a2.936,2.936,0,0,1,1.544-.407,2.631,2.631,0,0,1,2.048.82,3.333,3.333,0,0,1,.747,2.326v.691H8.417a1.573,1.573,0,0,0,.5,1,1.5,1.5,0,0,0,1.046.375,1.828,1.828,0,0,0,1.529-.709l.832.932a2.542,2.542,0,0,1-1.031.841A3.383,3.383,0,0,1,9.847,13.117ZM9.653,7.908a1.058,1.058,0,0,0-.817.341,1.768,1.768,0,0,0-.4.977H10.79V9.091a1.261,1.261,0,0,0-.3-.874A1.092,1.092,0,0,0,9.653,7.908Zm7.324.34a4.6,4.6,0,0,0-.609-.047,1.24,1.24,0,0,0-1.26.65V13H13.415V6.66h1.6l.047.756a1.569,1.569,0,0,1,1.412-.873A1.774,1.774,0,0,1,17,6.619ZM19.62,13H17.927V6.66H19.62Zm-.5-8.912h1.846L19.345,5.9H17.968ZM24.753,13a1.88,1.88,0,0,1-.17-.568,2.049,2.049,0,0,1-1.6.686,2.251,2.251,0,0,1-1.544-.539,1.734,1.734,0,0,1-.612-1.359,1.792,1.792,0,0,1,.747-1.547,3.686,3.686,0,0,1,2.159-.545h.779V8.764a1.045,1.045,0,0,0-.226-.7.887.887,0,0,0-.712-.264A1.009,1.009,0,0,0,22.9,8a.7.7,0,0,0-.243.563H20.968a1.7,1.7,0,0,1,.34-1.02,2.246,2.246,0,0,1,.961-.735,3.5,3.5,0,0,1,1.395-.267,2.767,2.767,0,0,1,1.86.589,2.06,2.06,0,0,1,.688,1.655v2.748a3.031,3.031,0,0,0,.252,1.365V13Zm-1.4-1.178a1.458,1.458,0,0,0,.691-.167,1.1,1.1,0,0,0,.469-.448v-1.09H23.88q-1.271,0-1.354.879l-.006.1a.678.678,0,0,0,.223.521A.865.865,0,0,0,23.353,11.822Z" transform="translate(-3175 -5300)" fill="#00104e"/>
    <path id="Trazado_602950" data-name="Trazado 602950" d="M-32.1-3.123h-1.4V0h-1.758V-8.531h3.17a3.583,3.583,0,0,1,2.332.674,2.326,2.326,0,0,1,.82,1.9A2.625,2.625,0,0,1-29.314-4.5a2.578,2.578,0,0,1-1.146.929l1.846,3.486V0H-30.5Zm-1.4-1.424h1.418a1.452,1.452,0,0,0,1.025-.337,1.2,1.2,0,0,0,.363-.929,1.289,1.289,0,0,0-.343-.949,1.424,1.424,0,0,0-1.052-.346H-33.5ZM-24.794.117a3.112,3.112,0,0,1-2.271-.855,3.041,3.041,0,0,1-.876-2.279v-.164a3.83,3.83,0,0,1,.369-1.708,2.709,2.709,0,0,1,1.046-1.16,2.936,2.936,0,0,1,1.544-.407,2.631,2.631,0,0,1,2.048.82,3.333,3.333,0,0,1,.747,2.326v.691h-4.037a1.573,1.573,0,0,0,.5,1,1.5,1.5,0,0,0,1.046.375,1.828,1.828,0,0,0,1.529-.709l.832.932a2.542,2.542,0,0,1-1.031.841A3.383,3.383,0,0,1-24.794.117Zm-.193-5.209a1.058,1.058,0,0,0-.817.341,1.768,1.768,0,0,0-.4.977h2.355v-.135a1.261,1.261,0,0,0-.3-.874A1.092,1.092,0,0,0-24.987-5.092ZM-20.815,0V-5.1h-.943V-6.34h.943v-.293a2.378,2.378,0,0,1,.735-1.843,2.959,2.959,0,0,1,2.042-.647,6.773,6.773,0,0,1,1.922.346l-.246,1.4a7.5,7.5,0,0,0-.891-.22,4.376,4.376,0,0,0-.68-.05q-1.184,0-1.184,1.049v.258h1.248V-5.1h-1.248V0Zm5.49,0h-1.7V-6.34h1.7Zm2.959-6.34.053.732a2.213,2.213,0,0,1,1.822-.85,1.84,1.84,0,0,1,1.5.592,2.761,2.761,0,0,1,.5,1.77V0h-1.693V-4.055a1.1,1.1,0,0,0-.234-.782,1.049,1.049,0,0,0-.779-.243,1.165,1.165,0,0,0-1.072.609V0H-13.96V-6.34ZM-3.53,0A1.88,1.88,0,0,1-3.7-.568,2.049,2.049,0,0,1-5.3.117,2.251,2.251,0,0,1-6.844-.422a1.734,1.734,0,0,1-.612-1.359,1.792,1.792,0,0,1,.747-1.547A3.686,3.686,0,0,1-4.55-3.873h.779v-.363A1.045,1.045,0,0,0-4-4.939.887.887,0,0,0-4.708-5.2,1.009,1.009,0,0,0-5.379-5a.7.7,0,0,0-.243.563H-7.315a1.7,1.7,0,0,1,.34-1.02,2.246,2.246,0,0,1,.961-.735A3.5,3.5,0,0,1-4.62-6.457a2.767,2.767,0,0,1,1.86.589,2.06,2.06,0,0,1,.688,1.655v2.748A3.031,3.031,0,0,0-1.819-.1V0Zm-1.4-1.178a1.458,1.458,0,0,0,.691-.167,1.1,1.1,0,0,0,.469-.448v-1.09H-4.4q-1.271,0-1.354.879l-.006.1a.678.678,0,0,0,.223.521A.865.865,0,0,0-4.931-1.178ZM.817-6.34l.053.709a2.228,2.228,0,0,1,1.822-.826,1.691,1.691,0,0,1,1.682.967,2.177,2.177,0,0,1,1.9-.967,1.891,1.891,0,0,1,1.535.6,2.761,2.761,0,0,1,.5,1.808V0h-1.7V-4.043a1.207,1.207,0,0,0-.211-.788.935.935,0,0,0-.744-.249,1.057,1.057,0,0,0-1.055.727L4.614,0H2.921V-4.037a1.193,1.193,0,0,0-.217-.8.944.944,0,0,0-.738-.246,1.1,1.1,0,0,0-1.043.6V0H-.771V-6.34ZM11.405,0h-1.7V-6.34h1.7Zm-1.8-7.98a.834.834,0,0,1,.255-.627.958.958,0,0,1,.694-.246.96.96,0,0,1,.691.246.829.829,0,0,1,.258.627.831.831,0,0,1-.261.633.962.962,0,0,1-.688.246.962.962,0,0,1-.688-.246A.831.831,0,0,1,9.606-7.98Zm6.111,8.1a3.112,3.112,0,0,1-2.271-.855,3.041,3.041,0,0,1-.876-2.279v-.164A3.83,3.83,0,0,1,12.94-4.89a2.709,2.709,0,0,1,1.046-1.16,2.936,2.936,0,0,1,1.544-.407,2.631,2.631,0,0,1,2.048.82,3.333,3.333,0,0,1,.747,2.326v.691H14.288a1.573,1.573,0,0,0,.5,1,1.5,1.5,0,0,0,1.046.375,1.828,1.828,0,0,0,1.529-.709l.832.932a2.542,2.542,0,0,1-1.031.841A3.383,3.383,0,0,1,15.718.117Zm-.193-5.209a1.058,1.058,0,0,0-.817.341,1.768,1.768,0,0,0-.4.977h2.355v-.135a1.261,1.261,0,0,0-.3-.874A1.092,1.092,0,0,0,15.524-5.092Zm5.32-1.248.053.732a2.213,2.213,0,0,1,1.822-.85,1.84,1.84,0,0,1,1.5.592,2.761,2.761,0,0,1,.5,1.77V0H23.03V-4.055a1.1,1.1,0,0,0-.234-.782,1.049,1.049,0,0,0-.779-.243,1.165,1.165,0,0,0-1.072.609V0H19.251V-6.34ZM28.034-7.9V-6.34h1.084V-5.1H28.034v3.164a.756.756,0,0,0,.135.5.677.677,0,0,0,.516.152,2.7,2.7,0,0,0,.5-.041V-.035a3.486,3.486,0,0,1-1.025.152,1.617,1.617,0,0,1-1.816-1.8V-5.1h-.926V-6.34h.926V-7.9Zm1.588,4.67a3.76,3.76,0,0,1,.363-1.682,2.659,2.659,0,0,1,1.046-1.143,3.051,3.051,0,0,1,1.585-.4,2.887,2.887,0,0,1,2.095.785,3.151,3.151,0,0,1,.905,2.133l.012.434a3.314,3.314,0,0,1-.814,2.341,2.831,2.831,0,0,1-2.186.882,2.845,2.845,0,0,1-2.188-.879,3.372,3.372,0,0,1-.817-2.391Zm1.693.12a2.37,2.37,0,0,0,.34,1.382,1.121,1.121,0,0,0,.973.478,1.124,1.124,0,0,0,.961-.472,2.593,2.593,0,0,0,.346-1.511A2.346,2.346,0,0,0,33.589-4.6a1.124,1.124,0,0,0-.973-.487,1.105,1.105,0,0,0-.961.484A2.637,2.637,0,0,0,31.315-3.108ZM-33.9,9.783a3.821,3.821,0,0,1,.665-2.361,2.158,2.158,0,0,1,1.819-.879,1.942,1.942,0,0,1,1.529.691V4h1.7v9h-1.529l-.082-.674a1.993,1.993,0,0,1-1.629.791,2.152,2.152,0,0,1-1.8-.882A3.944,3.944,0,0,1-33.9,9.783Zm1.693.126a2.5,2.5,0,0,0,.311,1.367,1.012,1.012,0,0,0,.9.475,1.133,1.133,0,0,0,1.107-.663V8.583a1.117,1.117,0,0,0-1.1-.663Q-32.2,7.92-32.2,9.909Zm8.25,3.208a3.112,3.112,0,0,1-2.271-.855A3.041,3.041,0,0,1-27.1,9.982V9.818A3.83,3.83,0,0,1-26.73,8.11a2.709,2.709,0,0,1,1.046-1.16,2.936,2.936,0,0,1,1.544-.407,2.631,2.631,0,0,1,2.048.82,3.333,3.333,0,0,1,.747,2.326v.691h-4.037a1.573,1.573,0,0,0,.5,1,1.5,1.5,0,0,0,1.046.375,1.828,1.828,0,0,0,1.529-.709l.832.932a2.542,2.542,0,0,1-1.031.841A3.383,3.383,0,0,1-23.953,13.117Zm-.193-5.209a1.058,1.058,0,0,0-.817.341,1.768,1.768,0,0,0-.4.977h2.355V9.091a1.261,1.261,0,0,0-.3-.874A1.092,1.092,0,0,0-24.146,7.908ZM-18.6,13h-1.7V4h1.7Zm10.09-3.111a3.8,3.8,0,0,1-.665,2.347,2.132,2.132,0,0,1-1.8.882,1.975,1.975,0,0,1-1.553-.668v2.988h-1.693V6.66h1.57l.059.621a1.99,1.99,0,0,1,1.605-.738,2.147,2.147,0,0,1,1.822.867A3.905,3.905,0,0,1-8.508,9.8ZM-10.2,9.766A2.5,2.5,0,0,0-10.515,8.4a1.021,1.021,0,0,0-.911-.48,1.109,1.109,0,0,0-1.1.609v2.6a1.128,1.128,0,0,0,1.107.627Q-10.2,11.752-10.2,9.766Zm6.3-1.518A4.6,4.6,0,0,0-4.506,8.2a1.24,1.24,0,0,0-1.26.65V13H-7.459V6.66h1.6l.047.756A1.569,1.569,0,0,1-4.4,6.543a1.774,1.774,0,0,1,.527.076Zm.34,1.523A3.76,3.76,0,0,1-3.193,8.09,2.659,2.659,0,0,1-2.147,6.947a3.051,3.051,0,0,1,1.585-.4,2.887,2.887,0,0,1,2.095.785,3.151,3.151,0,0,1,.905,2.133l.012.434a3.314,3.314,0,0,1-.814,2.341,2.831,2.831,0,0,1-2.186.882,2.845,2.845,0,0,1-2.188-.879,3.372,3.372,0,0,1-.817-2.391Zm1.693.12a2.37,2.37,0,0,0,.34,1.382,1.121,1.121,0,0,0,.973.478A1.124,1.124,0,0,0,.41,11.28,2.593,2.593,0,0,0,.756,9.768,2.346,2.346,0,0,0,.41,8.4a1.124,1.124,0,0,0-.973-.487,1.105,1.105,0,0,0-.961.484A2.637,2.637,0,0,0-1.863,9.892ZM5.52,5.1V6.66H6.6V7.9H5.52v3.164a.756.756,0,0,0,.135.5.677.677,0,0,0,.516.152,2.7,2.7,0,0,0,.5-.041v1.283a3.486,3.486,0,0,1-1.025.152,1.617,1.617,0,0,1-1.816-1.8V7.9H2.9V6.66h.926V5.1Zm1.588,4.67A3.76,3.76,0,0,1,7.471,8.09,2.659,2.659,0,0,1,8.517,6.947a3.051,3.051,0,0,1,1.585-.4,2.887,2.887,0,0,1,2.095.785A3.151,3.151,0,0,1,13.1,9.461l.012.434a3.314,3.314,0,0,1-.814,2.341,2.831,2.831,0,0,1-2.186.882,2.845,2.845,0,0,1-2.188-.879,3.372,3.372,0,0,1-.817-2.391Zm1.693.12a2.37,2.37,0,0,0,.34,1.382,1.221,1.221,0,0,0,1.934.006,2.593,2.593,0,0,0,.346-1.511A2.346,2.346,0,0,0,11.074,8.4a1.124,1.124,0,0,0-.973-.487,1.105,1.105,0,0,0-.961.484A2.637,2.637,0,0,0,8.8,9.892ZM16.184,5.1V6.66h1.084V7.9H16.184v3.164a.756.756,0,0,0,.135.5.677.677,0,0,0,.516.152,2.7,2.7,0,0,0,.5-.041v1.283a3.486,3.486,0,0,1-1.025.152,1.617,1.617,0,0,1-1.816-1.8V7.9h-.926V6.66h.926V5.1ZM20,13H18.3V6.66H20ZM18.2,5.02a.834.834,0,0,1,.255-.627,1.1,1.1,0,0,1,1.386,0,.829.829,0,0,1,.258.627.831.831,0,0,1-.261.633,1.086,1.086,0,0,1-1.377,0A.831.831,0,0,1,18.2,5.02Zm8.9,4.869a3.8,3.8,0,0,1-.665,2.347,2.132,2.132,0,0,1-1.8.882,1.975,1.975,0,0,1-1.553-.668v2.988H21.393V6.66h1.57l.059.621a1.99,1.99,0,0,1,1.605-.738,2.147,2.147,0,0,1,1.822.867A3.905,3.905,0,0,1,27.1,9.8Zm-1.693-.123A2.5,2.5,0,0,0,25.093,8.4a1.021,1.021,0,0,0-.911-.48,1.109,1.109,0,0,0-1.1.609v2.6a1.128,1.128,0,0,0,1.107.627Q25.406,11.752,25.406,9.766Zm2.479.006a3.76,3.76,0,0,1,.363-1.682,2.659,2.659,0,0,1,1.046-1.143,3.051,3.051,0,0,1,1.585-.4,2.887,2.887,0,0,1,2.095.785,3.151,3.151,0,0,1,.905,2.133l.012.434a3.314,3.314,0,0,1-.814,2.341,3.157,3.157,0,0,1-4.374,0,3.372,3.372,0,0,1-.817-2.391Zm1.693.12a2.37,2.37,0,0,0,.34,1.382,1.221,1.221,0,0,0,1.934.006A2.593,2.593,0,0,0,32.2,9.768,2.346,2.346,0,0,0,31.852,8.4a1.124,1.124,0,0,0-.973-.487,1.105,1.105,0,0,0-.961.484A2.637,2.637,0,0,0,29.578,9.892Z" transform="translate(-3172 -5207)" fill="#00104e"/>
    <path id="Trazado_602951" data-name="Trazado 602951" d="M-32.956-3.7h-3.375v2.285h3.961V0h-5.719V-8.531h5.707v1.424h-3.949v2.033h3.375Zm3.727,1.629,1.178-4.271h1.77L-28.421,0h-1.617l-2.139-6.34h1.77ZM-21.952,0a1.88,1.88,0,0,1-.17-.568,2.049,2.049,0,0,1-1.6.686,2.251,2.251,0,0,1-1.544-.539,1.734,1.734,0,0,1-.612-1.359,1.792,1.792,0,0,1,.747-1.547,3.686,3.686,0,0,1,2.159-.545h.779v-.363a1.045,1.045,0,0,0-.226-.7A.887.887,0,0,0-23.13-5.2,1.009,1.009,0,0,0-23.8-5a.7.7,0,0,0-.243.563h-1.693a1.7,1.7,0,0,1,.34-1.02,2.246,2.246,0,0,1,.961-.735,3.5,3.5,0,0,1,1.395-.267,2.767,2.767,0,0,1,1.86.589,2.06,2.06,0,0,1,.688,1.655v2.748A3.031,3.031,0,0,0-20.241-.1V0Zm-1.4-1.178a1.458,1.458,0,0,0,.691-.167,1.1,1.1,0,0,0,.469-.448v-1.09h-.633q-1.271,0-1.354.879l-.006.1a.678.678,0,0,0,.223.521A.865.865,0,0,0-23.353-1.178ZM-17.405,0h-1.7V-9h1.7Zm5.191-.645a2.124,2.124,0,0,1-1.734.762A2,2,0,0,1-15.5-.469a2.5,2.5,0,0,1-.548-1.717V-6.34h1.693v4.1q0,.991.9.991a1.223,1.223,0,0,0,1.184-.6V-6.34h1.7V0h-1.594ZM-5.622,0a1.88,1.88,0,0,1-.17-.568,2.049,2.049,0,0,1-1.6.686A2.251,2.251,0,0,1-8.936-.422a1.734,1.734,0,0,1-.612-1.359A1.792,1.792,0,0,1-8.8-3.328a3.686,3.686,0,0,1,2.159-.545h.779v-.363a1.045,1.045,0,0,0-.226-.7A.887.887,0,0,0-6.8-5.2,1.009,1.009,0,0,0-7.471-5a.7.7,0,0,0-.243.563H-9.407a1.7,1.7,0,0,1,.34-1.02,2.246,2.246,0,0,1,.961-.735,3.5,3.5,0,0,1,1.395-.267,2.767,2.767,0,0,1,1.86.589,2.06,2.06,0,0,1,.688,1.655v2.748A3.031,3.031,0,0,0-3.911-.1V0Zm-1.4-1.178a1.458,1.458,0,0,0,.691-.167,1.1,1.1,0,0,0,.469-.448v-1.09H-6.5q-1.271,0-1.354.879l-.006.1a.678.678,0,0,0,.223.521A.865.865,0,0,0-7.022-1.178Zm6.8-.07a1.111,1.111,0,0,0,.762-.258.9.9,0,0,0,.3-.686H2.429a2.172,2.172,0,0,1-.352,1.181,2.32,2.32,0,0,1-.946.832A2.962,2.962,0,0,1-.2.117,2.752,2.752,0,0,1-2.341-.747a3.42,3.42,0,0,1-.785-2.388v-.111a3.381,3.381,0,0,1,.779-2.338A2.72,2.72,0,0,1-.208-6.457,2.667,2.667,0,0,1,1.7-5.78a2.4,2.4,0,0,1,.729,1.8H.841a1.164,1.164,0,0,0-.3-.8,1.016,1.016,0,0,0-.773-.309,1.02,1.02,0,0,0-.894.431,2.5,2.5,0,0,0-.3,1.4v.176a2.531,2.531,0,0,0,.3,1.408A1.033,1.033,0,0,0-.226-1.248ZM5.183,0h-1.7V-6.34h1.7Zm-1.8-7.98a.834.834,0,0,1,.255-.627.958.958,0,0,1,.694-.246.96.96,0,0,1,.691.246.829.829,0,0,1,.258.627.831.831,0,0,1-.261.633.962.962,0,0,1-.688.246.962.962,0,0,1-.688-.246A.831.831,0,0,1,3.384-7.98Zm2.93,4.752A3.76,3.76,0,0,1,6.677-4.91,2.659,2.659,0,0,1,7.723-6.053a3.051,3.051,0,0,1,1.585-.4,2.887,2.887,0,0,1,2.095.785,3.151,3.151,0,0,1,.905,2.133l.012.434A3.314,3.314,0,0,1,11.5-.765,2.831,2.831,0,0,1,9.319.117,2.845,2.845,0,0,1,7.131-.762a3.372,3.372,0,0,1-.817-2.391Zm1.693.12a2.37,2.37,0,0,0,.34,1.382,1.121,1.121,0,0,0,.973.478,1.124,1.124,0,0,0,.961-.472,2.593,2.593,0,0,0,.346-1.511A2.346,2.346,0,0,0,10.28-4.6a1.124,1.124,0,0,0-.973-.487,1.105,1.105,0,0,0-.961.484A2.637,2.637,0,0,0,8.007-3.108ZM9.642-9h1.846L9.864-7.184H8.487Zm5.279,2.66.053.732a2.213,2.213,0,0,1,1.822-.85,1.84,1.84,0,0,1,1.5.592,2.761,2.761,0,0,1,.5,1.77V0H17.106V-4.055a1.1,1.1,0,0,0-.234-.782,1.049,1.049,0,0,0-.779-.243,1.165,1.165,0,0,0-1.072.609V0H13.327V-6.34Zm7.887,3.123a3.821,3.821,0,0,1,.665-2.361,2.158,2.158,0,0,1,1.819-.879,1.942,1.942,0,0,1,1.529.691V-9h1.7V0H26.991l-.082-.674A1.993,1.993,0,0,1,25.28.117a2.152,2.152,0,0,1-1.8-.882A3.944,3.944,0,0,1,22.808-3.217Zm1.693.126a2.5,2.5,0,0,0,.311,1.367,1.012,1.012,0,0,0,.9.475,1.133,1.133,0,0,0,1.107-.663V-4.417a1.117,1.117,0,0,0-1.1-.663Q24.5-5.08,24.5-3.091ZM32.751.117A3.112,3.112,0,0,1,30.48-.738,3.041,3.041,0,0,1,29.6-3.018v-.164a3.83,3.83,0,0,1,.369-1.708A2.709,2.709,0,0,1,31.02-6.05a2.936,2.936,0,0,1,1.544-.407,2.631,2.631,0,0,1,2.048.82,3.333,3.333,0,0,1,.747,2.326v.691H31.321a1.573,1.573,0,0,0,.5,1,1.5,1.5,0,0,0,1.046.375,1.828,1.828,0,0,0,1.529-.709l.832.932a2.542,2.542,0,0,1-1.031.841A3.383,3.383,0,0,1,32.751.117Zm-.193-5.209a1.058,1.058,0,0,0-.817.341,1.768,1.768,0,0,0-.4.977h2.355v-.135a1.261,1.261,0,0,0-.3-.874A1.092,1.092,0,0,0,32.558-5.092ZM38.106,0h-1.7V-9h1.7ZM-28.67,9.889a3.8,3.8,0,0,1-.665,2.347,2.132,2.132,0,0,1-1.8.882,1.975,1.975,0,0,1-1.553-.668v2.988h-1.693V6.66h1.57l.059.621a1.99,1.99,0,0,1,1.605-.738,2.147,2.147,0,0,1,1.822.867A3.905,3.905,0,0,1-28.67,9.8Zm-1.693-.123A2.5,2.5,0,0,0-30.677,8.4a1.021,1.021,0,0,0-.911-.48,1.109,1.109,0,0,0-1.1.609v2.6a1.128,1.128,0,0,0,1.107.627Q-30.363,11.752-30.363,9.766Zm6.3-1.518a4.6,4.6,0,0,0-.609-.047,1.24,1.24,0,0,0-1.26.65V13h-1.693V6.66h1.6l.047.756a1.569,1.569,0,0,1,1.412-.873,1.774,1.774,0,0,1,.527.076Zm.34,1.523a3.76,3.76,0,0,1,.363-1.682A2.659,2.659,0,0,1-22.31,6.947a3.051,3.051,0,0,1,1.585-.4,2.887,2.887,0,0,1,2.095.785,3.151,3.151,0,0,1,.905,2.133l.012.434a3.314,3.314,0,0,1-.814,2.341,2.831,2.831,0,0,1-2.186.882,2.845,2.845,0,0,1-2.188-.879,3.372,3.372,0,0,1-.817-2.391Zm1.693.12a2.37,2.37,0,0,0,.34,1.382,1.121,1.121,0,0,0,.973.478,1.124,1.124,0,0,0,.961-.472,2.593,2.593,0,0,0,.346-1.511A2.346,2.346,0,0,0-19.752,8.4a1.124,1.124,0,0,0-.973-.487,1.105,1.105,0,0,0-.961.484A2.637,2.637,0,0,0-22.025,9.892Zm7.383-4.79V6.66h1.084V7.9h-1.084v3.164a.756.756,0,0,0,.135.5.677.677,0,0,0,.516.152,2.7,2.7,0,0,0,.5-.041v1.283a3.486,3.486,0,0,1-1.025.152,1.617,1.617,0,0,1-1.816-1.8V7.9h-.926V6.66h.926V5.1Zm1.588,4.67a3.76,3.76,0,0,1,.363-1.682,2.659,2.659,0,0,1,1.046-1.143,3.051,3.051,0,0,1,1.585-.4,2.887,2.887,0,0,1,2.095.785,3.151,3.151,0,0,1,.905,2.133l.012.434a3.314,3.314,0,0,1-.814,2.341,2.831,2.831,0,0,1-2.186.882,2.845,2.845,0,0,1-2.188-.879,3.372,3.372,0,0,1-.817-2.391Zm1.693.12a2.37,2.37,0,0,0,.34,1.382,1.121,1.121,0,0,0,.973.478,1.124,1.124,0,0,0,.961-.472,2.593,2.593,0,0,0,.346-1.511A2.346,2.346,0,0,0-9.088,8.4a1.124,1.124,0,0,0-.973-.487,1.105,1.105,0,0,0-.961.484A2.637,2.637,0,0,0-11.361,9.892ZM-3.979,5.1V6.66h1.084V7.9H-3.979v3.164a.756.756,0,0,0,.135.5.677.677,0,0,0,.516.152,2.7,2.7,0,0,0,.5-.041v1.283a3.486,3.486,0,0,1-1.025.152,1.617,1.617,0,0,1-1.816-1.8V7.9H-6.6V6.66h.926V5.1ZM-.164,13h-1.7V6.66h1.7Zm-1.8-7.98a.834.834,0,0,1,.255-.627.958.958,0,0,1,.694-.246.96.96,0,0,1,.691.246.829.829,0,0,1,.258.627.831.831,0,0,1-.261.633.962.962,0,0,1-.688.246A.962.962,0,0,1-1.7,5.652.831.831,0,0,1-1.963,5.02Zm8.9,4.869a3.8,3.8,0,0,1-.665,2.347,2.132,2.132,0,0,1-1.8.882,1.975,1.975,0,0,1-1.553-.668v2.988H1.23V6.66H2.8l.059.621a1.99,1.99,0,0,1,1.605-.738,2.147,2.147,0,0,1,1.822.867A3.905,3.905,0,0,1,6.938,9.8ZM5.244,9.766A2.5,2.5,0,0,0,4.931,8.4a1.021,1.021,0,0,0-.911-.48,1.109,1.109,0,0,0-1.1.609v2.6a1.128,1.128,0,0,0,1.107.627Q5.244,11.752,5.244,9.766Zm2.479.006A3.76,3.76,0,0,1,8.086,8.09,2.659,2.659,0,0,1,9.132,6.947a3.051,3.051,0,0,1,1.585-.4,2.887,2.887,0,0,1,2.095.785,3.151,3.151,0,0,1,.905,2.133l.012.434a3.314,3.314,0,0,1-.814,2.341,2.831,2.831,0,0,1-2.186.882,2.845,2.845,0,0,1-2.188-.879,3.372,3.372,0,0,1-.817-2.391Zm1.693.12a2.37,2.37,0,0,0,.34,1.382,1.221,1.221,0,0,0,1.934.006,2.593,2.593,0,0,0,.346-1.511A2.346,2.346,0,0,0,11.689,8.4a1.124,1.124,0,0,0-.973-.487,1.105,1.105,0,0,0-.961.484A2.637,2.637,0,0,0,9.416,9.892Zm14.051,0a3.8,3.8,0,0,1-.665,2.347,2.132,2.132,0,0,1-1.8.882,1.975,1.975,0,0,1-1.553-.668v2.988H17.76V6.66h1.57l.059.621a1.99,1.99,0,0,1,1.605-.738,2.147,2.147,0,0,1,1.822.867,3.905,3.905,0,0,1,.65,2.391Zm-1.693-.123A2.5,2.5,0,0,0,21.46,8.4a1.021,1.021,0,0,0-.911-.48,1.109,1.109,0,0,0-1.1.609v2.6a1.128,1.128,0,0,0,1.107.627Q21.773,11.752,21.773,9.766Zm2.479.006a3.76,3.76,0,0,1,.363-1.682,2.659,2.659,0,0,1,1.046-1.143,3.051,3.051,0,0,1,1.585-.4,2.887,2.887,0,0,1,2.095.785,3.151,3.151,0,0,1,.905,2.133l.012.434a3.314,3.314,0,0,1-.814,2.341,3.157,3.157,0,0,1-4.374,0,3.372,3.372,0,0,1-.817-2.391Zm1.693.12a2.37,2.37,0,0,0,.34,1.382,1.221,1.221,0,0,0,1.934.006,2.593,2.593,0,0,0,.346-1.511A2.346,2.346,0,0,0,28.219,8.4a1.124,1.124,0,0,0-.973-.487,1.105,1.105,0,0,0-.961.484A2.637,2.637,0,0,0,25.945,9.892Zm8.918-1.644a4.6,4.6,0,0,0-.609-.047,1.24,1.24,0,0,0-1.26.65V13H31.3V6.66h1.6l.047.756a1.569,1.569,0,0,1,1.412-.873,1.774,1.774,0,0,1,.527.076ZM-20.944,26.117a3.112,3.112,0,0,1-2.271-.855,3.041,3.041,0,0,1-.876-2.279v-.164a3.83,3.83,0,0,1,.369-1.708,2.709,2.709,0,0,1,1.046-1.16,2.936,2.936,0,0,1,1.544-.407,2.631,2.631,0,0,1,2.048.82,3.333,3.333,0,0,1,.747,2.326v.691h-4.037a1.573,1.573,0,0,0,.5,1,1.5,1.5,0,0,0,1.046.375,1.828,1.828,0,0,0,1.529-.709l.832.932a2.542,2.542,0,0,1-1.031.841A3.383,3.383,0,0,1-20.944,26.117Zm-.193-5.209a1.058,1.058,0,0,0-.817.341,1.768,1.768,0,0,0-.4.977H-20v-.135a1.261,1.261,0,0,0-.3-.874A1.092,1.092,0,0,0-21.138,20.908ZM-15.589,26h-1.7V17h1.7Zm7.02-1.248a1.111,1.111,0,0,0,.762-.258.9.9,0,0,0,.3-.686h1.588a2.172,2.172,0,0,1-.352,1.181,2.32,2.32,0,0,1-.946.832,2.962,2.962,0,0,1-1.327.3,2.752,2.752,0,0,1-2.145-.864,3.42,3.42,0,0,1-.785-2.388v-.111a3.381,3.381,0,0,1,.779-2.338,2.72,2.72,0,0,1,2.139-.873,2.667,2.667,0,0,1,1.907.677,2.4,2.4,0,0,1,.729,1.8H-7.5a1.164,1.164,0,0,0-.3-.8,1.016,1.016,0,0,0-.773-.309,1.02,1.02,0,0,0-.894.431,2.5,2.5,0,0,0-.3,1.4v.176a2.531,2.531,0,0,0,.3,1.408A1.033,1.033,0,0,0-8.569,24.752ZM-3.161,26h-1.7V17h1.7ZM.021,26h-1.7V19.66h1.7Zm-1.8-7.98a.834.834,0,0,1,.255-.627.958.958,0,0,1,.694-.246.96.96,0,0,1,.691.246.829.829,0,0,1,.258.627.831.831,0,0,1-.261.633.962.962,0,0,1-.688.246.962.962,0,0,1-.688-.246A.831.831,0,0,1-1.778,18.02Zm6.111,8.1a3.112,3.112,0,0,1-2.271-.855,3.041,3.041,0,0,1-.876-2.279v-.164a3.83,3.83,0,0,1,.369-1.708A2.709,2.709,0,0,1,2.6,19.95a2.936,2.936,0,0,1,1.544-.407,2.631,2.631,0,0,1,2.048.82,3.333,3.333,0,0,1,.747,2.326v.691H2.9a1.573,1.573,0,0,0,.5,1,1.5,1.5,0,0,0,1.046.375,1.828,1.828,0,0,0,1.529-.709l.832.932a2.542,2.542,0,0,1-1.031.841A3.383,3.383,0,0,1,4.333,26.117ZM4.14,20.908a1.058,1.058,0,0,0-.817.341,1.768,1.768,0,0,0-.4.977H5.276v-.135a1.261,1.261,0,0,0-.3-.874A1.092,1.092,0,0,0,4.14,20.908ZM9.46,19.66l.053.732a2.213,2.213,0,0,1,1.822-.85,1.84,1.84,0,0,1,1.5.592,2.761,2.761,0,0,1,.5,1.77V26H11.646V21.945a1.1,1.1,0,0,0-.234-.782,1.049,1.049,0,0,0-.779-.243,1.165,1.165,0,0,0-1.072.609V26H7.866V19.66ZM16.649,18.1V19.66h1.084V20.9H16.649v3.164a.756.756,0,0,0,.135.5.677.677,0,0,0,.516.152,2.7,2.7,0,0,0,.5-.041v1.283a3.486,3.486,0,0,1-1.025.152,1.617,1.617,0,0,1-1.816-1.8V20.9H14.03V19.66h.926V18.1Zm4.945,8.016a3.112,3.112,0,0,1-2.271-.855,3.041,3.041,0,0,1-.876-2.279v-.164a3.83,3.83,0,0,1,.369-1.708,2.709,2.709,0,0,1,1.046-1.16,2.936,2.936,0,0,1,1.544-.407,2.631,2.631,0,0,1,2.048.82,3.333,3.333,0,0,1,.747,2.326v.691H20.165a1.573,1.573,0,0,0,.5,1,1.5,1.5,0,0,0,1.046.375,1.828,1.828,0,0,0,1.529-.709l.832.932a2.542,2.542,0,0,1-1.031.841A3.383,3.383,0,0,1,21.595,26.117ZM21.4,20.908a1.058,1.058,0,0,0-.817.341,1.768,1.768,0,0,0-.4.977h2.355v-.135a1.261,1.261,0,0,0-.3-.874A1.092,1.092,0,0,0,21.4,20.908Z" transform="translate(-3068 -5153)" fill="#00104e"/>
    <path id="Trazado_602952" data-name="Trazado 602952" d="M-28.479-2.842A3.019,3.019,0,0,1-29.5-.674a3.57,3.57,0,0,1-2.417.791,3.21,3.21,0,0,1-2.581-1.1,4.529,4.529,0,0,1-.94-3.032v-.521A5.114,5.114,0,0,1-35-6.709a3.249,3.249,0,0,1,1.239-1.438,3.471,3.471,0,0,1,1.872-.5,3.478,3.478,0,0,1,2.379.791,3.244,3.244,0,0,1,1.043,2.221h-1.758a1.782,1.782,0,0,0-.46-1.2,1.7,1.7,0,0,0-1.2-.372,1.494,1.494,0,0,0-1.315.63,3.53,3.53,0,0,0-.448,1.954v.645a3.778,3.778,0,0,0,.419,2.021,1.466,1.466,0,0,0,1.321.639A1.735,1.735,0,0,0-30.7-1.69a1.681,1.681,0,0,0,.46-1.151Zm.779-.387a3.76,3.76,0,0,1,.363-1.682,2.659,2.659,0,0,1,1.046-1.143,3.051,3.051,0,0,1,1.585-.4,2.887,2.887,0,0,1,2.095.785,3.151,3.151,0,0,1,.905,2.133l.012.434a3.314,3.314,0,0,1-.814,2.341,2.831,2.831,0,0,1-2.186.882,2.845,2.845,0,0,1-2.188-.879A3.372,3.372,0,0,1-27.7-3.152Zm1.693.12a2.37,2.37,0,0,0,.34,1.382,1.121,1.121,0,0,0,.973.478,1.124,1.124,0,0,0,.961-.472,2.593,2.593,0,0,0,.346-1.511A2.346,2.346,0,0,0-23.733-4.6a1.124,1.124,0,0,0-.973-.487,1.105,1.105,0,0,0-.961.484A2.637,2.637,0,0,0-26.007-3.108Zm6.914-3.232.053.732a2.213,2.213,0,0,1,1.822-.85,1.84,1.84,0,0,1,1.5.592,2.761,2.761,0,0,1,.5,1.77V0h-1.693V-4.055a1.1,1.1,0,0,0-.234-.782,1.049,1.049,0,0,0-.779-.243,1.165,1.165,0,0,0-1.072.609V0h-1.693V-6.34Zm8.6,4.588a.546.546,0,0,0-.308-.489,3.494,3.494,0,0,0-.987-.319q-2.262-.475-2.262-1.922a1.742,1.742,0,0,1,.7-1.409,2.825,2.825,0,0,1,1.831-.565,3.04,3.04,0,0,1,1.931.568,1.791,1.791,0,0,1,.724,1.477h-1.693a.819.819,0,0,0-.234-.6.992.992,0,0,0-.732-.237,1.013,1.013,0,0,0-.662.193.61.61,0,0,0-.234.492.522.522,0,0,0,.267.454,2.743,2.743,0,0,0,.9.3,7.346,7.346,0,0,1,1.066.284A1.752,1.752,0,0,1-8.851-1.822a1.654,1.654,0,0,1-.744,1.4,3.21,3.21,0,0,1-1.922.536,3.353,3.353,0,0,1-1.415-.284,2.374,2.374,0,0,1-.97-.779,1.811,1.811,0,0,1-.352-1.069h1.605a.884.884,0,0,0,.334.691,1.325,1.325,0,0,0,.832.24,1.226,1.226,0,0,0,.735-.185A.574.574,0,0,0-10.5-1.752ZM-5.733-7.9V-6.34h1.084V-5.1H-5.733v3.164a.756.756,0,0,0,.135.5.677.677,0,0,0,.516.152,2.7,2.7,0,0,0,.5-.041V-.035A3.486,3.486,0,0,1-5.61.117a1.617,1.617,0,0,1-1.816-1.8V-5.1h-.926V-6.34h.926V-7.9Zm5.59,3.146A4.6,4.6,0,0,0-.753-4.8a1.24,1.24,0,0,0-1.26.65V0H-3.706V-6.34h1.6l.047.756A1.569,1.569,0,0,1-.647-6.457a1.774,1.774,0,0,1,.527.076ZM4.468-.645A2.124,2.124,0,0,1,2.733.117,2,2,0,0,1,1.178-.469,2.5,2.5,0,0,1,.63-2.186V-6.34H2.323v4.1q0,.991.9.991a1.223,1.223,0,0,0,1.184-.6V-6.34h1.7V0H4.515Zm5.555-.6a1.111,1.111,0,0,0,.762-.258.9.9,0,0,0,.3-.686h1.588a2.172,2.172,0,0,1-.352,1.181,2.32,2.32,0,0,1-.946.832,2.962,2.962,0,0,1-1.327.3A2.752,2.752,0,0,1,7.907-.747a3.42,3.42,0,0,1-.785-2.388v-.111A3.381,3.381,0,0,1,7.9-5.584a2.72,2.72,0,0,1,2.139-.873,2.667,2.667,0,0,1,1.907.677,2.4,2.4,0,0,1,.729,1.8H11.089a1.164,1.164,0,0,0-.3-.8,1.016,1.016,0,0,0-.773-.309,1.02,1.02,0,0,0-.894.431,2.5,2.5,0,0,0-.3,1.4v.176a2.531,2.531,0,0,0,.3,1.408A1.033,1.033,0,0,0,10.022-1.248Zm6.258,0a1.111,1.111,0,0,0,.762-.258.9.9,0,0,0,.3-.686h1.588a2.172,2.172,0,0,1-.352,1.181,2.32,2.32,0,0,1-.946.832,2.962,2.962,0,0,1-1.327.3,2.752,2.752,0,0,1-2.145-.864,3.42,3.42,0,0,1-.785-2.388v-.111a3.381,3.381,0,0,1,.779-2.338A2.72,2.72,0,0,1,16.3-6.457a2.667,2.667,0,0,1,1.907.677,2.4,2.4,0,0,1,.729,1.8H17.347a1.164,1.164,0,0,0-.3-.8,1.016,1.016,0,0,0-.773-.309,1.02,1.02,0,0,0-.894.431,2.5,2.5,0,0,0-.3,1.4v.176a2.531,2.531,0,0,0,.3,1.408A1.033,1.033,0,0,0,16.28-1.248ZM21.688,0h-1.7V-6.34h1.7Zm-1.8-7.98a.834.834,0,0,1,.255-.627.958.958,0,0,1,.694-.246.96.96,0,0,1,.691.246.829.829,0,0,1,.258.627.831.831,0,0,1-.261.633.962.962,0,0,1-.688.246.962.962,0,0,1-.688-.246A.831.831,0,0,1,19.89-7.98Zm2.93,4.752a3.76,3.76,0,0,1,.363-1.682,2.659,2.659,0,0,1,1.046-1.143,3.051,3.051,0,0,1,1.585-.4,2.887,2.887,0,0,1,2.095.785,3.151,3.151,0,0,1,.905,2.133l.012.434a3.314,3.314,0,0,1-.814,2.341,2.831,2.831,0,0,1-2.186.882,2.845,2.845,0,0,1-2.188-.879,3.372,3.372,0,0,1-.817-2.391Zm1.693.12a2.37,2.37,0,0,0,.34,1.382,1.121,1.121,0,0,0,.973.478,1.124,1.124,0,0,0,.961-.472,2.593,2.593,0,0,0,.346-1.511A2.346,2.346,0,0,0,26.786-4.6a1.124,1.124,0,0,0-.973-.487,1.105,1.105,0,0,0-.961.484A2.637,2.637,0,0,0,24.513-3.108ZM26.147-9h1.846L26.37-7.184H24.993Zm5.279,2.66.053.732a2.213,2.213,0,0,1,1.822-.85,1.84,1.84,0,0,1,1.5.592,2.761,2.761,0,0,1,.5,1.77V0H33.612V-4.055a1.1,1.1,0,0,0-.234-.782A1.049,1.049,0,0,0,32.6-5.08a1.165,1.165,0,0,0-1.072.609V0H29.833V-6.34ZM-33.9,9.783a3.821,3.821,0,0,1,.665-2.361,2.158,2.158,0,0,1,1.819-.879,1.942,1.942,0,0,1,1.529.691V4h1.7v9h-1.529l-.082-.674a1.993,1.993,0,0,1-1.629.791,2.152,2.152,0,0,1-1.8-.882A3.944,3.944,0,0,1-33.9,9.783Zm1.693.126a2.5,2.5,0,0,0,.311,1.367,1.012,1.012,0,0,0,.9.475,1.133,1.133,0,0,0,1.107-.663V8.583a1.117,1.117,0,0,0-1.1-.663Q-32.2,7.92-32.2,9.909Zm8.25,3.208a3.112,3.112,0,0,1-2.271-.855A3.041,3.041,0,0,1-27.1,9.982V9.818A3.83,3.83,0,0,1-26.73,8.11a2.709,2.709,0,0,1,1.046-1.16,2.936,2.936,0,0,1,1.544-.407,2.631,2.631,0,0,1,2.048.82,3.333,3.333,0,0,1,.747,2.326v.691h-4.037a1.573,1.573,0,0,0,.5,1,1.5,1.5,0,0,0,1.046.375,1.828,1.828,0,0,0,1.529-.709l.832.932a2.542,2.542,0,0,1-1.031.841A3.383,3.383,0,0,1-23.953,13.117Zm-.193-5.209a1.058,1.058,0,0,0-.817.341,1.768,1.768,0,0,0-.4.977h2.355V9.091a1.261,1.261,0,0,0-.3-.874A1.092,1.092,0,0,0-24.146,7.908ZM-18.6,13h-1.7V4h1.7Zm10.09-3.111a3.8,3.8,0,0,1-.665,2.347,2.132,2.132,0,0,1-1.8.882,1.975,1.975,0,0,1-1.553-.668v2.988h-1.693V6.66h1.57l.059.621a1.99,1.99,0,0,1,1.605-.738,2.147,2.147,0,0,1,1.822.867A3.905,3.905,0,0,1-8.508,9.8ZM-10.2,9.766A2.5,2.5,0,0,0-10.515,8.4a1.021,1.021,0,0,0-.911-.48,1.109,1.109,0,0,0-1.1.609v2.6a1.128,1.128,0,0,0,1.107.627Q-10.2,11.752-10.2,9.766Zm6.3-1.518A4.6,4.6,0,0,0-4.506,8.2a1.24,1.24,0,0,0-1.26.65V13H-7.459V6.66h1.6l.047.756A1.569,1.569,0,0,1-4.4,6.543a1.774,1.774,0,0,1,.527.076Zm.34,1.523A3.76,3.76,0,0,1-3.193,8.09,2.659,2.659,0,0,1-2.147,6.947a3.051,3.051,0,0,1,1.585-.4,2.887,2.887,0,0,1,2.095.785,3.151,3.151,0,0,1,.905,2.133l.012.434a3.314,3.314,0,0,1-.814,2.341,2.831,2.831,0,0,1-2.186.882,2.845,2.845,0,0,1-2.188-.879,3.372,3.372,0,0,1-.817-2.391Zm1.693.12a2.37,2.37,0,0,0,.34,1.382,1.121,1.121,0,0,0,.973.478A1.124,1.124,0,0,0,.41,11.28,2.593,2.593,0,0,0,.756,9.768,2.346,2.346,0,0,0,.41,8.4a1.124,1.124,0,0,0-.973-.487,1.105,1.105,0,0,0-.961.484A2.637,2.637,0,0,0-1.863,9.892ZM5.52,5.1V6.66H6.6V7.9H5.52v3.164a.756.756,0,0,0,.135.5.677.677,0,0,0,.516.152,2.7,2.7,0,0,0,.5-.041v1.283a3.486,3.486,0,0,1-1.025.152,1.617,1.617,0,0,1-1.816-1.8V7.9H2.9V6.66h.926V5.1Zm1.588,4.67A3.76,3.76,0,0,1,7.471,8.09,2.659,2.659,0,0,1,8.517,6.947a3.051,3.051,0,0,1,1.585-.4,2.887,2.887,0,0,1,2.095.785A3.151,3.151,0,0,1,13.1,9.461l.012.434a3.314,3.314,0,0,1-.814,2.341,2.831,2.831,0,0,1-2.186.882,2.845,2.845,0,0,1-2.188-.879,3.372,3.372,0,0,1-.817-2.391Zm1.693.12a2.37,2.37,0,0,0,.34,1.382,1.221,1.221,0,0,0,1.934.006,2.593,2.593,0,0,0,.346-1.511A2.346,2.346,0,0,0,11.074,8.4a1.124,1.124,0,0,0-.973-.487,1.105,1.105,0,0,0-.961.484A2.637,2.637,0,0,0,8.8,9.892ZM16.184,5.1V6.66h1.084V7.9H16.184v3.164a.756.756,0,0,0,.135.5.677.677,0,0,0,.516.152,2.7,2.7,0,0,0,.5-.041v1.283a3.486,3.486,0,0,1-1.025.152,1.617,1.617,0,0,1-1.816-1.8V7.9h-.926V6.66h.926V5.1ZM20,13H18.3V6.66H20ZM18.2,5.02a.834.834,0,0,1,.255-.627,1.1,1.1,0,0,1,1.386,0,.829.829,0,0,1,.258.627.831.831,0,0,1-.261.633,1.086,1.086,0,0,1-1.377,0A.831.831,0,0,1,18.2,5.02Zm8.9,4.869a3.8,3.8,0,0,1-.665,2.347,2.132,2.132,0,0,1-1.8.882,1.975,1.975,0,0,1-1.553-.668v2.988H21.393V6.66h1.57l.059.621a1.99,1.99,0,0,1,1.605-.738,2.147,2.147,0,0,1,1.822.867A3.905,3.905,0,0,1,27.1,9.8Zm-1.693-.123A2.5,2.5,0,0,0,25.093,8.4a1.021,1.021,0,0,0-.911-.48,1.109,1.109,0,0,0-1.1.609v2.6a1.128,1.128,0,0,0,1.107.627Q25.406,11.752,25.406,9.766Zm2.479.006a3.76,3.76,0,0,1,.363-1.682,2.659,2.659,0,0,1,1.046-1.143,3.051,3.051,0,0,1,1.585-.4,2.887,2.887,0,0,1,2.095.785,3.151,3.151,0,0,1,.905,2.133l.012.434a3.314,3.314,0,0,1-.814,2.341,3.157,3.157,0,0,1-4.374,0,3.372,3.372,0,0,1-.817-2.391Zm1.693.12a2.37,2.37,0,0,0,.34,1.382,1.221,1.221,0,0,0,1.934.006A2.593,2.593,0,0,0,32.2,9.768,2.346,2.346,0,0,0,31.852,8.4a1.124,1.124,0,0,0-.973-.487,1.105,1.105,0,0,0-.961.484A2.637,2.637,0,0,0,29.578,9.892Z" transform="translate(-2977 -5207)" fill="#00104e"/>
    <path id="Trazado_602953" data-name="Trazado 602953" d="M-17.81,0V-8.531h2.625a3.986,3.986,0,0,1,2.013.507,3.534,3.534,0,0,1,1.386,1.441,4.446,4.446,0,0,1,.5,2.124v.393a4.458,4.458,0,0,1-.489,2.115,3.5,3.5,0,0,1-1.38,1.436A4.016,4.016,0,0,1-15.167,0Zm1.758-7.107v5.7h.85a1.909,1.909,0,0,0,1.576-.674,3.045,3.045,0,0,0,.557-1.928v-.451a3.093,3.093,0,0,0-.539-1.972,1.9,1.9,0,0,0-1.576-.671ZM-8.335,0h-1.7V-6.34h1.7Zm-1.8-7.98a.834.834,0,0,1,.255-.627.958.958,0,0,1,.694-.246.96.96,0,0,1,.691.246.829.829,0,0,1,.258.627.831.831,0,0,1-.261.633.962.962,0,0,1-.688.246.962.962,0,0,1-.688-.246A.831.831,0,0,1-10.134-7.98Zm6.627,6.229a.546.546,0,0,0-.308-.489A3.494,3.494,0,0,0-4.8-2.561q-2.262-.475-2.262-1.922a1.742,1.742,0,0,1,.7-1.409,2.825,2.825,0,0,1,1.831-.565A3.04,3.04,0,0,1-2.6-5.889a1.791,1.791,0,0,1,.724,1.477H-3.571a.819.819,0,0,0-.234-.6.992.992,0,0,0-.732-.237,1.013,1.013,0,0,0-.662.193.61.61,0,0,0-.234.492.522.522,0,0,0,.267.454,2.743,2.743,0,0,0,.9.3A7.346,7.346,0,0,1-3.2-3.527,1.752,1.752,0,0,1-1.86-1.822,1.654,1.654,0,0,1-2.6-.419,3.21,3.21,0,0,1-4.526.117,3.353,3.353,0,0,1-5.941-.167a2.374,2.374,0,0,1-.97-.779,1.811,1.811,0,0,1-.352-1.069h1.605a.884.884,0,0,0,.334.691,1.325,1.325,0,0,0,.832.24,1.226,1.226,0,0,0,.735-.185A.574.574,0,0,0-3.507-1.752ZM2.147.117A3.112,3.112,0,0,1-.123-.738,3.041,3.041,0,0,1-1-3.018v-.164A3.83,3.83,0,0,1-.63-4.89,2.709,2.709,0,0,1,.416-6.05,2.936,2.936,0,0,1,1.96-6.457a2.631,2.631,0,0,1,2.048.82,3.333,3.333,0,0,1,.747,2.326v.691H.718a1.573,1.573,0,0,0,.5,1,1.5,1.5,0,0,0,1.046.375,1.828,1.828,0,0,0,1.529-.709l.832.932a2.542,2.542,0,0,1-1.031.841A3.383,3.383,0,0,1,2.147.117ZM1.954-5.092a1.058,1.058,0,0,0-.817.341,1.768,1.768,0,0,0-.4.977H3.091v-.135a1.261,1.261,0,0,0-.3-.874A1.092,1.092,0,0,0,1.954-5.092ZM7.274-6.34l.053.732a2.213,2.213,0,0,1,1.822-.85,1.84,1.84,0,0,1,1.5.592,2.761,2.761,0,0,1,.5,1.77V0H9.46V-4.055a1.1,1.1,0,0,0-.234-.782,1.049,1.049,0,0,0-.779-.243,1.165,1.165,0,0,0-1.072.609V0H5.681V-6.34Zm3.363-2.584a1.64,1.64,0,0,1-.387,1.11,1.2,1.2,0,0,1-.943.448,1.431,1.431,0,0,1-.4-.05,2.654,2.654,0,0,1-.478-.214A2.576,2.576,0,0,0,8-7.831,1.074,1.074,0,0,0,7.7-7.869a.47.47,0,0,0-.349.146.57.57,0,0,0-.144.416l-.984-.059a1.665,1.665,0,0,1,.384-1.107,1.184,1.184,0,0,1,.94-.457,1.211,1.211,0,0,1,.331.044,3.645,3.645,0,0,1,.507.214,3.294,3.294,0,0,0,.486.205,1.11,1.11,0,0,0,.281.035.494.494,0,0,0,.354-.144.546.546,0,0,0,.149-.413Zm1.535,5.7a3.76,3.76,0,0,1,.363-1.682,2.659,2.659,0,0,1,1.046-1.143,3.051,3.051,0,0,1,1.585-.4,2.887,2.887,0,0,1,2.095.785,3.151,3.151,0,0,1,.905,2.133l.012.434a3.314,3.314,0,0,1-.814,2.341,2.831,2.831,0,0,1-2.186.882A2.845,2.845,0,0,1,12.99-.762a3.372,3.372,0,0,1-.817-2.391Zm1.693.12a2.37,2.37,0,0,0,.34,1.382,1.121,1.121,0,0,0,.973.478,1.124,1.124,0,0,0,.961-.472,2.593,2.593,0,0,0,.346-1.511A2.346,2.346,0,0,0,16.14-4.6a1.124,1.124,0,0,0-.973-.487,1.105,1.105,0,0,0-.961.484A2.637,2.637,0,0,0,13.866-3.108Zm-26.8,11.356a4.6,4.6,0,0,0-.609-.047,1.24,1.24,0,0,0-1.26.65V13H-16.5V6.66h1.6l.047.756a1.569,1.569,0,0,1,1.412-.873,1.774,1.774,0,0,1,.527.076ZM-8.446,13a1.88,1.88,0,0,1-.17-.568,2.049,2.049,0,0,1-1.6.686,2.251,2.251,0,0,1-1.544-.539,1.734,1.734,0,0,1-.612-1.359,1.792,1.792,0,0,1,.747-1.547,3.686,3.686,0,0,1,2.159-.545h.779V8.764a1.045,1.045,0,0,0-.226-.7A.887.887,0,0,0-9.624,7.8,1.009,1.009,0,0,0-10.295,8a.7.7,0,0,0-.243.563h-1.693a1.7,1.7,0,0,1,.34-1.02,2.246,2.246,0,0,1,.961-.735,3.5,3.5,0,0,1,1.395-.267,2.767,2.767,0,0,1,1.86.589,2.06,2.06,0,0,1,.688,1.655v2.748A3.031,3.031,0,0,0-6.735,12.9V13Zm-1.4-1.178a1.458,1.458,0,0,0,.691-.167,1.1,1.1,0,0,0,.469-.448v-1.09h-.633q-1.271,0-1.354.879l-.006.1a.678.678,0,0,0,.223.521A.865.865,0,0,0-9.847,11.822ZM-9.2,4h1.846L-8.979,5.816h-1.377ZM.021,9.889a3.8,3.8,0,0,1-.665,2.347,2.132,2.132,0,0,1-1.8.882,1.975,1.975,0,0,1-1.553-.668v2.988H-5.687V6.66h1.57l.059.621a1.99,1.99,0,0,1,1.605-.738A2.147,2.147,0,0,1-.63,7.41,3.905,3.905,0,0,1,.021,9.8Zm-1.693-.123A2.5,2.5,0,0,0-1.986,8.4,1.021,1.021,0,0,0-2.9,7.92a1.109,1.109,0,0,0-1.1.609v2.6a1.128,1.128,0,0,0,1.107.627Q-1.673,11.752-1.673,9.766ZM2.856,13h-1.7V6.66h1.7Zm-1.8-7.98a.834.834,0,0,1,.255-.627.958.958,0,0,1,.694-.246.96.96,0,0,1,.691.246.829.829,0,0,1,.258.627.831.831,0,0,1-.261.633.962.962,0,0,1-.688.246.962.962,0,0,1-.688-.246A.831.831,0,0,1,1.058,5.02Zm2.93,4.764a3.821,3.821,0,0,1,.665-2.361,2.158,2.158,0,0,1,1.819-.879A1.942,1.942,0,0,1,8,7.234V4H9.7v9H8.171l-.082-.674a1.993,1.993,0,0,1-1.629.791,2.152,2.152,0,0,1-1.8-.882A3.944,3.944,0,0,1,3.987,9.783Zm1.693.126a2.5,2.5,0,0,0,.311,1.367,1.012,1.012,0,0,0,.9.475A1.133,1.133,0,0,0,8,11.089V8.583a1.117,1.117,0,0,0-1.1-.663Q5.681,7.92,5.681,9.909Zm5.068-.138a3.76,3.76,0,0,1,.363-1.682,2.659,2.659,0,0,1,1.046-1.143,3.051,3.051,0,0,1,1.585-.4,2.887,2.887,0,0,1,2.095.785,3.151,3.151,0,0,1,.905,2.133l.012.434a3.314,3.314,0,0,1-.814,2.341,2.831,2.831,0,0,1-2.186.882,2.845,2.845,0,0,1-2.188-.879,3.372,3.372,0,0,1-.817-2.391Zm1.693.12a2.37,2.37,0,0,0,.34,1.382,1.221,1.221,0,0,0,1.934.006,2.593,2.593,0,0,0,.346-1.511A2.346,2.346,0,0,0,14.716,8.4a1.124,1.124,0,0,0-.973-.487,1.105,1.105,0,0,0-.961.484A2.637,2.637,0,0,0,12.442,9.892Z" transform="translate(-2977 -5300)" fill="#00104e"/>
  </g>
</svg>
