<svg xmlns="http://www.w3.org/2000/svg" width="400" height="298" viewBox="0 0 400 298">
  <g id="Grupo_159418" data-name="Grupo 159418" transform="translate(-180 -3251.5)">
    <g id="Grupo_159401" data-name="Grupo 159401">
      <rect id="Rect치ngulo_45552" data-name="Rect치ngulo 45552" width="400" height="298" transform="translate(180 3251.5)" fill="#ff8e7c"/>
      <g id="Grupo_157753" data-name="Grupo 157753" transform="translate(-6.25 205.5)">
        <g id="Grupo_157752" data-name="Grupo 157752" transform="translate(-414.75 2027.2)">
          <rect id="Rect치ngulo_36139" data-name="Rect치ngulo 36139" width="290" height="37" rx="18.5" transform="translate(656 1247)" fill="#fff"/>
          <path id="Feature_One" data-name="Feature One" d="M63.467,16.609H59.239L58.5,19h-3.3L59.9,6.2h2.9L67.527,19H64.214Zm-3.489-2.382h2.751l-1.38-4.438ZM70.621,9.49l.1,1.116a3.225,3.225,0,0,1,2.716-1.292,2.713,2.713,0,0,1,2.219.888,4.226,4.226,0,0,1,.76,2.672V19H73.442V13a1.6,1.6,0,0,0-.29-1.059A1.342,1.342,0,0,0,72.1,11.6a1.413,1.413,0,0,0-1.292.686V19H67.844V9.49ZM83.409,19a3.344,3.344,0,0,1-.281-.853,2.754,2.754,0,0,1-2.285,1.028,3.374,3.374,0,0,1-2.285-.813,2.588,2.588,0,0,1-.94-2.043,2.66,2.66,0,0,1,1.143-2.338,5.821,5.821,0,0,1,3.322-.791H83v-.5q0-1.316-1.134-1.316a.927.927,0,0,0-1.055,1.042H77.846a2.655,2.655,0,0,1,1.173-2.239,4.931,4.931,0,0,1,2.993-.86,4.323,4.323,0,0,1,2.874.888,3.086,3.086,0,0,1,1.081,2.435v4.21a4.311,4.311,0,0,0,.4,2V19Zm-1.854-1.934a1.652,1.652,0,0,0,.918-.237A1.487,1.487,0,0,0,83,16.293V14.772h-.861q-1.547,0-1.547,1.389a.848.848,0,0,0,.272.655A.986.986,0,0,0,81.555,17.066ZM82.293,5.5h3.129L82.979,8.26l-2.417,0ZM90.73,19H87.76V5.5H90.73Zm4.948,0H92.708V9.49h2.971ZM92.532,7.038A1.322,1.322,0,0,1,92.989,6a1.943,1.943,0,0,1,2.373,0,1.322,1.322,0,0,1,.457,1.037,1.322,1.322,0,0,1-.457,1.037,1.943,1.943,0,0,1-2.373,0A1.322,1.322,0,0,1,92.532,7.038Zm9.949,9.29a.684.684,0,0,0-.4-.606,6.016,6.016,0,0,0-1.5-.475,6.853,6.853,0,0,1-1.828-.646,3.062,3.062,0,0,1-1.1-.971,2.319,2.319,0,0,1-.378-1.31,2.628,2.628,0,0,1,1.081-2.158,4.453,4.453,0,0,1,2.83-.848,4.934,4.934,0,0,1,3.023.853,2.666,2.666,0,0,1,1.143,2.241h-2.971q0-1.143-1.2-1.143a1.194,1.194,0,0,0-.782.259.8.8,0,0,0-.316.646.737.737,0,0,0,.387.642,3.654,3.654,0,0,0,1.235.4,10.671,10.671,0,0,1,1.49.378,2.706,2.706,0,0,1,2.145,2.646,2.491,2.491,0,0,1-1.156,2.118,5.068,5.068,0,0,1-2.993.817,5.172,5.172,0,0,1-2.18-.439,3.645,3.645,0,0,1-1.494-1.2,2.707,2.707,0,0,1-.536-1.591h2.769a1.145,1.145,0,0,0,.439.962,1.808,1.808,0,0,0,1.081.3,1.422,1.422,0,0,0,.91-.246A.787.787,0,0,0,102.481,16.328ZM109.847,19h-2.971V9.49h2.971ZM106.7,7.038A1.322,1.322,0,0,1,107.157,6a1.943,1.943,0,0,1,2.373,0,1.322,1.322,0,0,1,.457,1.037,1.322,1.322,0,0,1-.457,1.037,1.943,1.943,0,0,1-2.373,0A1.322,1.322,0,0,1,106.7,7.038Zm9.949,9.29a.684.684,0,0,0-.4-.606,6.016,6.016,0,0,0-1.5-.475,6.853,6.853,0,0,1-1.828-.646,3.062,3.062,0,0,1-1.1-.971,2.319,2.319,0,0,1-.378-1.31,2.628,2.628,0,0,1,1.081-2.158,4.453,4.453,0,0,1,2.83-.848,4.934,4.934,0,0,1,3.023.853,2.666,2.666,0,0,1,1.143,2.241h-2.971q0-1.143-1.2-1.143a1.194,1.194,0,0,0-.782.259.8.8,0,0,0-.316.646.737.737,0,0,0,.387.642,3.654,3.654,0,0,0,1.235.4,10.671,10.671,0,0,1,1.49.378,2.706,2.706,0,0,1,2.145,2.646,2.491,2.491,0,0,1-1.156,2.118,5.068,5.068,0,0,1-2.993.817,5.172,5.172,0,0,1-2.18-.439,3.645,3.645,0,0,1-1.494-1.2,2.707,2.707,0,0,1-.536-1.591h2.769a1.145,1.145,0,0,0,.439.962,1.808,1.808,0,0,0,1.081.3,1.422,1.422,0,0,0,.91-.246A.787.787,0,0,0,116.649,16.328ZM125,14.175a5.809,5.809,0,0,1,.976-3.56,3.211,3.211,0,0,1,2.725-1.3,2.731,2.731,0,0,1,2.145,1V5.5h2.971V19h-2.663L131,17.98a2.8,2.8,0,0,1-2.32,1.2,3.205,3.205,0,0,1-2.689-1.3A5.993,5.993,0,0,1,125,14.175Zm2.962.185q0,2.531,1.477,2.531a1.458,1.458,0,0,0,1.406-.826V12.443a1.419,1.419,0,0,0-1.389-.844q-1.371,0-1.485,2.215ZM140.1,19.176a4.889,4.889,0,0,1-3.542-1.305,4.507,4.507,0,0,1-1.354-3.4v-.246a5.84,5.84,0,0,1,.541-2.575,3.955,3.955,0,0,1,1.578-1.727,4.763,4.763,0,0,1,2.461-.611,4.117,4.117,0,0,1,3.164,1.244,4.887,4.887,0,0,1,1.16,3.467v1.151h-5.889a2.135,2.135,0,0,0,.694,1.257,2.066,2.066,0,0,0,1.389.457,2.662,2.662,0,0,0,2.2-.984l1.354,1.6a3.784,3.784,0,0,1-1.569,1.217A5.3,5.3,0,0,1,140.1,19.176Zm-.334-7.576q-1.3,0-1.547,1.723h2.988v-.229a1.467,1.467,0,0,0-.36-1.1A1.434,1.434,0,0,0,139.765,11.6ZM152.5,9.49l.1,1.116a3.225,3.225,0,0,1,2.716-1.292,2.713,2.713,0,0,1,2.219.888,4.226,4.226,0,0,1,.76,2.672V19h-2.971V13a1.6,1.6,0,0,0-.29-1.059,1.342,1.342,0,0,0-1.055-.338,1.413,1.413,0,0,0-1.292.686V19h-2.962V9.49Zm12.032,9.686a4.889,4.889,0,0,1-3.542-1.305,4.507,4.507,0,0,1-1.354-3.4v-.246a5.84,5.84,0,0,1,.541-2.575,3.955,3.955,0,0,1,1.578-1.727,4.763,4.763,0,0,1,2.461-.611,4.117,4.117,0,0,1,3.164,1.244,4.887,4.887,0,0,1,1.16,3.467v1.151h-5.889a2.135,2.135,0,0,0,.694,1.257,2.066,2.066,0,0,0,1.389.457,2.662,2.662,0,0,0,2.2-.984l1.354,1.6a3.784,3.784,0,0,1-1.569,1.217A5.3,5.3,0,0,1,164.532,19.176ZM164.2,11.6q-1.3,0-1.547,1.723h2.988v-.229a1.467,1.467,0,0,0-.36-1.1A1.434,1.434,0,0,0,164.2,11.6Zm5.186,2.575a6.421,6.421,0,0,1,.475-2.549,3.821,3.821,0,0,1,1.362-1.709,3.591,3.591,0,0,1,2.065-.6,2.855,2.855,0,0,1,2.32,1l.105-.826H178.4V18.64a4.009,4.009,0,0,1-.584,2.184,3.75,3.75,0,0,1-1.692,1.424,6.219,6.219,0,0,1-2.566.5,5.365,5.365,0,0,1-2.026-.4,3.657,3.657,0,0,1-1.5-1.028l1.239-1.74a2.716,2.716,0,0,0,2.18.976,1.764,1.764,0,0,0,1.969-2.021v-.3a2.781,2.781,0,0,1-2.153.94,3.437,3.437,0,0,1-2.812-1.332,5.517,5.517,0,0,1-1.072-3.564Zm2.971.185a3.383,3.383,0,0,0,.439,1.85,1.387,1.387,0,0,0,1.23.681,1.573,1.573,0,0,0,1.4-.642v-4a1.534,1.534,0,0,0-1.38-.65,1.4,1.4,0,0,0-1.239.708A3.858,3.858,0,0,0,172.354,14.359Zm7.356-.2a5.613,5.613,0,0,1,.554-2.536,3.96,3.96,0,0,1,1.591-1.709,4.791,4.791,0,0,1,2.435-.6,4.373,4.373,0,0,1,3.366,1.323,5.076,5.076,0,0,1,1.23,3.6v.105a4.925,4.925,0,0,1-1.235,3.529,4.384,4.384,0,0,1-3.344,1.305,4.434,4.434,0,0,1-3.261-1.217,4.761,4.761,0,0,1-1.327-3.3Zm2.962.185a3.538,3.538,0,0,0,.413,1.934,1.376,1.376,0,0,0,1.222.615q1.582,0,1.617-2.435v-.3q0-2.558-1.635-2.558-1.485,0-1.608,2.206Zm11.54,2.549a1.317,1.317,0,0,0,.967-.338,1.241,1.241,0,0,0,.334-.945h2.777a3.288,3.288,0,0,1-1.121,2.566,4.168,4.168,0,0,1-2.887,1,4.22,4.22,0,0,1-3.27-1.3,5.125,5.125,0,0,1-1.2-3.6v-.123a5.792,5.792,0,0,1,.532-2.544,3.872,3.872,0,0,1,1.534-1.7,4.573,4.573,0,0,1,2.373-.593,4.116,4.116,0,0,1,2.944,1.028,3.647,3.647,0,0,1,1.09,2.786h-2.777a1.626,1.626,0,0,0-.36-1.134,1.244,1.244,0,0,0-.967-.4q-1.151,0-1.345,1.468a10.357,10.357,0,0,0-.062,1.283,4.068,4.068,0,0,0,.343,1.986A1.187,1.187,0,0,0,194.213,16.891ZM202.668,19H199.7V9.49h2.971ZM199.521,7.038A1.322,1.322,0,0,1,199.979,6a1.943,1.943,0,0,1,2.373,0,1.322,1.322,0,0,1,.457,1.037,1.322,1.322,0,0,1-.457,1.037,1.943,1.943,0,0,1-2.373,0A1.322,1.322,0,0,1,199.521,7.038Zm4.6,7.119a5.613,5.613,0,0,1,.554-2.536,3.96,3.96,0,0,1,1.591-1.709,4.791,4.791,0,0,1,2.435-.6,4.373,4.373,0,0,1,3.366,1.323,5.076,5.076,0,0,1,1.23,3.6v.105a4.925,4.925,0,0,1-1.235,3.529,4.384,4.384,0,0,1-3.344,1.305,4.434,4.434,0,0,1-3.261-1.217,4.761,4.761,0,0,1-1.327-3.3Zm2.962.185a3.538,3.538,0,0,0,.413,1.934,1.376,1.376,0,0,0,1.222.615q1.582,0,1.617-2.435v-.3q0-2.558-1.635-2.558-1.485,0-1.608,2.206Z" transform="translate(667 1253)" fill="#12263f"/>
        </g>
        <g id="Elipse_5562" data-name="Elipse 5562" transform="translate(496 3279.2)" fill="#fff" stroke="#707070" stroke-width="1">
          <circle cx="14" cy="14" r="14" stroke="none"/>
          <circle cx="14" cy="14" r="13.5" fill="none"/>
        </g>
        <path id="Icon_ionic-ios-arrow-back" data-name="Icon ionic-ios-arrow-back" d="M1.94,5.9,6.2,1.437A.868.868,0,0,0,6.2.246a.782.782,0,0,0-1.139,0L.234,5.3A.871.871,0,0,0,.211,6.464l4.846,5.09a.783.783,0,0,0,1.139,0,.868.868,0,0,0,0-1.191Z" transform="translate(515.8 3289.201) rotate(90)" fill="#636363"/>
      </g>
      <ellipse id="Elipse_5563" data-name="Elipse 5563" cx="90.5" cy="91" rx="90.5" ry="91" transform="translate(290 3279.5)" fill="#ffe7e3"/>
      <g id="presupuesto" transform="translate(323 3313.5)">
        <g id="Grupo_157773" data-name="Grupo 157773" transform="translate(2.809 2.809)">
          <g id="Grupo_157759" data-name="Grupo 157759" transform="translate(18.088 0)">
            <path id="Trazado_601388" data-name="Trazado 601388" d="M91.585,5.618V32.749l-.072.072L78.924,45.41H69.88a9.061,9.061,0,0,0-7.235,3.618H37.323v43.41H77.115v7.235H30.088V45.41A18.094,18.094,0,0,0,12,27.323V21.589a3.559,3.559,0,0,1,.326-1.5H26.47a3.628,3.628,0,0,0,3.618-3.618V2.326A3.559,3.559,0,0,1,31.589,2H87.968a3.628,3.628,0,0,1,3.618,3.618Z" transform="translate(-12 -2)" fill="#e6e9ed"/>
          </g>
          <g id="Grupo_157760" data-name="Grupo 157760" transform="translate(43.41 47.028)">
            <path id="Trazado_601389" data-name="Trazado 601389" d="M60.818,58.387a9.857,9.857,0,0,1-2.189-2.406,10.2,10.2,0,0,1-1.447-3.075h-.018l-7.651,7.651-1.809.724-6.692,2.677a3.042,3.042,0,0,1-4.106-3.4,3.093,3.093,0,0,1,.163-.543l3.4-8.5,1.809-1.809L53.131,38.853a3.628,3.628,0,0,1-3.618-3.618V33.426A8.937,8.937,0,0,1,51.323,28H26V71.41H65.793V62.366Z" transform="translate(-26 -28)" fill="#ffeaa7"/>
          </g>
          <g id="Grupo_157761" data-name="Grupo 157761" transform="translate(43.41 7.235)">
            <path id="Trazado_601390" data-name="Trazado 601390" d="M26,6H73.028v7.235H26Z" transform="translate(-26 -6)" fill="#ff826e"/>
          </g>
          <g id="Grupo_157762" data-name="Grupo 157762" transform="translate(18.413 0.326)">
            <path id="Trazado_601391" data-name="Trazado 601391" d="M29.942,2.18V16.324a3.628,3.628,0,0,1-3.618,3.618H12.18a3.647,3.647,0,0,1,.742-1.067L28.875,2.922A3.647,3.647,0,0,1,29.942,2.18Z" transform="translate(-12.18 -2.18)" fill="#b4dd7f"/>
          </g>
          <g id="Grupo_157763" data-name="Grupo 157763" transform="translate(57.88 54.263)">
            <path id="Trazado_601392" data-name="Trazado 601392" d="M50.279,32V46.687a10.27,10.27,0,0,0,.434,2.984h-.018l-7.651,7.651L34,48.279l1.809-1.809L46.661,35.618A3.644,3.644,0,0,0,50.279,32Z" transform="translate(-34 -32)" fill="#ff826e"/>
          </g>
          <g id="Grupo_157764" data-name="Grupo 157764" transform="translate(77.541 28.94)">
            <path id="Trazado_601393" data-name="Trazado 601393" d="M65,19.809a6.4,6.4,0,0,1,8.971,9.116L63.41,39.488,48.723,54.175V45.131A5.413,5.413,0,0,0,47.131,41.3,5.532,5.532,0,0,0,44.87,39.94l7.47-7.47L64.929,19.881Z" transform="translate(-44.87 -18)" fill="#ff826e"/>
          </g>
          <g id="Grupo_157765" data-name="Grupo 157765" transform="translate(54.263 70.541)">
            <path id="Trazado_601394" data-name="Trazado 601394" d="M44.661,50.044l-1.809.724L36.16,53.444a3.042,3.042,0,0,1-4.106-3.4,3.093,3.093,0,0,1,.163-.543l3.4-8.5Z" transform="translate(-32 -41)" fill="#aab2bd"/>
          </g>
          <g id="Grupo_157766" data-name="Grupo 157766" transform="translate(83.203 75.968)">
            <path id="Trazado_601395" data-name="Trazado 601395" d="M67.9,44l3.617,21.705H48V49.426Z" transform="translate(-48 -44)" fill="#b4dd7f"/>
          </g>
          <g id="Grupo_157767" data-name="Grupo 157767" transform="translate(66.924 43.41)">
            <path id="Trazado_601396" data-name="Trazado 601396" d="M45.168,39.4a3.537,3.537,0,0,1-2.55,1.067A3.628,3.628,0,0,1,39,36.853V35.044a8.937,8.937,0,0,1,1.809-5.426A9.061,9.061,0,0,1,48.044,26h9.044l-7.47,7.47a5.611,5.611,0,0,0-1.574-.235,1.814,1.814,0,0,0-1.809,1.809v1.809A3.537,3.537,0,0,1,45.168,39.4Z" transform="translate(-39 -26)" fill="#f0d0b4"/>
          </g>
          <g id="Grupo_157768" data-name="Grupo 157768" transform="translate(74.159 50.428)">
            <path id="Trazado_601397" data-name="Trazado 601397" d="M65.881,31.634A49.728,49.728,0,0,1,71.94,55.42l-19.9,5.426L47.07,56.867a9.857,9.857,0,0,1-2.189-2.406A10.9,10.9,0,0,1,43,48.4v-16.5A1.814,1.814,0,0,1,44.809,30.1a5.611,5.611,0,0,1,1.574.235,5.532,5.532,0,0,1,2.261,1.357,5.413,5.413,0,0,1,1.592,3.835v9.044L64.922,29.88Z" transform="translate(-43 -29.88)" fill="#f0d0b4"/>
          </g>
          <g id="Grupo_157769" data-name="Grupo 157769" transform="translate(0 43.41)">
            <path id="Trazado_601398" data-name="Trazado 601398" d="M38.175,26V83.88a7.233,7.233,0,0,1-7.235,7.235H9.235A7.233,7.233,0,0,1,2,83.88V26A18.071,18.071,0,0,0,9.235,40.47V53.131a1.814,1.814,0,0,0,1.809,1.809H29.131a1.814,1.814,0,0,0,1.809-1.809V40.47A18.071,18.071,0,0,0,38.175,26Z" transform="translate(-2 -26)" fill="#969faa"/>
          </g>
          <g id="Grupo_157770" data-name="Grupo 157770" transform="translate(7.28 79.596)">
            <path id="Trazado_601399" data-name="Trazado 601399" d="M26.017,67.639H7.834A1.809,1.809,0,0,1,6.025,65.83V47.815a1.809,1.809,0,0,1,1.809-1.809H26.015a1.809,1.809,0,0,1,1.809,1.809V65.83A1.806,1.806,0,0,1,26.017,67.639Z" transform="translate(-6.025 -46.006)" fill="#ff826e"/>
          </g>
          <g id="Grupo_157771" data-name="Grupo 157771" transform="translate(7.235 57.88)">
            <path id="Trazado_601400" data-name="Trazado 601400" d="M27.705,34V46.661A1.814,1.814,0,0,1,25.9,48.47H7.809A1.814,1.814,0,0,1,6,46.661V34a18.087,18.087,0,0,0,21.705,0Z" transform="translate(-6 -34)" fill="#69d6f4"/>
          </g>
          <g id="Grupo_157772" data-name="Grupo 157772" transform="translate(0 25.323)">
            <path id="Trazado_601401" data-name="Trazado 601401" d="M38.175,34.088A18.088,18.088,0,1,1,20.088,16,18.071,18.071,0,0,1,38.175,34.088Z" transform="translate(-2 -16)" fill="#fcd770"/>
          </g>
        </g>
        <g id="Grupo_157774" data-name="Grupo 157774" transform="translate(1 1)">
          <path id="Trazado_601402" data-name="Trazado 601402" d="M101.433,54.134l-.311-.572,9.619-9.619a8.169,8.169,0,0,0-8.45-13.533V6.426A5.433,5.433,0,0,0,96.864,1H40.483a5.393,5.393,0,0,0-3.838,1.59L20.677,18.558a5.387,5.387,0,0,0-1.59,3.838v4.019A19.915,19.915,0,0,0,1,46.219V104.1a9.054,9.054,0,0,0,9.044,9.044H31.749a9.054,9.054,0,0,0,9.044-9.044V102.29h70.869l-3.95-23.7A51.622,51.622,0,0,0,101.433,54.134Zm2.623,23.273L86.422,82.217l-4.252-3.4a9.007,9.007,0,0,1-3.393-7.063V55.263a3.621,3.621,0,0,1,3.618,3.618V71.541h3.618V68.673L98.445,56.239A47.958,47.958,0,0,1,104.055,77.407ZM78.776,51.645a3.621,3.621,0,0,0-3.618,3.618v1.809a1.809,1.809,0,0,1-3.618,0V55.263a7.242,7.242,0,0,1,7.235-7.235h4.677l-3.715,3.715a7.049,7.049,0,0,0-.962-.1ZM58.969,82.524l2.38-5.954,5.164,5.164-5.956,2.382a1.253,1.253,0,0,1-1.677-1.138A1.18,1.18,0,0,1,58.969,82.524Zm10.764-2.688L63.246,73.35,74.184,62.413a5.278,5.278,0,0,0,.975-.25v9.586a12.724,12.724,0,0,0,.246,2.413ZM68.257,58.88H48.028V51.645H68.557a10.808,10.808,0,0,0-.633,3.618v1.809A5.365,5.365,0,0,0,68.257,58.88ZM48.028,62.5H68.984l-7.235,7.235H48.028Zm0,10.853H58.741l-2.894,7.235H48.028Zm0,10.853H55.44A4.825,4.825,0,0,0,61.9,87.475l4.211-1.686v5.649H48.028Zm21.705.139,1.017-.407,6.023-6.023c.065.118.125.237.2.353V91.438H69.733Zm10.853-2.165L84.2,85.071v6.367H80.585Zm28.94-44.032a4.558,4.558,0,0,1-1.344,3.243l-22.17,22.17V58.88a7.192,7.192,0,0,0-2.7-5.593L101.695,34.9a4.586,4.586,0,0,1,7.83,3.243ZM37.175,7.175v10.1a1.812,1.812,0,0,1-1.809,1.809h-10.1ZM20.9,29.94A16.279,16.279,0,1,1,4.618,46.219,16.3,16.3,0,0,1,20.9,29.94ZM11.853,63.919a19.722,19.722,0,0,0,18.088,0V73.35H11.853Zm19.9,45.606H10.044A5.433,5.433,0,0,1,4.618,104.1V57.623a20.081,20.081,0,0,0,3.618,3.932V73.35a3.621,3.621,0,0,0,3.618,3.618H29.94a3.621,3.621,0,0,0,3.618-3.618V61.555a20.081,20.081,0,0,0,3.618-3.932V104.1A5.433,5.433,0,0,1,31.749,109.525Zm9.044-10.853V46.219a19.915,19.915,0,0,0-18.088-19.8v-3.71H35.366a5.433,5.433,0,0,0,5.426-5.426V4.618H96.864a1.812,1.812,0,0,1,1.809,1.809V32.809l-11.6,11.6H78.776a10.822,10.822,0,0,0-8.067,3.618H44.41V95.055H84.2v3.618Zm47.028,0V85.584l16.631-4.536,2.937,17.624Z" transform="translate(-1 -1)"/>
          <path id="Trazado_601403" data-name="Trazado 601403" d="M12.618,40.443v3.88h3.618v-3.88A5.143,5.143,0,0,0,17,30.925l-3.527-1.762a1.546,1.546,0,0,1,.691-2.928h.528a1.546,1.546,0,0,1,1.545,1.545v2.073h3.618V27.78a5.153,5.153,0,0,0-3.618-4.9V19H12.618v3.88a5.143,5.143,0,0,0-.763,9.518l3.527,1.762a1.546,1.546,0,0,1-.691,2.928h-.528a1.546,1.546,0,0,1-1.545-1.545V33.47H9v2.073A5.153,5.153,0,0,0,12.618,40.443Z" transform="translate(5.47 13.558)"/>
          <path id="Trazado_601404" data-name="Trazado 601404" d="M26.705,45H8.618A3.621,3.621,0,0,0,5,48.618V66.705a3.621,3.621,0,0,0,3.618,3.618H26.705a3.621,3.621,0,0,0,3.618-3.618V48.618A3.621,3.621,0,0,0,26.705,45Zm0,7.235H23.088V48.618h3.618ZM19.47,66.705H15.853V63.088H19.47Zm0-7.235H15.853V55.853H19.47Zm-7.235,0H8.618V55.853h3.618Zm3.618-7.235V48.618H19.47v3.618Zm-3.618-3.618v3.618H8.618V48.618ZM8.618,63.088h3.618v3.618H8.618Zm14.47,3.618V55.853h3.619l0,10.853Z" transform="translate(2.235 34.585)"/>
          <path id="Trazado_601405" data-name="Trazado 601405" d="M75.645,5H25V15.853H75.645Zm-3.618,7.235H28.618V8.618h43.41Z" transform="translate(18.41 2.235)"/>
          <path id="Trazado_601406" data-name="Trazado 601406" d="M25,13H75.645v3.618H25Z" transform="translate(18.41 8.705)"/>
          <path id="Trazado_601407" data-name="Trazado 601407" d="M25,17H75.645v3.618H25Z" transform="translate(18.41 11.94)"/>
          <path id="Trazado_601408" data-name="Trazado 601408" d="M25,21H53.94v3.618H25Z" transform="translate(18.41 15.175)"/>
        </g>
      </g>
    </g>
  </g>
</svg>
