<svg xmlns="http://www.w3.org/2000/svg" width="400" height="298" viewBox="0 0 400 298">
  <g id="Grupo_159419" data-name="Grupo 159419" transform="translate(-600 -3251.5)">
    <g id="Grupo_159402" data-name="Grupo 159402">
      <rect id="Rect치ngulo_45553" data-name="Rect치ngulo 45553" width="400" height="298" transform="translate(600 3251.5)" fill="#ff8e7c"/>
      <g id="Grupo_157754" data-name="Grupo 157754" transform="translate(413.75 205.5)">
        <g id="Grupo_157752" data-name="Grupo 157752" transform="translate(-414.75 2027.2)">
          <rect id="Rect치ngulo_36139" data-name="Rect치ngulo 36139" width="290" height="37" rx="18.5" transform="translate(656 1247)" fill="#fff"/>
          <path id="Feature_One" data-name="Feature One" d="M75.71,14.474H74.04V19H70.955V6.2h5.036a5.621,5.621,0,0,1,3.56,1.01,3.421,3.421,0,0,1,1.283,2.853,4.155,4.155,0,0,1-.541,2.213A3.837,3.837,0,0,1,78.6,13.7l2.672,5.167V19h-3.3ZM74.04,12.1h1.951a1.751,1.751,0,0,0,1.323-.463,1.788,1.788,0,0,0,.444-1.291,1.809,1.809,0,0,0-.448-1.3,1.735,1.735,0,0,0-1.318-.471H74.04Zm13.122,7.075a4.889,4.889,0,0,1-3.542-1.305,4.507,4.507,0,0,1-1.354-3.4v-.246a5.84,5.84,0,0,1,.541-2.575,3.955,3.955,0,0,1,1.578-1.727,4.763,4.763,0,0,1,2.461-.611,4.117,4.117,0,0,1,3.164,1.244,4.887,4.887,0,0,1,1.16,3.467v1.151H85.281a2.135,2.135,0,0,0,.694,1.257,2.066,2.066,0,0,0,1.389.457,2.662,2.662,0,0,0,2.2-.984l1.354,1.6a3.784,3.784,0,0,1-1.569,1.217A5.3,5.3,0,0,1,87.162,19.176ZM86.828,11.6q-1.3,0-1.547,1.723H88.27v-.229a1.467,1.467,0,0,0-.36-1.1A1.434,1.434,0,0,0,86.828,11.6Zm5.159,2.549a5.709,5.709,0,0,1,.984-3.551,3.233,3.233,0,0,1,2.716-1.283,2.761,2.761,0,0,1,2.338,1.2l.211-1.02H100.8V22.656H97.832V18.209a2.757,2.757,0,0,1-2.162.967,3.2,3.2,0,0,1-2.685-1.305A6.027,6.027,0,0,1,91.987,14.148Zm2.962.185q0,2.558,1.477,2.558a1.43,1.43,0,0,0,1.406-.773V12.355a1.4,1.4,0,0,0-1.389-.756q-1.38,0-1.485,2.206Zm13.192,3.639a3.054,3.054,0,0,1-2.54,1.2,3,3,0,0,1-2.369-.91,3.826,3.826,0,0,1-.8-2.615V9.49h2.962v6.179a1.065,1.065,0,0,0,1.187,1.222,1.548,1.548,0,0,0,1.45-.729V9.49h2.979V19h-2.777Zm9.088,1.2a4.889,4.889,0,0,1-3.542-1.305,4.507,4.507,0,0,1-1.354-3.4v-.246a5.84,5.84,0,0,1,.541-2.575,3.955,3.955,0,0,1,1.578-1.727,4.763,4.763,0,0,1,2.461-.611,4.117,4.117,0,0,1,3.164,1.244,4.887,4.887,0,0,1,1.16,3.467v1.151h-5.889a2.135,2.135,0,0,0,.694,1.257,2.066,2.066,0,0,0,1.389.457,2.662,2.662,0,0,0,2.2-.984l1.354,1.6a3.784,3.784,0,0,1-1.569,1.217A5.3,5.3,0,0,1,117.229,19.176ZM116.9,11.6q-1.3,0-1.547,1.723h2.988v-.229a1.467,1.467,0,0,0-.36-1.1A1.434,1.434,0,0,0,116.9,11.6Zm11.285.571-.976-.07a1.752,1.752,0,0,0-1.793.879V19H122.45V9.49h2.777l.1,1.222a2.294,2.294,0,0,1,2.083-1.4,2.888,2.888,0,0,1,.826.105ZM132.373,19H129.4V9.49h2.971ZM129.227,7.038A1.322,1.322,0,0,1,129.684,6a1.943,1.943,0,0,1,2.373,0,1.322,1.322,0,0,1,.457,1.037,1.322,1.322,0,0,1-.457,1.037,1.943,1.943,0,0,1-2.373,0A1.322,1.322,0,0,1,129.227,7.038ZM137,9.49l.1,1.116a3.27,3.27,0,0,1,2.716-1.292,2.407,2.407,0,0,1,2.435,1.433,3.165,3.165,0,0,1,2.795-1.433q2.892,0,2.971,3.5V19h-2.971V13a1.813,1.813,0,0,0-.246-1.063,1.048,1.048,0,0,0-.9-.334,1.4,1.4,0,0,0-1.31.782l.009.123V19h-2.971V13.015a1.906,1.906,0,0,0-.237-1.081,1.045,1.045,0,0,0-.905-.334,1.42,1.42,0,0,0-1.3.782V19h-2.962V9.49ZM152.825,19h-2.971V9.49h2.971ZM149.679,7.038A1.322,1.322,0,0,1,150.136,6a1.943,1.943,0,0,1,2.373,0,1.322,1.322,0,0,1,.457,1.037,1.322,1.322,0,0,1-.457,1.037,1.943,1.943,0,0,1-2.373,0A1.322,1.322,0,0,1,149.679,7.038Zm9.571,12.138a4.889,4.889,0,0,1-3.542-1.305,4.507,4.507,0,0,1-1.354-3.4v-.246a5.84,5.84,0,0,1,.541-2.575,3.955,3.955,0,0,1,1.578-1.727,4.763,4.763,0,0,1,2.461-.611,4.117,4.117,0,0,1,3.164,1.244,4.887,4.887,0,0,1,1.16,3.467v1.151h-5.889a2.135,2.135,0,0,0,.694,1.257,2.066,2.066,0,0,0,1.389.457,2.662,2.662,0,0,0,2.2-.984l1.354,1.6a3.784,3.784,0,0,1-1.569,1.217A5.3,5.3,0,0,1,159.25,19.176Zm-.334-7.576q-1.3,0-1.547,1.723h2.988v-.229a1.467,1.467,0,0,0-.36-1.1A1.434,1.434,0,0,0,158.916,11.6Zm8.253-2.109.1,1.116a3.225,3.225,0,0,1,2.716-1.292,2.713,2.713,0,0,1,2.219.888,4.226,4.226,0,0,1,.76,2.672V19H169.99V13a1.6,1.6,0,0,0-.29-1.059,1.342,1.342,0,0,0-1.055-.338,1.413,1.413,0,0,0-1.292.686V19h-2.962V9.49ZM178.05,7.126V9.49h1.564v2.057H178.05V15.9a1.111,1.111,0,0,0,.193.747,1.037,1.037,0,0,0,.765.211,4.345,4.345,0,0,0,.738-.053v2.118a5.466,5.466,0,0,1-1.67.255,3.1,3.1,0,0,1-2.259-.721,2.954,2.954,0,0,1-.729-2.188v-4.72h-1.213V9.49h1.213V7.126Zm2.092,7.031a5.613,5.613,0,0,1,.554-2.536,3.96,3.96,0,0,1,1.591-1.709,4.791,4.791,0,0,1,2.435-.6,4.373,4.373,0,0,1,3.366,1.323,5.076,5.076,0,0,1,1.23,3.6v.105a4.925,4.925,0,0,1-1.235,3.529,4.384,4.384,0,0,1-3.344,1.305,4.434,4.434,0,0,1-3.261-1.217,4.761,4.761,0,0,1-1.327-3.3Zm2.962.185a3.538,3.538,0,0,0,.413,1.934,1.376,1.376,0,0,0,1.222.615q1.582,0,1.617-2.435v-.3q0-2.558-1.635-2.558-1.485,0-1.608,2.206Zm12.5,1.986a.684.684,0,0,0-.4-.606,6.016,6.016,0,0,0-1.5-.475,6.853,6.853,0,0,1-1.828-.646,3.062,3.062,0,0,1-1.1-.971,2.319,2.319,0,0,1-.378-1.31,2.628,2.628,0,0,1,1.081-2.158,4.453,4.453,0,0,1,2.83-.848,4.934,4.934,0,0,1,3.023.853,2.666,2.666,0,0,1,1.143,2.241H195.5q0-1.143-1.2-1.143a1.194,1.194,0,0,0-.782.259.8.8,0,0,0-.316.646.737.737,0,0,0,.387.642,3.654,3.654,0,0,0,1.235.4,10.671,10.671,0,0,1,1.49.378,2.706,2.706,0,0,1,2.145,2.646,2.491,2.491,0,0,1-1.156,2.118,5.068,5.068,0,0,1-2.993.817,5.172,5.172,0,0,1-2.18-.439,3.645,3.645,0,0,1-1.494-1.2,2.707,2.707,0,0,1-.536-1.591h2.769a1.145,1.145,0,0,0,.439.962,1.808,1.808,0,0,0,1.081.3,1.422,1.422,0,0,0,.91-.246A.787.787,0,0,0,195.6,16.328Z" transform="translate(667 1253)" fill="#12263f"/>
        </g>
        <g id="Elipse_5562" data-name="Elipse 5562" transform="translate(496 3279.2)" fill="#fff" stroke="#707070" stroke-width="1">
          <circle cx="14" cy="14" r="14" stroke="none"/>
          <circle cx="14" cy="14" r="13.5" fill="none"/>
        </g>
        <path id="Icon_ionic-ios-arrow-back" data-name="Icon ionic-ios-arrow-back" d="M1.94,5.9,6.2,1.437A.868.868,0,0,0,6.2.246a.782.782,0,0,0-1.139,0L.234,5.3A.871.871,0,0,0,.211,6.464l4.846,5.09a.783.783,0,0,0,1.139,0,.868.868,0,0,0,0-1.191Z" transform="translate(515.8 3289.201) rotate(90)" fill="#636363"/>
      </g>
      <ellipse id="Elipse_5564" data-name="Elipse 5564" cx="90.5" cy="91" rx="90.5" ry="91" transform="translate(710 3279.5)" fill="#ffe7e3"/>
      <g id="plan-de-negocios" transform="translate(744 3306.117)">
        <g id="Grupo_157776" data-name="Grupo 157776" transform="translate(1.643 12.026)">
          <g id="Grupo_157775" data-name="Grupo 157775" transform="translate(20.649)">
            <path id="Trazado_601409" data-name="Trazado 601409" d="M245.9,385.473a2.832,2.832,0,0,1-2.832-2.832V356.251L245.9,355l2.832,1.251v26.391a2.832,2.832,0,0,1-2.832,2.832Z" transform="translate(-212.121 -281.156)" fill="#678d98"/>
            <path id="Trazado_601410" data-name="Trazado 601410" d="M346.779,385.473a2.931,2.931,0,0,1-2.708-1.811L332.738,356.25l2.1-1.251,4.241,1.251,10.407,25.172A2.931,2.931,0,0,1,346.779,385.473Z" transform="translate(-282.145 -281.156)" fill="#678d98"/>
            <path id="Trazado_601411" data-name="Trazado 601411" d="M104.7,385.473a2.931,2.931,0,0,0,2.708-1.811l11.333-27.411L115.618,355,112.4,356.25l-10.407,25.172A2.931,2.931,0,0,0,104.7,385.473Z" transform="translate(-101.767 -281.156)" fill="#678d98"/>
            <path id="Trazado_601412" data-name="Trazado 601412" d="M245.9,17.883a2.832,2.832,0,0,0-2.832,2.832V28.87L245.9,30.1l2.832-1.232V20.715A2.832,2.832,0,0,0,245.9,17.883Z" transform="translate(-212.121 -17.883)" fill="#678d98"/>
          </g>
          <path id="Trazado_601413" data-name="Trazado 601413" d="M116.366,71.47v57.247a3.43,3.43,0,0,1-3.43,3.43h-102a3.43,3.43,0,0,1-3.43-3.43V71.47a3.43,3.43,0,0,1,3.43-3.43h102A3.43,3.43,0,0,1,116.366,71.47Z" transform="translate(-7.5 -57.053)" fill="#eaf6ff"/>
          <path id="Trazado_601414" data-name="Trazado 601414" d="M470.138,71.47v57.247a3.43,3.43,0,0,1-3.43,3.43H460.5a3.432,3.432,0,0,0,3.432-3.43V71.47a3.432,3.432,0,0,0-3.432-3.43h6.208A3.43,3.43,0,0,1,470.138,71.47Z" transform="translate(-361.272 -57.053)" fill="#c8effe"/>
          <path id="Trazado_601415" data-name="Trazado 601415" d="M74.47,113.773v6.641a4.364,4.364,0,0,1-4.366,4.363H56.633a4.364,4.364,0,0,1-4.363-4.363v-6.641a4.364,4.364,0,0,1,4.363-4.363H70.1A4.364,4.364,0,0,1,74.47,113.773Z" transform="translate(-42.463 -89.361)" fill="#5986cb"/>
          <path id="Trazado_601416" data-name="Trazado 601416" d="M116.228,113.773v6.641a4.364,4.364,0,0,1-4.366,4.363H105.74a4.364,4.364,0,0,0,4.366-4.363v-6.641a4.364,4.364,0,0,0-4.366-4.363h6.122A4.364,4.364,0,0,1,116.228,113.773Z" transform="translate(-84.221 -89.361)" fill="#4278c3"/>
          <path id="Trazado_601417" data-name="Trazado 601417" d="M142.434,153.017v5.014a3.3,3.3,0,0,1-3.3,3.294H128.964a3.293,3.293,0,0,1-3.294-3.294v-5.014a3.3,3.3,0,0,1,3.294-3.3h10.172A3.3,3.3,0,0,1,142.434,153.017Z" transform="translate(-99.785 -120.842)" fill="#fff9df"/>
          <path id="Trazado_601418" data-name="Trazado 601418" d="M172.7,153.017v5.014a3.3,3.3,0,0,1-3.3,3.294H164.43a3.293,3.293,0,0,0,3.294-3.294v-5.014a3.3,3.3,0,0,0-3.294-3.3h4.977A3.3,3.3,0,0,1,172.7,153.017Z" transform="translate(-130.055 -120.842)" fill="#fff0ad"/>
          <path id="Trazado_601419" data-name="Trazado 601419" d="M344.126,68.04V120.6a3.62,3.62,0,0,1-3.621,3.619H313.4a3.62,3.62,0,0,1-3.619-3.619V68.04Z" transform="translate(-243.565 -57.053)" fill="#fff9df"/>
          <path id="Trazado_601420" data-name="Trazado 601420" d="M429.75,68.04V120.6a3.62,3.62,0,0,1-3.621,3.619h-6.712a3.618,3.618,0,0,0,3.619-3.619V68.04Z" transform="translate(-329.189 -57.053)" fill="#fff0ad"/>
          <path id="Trazado_601421" data-name="Trazado 601421" d="M366.887,46.438v4.03a3.477,3.477,0,0,1-3.476,3.478h-9.645a3.479,3.479,0,0,1-3.478-3.478v-4.03a3.479,3.479,0,0,1,3.478-3.478h9.645A3.477,3.477,0,0,1,366.887,46.438Z" transform="translate(-275.202 -37.467)" fill="#7ca1b1"/>
          <path id="Trazado_601422" data-name="Trazado 601422" d="M394.6,46.438v4.03a3.477,3.477,0,0,1-3.476,3.478h-5.351a3.479,3.479,0,0,0,3.478-3.478v-4.03a3.479,3.479,0,0,0-3.478-3.478h5.351A3.477,3.477,0,0,1,394.6,46.438Z" transform="translate(-302.91 -37.467)" fill="#678d98"/>
          <path id="Trazado_601423" data-name="Trazado 601423" d="M341.836,123.868H347.5v5.663h-5.663Z" transform="translate(-268.601 -100.652)" fill="#4278c3"/>
          <path id="Trazado_601424" data-name="Trazado 601424" d="M341.836,209.421H347.5v5.663h-5.663Z" transform="translate(-268.601 -167.466)" fill="#ffd064"/>
          <path id="Trazado_601425" data-name="Trazado 601425" d="M341.836,265.124H347.5v5.663h-5.663Z" transform="translate(-268.601 -210.967)" fill="#4278c3"/>
        </g>
        <g id="Grupo_157777" data-name="Grupo 157777" transform="translate(0 10.383)">
          <path id="Trazado_601426" data-name="Trazado 601426" d="M107.077,21.37H94.972a5.223,5.223,0,0,0-5.121-5.493H80.207a5.223,5.223,0,0,0-5.121,5.493H60.55V14.857a4.474,4.474,0,0,0-8.949,0V21.37H5.074A5.08,5.08,0,0,0,0,26.443V83.69a5.08,5.08,0,0,0,5.074,5.074H30.467L21,111.664a4.574,4.574,0,0,0,8.453,3.495l3-7.253a1.643,1.643,0,0,0-3.036-1.256l-3,7.253a1.289,1.289,0,0,1-2.38-.984l9.987-24.157H36.81l-4.384,10.6a1.643,1.643,0,0,0,3.036,1.256l4.9-11.859H51.6v24.748a4.474,4.474,0,1,0,8.949,0V88.763H71.786l10.913,26.4a4.574,4.574,0,0,0,8.453-3.495l-9.468-22.9H91.792a1.643,1.643,0,0,0,0-3.286H5.074a1.79,1.79,0,0,1-1.788-1.788V26.443a1.79,1.79,0,0,1,1.788-1.788H66.212V75.572a5.269,5.269,0,0,0,5.263,5.263H98.583a5.269,5.269,0,0,0,5.263-5.263V24.655h3.231a1.79,1.79,0,0,1,1.788,1.788V83.69a1.79,1.79,0,0,1-1.788,1.788H99.666a1.643,1.643,0,0,0,0,3.286h7.412a5.08,5.08,0,0,0,5.074-5.074V26.443a5.08,5.08,0,0,0-5.074-5.074ZM78.129,88.763l9.987,24.157a1.288,1.288,0,0,1-2.38.984L75.342,88.763Zm-20.865,0v24.748a1.189,1.189,0,0,1-2.378,0V88.763ZM78.372,21a1.837,1.837,0,0,1,1.835-1.835h9.644A1.837,1.837,0,0,1,91.687,21v4.031a1.837,1.837,0,0,1-1.835,1.835H80.207a1.837,1.837,0,0,1-1.835-1.835Zm-23.486.373V14.857a1.189,1.189,0,0,1,2.378,0V21.37Zm45.674,54.2a1.98,1.98,0,0,1-1.978,1.978H71.476A1.98,1.98,0,0,1,69.5,75.572V24.655h5.589a5.223,5.223,0,0,0,5.121,5.493h9.644a5.224,5.224,0,0,0,5.121-5.493h5.589V75.572Z" transform="translate(0 -10.383)"/>
          <path id="Trazado_601427" data-name="Trazado 601427" d="M47.413,262.051H83.058a1.643,1.643,0,1,0,0-3.286h-34V245.231a1.643,1.643,0,1,0-3.286,0v15.177A1.643,1.643,0,0,0,47.413,262.051Z" transform="translate(-35.744 -192.506)"/>
          <path id="Trazado_601428" data-name="Trazado 601428" d="M119.6,197.184a1.643,1.643,0,1,0-2.323-2.323l-9.368,9.368h-6.332l-4.169-2.3a1.643,1.643,0,0,0-1.954.277l-4.273,4.273H87.1a1.642,1.642,0,0,0-1.162.481l-7.631,7.631a1.643,1.643,0,1,0,2.323,2.323l7.149-7.149h4.074a1.642,1.642,0,0,0,1.162-.481l3.882-3.881,3.458,1.9a1.644,1.644,0,0,0,.793.2h7.435a1.642,1.642,0,0,0,1.162-.481Z" transform="translate(-60.78 -154.076)"/>
          <path id="Trazado_601429" data-name="Trazado 601429" d="M335.979,125.317h5.663a1.643,1.643,0,0,0,1.643-1.643v-5.663a1.643,1.643,0,0,0-1.643-1.643h-5.663a1.643,1.643,0,0,0-1.643,1.643v5.663A1.643,1.643,0,0,0,335.979,125.317Zm1.643-5.663H340v2.378h-2.378Z" transform="translate(-261.101 -93.152)"/>
          <path id="Trazado_601430" data-name="Trazado 601430" d="M341.642,201.92h-5.663a1.643,1.643,0,0,0-1.643,1.643v5.663a1.643,1.643,0,0,0,1.643,1.643h5.663a1.643,1.643,0,0,0,1.643-1.643v-5.663A1.643,1.643,0,0,0,341.642,201.92ZM340,207.583h-2.378v-2.378H340Z" transform="translate(-261.101 -159.965)"/>
          <path id="Trazado_601431" data-name="Trazado 601431" d="M341.642,257.624h-5.663a1.643,1.643,0,0,0-1.643,1.643v5.663a1.643,1.643,0,0,0,1.643,1.643h5.663a1.643,1.643,0,0,0,1.643-1.643v-5.663A1.643,1.643,0,0,0,341.642,257.624ZM340,263.287h-2.378V260.91H340Z" transform="translate(-261.101 -203.467)"/>
          <path id="Trazado_601432" data-name="Trazado 601432" d="M388.032,129.294a1.643,1.643,0,1,0,0,3.286h9.212a1.643,1.643,0,0,0,0-3.286Z" transform="translate(-301.752 -103.247)"/>
          <path id="Trazado_601433" data-name="Trazado 601433" d="M397.244,214.848h-9.212a1.643,1.643,0,1,0,0,3.286h9.212a1.643,1.643,0,0,0,0-3.286Z" transform="translate(-301.752 -170.061)"/>
          <path id="Trazado_601434" data-name="Trazado 601434" d="M416.9,270.551h-3.7a1.643,1.643,0,1,0,0,3.286h3.7a1.643,1.643,0,0,0,0-3.286Z" transform="translate(-321.405 -213.562)"/>
          <path id="Trazado_601435" data-name="Trazado 601435" d="M335.979,175.357H350.7a1.643,1.643,0,0,0,0-3.286H335.979a1.643,1.643,0,1,0,0,3.286Z" transform="translate(-261.101 -136.654)"/>
          <circle id="Elipse_5566" data-name="Elipse 5566" cx="1.699" cy="1.699" r="1.699" transform="translate(84.229 57.333) rotate(-13.3)"/>
          <circle id="Elipse_5567" data-name="Elipse 5567" cx="1.699" cy="1.699" r="1.699" transform="translate(93.306 37.98) rotate(-67.486)"/>
          <path id="Trazado_601436" data-name="Trazado 601436" d="M199.9,112.167H182.81a1.643,1.643,0,0,0,0,3.286H199.9a1.643,1.643,0,0,0,0-3.286Z" transform="translate(-141.483 -89.872)"/>
          <path id="Trazado_601437" data-name="Trazado 601437" d="M241.107,149.143a1.643,1.643,0,0,0-1.643-1.643h-5.987a1.643,1.643,0,1,0,0,3.286h5.987A1.643,1.643,0,0,0,241.107,149.143Z" transform="translate(-181.052 -117.465)"/>
          <path id="Trazado_601438" data-name="Trazado 601438" d="M50.775,105.2H64.247a2.714,2.714,0,0,1,2.121,1.015,1.643,1.643,0,0,0,2.557-2.063,5.985,5.985,0,0,0-4.679-2.237H50.775a6.013,6.013,0,0,0-6.006,6.006v6.641a6.013,6.013,0,0,0,6.006,6.006H60.846a5,5,0,0,0,4.938,5.067H75.957a4.944,4.944,0,0,0,4.938-4.938v-5.015a4.944,4.944,0,0,0-4.938-4.938H65.785a4.944,4.944,0,0,0-4.938,4.938v1.6H50.775a2.724,2.724,0,0,1-2.721-2.721v-6.641a2.724,2.724,0,0,1,2.721-2.721ZM77.61,115.678v5.015a1.654,1.654,0,0,1-1.652,1.652H65.785a1.684,1.684,0,0,1-1.652-1.781c3.726.04,6.123-3.017,6.123-6.538h5.7a1.654,1.654,0,0,1,1.652,1.652Zm-13.477,0a1.654,1.654,0,0,1,1.652-1.652h1.185c0,1.709-.912,3.309-2.837,3.252Z" transform="translate(-34.963 -81.861)"/>
        </g>
      </g>
    </g>
  </g>
</svg>
