<svg xmlns="http://www.w3.org/2000/svg" width="85" height="85" viewBox="0 0 85 85">
  <g id="Grupo_159371" data-name="Grupo 159371" transform="translate(9439 4609)">
    <rect id="Rectángulo_46169" data-name="Rectángulo 46169" width="85" height="85" rx="12" transform="translate(-9439 -4609)" fill="#083142"/>
    <g id="contrasena" transform="translate(-9439.3 -4610.35)">
      <path id="Trazado_602832" data-name="Trazado 602832" d="M67.594,45.134H64.186V41.67a4.388,4.388,0,0,0-4.414-4.414H57.705V34.519a15.371,15.371,0,0,0-4.414-10.727A15.113,15.113,0,0,0,27.48,34.519v2.738H25.357a4.388,4.388,0,0,0-4.414,4.414v3.464H17.535A2.241,2.241,0,0,0,15.3,47.369V58.878a2.241,2.241,0,0,0,2.235,2.235h3.408V64.8a4.388,4.388,0,0,0,4.414,4.414H59.828A4.388,4.388,0,0,0,64.242,64.8V61.057H67.65a2.241,2.241,0,0,0,2.235-2.235V47.369A2.367,2.367,0,0,0,67.594,45.134ZM29.323,34.519a13.185,13.185,0,1,1,26.371,0v2.738H51.615V34.407a9.135,9.135,0,0,0-18.269,0v2.849H29.267ZM35.3,37.312V34.463a7.177,7.177,0,0,1,7.207-7.151,7.25,7.25,0,0,1,7.207,7.151v2.849ZM22.787,41.67a2.48,2.48,0,0,1,2.458-2.458H59.716a2.48,2.48,0,0,1,2.458,2.458v3.464H22.787ZM62.231,64.8a2.48,2.48,0,0,1-2.458,2.458H25.245A2.48,2.48,0,0,1,22.787,64.8V61.057H62.175Zm5.587-5.922a.264.264,0,0,1-.279.279H17.423a.264.264,0,0,1-.279-.279V47.369a.264.264,0,0,1,.279-.279H67.538a.256.256,0,0,1,.279.223Z" fill="#f6f6f6"/>
      <path id="Trazado_602833" data-name="Trazado 602833" d="M32.748,77.451l-.894-.5.838-.5a.963.963,0,1,0-.95-1.676l-.838.5v-.95a.978.978,0,1,0-1.955,0v1.006l-.838-.5A.977.977,0,0,0,27.105,76.5l.838.5-.838.5a.963.963,0,1,0,.95,1.676l.894-.5v1.006a.978.978,0,1,0,1.955,0V78.68l.894.5A.988.988,0,0,0,32.748,77.451Z" transform="translate(-4.989 -23.825)" fill="#f6f6f6"/>
      <path id="Trazado_602834" data-name="Trazado 602834" d="M53.748,77.451l-.894-.5.838-.5a.963.963,0,1,0-.95-1.676l-.838.5v-.95a.978.978,0,1,0-1.955,0v1.006l-.838-.5A.979.979,0,0,0,48.105,76.5l.838.5-.838.5a.963.963,0,1,0,.95,1.676l.894-.5v1.006a.978.978,0,1,0,1.955,0V78.68l.894.5A.988.988,0,0,0,53.748,77.451Z" transform="translate(-14.256 -23.825)" fill="#f6f6f6"/>
      <path id="Trazado_602835" data-name="Trazado 602835" d="M74.692,77.451l-.838-.5.838-.5a.963.963,0,1,0-.95-1.676l-.838.5v-.95a.978.978,0,1,0-1.955,0v1.006l-.838-.5A.977.977,0,0,0,69.105,76.5l.838.5-.838.5a.963.963,0,1,0,.95,1.676l.894-.5v1.006a.978.978,0,1,0,1.955,0V78.68l.894.5A.975.975,0,0,0,74.692,77.451Z" transform="translate(-23.524 -23.825)" fill="#f6f6f6"/>
      <path id="Trazado_602836" data-name="Trazado 602836" d="M95.648,77.323l-.838-.5.838-.5a.988.988,0,0,0-.95-1.732l-.894.5v-.95a.978.978,0,0,0-1.955,0v1.006l-.838-.5a.977.977,0,0,0-1.006,1.676l.838.5-.838.5A.963.963,0,1,0,90.955,79l.894-.5V79.5a.978.978,0,0,0,1.955,0V78.5l.894.5A.963.963,0,1,0,95.648,77.323Z" transform="translate(-32.747 -23.753)" fill="#f6f6f6"/>
    </g>
  </g>
</svg>
