<svg xmlns="http://www.w3.org/2000/svg" width="85" height="85" viewBox="0 0 85 85">
  <g id="Grupo_159372" data-name="Grupo 159372" transform="translate(9439 4171)">
    <rect id="Rectángulo_46171" data-name="Rectángulo 46171" width="85" height="85" rx="12" transform="translate(-9439 -4171)" fill="#083142"/>
    <g id="google-maps" transform="translate(-9445 -4178.625)">
      <path id="Trazado_602837" data-name="Trazado 602837" d="M180.026,110.054a11.69,11.69,0,1,0-11.7,11.7A11.7,11.7,0,0,0,180.026,110.054Zm-21.057,0a9.367,9.367,0,1,1,9.36,9.374A9.37,9.37,0,0,1,158.97,110.054Z" transform="translate(-119.893 -66.065)" fill="#fff"/>
      <path id="Trazado_602838" data-name="Trazado 602838" d="M218.413,154.252a1.161,1.161,0,0,0-1.161-1.161h-4.292a1.161,1.161,0,0,0,0,2.323H215.9a3.56,3.56,0,1,1-3.369-4.718,1.161,1.161,0,0,0,0-2.323,5.883,5.883,0,1,0,5.886,5.88Z" transform="translate(-164.086 -110.259)" fill="#fff"/>
      <path id="Trazado_602839" data-name="Trazado 602839" d="M90.243,84.116h-5.7a4.642,4.642,0,0,0-4.02-6.968H68.493C75.513,68.729,85.33,64.3,85.33,52.826a19.209,19.209,0,0,0-38.419,0c0,11.474,9.8,15.9,16.82,24.322H51.487a4.642,4.642,0,0,0-4.021,6.968H42.161a1.161,1.161,0,1,0,0,2.323H90.243a1.161,1.161,0,1,0,0-2.323ZM49.234,52.826a16.886,16.886,0,0,1,33.773,0c0,7.15-4.43,11.253-9.56,16.005a67.7,67.7,0,0,0-7.334,7.561C58.937,67.353,49.234,63.394,49.234,52.826Zm2.253,31.29a2.323,2.323,0,1,1,0-4.646H80.522a2.323,2.323,0,1,1,0,4.646Z" transform="translate(-17.677 -8.839)" fill="#fff"/>
      <path id="Trazado_602840" data-name="Trazado 602840" d="M41,327.109a3.484,3.484,0,1,0,3.484-3.484A3.488,3.488,0,0,0,41,327.109Zm4.646,0a1.161,1.161,0,1,1-1.161-1.161A1.163,1.163,0,0,1,45.646,327.109Z" transform="translate(-17.677 -265.159)" fill="#fff"/>
      <path id="Trazado_602841" data-name="Trazado 602841" d="M384.484,30.593A3.484,3.484,0,1,0,381,27.109,3.488,3.488,0,0,0,384.484,30.593Zm0-4.646a1.161,1.161,0,1,1-1.161,1.161A1.163,1.163,0,0,1,384.484,25.948Z" transform="translate(-318.19)" fill="#fff"/>
      <path id="Trazado_602842" data-name="Trazado 602842" d="M415.646,263.625a4.646,4.646,0,1,0,4.646,4.646A4.651,4.651,0,0,0,415.646,263.625Zm0,6.968a2.323,2.323,0,1,1,2.323-2.323A2.325,2.325,0,0,1,415.646,270.593Z" transform="translate(-344.706 -212.127)" fill="#fff"/>
      <path id="Trazado_602843" data-name="Trazado 602843" d="M22.161,45.948h9.291a1.161,1.161,0,1,0,0-2.323H22.161a1.161,1.161,0,1,0,0,2.323Z" transform="translate(0 -17.677)" fill="#fff"/>
      <path id="Trazado_602844" data-name="Trazado 602844" d="M22.161,75.948H29.13a1.161,1.161,0,0,0,0-2.323H22.161a1.161,1.161,0,1,0,0,2.323Z" transform="translate(0 -44.193)" fill="#fff"/>
      <path id="Trazado_602845" data-name="Trazado 602845" d="M27.968,104.786a1.161,1.161,0,0,0-1.161-1.161H22.161a1.161,1.161,0,1,0,0,2.323h4.646A1.161,1.161,0,0,0,27.968,104.786Z" transform="translate(0 -70.709)" fill="#fff"/>
    </g>
  </g>
</svg>
