<svg xmlns="http://www.w3.org/2000/svg" width="85" height="85" viewBox="0 0 85 85">
  <g id="Grupo_159373" data-name="Grupo 159373" transform="translate(9439 3755)">
    <rect id="Rectángulo_46173" data-name="Rectángulo 46173" width="85" height="85" rx="12" transform="translate(-9439 -3755)" fill="#083142"/>
    <g id="algoritmo" transform="translate(-9424 -3740)">
      <g id="Grupo_159301" data-name="Grupo 159301">
        <g id="Grupo_159300" data-name="Grupo 159300">
          <path id="Trazado_602846" data-name="Trazado 602846" d="M51.856,0H2.729A2.732,2.732,0,0,0,0,2.729V51.856a2.732,2.732,0,0,0,2.729,2.729H51.856a2.732,2.732,0,0,0,2.729-2.729V2.729A2.732,2.732,0,0,0,51.856,0Zm.91,51.856a.911.911,0,0,1-.91.91H2.729a.911.911,0,0,1-.91-.91V9.1H52.766V51.856Zm0-44.578H1.82V2.729a.911.911,0,0,1,.91-.91H51.856a.911.911,0,0,1,.91.91Z" fill="#fff"/>
          <path id="Trazado_602847" data-name="Trazado 602847" d="M34.4,34.491a.913.913,0,1,0,1.292,0A.952.952,0,0,0,34.4,34.491Z" transform="translate(-30.494 -30.589)" fill="#fff"/>
          <path id="Trazado_602848" data-name="Trazado 602848" d="M69.685,34.285a.693.693,0,0,0-.164-.082.574.574,0,0,0-.164-.054.873.873,0,0,0-.528.054,1.048,1.048,0,0,0-.3.191.922.922,0,0,0,0,1.292,1.057,1.057,0,0,0,.3.191.909.909,0,0,0,.346.073,1.267,1.267,0,0,0,.182-.018.592.592,0,0,0,.164-.055.7.7,0,0,0,.164-.082l.136-.109c.036-.046.073-.091.109-.146a.5.5,0,0,0,.082-.155.59.59,0,0,0,.055-.164,1.266,1.266,0,0,0,.018-.182.957.957,0,0,0-.264-.646Z" transform="translate(-60.988 -30.491)" fill="#fff"/>
          <path id="Trazado_602849" data-name="Trazado 602849" d="M104.146,34.653a.7.7,0,0,0-.082-.163,1.34,1.34,0,0,0-.109-.136.91.91,0,1,0,0,1.292,1.439,1.439,0,0,0,.109-.136.693.693,0,0,0,.082-.164.59.59,0,0,0,.055-.164,1.267,1.267,0,0,0,.018-.182,1.408,1.408,0,0,0-.018-.182A.59.59,0,0,0,104.146,34.653Z" transform="translate(-91.482 -30.45)" fill="#fff"/>
          <path id="Trazado_602850" data-name="Trazado 602850" d="M201.38,34.133H188.644a.91.91,0,0,0,0,1.819H201.38a.91.91,0,1,0,0-1.819Z" transform="translate(-167.719 -30.494)" fill="#fff"/>
          <path id="Trazado_602851" data-name="Trazado 602851" d="M454.086,34.133h-.91a.91.91,0,0,0,0,1.819h.91a.91.91,0,1,0,0-1.819Z" transform="translate(-404.05 -30.494)" fill="#fff"/>
          <path id="Trazado_602852" data-name="Trazado 602852" d="M411.42,34.133h-.91a.91.91,0,0,0,0,1.819h.91a.91.91,0,1,0,0-1.819Z" transform="translate(-365.933 -30.494)" fill="#fff"/>
          <path id="Trazado_602853" data-name="Trazado 602853" d="M38.68,120.029a4.556,4.556,0,0,0,4.457-3.639h3.354l-1.176,1.176a.91.91,0,1,0,1.286,1.286l2.463-2.463h3.262v1.819a1.821,1.821,0,0,0,1.82,1.82H68.7a1.821,1.821,0,0,0,1.82-1.82v-1.82h9.1v10.917H62.711l1.176-1.176a.91.91,0,1,0-1.286-1.286l-2.463,2.463H57.785v-1.82a1.821,1.821,0,0,0-1.82-1.82H41.41a1.821,1.821,0,0,0-1.82,1.82v5.458a1.821,1.821,0,0,0,1.82,1.82h6.368v3.262L46.6,134.851a.91.91,0,0,0-1.286,1.286l2.463,2.463v1.443H44.139a.909.909,0,0,0-.814.5l-3.639,7.278a.91.91,0,0,0,.814,1.317H53.237a.909.909,0,0,0,.814-.5l1.568-3.136H68.326l-1.176,1.176a.91.91,0,1,0,1.286,1.286L70.9,145.5h1.535a4.549,4.549,0,1,0,0-1.82H70.9l-2.463-2.463a.91.91,0,0,0-1.286,1.286l1.176,1.176h-11.8l1.161-2.322a.91.91,0,0,0-.814-1.317H49.6V138.6l2.463-2.463a.91.91,0,0,0-1.286-1.286L49.6,136.027v-3.262h6.368a1.821,1.821,0,0,0,1.82-1.82v-1.819h2.353l2.463,2.463a.91.91,0,0,0,1.286-1.286l-1.176-1.176H80.529a.91.91,0,0,0,.91-.91V115.48a.91.91,0,0,0-.91-.91H70.522v-1.819a1.821,1.821,0,0,0-1.82-1.82H54.146a1.821,1.821,0,0,0-1.82,1.82v1.82H49.064L46.6,112.107a.91.91,0,0,0-1.286,1.286l1.176,1.176H43.137a4.549,4.549,0,1,0-4.457,5.458ZM76.89,141.863a2.729,2.729,0,1,1-2.729,2.729A2.729,2.729,0,0,1,76.89,141.863Zm-21.487,0-2.729,5.458h-10.7l2.729-5.458ZM41.41,130.946v-5.458H55.966v5.458Zm12.737-18.2H68.7v5.458H54.146Zm-15.466,0a2.729,2.729,0,1,1-2.729,2.729A2.729,2.729,0,0,1,38.68,112.751Z" transform="translate(-30.493 -99.104)" fill="#fff"/>
        </g>
      </g>
    </g>
  </g>
</svg>
