<svg xmlns="http://www.w3.org/2000/svg" xmlns:xlink="http://www.w3.org/1999/xlink" width="85" height="85" viewBox="0 0 85 85">
  <defs>
    <clipPath id="clip-path">
      <rect id="Rect치ngulo_46179" data-name="Rect치ngulo 46179" width="57.575" height="56.392" fill="#fff"/>
    </clipPath>
  </defs>
  <g id="Grupo_159375" data-name="Grupo 159375" transform="translate(9439 2884)">
    <rect id="Rect치ngulo_46177" data-name="Rect치ngulo 46177" width="85" height="85" rx="12" transform="translate(-9439 -2884)" fill="#083142"/>
    <g id="Grupo_159316" data-name="Grupo 159316" transform="translate(-9425 -2870)">
      <g id="Grupo_159315" data-name="Grupo 159315" clip-path="url(#clip-path)">
        <path id="Trazado_602875" data-name="Trazado 602875" d="M162.195,272.505H141.771a2.97,2.97,0,0,1-2.967-2.967v-4.151a2.97,2.97,0,0,1,2.967-2.967h20.424a2.97,2.97,0,0,1,2.967,2.967v4.151a2.97,2.97,0,0,1-2.967,2.967m-20.424-8.4a1.282,1.282,0,0,0-1.28,1.28v4.151a1.282,1.282,0,0,0,1.28,1.28h20.424a1.282,1.282,0,0,0,1.28-1.28v-4.151a1.282,1.282,0,0,0-1.28-1.28Z" transform="translate(-123.195 -232.91)" fill="#fff"/>
        <path id="Trazado_602876" data-name="Trazado 602876" d="M162.195,347.192H141.771a2.97,2.97,0,0,1-2.967-2.967v-4.151a2.97,2.97,0,0,1,2.967-2.967h20.424a2.971,2.971,0,0,1,2.967,2.967v4.151a2.97,2.97,0,0,1-2.967,2.967m-20.424-8.4a1.282,1.282,0,0,0-1.28,1.28v4.151a1.282,1.282,0,0,0,1.28,1.28h20.424a1.282,1.282,0,0,0,1.28-1.28v-4.151a1.282,1.282,0,0,0-1.28-1.28Z" transform="translate(-123.195 -299.199)" fill="#fff"/>
        <path id="Trazado_602877" data-name="Trazado 602877" d="M162.191,421.877H148.916a.843.843,0,0,1,0-1.687h13.275a1.282,1.282,0,0,0,1.281-1.281v-4.151a1.282,1.282,0,0,0-1.281-1.281H141.768a1.282,1.282,0,0,0-1.281,1.281v4.151a1.282,1.282,0,0,0,1.281,1.281h3.213a.843.843,0,0,1,0,1.687h-3.213a2.971,2.971,0,0,1-2.968-2.968v-4.151a2.971,2.971,0,0,1,2.968-2.967h20.423a2.971,2.971,0,0,1,2.968,2.967v4.151a2.971,2.971,0,0,1-2.968,2.968" transform="translate(-123.192 -365.484)" fill="#fff"/>
        <path id="Trazado_602878" data-name="Trazado 602878" d="M167.384,289.239A2.615,2.615,0,1,1,170,286.624a2.618,2.618,0,0,1-2.615,2.615m0-3.543a.928.928,0,1,0,.928.928.929.929,0,0,0-.928-.928" transform="translate(-146.24 -252.072)" fill="#fff"/>
        <path id="Trazado_602879" data-name="Trazado 602879" d="M219.607,289.239a2.615,2.615,0,1,1,2.615-2.615,2.618,2.618,0,0,1-2.615,2.615m0-3.543a.928.928,0,1,0,.928.928.929.929,0,0,0-.928-.928" transform="translate(-192.591 -252.072)" fill="#fff"/>
        <path id="Trazado_602880" data-name="Trazado 602880" d="M167.384,363.927A2.615,2.615,0,1,1,170,361.312a2.618,2.618,0,0,1-2.615,2.615m0-3.543a.928.928,0,1,0,.928.928.929.929,0,0,0-.928-.928" transform="translate(-146.24 -318.361)" fill="#fff"/>
        <path id="Trazado_602881" data-name="Trazado 602881" d="M219.607,363.927a2.615,2.615,0,1,1,2.615-2.615,2.618,2.618,0,0,1-2.615,2.615m0-3.543a.928.928,0,1,0,.928.928.929.929,0,0,0-.928-.928" transform="translate(-192.591 -318.361)" fill="#fff"/>
        <path id="Trazado_602882" data-name="Trazado 602882" d="M167.384,438.613A2.615,2.615,0,1,1,170,436a2.618,2.618,0,0,1-2.615,2.615m0-3.543a.928.928,0,1,0,.928.928.929.929,0,0,0-.928-.928" transform="translate(-146.24 -384.648)" fill="#fff"/>
        <path id="Trazado_602883" data-name="Trazado 602883" d="M219.607,438.613A2.615,2.615,0,1,1,222.222,436a2.618,2.618,0,0,1-2.615,2.615m0-3.543a.928.928,0,1,0,.928.928.929.929,0,0,0-.928-.928" transform="translate(-192.591 -384.648)" fill="#fff"/>
        <path id="Trazado_602884" data-name="Trazado 602884" d="M286.7,376.138h-5.557a.843.843,0,0,1,0-1.687H286.7a.843.843,0,0,1,0,1.687" transform="translate(-248.78 -332.343)" fill="#fff"/>
        <path id="Trazado_602885" data-name="Trazado 602885" d="M286.7,450.824h-5.557a.843.843,0,0,1,0-1.687H286.7a.843.843,0,0,1,0,1.687" transform="translate(-248.78 -398.631)" fill="#fff"/>
        <path id="Trazado_602886" data-name="Trazado 602886" d="M286.7,301.45h-5.557a.843.843,0,0,1,0-1.687H286.7a.843.843,0,0,1,0,1.687" transform="translate(-248.78 -266.054)" fill="#fff"/>
        <path id="Trazado_602887" data-name="Trazado 602887" d="M13.868,83.544H2.131A2.133,2.133,0,0,1,0,81.413v-2.4a.843.843,0,0,1,1.687,0v2.4a.445.445,0,0,0,.444.444H13.868a.444.444,0,0,0,.443-.444V65.842a.444.444,0,0,0-.443-.444H9.336a3.238,3.238,0,0,0-2.275.943L2.629,70.772a3.2,3.2,0,0,0-.943,2.276v2.029a.843.843,0,0,1-1.687,0V73.048a4.873,4.873,0,0,1,1.437-3.468l4.431-4.43a4.869,4.869,0,0,1,3.468-1.438h4.532A2.133,2.133,0,0,1,16,65.842V81.413a2.133,2.133,0,0,1-2.13,2.131" transform="translate(0 -56.547)" fill="#fff"/>
        <path id="Trazado_602888" data-name="Trazado 602888" d="M.843,74.26A.843.843,0,0,1,0,73.417a2.9,2.9,0,0,1,2.893-2.893H6.366a.444.444,0,0,0,.444-.444V66.606A2.9,2.9,0,0,1,9.7,63.713a.843.843,0,1,1,0,1.687A1.207,1.207,0,0,0,8.5,66.606v3.475a2.133,2.133,0,0,1-2.131,2.131H2.893a1.207,1.207,0,0,0-1.206,1.206.843.843,0,0,1-.843.843" transform="translate(0 -56.548)" fill="#fff"/>
        <path id="Trazado_602889" data-name="Trazado 602889" d="M42.231,158.969H35.777a.843.843,0,1,1,0-1.687h6.454a.843.843,0,1,1,0,1.687" transform="translate(-31.006 -139.595)" fill="#fff"/>
        <path id="Trazado_602890" data-name="Trazado 602890" d="M42.231,187.666H35.777a.843.843,0,1,1,0-1.687h6.454a.843.843,0,1,1,0,1.687" transform="translate(-31.006 -165.065)" fill="#fff"/>
        <path id="Trazado_602891" data-name="Trazado 602891" d="M198.737,19.833H187a2.133,2.133,0,0,1-2.13-2.131V9.337a4.874,4.874,0,0,1,1.436-3.468l4.431-4.431A4.873,4.873,0,0,1,194.206,0h4.531a2.133,2.133,0,0,1,2.131,2.131V17.7a2.133,2.133,0,0,1-2.13,2.131M194.206,1.687a3.2,3.2,0,0,0-2.276.943L187.5,7.061a3.2,3.2,0,0,0-.942,2.276V17.7a.444.444,0,0,0,.444.444h11.737a.444.444,0,0,0,.444-.444V2.131a.444.444,0,0,0-.444-.444Z" transform="translate(-164.081)" fill="#fff"/>
        <path id="Trazado_602892" data-name="Trazado 602892" d="M185.712,10.548a.843.843,0,0,1-.843-.843,2.9,2.9,0,0,1,2.893-2.893h3.474a.444.444,0,0,0,.444-.444V2.894A2.9,2.9,0,0,1,194.572,0a.843.843,0,1,1,0,1.687,1.207,1.207,0,0,0-1.206,1.206V6.369A2.133,2.133,0,0,1,191.235,8.5h-3.474A1.207,1.207,0,0,0,186.556,9.7a.843.843,0,0,1-.843.843" transform="translate(-164.08 -0.001)" fill="#fff"/>
        <path id="Trazado_602893" data-name="Trazado 602893" d="M227.1,95.256h-6.454a.843.843,0,1,1,0-1.687H227.1a.843.843,0,0,1,0,1.687" transform="translate(-195.087 -83.047)" fill="#fff"/>
        <path id="Trazado_602894" data-name="Trazado 602894" d="M227.1,123.952h-6.454a.843.843,0,1,1,0-1.687H227.1a.843.843,0,0,1,0,1.687" transform="translate(-195.087 -108.516)" fill="#fff"/>
        <path id="Trazado_602895" data-name="Trazado 602895" d="M383.606,83.544H371.869a2.133,2.133,0,0,1-2.13-2.131V73.049a4.874,4.874,0,0,1,1.436-3.468l4.431-4.431a4.874,4.874,0,0,1,3.469-1.437h4.531a2.133,2.133,0,0,1,2.131,2.131V81.414a2.133,2.133,0,0,1-2.13,2.131M379.075,65.4a3.2,3.2,0,0,0-2.276.943l-4.431,4.431a3.2,3.2,0,0,0-.942,2.276v8.365a.444.444,0,0,0,.444.444h11.737a.444.444,0,0,0,.444-.444V65.843a.444.444,0,0,0-.444-.444Z" transform="translate(-328.161 -56.547)" fill="#fff"/>
        <path id="Trazado_602896" data-name="Trazado 602896" d="M370.581,74.26a.843.843,0,0,1-.843-.843,2.9,2.9,0,0,1,2.893-2.893H376.1a.444.444,0,0,0,.444-.444V66.606a2.9,2.9,0,0,1,2.893-2.893.843.843,0,0,1,0,1.687,1.207,1.207,0,0,0-1.206,1.206v3.475a2.133,2.133,0,0,1-2.131,2.131h-3.474a1.207,1.207,0,0,0-1.206,1.206.843.843,0,0,1-.843.843" transform="translate(-328.16 -56.548)" fill="#fff"/>
        <path id="Trazado_602897" data-name="Trazado 602897" d="M411.969,158.969h-6.454a.843.843,0,1,1,0-1.687h6.454a.843.843,0,1,1,0,1.687" transform="translate(-359.166 -139.595)" fill="#fff"/>
        <path id="Trazado_602898" data-name="Trazado 602898" d="M411.969,187.666h-6.454a.843.843,0,1,1,0-1.687h6.454a.843.843,0,1,1,0,1.687" transform="translate(-359.166 -165.065)" fill="#fff"/>
        <path id="Trazado_602899" data-name="Trazado 602899" d="M27.166,265.193c-.033,0-.066,0-.1,0l-7.371-.436a1.625,1.625,0,0,1-1.261-2.517l.8-1.212a14.463,14.463,0,0,1-2.216-11.491,2.53,2.53,0,0,1,4.932,1.131,9.391,9.391,0,0,0,.43,5.587l.119-.18a1.625,1.625,0,0,1,2.81.166l3.307,6.6a1.625,1.625,0,0,1-1.449,2.353M19.9,263.077l7.158.423-3.211-6.41-.873,1.324a.843.843,0,0,1-1.433-.04,11.09,11.09,0,0,1-1.236-8.085.843.843,0,1,0-1.644-.377,12.786,12.786,0,0,0,2.27,10.583.844.844,0,0,1,.031.972Z" transform="translate(-14.777 -219.73)" fill="#fff"/>
        <path id="Trazado_602900" data-name="Trazado 602900" d="M389.017,265.2a1.626,1.626,0,0,1-1.449-2.352l3.307-6.6a1.625,1.625,0,0,1,2.81-.167l.119.181a9.393,9.393,0,0,0,.43-5.586,2.53,2.53,0,1,1,4.932-1.13,14.387,14.387,0,0,1,.357,2.8.843.843,0,1,1-1.686.047,12.7,12.7,0,0,0-.315-2.473.843.843,0,1,0-1.644.377,11.091,11.091,0,0,1-1.237,8.085.843.843,0,0,1-1.433.039l-.872-1.324-3.211,6.411,7.158-.424-1.061-1.608a.844.844,0,0,1,.031-.973,12.784,12.784,0,0,0,2.166-4.462.843.843,0,0,1,1.631.431,14.465,14.465,0,0,1-2.1,4.561l.8,1.212a1.625,1.625,0,0,1-1.261,2.516l-7.37.436-.1,0" transform="translate(-343.831 -219.733)" fill="#fff"/>
      </g>
    </g>
  </g>
</svg>
