<svg xmlns="http://www.w3.org/2000/svg" width="400" height="378" viewBox="0 0 400 378">
  <g id="Grupo_159408" data-name="Grupo 159408" transform="translate(-1020 -6569)">
    <g id="Grupo_159378" data-name="Grupo 159378">
      <rect id="Rect치ngulo_45564" data-name="Rect치ngulo 45564" width="400" height="378" transform="translate(1020 6569)" fill="#ff8e7c"/>
      <g id="Grupo_157782" data-name="Grupo 157782" transform="translate(833.75 3565)">
        <g id="Grupo_157752" data-name="Grupo 157752" transform="translate(-414.75 2027.2)">
          <rect id="Rect치ngulo_36139" data-name="Rect치ngulo 36139" width="290" height="37" rx="18.5" transform="translate(656 1247)" fill="#fff"/>
          <path id="Feature_One" data-name="Feature One" d="M49.457,14.474h-1.67V19H44.7V6.2h5.036a5.621,5.621,0,0,1,3.56,1.01,3.421,3.421,0,0,1,1.283,2.853,4.155,4.155,0,0,1-.541,2.213A3.837,3.837,0,0,1,52.349,13.7l2.672,5.167V19h-3.3ZM47.787,12.1h1.951a1.751,1.751,0,0,0,1.323-.463,1.788,1.788,0,0,0,.444-1.291,1.809,1.809,0,0,0-.448-1.3,1.735,1.735,0,0,0-1.318-.471H47.787Zm13.122,7.075a4.889,4.889,0,0,1-3.542-1.305,4.507,4.507,0,0,1-1.354-3.4v-.246a5.84,5.84,0,0,1,.541-2.575,3.955,3.955,0,0,1,1.578-1.727,4.763,4.763,0,0,1,2.461-.611,4.117,4.117,0,0,1,3.164,1.244,4.887,4.887,0,0,1,1.16,3.467v1.151H59.028a2.135,2.135,0,0,0,.694,1.257,2.066,2.066,0,0,0,1.389.457,2.662,2.662,0,0,0,2.2-.984l1.354,1.6a3.784,3.784,0,0,1-1.569,1.217A5.3,5.3,0,0,1,60.909,19.176ZM60.575,11.6q-1.3,0-1.547,1.723h2.988v-.229a1.467,1.467,0,0,0-.36-1.1A1.434,1.434,0,0,0,60.575,11.6Zm5.159,2.575a5.809,5.809,0,0,1,.976-3.56,3.211,3.211,0,0,1,2.725-1.3,2.731,2.731,0,0,1,2.145,1V5.5H74.55V19H71.887l-.149-1.02a2.8,2.8,0,0,1-2.32,1.2,3.205,3.205,0,0,1-2.689-1.3A5.993,5.993,0,0,1,65.734,14.175Zm2.962.185q0,2.531,1.477,2.531a1.458,1.458,0,0,0,1.406-.826V12.443A1.419,1.419,0,0,0,70.19,11.6q-1.371,0-1.485,2.215Zm13.2,3.612a3.054,3.054,0,0,1-2.54,1.2,3,3,0,0,1-2.369-.91,3.826,3.826,0,0,1-.8-2.615V9.49h2.962v6.179a1.065,1.065,0,0,0,1.187,1.222,1.548,1.548,0,0,0,1.45-.729V9.49h2.979V19H81.985ZM89.1,9.49l.1,1.116a3.225,3.225,0,0,1,2.716-1.292,2.713,2.713,0,0,1,2.219.888,4.226,4.226,0,0,1,.76,2.672V19H91.926V13a1.6,1.6,0,0,0-.29-1.059,1.342,1.342,0,0,0-1.055-.338,1.413,1.413,0,0,0-1.292.686V19H86.327V9.49Zm7.058,4.685a5.809,5.809,0,0,1,.976-3.56,3.211,3.211,0,0,1,2.725-1.3,2.731,2.731,0,0,1,2.145,1V5.5h2.971V19h-2.663l-.149-1.02a2.8,2.8,0,0,1-2.32,1.2,3.205,3.205,0,0,1-2.689-1.3A5.993,5.993,0,0,1,96.162,14.175Zm2.962.185q0,2.531,1.477,2.531a1.458,1.458,0,0,0,1.406-.826V12.443a1.419,1.419,0,0,0-1.389-.844q-1.371,0-1.485,2.215ZM112.018,19a3.344,3.344,0,0,1-.281-.853,2.754,2.754,0,0,1-2.285,1.028,3.374,3.374,0,0,1-2.285-.813,2.588,2.588,0,0,1-.94-2.043,2.66,2.66,0,0,1,1.143-2.338,5.821,5.821,0,0,1,3.322-.791h.914v-.5q0-1.316-1.134-1.316a.927.927,0,0,0-1.055,1.042h-2.962a2.655,2.655,0,0,1,1.173-2.239,4.931,4.931,0,0,1,2.993-.86,4.323,4.323,0,0,1,2.874.888,3.086,3.086,0,0,1,1.081,2.435v4.21a4.311,4.311,0,0,0,.4,2V19Zm-1.854-1.934a1.652,1.652,0,0,0,.918-.237,1.487,1.487,0,0,0,.523-.536V14.772h-.861q-1.547,0-1.547,1.389a.848.848,0,0,0,.272.655A.986.986,0,0,0,110.163,17.066Zm8.771-7.576.1,1.116a3.225,3.225,0,0,1,2.716-1.292,2.713,2.713,0,0,1,2.219.888,4.226,4.226,0,0,1,.76,2.672V19h-2.971V13a1.6,1.6,0,0,0-.29-1.059,1.342,1.342,0,0,0-1.055-.338,1.413,1.413,0,0,0-1.292.686V19h-2.962V9.49Zm11.452,7.4a1.317,1.317,0,0,0,.967-.338,1.241,1.241,0,0,0,.334-.945h2.777a3.288,3.288,0,0,1-1.121,2.566,4.168,4.168,0,0,1-2.887,1,4.22,4.22,0,0,1-3.27-1.3,5.125,5.125,0,0,1-1.2-3.6v-.123a5.792,5.792,0,0,1,.532-2.544,3.872,3.872,0,0,1,1.534-1.7,4.573,4.573,0,0,1,2.373-.593,4.116,4.116,0,0,1,2.944,1.028,3.647,3.647,0,0,1,1.09,2.786h-2.777a1.626,1.626,0,0,0-.36-1.134,1.244,1.244,0,0,0-.967-.4q-1.151,0-1.345,1.468a10.357,10.357,0,0,0-.062,1.283,4.068,4.068,0,0,0,.343,1.986A1.187,1.187,0,0,0,130.387,16.891ZM138.842,19h-2.971V9.49h2.971ZM135.7,7.038A1.322,1.322,0,0,1,136.152,6a1.943,1.943,0,0,1,2.373,0,1.322,1.322,0,0,1,.457,1.037,1.322,1.322,0,0,1-.457,1.037,1.943,1.943,0,0,1-2.373,0A1.322,1.322,0,0,1,135.7,7.038ZM146.022,19a3.344,3.344,0,0,1-.281-.853,2.754,2.754,0,0,1-2.285,1.028,3.374,3.374,0,0,1-2.285-.813,2.588,2.588,0,0,1-.94-2.043,2.66,2.66,0,0,1,1.143-2.338,5.821,5.821,0,0,1,3.322-.791h.914v-.5q0-1.316-1.134-1.316a.927.927,0,0,0-1.055,1.042h-2.962a2.655,2.655,0,0,1,1.173-2.239,4.931,4.931,0,0,1,2.993-.86,4.323,4.323,0,0,1,2.874.888,3.086,3.086,0,0,1,1.081,2.435v4.21a4.311,4.311,0,0,0,.4,2V19Zm-1.854-1.934a1.652,1.652,0,0,0,.918-.237,1.487,1.487,0,0,0,.523-.536V14.772h-.861q-1.547,0-1.547,1.389a.848.848,0,0,0,.272.655A.986.986,0,0,0,144.168,17.066Zm10.16-2.892a5.809,5.809,0,0,1,.976-3.56,3.211,3.211,0,0,1,2.725-1.3,2.731,2.731,0,0,1,2.145,1V5.5h2.971V19H160.48l-.149-1.02a2.8,2.8,0,0,1-2.32,1.2,3.205,3.205,0,0,1-2.689-1.3A5.993,5.993,0,0,1,154.328,14.175Zm2.962.185q0,2.531,1.477,2.531a1.458,1.458,0,0,0,1.406-.826V12.443a1.419,1.419,0,0,0-1.389-.844q-1.371,0-1.485,2.215Zm12.138,4.816a4.889,4.889,0,0,1-3.542-1.305,4.507,4.507,0,0,1-1.354-3.4v-.246a5.84,5.84,0,0,1,.541-2.575,3.955,3.955,0,0,1,1.578-1.727,4.763,4.763,0,0,1,2.461-.611,4.117,4.117,0,0,1,3.164,1.244,4.887,4.887,0,0,1,1.16,3.467v1.151h-5.889a2.135,2.135,0,0,0,.694,1.257,2.066,2.066,0,0,0,1.389.457,2.662,2.662,0,0,0,2.2-.984l1.354,1.6a3.784,3.784,0,0,1-1.569,1.217A5.3,5.3,0,0,1,169.428,19.176Zm-.334-7.576q-1.3,0-1.547,1.723h2.988v-.229a1.467,1.467,0,0,0-.36-1.1A1.434,1.434,0,0,0,169.094,11.6Zm18.844,2.716a5.735,5.735,0,0,1-1,3.538,3.2,3.2,0,0,1-2.694,1.323,2.742,2.742,0,0,1-2.153-.958v4.438h-2.962V9.49H181.9l.088.879a2.742,2.742,0,0,1,2.241-1.055,3.224,3.224,0,0,1,2.733,1.3,5.805,5.805,0,0,1,.976,3.564Zm-2.962-.185q0-2.531-1.477-2.531a1.394,1.394,0,0,0-1.406.756V16.1a1.439,1.439,0,0,0,1.424.791q1.415,0,1.459-2.443Zm3.894.026a5.613,5.613,0,0,1,.554-2.536,3.96,3.96,0,0,1,1.591-1.709,4.791,4.791,0,0,1,2.435-.6,4.373,4.373,0,0,1,3.366,1.323,5.076,5.076,0,0,1,1.23,3.6v.105a4.925,4.925,0,0,1-1.235,3.529,4.384,4.384,0,0,1-3.344,1.305,4.434,4.434,0,0,1-3.261-1.217,4.761,4.761,0,0,1-1.327-3.3Zm2.962.185a3.538,3.538,0,0,0,.413,1.934,1.376,1.376,0,0,0,1.222.615q1.582,0,1.617-2.435v-.3q0-2.558-1.635-2.558-1.485,0-1.608,2.206Zm7.146-.167a5.809,5.809,0,0,1,.976-3.56,3.211,3.211,0,0,1,2.725-1.3,2.731,2.731,0,0,1,2.145,1V5.5h2.971V19h-2.663l-.149-1.02a2.8,2.8,0,0,1-2.32,1.2,3.205,3.205,0,0,1-2.689-1.3A5.993,5.993,0,0,1,198.977,14.175Zm2.962.185q0,2.531,1.477,2.531a1.458,1.458,0,0,0,1.406-.826V12.443a1.419,1.419,0,0,0-1.389-.844q-1.371,0-1.485,2.215Zm12.138,4.816a4.889,4.889,0,0,1-3.542-1.305,4.507,4.507,0,0,1-1.354-3.4v-.246a5.84,5.84,0,0,1,.541-2.575A3.955,3.955,0,0,1,211.3,9.925a4.763,4.763,0,0,1,2.461-.611,4.117,4.117,0,0,1,3.164,1.244,4.887,4.887,0,0,1,1.16,3.467v1.151H212.2a2.135,2.135,0,0,0,.694,1.257,2.066,2.066,0,0,0,1.389.457,2.662,2.662,0,0,0,2.2-.984l1.354,1.6a3.784,3.784,0,0,1-1.569,1.217A5.3,5.3,0,0,1,214.076,19.176Zm-.334-7.576q-1.3,0-1.547,1.723h2.988v-.229a1.467,1.467,0,0,0-.36-1.1A1.434,1.434,0,0,0,213.742,11.6Zm11.285.571-.976-.07a1.752,1.752,0,0,0-1.793.879V19H219.3V9.49h2.777l.1,1.222a2.294,2.294,0,0,1,2.083-1.4,2.888,2.888,0,0,1,.826.105Z" transform="translate(667 1253)" fill="#12263f"/>
        </g>
        <g id="Elipse_5562" data-name="Elipse 5562" transform="translate(496 3279.2)" fill="#fff" stroke="#707070" stroke-width="1">
          <circle cx="14" cy="14" r="14" stroke="none"/>
          <circle cx="14" cy="14" r="13.5" fill="none"/>
        </g>
        <path id="Icon_ionic-ios-arrow-back" data-name="Icon ionic-ios-arrow-back" d="M1.94,5.9,6.2,1.437A.868.868,0,0,0,6.2.246a.782.782,0,0,0-1.139,0L.234,5.3A.871.871,0,0,0,.211,6.464l4.846,5.09a.783.783,0,0,0,1.139,0,.868.868,0,0,0,0-1.191Z" transform="translate(515.8 3289.201) rotate(90)" fill="#636363"/>
      </g>
      <ellipse id="Elipse_5570" data-name="Elipse 5570" cx="90.5" cy="91" rx="90.5" ry="91" transform="translate(1130 6639)" fill="#ffe7e3"/>
      <g id="planta-de-energia" transform="translate(1165 6669.453)">
        <path id="Trazado_601513" data-name="Trazado 601513" d="M31.108,361.467H90.57v29.715H31.108Z" transform="translate(-24.335 -277.648)" fill="#e7ecf6"/>
        <path id="Trazado_601514" data-name="Trazado 601514" d="M31.108,361.468V364.5H84.259a2.579,2.579,0,0,1,2.579,2.579v24.1H90.57V361.468Z" transform="translate(-24.335 -277.649)" fill="#d8e2f1"/>
        <path id="Trazado_601515" data-name="Trazado 601515" d="M31.108,104.461H90.57v50.208H31.108Z" transform="translate(-24.335 -76.597)" fill="#e7ecf6"/>
        <path id="Trazado_601516" data-name="Trazado 601516" d="M286.083,104.461h3.95v50.208h-3.95Z" transform="translate(-223.798 -76.597)" fill="#d8e2f1"/>
        <path id="Trazado_601517" data-name="Trazado 601517" d="M79.957,340.819H14.611a.831.831,0,0,1-.831-.831V335.9a.831.831,0,0,1,.831-.831H79.957a.831.831,0,0,1,.831.831v4.085A.831.831,0,0,1,79.957,340.819Z" transform="translate(-10.78 -257)" fill="#eab14d"/>
        <path id="Trazado_601518" data-name="Trazado 601518" d="M303.546,335.072H299.6a.831.831,0,0,1,.831.831v4.085a.831.831,0,0,1-.831.831h3.95a.831.831,0,0,0,.831-.831V335.9A.831.831,0,0,0,303.546,335.072Z" transform="translate(-234.369 -257)" fill="#e49542"/>
        <path id="Trazado_601519" data-name="Trazado 601519" d="M65.588,14.048h44.449V33.732H65.588Z" transform="translate(-51.308 -5.868)" fill="#eab14d"/>
        <path id="Trazado_601520" data-name="Trazado 601520" d="M251.6,14.048h3.95V33.732H251.6Z" transform="translate(-196.825 -5.868)" fill="#e49542"/>
        <path id="Trazado_601521" data-name="Trazado 601521" d="M106.216,426.885h26.758v15.472H106.216Z" transform="translate(-83.091 -328.824)" fill="#d3effb"/>
        <path id="Trazado_601522" data-name="Trazado 601522" d="M213.488,426.885h3.4v15.472h-3.4Z" transform="translate(-167.008 -328.824)" fill="#b1e4f9"/>
        <path id="Trazado_601523" data-name="Trazado 601523" d="M77.286,254.039H70.472a.543.543,0,0,1-.543-.543V240.835a.543.543,0,0,1,.543-.543h6.814a.543.543,0,0,1,.543.543V253.5A.543.543,0,0,1,77.286,254.039Z" transform="translate(-54.704 -182.855)" fill="#d3effb"/>
        <path id="Trazado_601524" data-name="Trazado 601524" d="M94.227,240.293H91.585a.543.543,0,0,1,.543.543V253.5a.543.543,0,0,1-.543.543h2.642a.543.543,0,0,0,.543-.543V240.836A.543.543,0,0,0,94.227,240.293Z" transform="translate(-71.645 -182.856)" fill="#b1e4f9"/>
        <path id="Trazado_601525" data-name="Trazado 601525" d="M156.881,254.039h-6.814a.543.543,0,0,1-.543-.543V240.835a.543.543,0,0,1,.543-.543h6.814a.543.543,0,0,1,.543.543V253.5A.543.543,0,0,1,156.881,254.039Z" transform="translate(-116.97 -182.855)" fill="#d3effb"/>
        <path id="Trazado_601526" data-name="Trazado 601526" d="M173.822,240.293H171.18a.543.543,0,0,1,.543.543V253.5a.543.543,0,0,1-.543.543h2.642a.543.543,0,0,0,.543-.543V240.836A.543.543,0,0,0,173.822,240.293Z" transform="translate(-133.911 -182.856)" fill="#b1e4f9"/>
        <path id="Trazado_601527" data-name="Trazado 601527" d="M236.476,254.039h-6.814a.543.543,0,0,1-.543-.543V240.835a.543.543,0,0,1,.543-.543h6.814a.543.543,0,0,1,.543.543V253.5A.543.543,0,0,1,236.476,254.039Z" transform="translate(-179.236 -182.855)" fill="#d3effb"/>
        <path id="Trazado_601528" data-name="Trazado 601528" d="M253.417,240.293h-2.642a.543.543,0,0,1,.543.543V253.5a.543.543,0,0,1-.543.543h2.642a.543.543,0,0,0,.543-.543V240.836A.543.543,0,0,0,253.417,240.293Z" transform="translate(-196.177 -182.856)" fill="#b1e4f9"/>
        <path id="Trazado_601529" data-name="Trazado 601529" d="M77.286,149.847H70.472a.543.543,0,0,1-.543-.543V136.643a.543.543,0,0,1,.543-.543h6.814a.543.543,0,0,1,.543.543V149.3A.543.543,0,0,1,77.286,149.847Z" transform="translate(-54.704 -101.347)" fill="#d3effb"/>
        <path id="Trazado_601530" data-name="Trazado 601530" d="M94.227,136.1H91.585a.543.543,0,0,1,.543.543V149.3a.543.543,0,0,1-.543.543h2.642a.543.543,0,0,0,.543-.543V136.643A.543.543,0,0,0,94.227,136.1Z" transform="translate(-71.645 -101.347)" fill="#b1e4f9"/>
        <path id="Trazado_601531" data-name="Trazado 601531" d="M156.881,149.847h-6.814a.543.543,0,0,1-.543-.543V136.643a.543.543,0,0,1,.543-.543h6.814a.543.543,0,0,1,.543.543V149.3A.543.543,0,0,1,156.881,149.847Z" transform="translate(-116.97 -101.347)" fill="#d3effb"/>
        <path id="Trazado_601532" data-name="Trazado 601532" d="M173.822,136.1H171.18a.543.543,0,0,1,.543.543V149.3a.543.543,0,0,1-.543.543h2.642a.543.543,0,0,0,.543-.543V136.643A.543.543,0,0,0,173.822,136.1Z" transform="translate(-133.911 -101.347)" fill="#b1e4f9"/>
        <path id="Trazado_601533" data-name="Trazado 601533" d="M236.476,149.847h-6.814a.543.543,0,0,1-.543-.543V136.643a.543.543,0,0,1,.543-.543h6.814a.543.543,0,0,1,.543.543V149.3A.543.543,0,0,1,236.476,149.847Z" transform="translate(-179.236 -101.347)" fill="#d3effb"/>
        <path id="Trazado_601534" data-name="Trazado 601534" d="M253.417,136.1h-2.642a.543.543,0,0,1,.543.543V149.3a.543.543,0,0,1-.543.543h2.642a.543.543,0,0,0,.543-.543V136.643A.543.543,0,0,0,253.417,136.1Z" transform="translate(-196.177 -101.347)" fill="#b1e4f9"/>
        <g id="Grupo_157812" data-name="Grupo 157812" transform="translate(0 6.547)">
          <path id="Trazado_601535" data-name="Trazado 601535" d="M109.838,111.9H107.03l-6.548-58.384.984,0a1.633,1.633,0,0,0-.007-3.266h-.008l-2.98.014V44.38h1.987a1.633,1.633,0,1,0,0-3.266H98.471v-2.2H98.5a1.633,1.633,0,1,0,0-3.266h-.027v-.494a1.633,1.633,0,1,0-3.266,0v.494h-.027a1.633,1.633,0,1,0,0,3.266h.027v2.2H93.218a1.633,1.633,0,1,0,0,3.266h1.987v5.9l-9.6.045V44.38h1.986a1.633,1.633,0,1,0,0-3.266H85.606v-2.2h.027a1.633,1.633,0,1,0,0-3.266h-.027v-.494a1.633,1.633,0,1,0-3.266,0v.494h-.027a1.633,1.633,0,1,0,0,3.266h.027v2.2H80.354a1.633,1.633,0,1,0,0,3.266h1.987v5.956l-3,.014a1.633,1.633,0,0,0,.007,3.266h.008l.958,0-1,8.906a8.423,8.423,0,0,0-6.634.314,9.2,9.2,0,0,0-4.218,4.789c-.239.484-.433.856-.6,1.139v-40.9a1.633,1.633,0,0,0-1.633-1.633H60.361V8.18a1.633,1.633,0,0,0-1.633-1.633H51.446a1.633,1.633,0,0,0,0,3.266H57.1V26.231H15.913V9.813h29a1.633,1.633,0,1,0,0-3.266H14.28A1.633,1.633,0,0,0,12.647,8.18V26.231H6.773A1.633,1.633,0,0,0,5.14,27.864V76.439H3.831A2.466,2.466,0,0,0,1.367,78.9v4.085a2.466,2.466,0,0,0,2.463,2.463H5.14V111.9H1.633a1.633,1.633,0,1,0,0,3.266h108.2a1.633,1.633,0,1,0,0-3.265Zm-32.771,0,1.552-13.838L99.922,105l-15.1,6.9Zm5.23-46.63v-.006l.234-2.085L96.5,69.5,81.108,75.869Zm20.389,37.19L82.5,95.893l18.714-6.527Zm-1.994-17.777-16.9-6.393,15.464-6.4Zm-20.11-4.116,17.241,6.522-18.7,6.523ZM103.2,107.087l.54,4.815H92.677ZM98.7,66.912,84.667,60.562l11.551-7.025.98,0ZM89.885,53.567l-6.734,4.1.456-4.067ZM8.406,29.5H64.6V76.439H8.406ZM4.633,79.705H68.375v2.481H4.633ZM24.758,99.694H34.871V111.9H24.758ZM38.137,111.9V99.695H48.25V111.9Zm13.379,0V99.695h.2a1.633,1.633,0,1,0,0-3.266H21.3a1.633,1.633,0,1,0,0,3.266h.2V111.9H8.406V85.452H64.6V94.8a1.633,1.633,0,1,0,3.266,0V85.452h1.309a2.466,2.466,0,0,0,2.463-2.463V78.9a2.466,2.466,0,0,0-2.463-2.463H67.868V72.753c1.938-.471,2.834-2.28,3.528-3.685.67-1.355,1.3-2.635,2.675-3.279a5.339,5.339,0,0,1,4.868.12L73.781,111.9H67.868V101.326a1.633,1.633,0,1,0-3.266,0V111.9Z" transform="translate(0 -6.547)"/>
          <path id="Trazado_601536" data-name="Trazado 601536" d="M93.909,42.2a1.633,1.633,0,0,0,2.275-.4l4.075-5.8a1.633,1.633,0,0,0-1.336-2.572H97.1l.929-1.264A1.633,1.633,0,1,0,95.4,30.233L92.561,34.1a1.633,1.633,0,0,0,1.316,2.6h1.9l-2.267,3.224a1.632,1.632,0,0,0,.4,2.275Z" transform="translate(-72.161 -24.555)"/>
          <path id="Trazado_601537" data-name="Trazado 601537" d="M164.351,36.007h-16.47a1.633,1.633,0,1,0,0,3.266h16.47a1.633,1.633,0,1,0,0-3.266Z" transform="translate(-114.407 -29.593)"/>
          <path id="Trazado_601538" data-name="Trazado 601538" d="M164.351,67.5h-16.47a1.633,1.633,0,1,0,0,3.266h16.47a1.633,1.633,0,1,0,0-3.266Z" transform="translate(-114.407 -54.23)"/>
          <path id="Trazado_601539" data-name="Trazado 601539" d="M71.419,232.792H64.6a2.178,2.178,0,0,0-2.176,2.176v12.66A2.178,2.178,0,0,0,64.6,249.8h6.814a2.178,2.178,0,0,0,2.176-2.176v-12.66A2.179,2.179,0,0,0,71.419,232.792Zm-1.09,13.747H65.695V236.058h4.635Z" transform="translate(-48.837 -183.535)"/>
          <path id="Trazado_601540" data-name="Trazado 601540" d="M230.609,232.792h-6.815a2.178,2.178,0,0,0-2.176,2.176v12.66a2.178,2.178,0,0,0,2.176,2.176h6.815a2.178,2.178,0,0,0,2.176-2.176v-12.66A2.178,2.178,0,0,0,230.609,232.792Zm-1.09,13.747h-4.634V236.058h4.634Z" transform="translate(-173.369 -183.535)"/>
          <path id="Trazado_601541" data-name="Trazado 601541" d="M71.419,128.6H64.6a2.178,2.178,0,0,0-2.176,2.176v12.661a2.178,2.178,0,0,0,2.176,2.176h6.814a2.178,2.178,0,0,0,2.176-2.176V130.776a2.178,2.178,0,0,0-2.176-2.176Zm-1.09,13.747H65.695V131.866h4.635Z" transform="translate(-48.837 -102.027)"/>
          <path id="Trazado_601542" data-name="Trazado 601542" d="M151.013,128.6H144.2a2.178,2.178,0,0,0-2.176,2.176v12.661a2.178,2.178,0,0,0,2.176,2.176h6.815a2.178,2.178,0,0,0,2.176-2.176V130.776a2.178,2.178,0,0,0-2.176-2.176Zm-1.09,13.747h-4.635V131.866h4.635Z" transform="translate(-111.102 -102.027)"/>
          <path id="Trazado_601543" data-name="Trazado 601543" d="M230.609,128.6h-6.815a2.178,2.178,0,0,0-2.176,2.176v12.661a2.178,2.178,0,0,0,2.176,2.176h6.815a2.178,2.178,0,0,0,2.176-2.176V130.776a2.178,2.178,0,0,0-2.176-2.176Zm-1.09,13.747h-4.634V131.866h4.634Z" transform="translate(-173.369 -102.027)"/>
          <path id="Trazado_601544" data-name="Trazado 601544" d="M151.014,232.792H144.2a2.178,2.178,0,0,0-2.176,2.176v3.968a1.633,1.633,0,1,0,3.266,0v-2.878h4.634v10.481H145.29v-1.074a1.633,1.633,0,1,0-3.266,0v2.164A2.178,2.178,0,0,0,144.2,249.8h6.815a2.178,2.178,0,0,0,2.176-2.176v-12.66A2.178,2.178,0,0,0,151.014,232.792Z" transform="translate(-111.103 -183.535)"/>
        </g>
      </g>
    </g>
  </g>
</svg>
