<svg xmlns="http://www.w3.org/2000/svg" width="100" height="90.629" viewBox="0 0 100 90.629">
  <g id="_12._Verification" data-name="12. Verification" transform="translate(0 -24)">
    <rect id="Rectángulo_45435" data-name="Rectángulo 45435" width="59" height="78" rx="1" transform="translate(2 26)" fill="#c1d1f7"/>
    <path id="Trazado_601010" data-name="Trazado 601010" d="M64.252,395.125H11.125A3.125,3.125,0,0,1,8,392v4.688a3.125,3.125,0,0,0,3.125,3.125H64.252a3.125,3.125,0,0,0,3.125-3.125V392A3.125,3.125,0,0,1,64.252,395.125Z" transform="translate(-6.437 -296.122)" fill="#adbeee"/>
    <path id="Trazado_601011" data-name="Trazado 601011" d="M57.815,105.254H17.188a1.563,1.563,0,1,1,0-3.125H57.815a1.563,1.563,0,0,0,1.563-1.563V28.688a1.563,1.563,0,0,0-1.563-1.563H4.688a1.563,1.563,0,0,0-1.563,1.563v71.878a1.563,1.563,0,0,0,1.563,1.563h6.25a1.563,1.563,0,1,1,0,3.125H4.688A4.688,4.688,0,0,1,0,100.566V28.688A4.688,4.688,0,0,1,4.688,24H57.815A4.688,4.688,0,0,1,62.5,28.688v71.878A4.688,4.688,0,0,1,57.815,105.254Z"/>
    <path id="Trazado_601012" data-name="Trazado 601012" d="M147.378,95.626V155a3.125,3.125,0,0,1-3.125,3.125H91.125A3.125,3.125,0,0,1,88,155V83.125A3.125,3.125,0,0,1,91.125,80h40.627Z" transform="translate(-70.812 -45.062)" fill="#fff"/>
    <path id="Trazado_601013" data-name="Trazado 601013" d="M144.252,443.125H91.125A3.125,3.125,0,0,1,88,440v4.688a3.125,3.125,0,0,0,3.125,3.125h53.127a3.125,3.125,0,0,0,3.125-3.125V440A3.125,3.125,0,0,1,144.252,443.125Z" transform="translate(-70.812 -334.746)" fill="#f3f9ff"/>
    <path id="Trazado_601014" data-name="Trazado 601014" d="M137.815,153.254H84.688A4.688,4.688,0,0,1,80,148.566V76.688A4.688,4.688,0,0,1,84.688,72h40.627a1.563,1.563,0,0,1,1.106.457l15.626,15.626a1.563,1.563,0,0,1,.457,1.106v6.25a1.563,1.563,0,0,1-3.125,0v-5.6l-14.71-14.71H84.688a1.563,1.563,0,0,0-1.563,1.563v71.878a1.563,1.563,0,0,0,1.563,1.563h53.127a1.563,1.563,0,0,0,1.563-1.563V104.814a1.563,1.563,0,0,1,3.125,0v43.752A4.688,4.688,0,0,1,137.815,153.254Z" transform="translate(-64.374 -38.625)"/>
    <path id="Trazado_601015" data-name="Trazado 601015" d="M321.188,90.746h-12.5A4.688,4.688,0,0,1,304,86.058v-12.5a1.563,1.563,0,0,1,2.668-1.106l15.626,15.626a1.563,1.563,0,0,1-1.105,2.668ZM307.125,77.329v8.729a1.563,1.563,0,0,0,1.563,1.563h8.729Z" transform="translate(-244.622 -38.619)"/>
    <path id="Trazado_601016" data-name="Trazado 601016" d="M327.626,95.626h-12.5A3.125,3.125,0,0,1,312,92.5V80Z" transform="translate(-251.06 -45.062)" fill="#afafaf"/>
    <path id="Trazado_601017" data-name="Trazado 601017" d="M321.188,90.746h-12.5A4.688,4.688,0,0,1,304,86.058v-12.5a1.563,1.563,0,0,1,2.668-1.106l15.626,15.626a1.563,1.563,0,0,1-1.105,2.668ZM307.125,77.329v8.729a1.563,1.563,0,0,0,1.563,1.563h8.729Z" transform="translate(-244.622 -38.619)"/>
    <path id="Trazado_601018" data-name="Trazado 601018" d="M136,128h25v6.25H136Z" transform="translate(-109.436 -83.687)" fill="#ff6148"/>
    <path id="Trazado_601019" data-name="Trazado 601019" d="M154.564,129.375h-25A1.563,1.563,0,0,1,128,127.813v-6.25A1.563,1.563,0,0,1,129.563,120h25a1.563,1.563,0,0,1,1.563,1.563v6.25A1.563,1.563,0,0,1,154.564,129.375Zm-23.439-3.125H153v-3.125H131.125Z" transform="translate(-102.999 -77.249)"/>
    <path id="Trazado_601020" data-name="Trazado 601020" d="M136,200h9.375v9.375H136Z" transform="translate(-109.436 -141.624)" fill="#2efec7"/>
    <path id="Trazado_601021" data-name="Trazado 601021" d="M138.938,204.5h-9.375A1.563,1.563,0,0,1,128,202.938v-9.375A1.563,1.563,0,0,1,129.563,192h9.375a1.563,1.563,0,0,1,1.563,1.563v9.375A1.563,1.563,0,0,1,138.938,204.5Zm-7.813-3.125h6.25v-6.25h-6.25Z" transform="translate(-102.999 -135.186)"/>
    <path id="Trazado_601022" data-name="Trazado 601022" d="M228.313,195.125H209.563a1.563,1.563,0,0,1,0-3.125h18.751a1.563,1.563,0,0,1,0,3.125Z" transform="translate(-167.373 -135.186)"/>
    <path id="Trazado_601023" data-name="Trazado 601023" d="M228.313,227.125H209.563a1.563,1.563,0,1,1,0-3.125h18.751a1.563,1.563,0,1,1,0,3.125Z" transform="translate(-167.373 -160.936)"/>
    <path id="Trazado_601024" data-name="Trazado 601024" d="M136,288h9.375v9.375H136Z" transform="translate(-109.436 -212.435)" fill="#2efec7"/>
    <path id="Trazado_601025" data-name="Trazado 601025" d="M138.938,292.5h-9.375A1.563,1.563,0,0,1,128,290.938v-9.375A1.563,1.563,0,0,1,129.563,280h9.375a1.563,1.563,0,0,1,1.563,1.563v9.375A1.563,1.563,0,0,1,138.938,292.5Zm-7.813-3.125h6.25v-6.25h-6.25Z" transform="translate(-102.999 -205.998)"/>
    <path id="Trazado_601026" data-name="Trazado 601026" d="M228.313,283.125H209.563a1.563,1.563,0,1,1,0-3.125h18.751a1.563,1.563,0,1,1,0,3.125Z" transform="translate(-167.373 -205.998)"/>
    <path id="Trazado_601027" data-name="Trazado 601027" d="M228.313,315.125H209.563a1.563,1.563,0,1,1,0-3.125h18.751a1.563,1.563,0,1,1,0,3.125Z" transform="translate(-167.373 -231.748)"/>
    <path id="Trazado_601028" data-name="Trazado 601028" d="M136,376h9.375v9.375H136Z" transform="translate(-109.436 -283.247)" fill="#2efec7"/>
    <path id="Trazado_601029" data-name="Trazado 601029" d="M138.938,380.5h-9.375A1.563,1.563,0,0,1,128,378.938v-9.375A1.563,1.563,0,0,1,129.563,368h9.375a1.563,1.563,0,0,1,1.563,1.563v9.375A1.563,1.563,0,0,1,138.938,380.5Zm-7.813-3.125h6.25v-6.25h-6.25Z" transform="translate(-102.999 -276.81)"/>
    <path id="Trazado_601030" data-name="Trazado 601030" d="M228.313,371.125H209.563a1.563,1.563,0,1,1,0-3.125h18.751a1.563,1.563,0,1,1,0,3.125Z" transform="translate(-167.373 -276.81)"/>
    <path id="Trazado_601031" data-name="Trazado 601031" d="M228.313,403.125H209.563a1.563,1.563,0,1,1,0-3.125h18.751a1.563,1.563,0,1,1,0,3.125Z" transform="translate(-167.373 -302.559)"/>
    <path id="Trazado_601032" data-name="Trazado 601032" d="M398.25,368,392,374.25l14.331,14.331a4.42,4.42,0,1,0,6.251-6.251Z" transform="translate(-315.434 -276.81)" fill="#e38343"/>
    <path id="Trazado_601033" data-name="Trazado 601033" d="M409.456,398.331,395.125,384,392,387.125l14.331,14.331a4.424,4.424,0,0,0,7.395-1.981A4.424,4.424,0,0,1,409.456,398.331Z" transform="translate(-315.434 -289.684)" fill="#df6117"/>
    <path id="Trazado_601034" data-name="Trazado 601034" d="M403.013,384.972a5.942,5.942,0,0,1-4.229-1.758l-14.333-14.331a1.563,1.563,0,0,1,0-2.211l6.25-6.25a1.563,1.563,0,0,1,2.211,0l14.325,14.339a5.981,5.981,0,0,1-4.225,10.211Zm-15.247-17.188,13.221,13.227a2.862,2.862,0,1,0,4.047-4.047l-13.227-13.221Z" transform="translate(-308.992 -270.343)"/>
    <ellipse id="Elipse_5549" data-name="Elipse 5549" cx="20.5" cy="20" rx="20.5" ry="20" transform="translate(47 62)" fill="#596060"/>
    <path id="Trazado_601035" data-name="Trazado 601035" d="M260.311,325.966A20.314,20.314,0,0,1,240.133,308a20.313,20.313,0,1,0,40.357,0A20.313,20.313,0,0,1,260.311,325.966Z" transform="translate(-193.121 -228.525)" fill="#4c5657"/>
    <path id="Trazado_601036" data-name="Trazado 601036" d="M253.876,251.752a21.876,21.876,0,1,1,21.876-21.876A21.876,21.876,0,0,1,253.876,251.752Zm0-40.627a18.751,18.751,0,1,0,18.751,18.751,18.751,18.751,0,0,0-18.751-18.751Z" transform="translate(-186.686 -148.061)"/>
    <circle id="Elipse_5550" data-name="Elipse 5550" cx="14" cy="14" r="14" transform="translate(53 68)" fill="#ff8875"/>
    <path id="Trazado_601037" data-name="Trazado 601037" d="M286.062,252.727a14.064,14.064,0,0,1,13.868,11.721,14.063,14.063,0,1,0-27.736,0A14.063,14.063,0,0,1,286.062,252.727Z" transform="translate(-218.872 -180.287)" fill="#ff6148"/>
    <path id="Trazado_601038" data-name="Trazado 601038" d="M279.626,271.251a15.626,15.626,0,1,1,15.626-15.626A15.626,15.626,0,0,1,279.626,271.251Zm0-28.126a12.5,12.5,0,1,0,12.5,12.5A12.5,12.5,0,0,0,279.626,243.125Z" transform="translate(-212.435 -173.811)"/>
    <path id="Trazado_601039" data-name="Trazado 601039" d="M317.141,306.477l-4.688-4.688a1.563,1.563,0,1,1,2.211-2.211l3.582,3.584,6.707-6.709a1.563,1.563,0,0,1,2.211,2.211l-7.813,7.813a1.563,1.563,0,0,1-2.211,0Z" transform="translate(-251.056 -218.869)"/>
  </g>
</svg>
