<svg xmlns="http://www.w3.org/2000/svg" width="881" height="293" viewBox="0 0 881 293">
  <g id="Grupo_159409" data-name="Grupo 159409" transform="translate(-378 -4196)">
    <path id="Trazado_601045" data-name="Trazado 601045" d="M10,0H871a10,10,0,0,1,10,10V293H0V10A10,10,0,0,1,10,0Z" transform="translate(378 4196)" fill="#fff"/>
    <path id="Trazado_602918" data-name="Trazado 602918" d="M5,0H117a5,5,0,0,1,5,5V41a5,5,0,0,1-5,5H5a5,5,0,0,1-5-5V5A5,5,0,0,1,5,0Z" transform="translate(582 4216)" fill="#ffca28"/>
    <path id="Trazado_602919" data-name="Trazado 602919" d="M5,0H117a5,5,0,0,1,5,5V40a5,5,0,0,1-5,5H5a5,5,0,0,1-5-5V5A5,5,0,0,1,5,0Z" transform="translate(656 4269)" fill="#ffca28"/>
    <path id="Trazado_602920" data-name="Trazado 602920" d="M5,0H118a5,5,0,0,1,5,5V41a5,5,0,0,1-5,5H5a5,5,0,0,1-5-5V5A5,5,0,0,1,5,0Z" transform="translate(730 4321)" fill="#ffca28"/>
    <path id="Trazado_602921" data-name="Trazado 602921" d="M5,0H116a5,5,0,0,1,5,5V41a5,5,0,0,1-5,5H5a5,5,0,0,1-5-5V5A5,5,0,0,1,5,0Z" transform="translate(805 4375)" fill="#ffca28"/>
    <path id="Trazado_602922" data-name="Trazado 602922" d="M5,0H117a5,5,0,0,1,5,5V40a5,5,0,0,1-5,5H5a5,5,0,0,1-5-5V5A5,5,0,0,1,5,0Z" transform="translate(878 4428)" fill="#ffca28"/>
    <g id="Grupo_20903" data-name="Grupo 20903" transform="translate(234.388 4033.93)">
      <g id="Grupo_20880" data-name="Grupo 20880" transform="translate(472.422 203.908)">
        <g id="Grupo_20878" data-name="Grupo 20878" transform="translate(0 0)">
          <path id="Trazado_4455" data-name="Trazado 4455" d="M575.929,240.667a.913.913,0,0,1-.913-.913V219.826h-21.6a.913.913,0,1,1,0-1.826h22.516a.912.912,0,0,1,.913.913v20.841A.913.913,0,0,1,575.929,240.667Z" transform="translate(-552.5 -218)" fill="#ff6148"/>
        </g>
        <g id="Grupo_20879" data-name="Grupo 20879" transform="translate(15.963 14.459)">
          <path id="Trazado_4456" data-name="Trazado 4456" d="M578.73,243l1.337-1.245,6.128,6.594,6.13-6.594L593.662,243l-7.467,8.029Z" transform="translate(-578.73 -241.76)" fill="#ff6148"/>
        </g>
      </g>
      <g id="Grupo_20883" data-name="Grupo 20883" transform="translate(388.888 234.944)">
        <g id="Grupo_20881" data-name="Grupo 20881" transform="translate(6.552 1.067)">
          <path id="Trazado_4457" data-name="Trazado 4457" d="M449.429,293.42H426.913a.912.912,0,0,1-.913-.913V271.666a.913.913,0,0,1,1.826,0v19.928h21.6a.913.913,0,1,1,0,1.826Z" transform="translate(-426 -270.753)" fill="#ff6148"/>
        </g>
        <g id="Grupo_20882" data-name="Grupo 20882" transform="translate(0 0)">
          <path id="Trazado_4458" data-name="Trazado 4458" d="M430.165,277.029l-1.337,1.245-6.128-6.594-6.13,6.594-1.337-1.245L422.7,269Z" transform="translate(-415.233 -269)" fill="#ff6148"/>
        </g>
      </g>
      <g id="Grupo_20886" data-name="Grupo 20886" transform="translate(463.131 287.888)">
        <g id="Grupo_20884" data-name="Grupo 20884" transform="translate(6.552 1.067)">
          <path id="Trazado_4459" data-name="Trazado 4459" d="M571.429,380.42H548.913a.913.913,0,0,1-.913-.913V358.666a.913.913,0,0,1,1.826,0v19.928h21.6a.913.913,0,1,1,0,1.826Z" transform="translate(-548 -357.753)" fill="#ff6148"/>
        </g>
        <g id="Grupo_20885" data-name="Grupo 20885" transform="translate(0 0)">
          <path id="Trazado_4460" data-name="Trazado 4460" d="M552.165,364.029l-1.337,1.245-6.128-6.594-6.13,6.594-1.337-1.245L544.7,356Z" transform="translate(-537.233 -356)" fill="#ff6148"/>
        </g>
      </g>
      <g id="Grupo_20889" data-name="Grupo 20889" transform="translate(536.766 340.833)">
        <g id="Grupo_20887" data-name="Grupo 20887" transform="translate(6.552 1.067)">
          <path id="Trazado_4461" data-name="Trazado 4461" d="M692.429,467.42H669.913a.913.913,0,0,1-.913-.913v-20.84a.913.913,0,1,1,1.826,0v19.928h21.6a.913.913,0,1,1,0,1.826Z" transform="translate(-669 -444.754)" fill="#ff6148"/>
        </g>
        <g id="Grupo_20888" data-name="Grupo 20888" transform="translate(0)">
          <path id="Trazado_4462" data-name="Trazado 4462" d="M673.165,451.029l-1.337,1.245-6.128-6.594-6.13,6.594-1.337-1.245L665.7,443Z" transform="translate(-658.233 -443)" fill="#ff6148"/>
        </g>
      </g>
      <g id="Grupo_20892" data-name="Grupo 20892" transform="translate(611.01 393.777)">
        <g id="Grupo_20890" data-name="Grupo 20890" transform="translate(6.552 1.067)">
          <path id="Trazado_4463" data-name="Trazado 4463" d="M814.429,554.42H791.913a.913.913,0,0,1-.913-.913V532.667a.913.913,0,0,1,1.826,0v19.928h21.6a.913.913,0,1,1,0,1.826Z" transform="translate(-791 -531.754)" fill="#ff6148"/>
        </g>
        <g id="Grupo_20891" data-name="Grupo 20891">
          <path id="Trazado_4464" data-name="Trazado 4464" d="M795.165,538.029l-1.337,1.245-6.128-6.594-6.13,6.594-1.337-1.245L787.7,530Z" transform="translate(-780.233 -530)" fill="#ff6148"/>
        </g>
      </g>
      <g id="Grupo_20895" data-name="Grupo 20895" transform="translate(546.361 256.852)">
        <g id="Grupo_20893" data-name="Grupo 20893" transform="translate(0 0)">
          <path id="Trazado_4465" data-name="Trazado 4465" d="M697.429,327.667a.913.913,0,0,1-.913-.913V306.826h-21.6a.913.913,0,1,1,0-1.826h22.516a.913.913,0,0,1,.913.913v20.841A.913.913,0,0,1,697.429,327.667Z" transform="translate(-674 -305)" fill="#ff6148"/>
        </g>
        <g id="Grupo_20894" data-name="Grupo 20894" transform="translate(15.963 14.459)">
          <path id="Trazado_4466" data-name="Trazado 4466" d="M700.23,330l1.337-1.245,6.128,6.594,6.13-6.594L715.162,330l-7.467,8.029Z" transform="translate(-700.23 -328.76)" fill="#ff6148"/>
        </g>
      </g>
      <g id="Grupo_20898" data-name="Grupo 20898" transform="translate(619.996 309.796)">
        <g id="Grupo_20896" data-name="Grupo 20896">
          <path id="Trazado_4467" data-name="Trazado 4467" d="M818.429,414.666a.913.913,0,0,1-.913-.913V393.826h-21.6a.913.913,0,0,1,0-1.826h22.516a.913.913,0,0,1,.913.913v20.841A.913.913,0,0,1,818.429,414.666Z" transform="translate(-795 -392)" fill="#ff6148"/>
        </g>
        <g id="Grupo_20897" data-name="Grupo 20897" transform="translate(15.963 14.459)">
          <path id="Trazado_4468" data-name="Trazado 4468" d="M821.23,417l1.337-1.245,6.128,6.594,6.13-6.594L836.162,417l-7.467,8.029Z" transform="translate(-821.23 -415.76)" fill="#ff6148"/>
        </g>
      </g>
      <g id="Grupo_20901" data-name="Grupo 20901" transform="translate(692.414 362.74)">
        <g id="Grupo_20899" data-name="Grupo 20899">
          <path id="Trazado_4469" data-name="Trazado 4469" d="M937.429,501.666a.913.913,0,0,1-.913-.913V480.826h-21.6a.913.913,0,1,1,0-1.826h22.516a.913.913,0,0,1,.913.913v20.84A.913.913,0,0,1,937.429,501.666Z" transform="translate(-914 -479)" fill="#ff6148"/>
        </g>
        <g id="Grupo_20900" data-name="Grupo 20900" transform="translate(15.963 14.459)">
          <path id="Trazado_4470" data-name="Trazado 4470" d="M940.23,504l1.337-1.245,6.128,6.594,6.129-6.594L955.162,504l-7.467,8.029Z" transform="translate(-940.23 -502.76)" fill="#ff6148"/>
        </g>
      </g>
    </g>
    <path id="Trazado_602923" data-name="Trazado 602923" d="M4.247-3.383H2.729V0H.825V-9.242H4.259a3.882,3.882,0,0,1,2.526.73,2.519,2.519,0,0,1,.889,2.063,2.843,2.843,0,0,1-.409,1.577A2.792,2.792,0,0,1,6.024-3.866l2,3.777V0H5.979ZM2.729-4.926H4.266a1.573,1.573,0,0,0,1.111-.365A1.3,1.3,0,0,0,5.77-6.3,1.4,1.4,0,0,0,5.4-7.325,1.543,1.543,0,0,0,4.259-7.7H2.729ZM12.162.127A3.372,3.372,0,0,1,9.7-.8a3.294,3.294,0,0,1-.949-2.469v-.178a4.149,4.149,0,0,1,.4-1.85,2.935,2.935,0,0,1,1.133-1.257A3.18,3.18,0,0,1,11.959-7a2.85,2.85,0,0,1,2.219.889,3.611,3.611,0,0,1,.809,2.52v.749H10.613a1.7,1.7,0,0,0,.536,1.079,1.621,1.621,0,0,0,1.133.406,1.98,1.98,0,0,0,1.657-.768l.9,1.009A2.754,2.754,0,0,1,13.724-.2,3.665,3.665,0,0,1,12.162.127Zm-.209-5.643a1.146,1.146,0,0,0-.885.37,1.915,1.915,0,0,0-.435,1.058h2.552v-.147a1.366,1.366,0,0,0-.33-.947A1.183,1.183,0,0,0,11.953-5.516ZM15.742-3.5a4.105,4.105,0,0,1,.72-2.558A2.355,2.355,0,0,1,18.44-7a2.109,2.109,0,0,1,1.758.844l.121-.717h1.612V2.641H20.09V-.59a2.115,2.115,0,0,1-1.663.717,2.338,2.338,0,0,1-1.955-.952A4.307,4.307,0,0,1,15.742-3.5Zm1.834.13a2.693,2.693,0,0,0,.346,1.5,1.107,1.107,0,0,0,.974.515,1.234,1.234,0,0,0,1.193-.674V-4.868a1.224,1.224,0,0,0-1.181-.648A1.121,1.121,0,0,0,17.926-5,2.974,2.974,0,0,0,17.577-3.367ZM27.485-.7a2.3,2.3,0,0,1-1.879.825,2.17,2.17,0,0,1-1.685-.635,2.71,2.71,0,0,1-.594-1.86v-4.5h1.834v4.442q0,1.074.978,1.074A1.325,1.325,0,0,0,27.422-2V-6.868h1.841V0H27.536Zm6.322.825A3.372,3.372,0,0,1,31.348-.8,3.294,3.294,0,0,1,30.4-3.269v-.178a4.149,4.149,0,0,1,.4-1.85,2.935,2.935,0,0,1,1.133-1.257A3.18,3.18,0,0,1,33.6-7a2.85,2.85,0,0,1,2.219.889,3.611,3.611,0,0,1,.809,2.52v.749H32.259A1.7,1.7,0,0,0,32.8-1.758a1.621,1.621,0,0,0,1.133.406,1.98,1.98,0,0,0,1.657-.768l.9,1.009A2.754,2.754,0,0,1,35.369-.2,3.665,3.665,0,0,1,33.808.127ZM33.6-5.516a1.146,1.146,0,0,0-.885.37,1.915,1.915,0,0,0-.435,1.058H34.83v-.147a1.366,1.366,0,0,0-.33-.947A1.183,1.183,0,0,0,33.6-5.516Zm7.935.368a4.984,4.984,0,0,0-.66-.051,1.344,1.344,0,0,0-1.365.7V0H37.673V-6.868h1.733l.051.819A1.7,1.7,0,0,1,40.987-7a1.922,1.922,0,0,1,.571.083ZM44.351,0H42.51V-6.868h1.841ZM42.4-8.646a.9.9,0,0,1,.276-.679,1.037,1.037,0,0,1,.752-.267,1.04,1.04,0,0,1,.749.267.9.9,0,0,1,.279.679.9.9,0,0,1-.282.686,1.042,1.042,0,0,1-.746.267,1.042,1.042,0,0,1-.746-.267A.9.9,0,0,1,42.4-8.646Zm5.18,1.777.057.768A2.414,2.414,0,0,1,49.613-7a1.832,1.832,0,0,1,1.822,1.047A2.358,2.358,0,0,1,53.5-7a2.049,2.049,0,0,1,1.663.651,2.991,2.991,0,0,1,.546,1.958V0H53.866V-4.38a1.308,1.308,0,0,0-.229-.854,1.013,1.013,0,0,0-.806-.27,1.145,1.145,0,0,0-1.143.787L51.7,0H49.861V-4.374a1.292,1.292,0,0,0-.235-.863,1.023,1.023,0,0,0-.8-.267,1.189,1.189,0,0,0-1.13.647V0H45.862V-6.868ZM59.052,0H57.211V-6.868h1.841ZM57.1-8.646a.9.9,0,0,1,.276-.679,1.037,1.037,0,0,1,.752-.267,1.04,1.04,0,0,1,.749.267.9.9,0,0,1,.279.679.9.9,0,0,1-.282.686,1.042,1.042,0,0,1-.746.267,1.042,1.042,0,0,1-.746-.267A.9.9,0,0,1,57.1-8.646ZM63.724.127A3.372,3.372,0,0,1,61.264-.8a3.294,3.294,0,0,1-.949-2.469v-.178a4.149,4.149,0,0,1,.4-1.85,2.935,2.935,0,0,1,1.133-1.257A3.18,3.18,0,0,1,63.521-7a2.85,2.85,0,0,1,2.219.889,3.611,3.611,0,0,1,.809,2.52v.749H62.175a1.7,1.7,0,0,0,.536,1.079,1.621,1.621,0,0,0,1.133.406A1.98,1.98,0,0,0,65.5-2.12l.9,1.009A2.754,2.754,0,0,1,65.286-.2,3.665,3.665,0,0,1,63.724.127Zm-.209-5.643a1.146,1.146,0,0,0-.885.37,1.915,1.915,0,0,0-.435,1.058h2.552v-.147a1.366,1.366,0,0,0-.33-.947A1.183,1.183,0,0,0,63.515-5.516Zm5.764-1.352.057.793A2.4,2.4,0,0,1,71.31-7a1.993,1.993,0,0,1,1.625.641,2.991,2.991,0,0,1,.546,1.917V0H71.646V-4.393a1.19,1.19,0,0,0-.254-.847,1.137,1.137,0,0,0-.844-.263,1.262,1.262,0,0,0-1.162.66V0H67.552V-6.868Zm7.789-1.688v1.688h1.174v1.346H77.067v3.428a.818.818,0,0,0,.146.546.733.733,0,0,0,.559.165,2.925,2.925,0,0,0,.54-.044v1.39A3.777,3.777,0,0,1,77.2.127a1.752,1.752,0,0,1-1.968-1.949v-3.7h-1V-6.868h1V-8.557ZM78.787-3.5a4.073,4.073,0,0,1,.394-1.822,2.881,2.881,0,0,1,1.133-1.238A3.306,3.306,0,0,1,82.031-7a3.127,3.127,0,0,1,2.269.851,3.414,3.414,0,0,1,.981,2.311l.013.47a3.59,3.59,0,0,1-.882,2.536,3.067,3.067,0,0,1-2.368.955,3.082,3.082,0,0,1-2.371-.952,3.653,3.653,0,0,1-.885-2.59Zm1.834.13a2.567,2.567,0,0,0,.368,1.5,1.215,1.215,0,0,0,1.054.518,1.217,1.217,0,0,0,1.041-.512A2.809,2.809,0,0,0,83.459-3.5a2.542,2.542,0,0,0-.375-1.488,1.217,1.217,0,0,0-1.054-.528,1.2,1.2,0,0,0-1.041.524A2.857,2.857,0,0,0,80.622-3.367Z" transform="translate(600 4244)" fill="#111e61"/>
    <path id="Trazado_602924" data-name="Trazado 602924" d="M-19.294,0V-9.242h2.844a4.319,4.319,0,0,1,2.18.549,3.829,3.829,0,0,1,1.5,1.562,4.816,4.816,0,0,1,.54,2.3v.425a4.83,4.83,0,0,1-.53,2.292A3.8,3.8,0,0,1-14.254-.559,4.351,4.351,0,0,1-16.431,0Zm1.9-7.7v6.17h.92a2.068,2.068,0,0,0,1.708-.73,3.3,3.3,0,0,0,.6-2.088v-.489a3.351,3.351,0,0,0-.584-2.136A2.061,2.061,0,0,0-16.45-7.7ZM-9.03,0H-10.87V-6.868H-9.03Zm-1.949-8.646a.9.9,0,0,1,.276-.679,1.037,1.037,0,0,1,.752-.267,1.04,1.04,0,0,1,.749.267.9.9,0,0,1,.279.679A.9.9,0,0,1-9.2-7.96a1.042,1.042,0,0,1-.746.267A1.042,1.042,0,0,1-10.7-7.96.9.9,0,0,1-10.978-8.646ZM-3.8-1.9a.591.591,0,0,0-.333-.53A3.785,3.785,0,0,0-5.2-2.774q-2.45-.514-2.45-2.082a1.887,1.887,0,0,1,.759-1.527A3.06,3.06,0,0,1-4.91-7a3.293,3.293,0,0,1,2.092.616,1.94,1.94,0,0,1,.784,1.6H-3.869a.888.888,0,0,0-.254-.651,1.075,1.075,0,0,0-.793-.257,1.1,1.1,0,0,0-.717.209.661.661,0,0,0-.254.533.565.565,0,0,0,.289.492,2.971,2.971,0,0,0,.974.324,7.958,7.958,0,0,1,1.155.308A1.9,1.9,0,0,1-2.015-1.974a1.792,1.792,0,0,1-.806,1.52A3.478,3.478,0,0,1-4.9.127,3.632,3.632,0,0,1-6.437-.181a2.572,2.572,0,0,1-1.051-.844,1.962,1.962,0,0,1-.381-1.158h1.739a.958.958,0,0,0,.362.749,1.435,1.435,0,0,0,.9.26,1.328,1.328,0,0,0,.8-.2A.622.622,0,0,0-3.8-1.9ZM2.326.127A3.372,3.372,0,0,1-.133-.8a3.294,3.294,0,0,1-.949-2.469v-.178a4.149,4.149,0,0,1,.4-1.85A2.935,2.935,0,0,1,.451-6.554,3.18,3.18,0,0,1,2.123-7a2.85,2.85,0,0,1,2.219.889,3.611,3.611,0,0,1,.809,2.52v.749H.778a1.7,1.7,0,0,0,.536,1.079,1.621,1.621,0,0,0,1.133.406A1.98,1.98,0,0,0,4.1-2.12l.9,1.009A2.754,2.754,0,0,1,3.888-.2,3.665,3.665,0,0,1,2.326.127ZM2.117-5.516a1.146,1.146,0,0,0-.885.37A1.915,1.915,0,0,0,.8-4.088H3.348v-.147a1.366,1.366,0,0,0-.33-.947A1.183,1.183,0,0,0,2.117-5.516ZM7.881-6.868l.057.793A2.4,2.4,0,0,1,9.912-7a1.993,1.993,0,0,1,1.625.641,2.991,2.991,0,0,1,.546,1.917V0H10.248V-4.393a1.19,1.19,0,0,0-.254-.847A1.137,1.137,0,0,0,9.15-5.5a1.262,1.262,0,0,0-1.162.66V0H6.154V-6.868Zm3.644-2.8a1.777,1.777,0,0,1-.419,1.2,1.3,1.3,0,0,1-1.022.486,1.55,1.55,0,0,1-.428-.054,2.875,2.875,0,0,1-.517-.232,2.791,2.791,0,0,0-.476-.219,1.164,1.164,0,0,0-.317-.041.509.509,0,0,0-.378.159.617.617,0,0,0-.156.451L6.744-7.979a1.8,1.8,0,0,1,.416-1.2,1.282,1.282,0,0,1,1.019-.5,1.312,1.312,0,0,1,.359.048,3.949,3.949,0,0,1,.549.232,3.569,3.569,0,0,0,.527.222,1.2,1.2,0,0,0,.3.038A.535.535,0,0,0,10.3-9.29a.592.592,0,0,0,.162-.448ZM13.187-3.5a4.073,4.073,0,0,1,.394-1.822,2.881,2.881,0,0,1,1.133-1.238A3.306,3.306,0,0,1,16.431-7a3.127,3.127,0,0,1,2.269.851,3.414,3.414,0,0,1,.981,2.311l.013.47a3.59,3.59,0,0,1-.882,2.536,3.067,3.067,0,0,1-2.368.955,3.082,3.082,0,0,1-2.371-.952,3.653,3.653,0,0,1-.885-2.59Zm1.834.13a2.567,2.567,0,0,0,.368,1.5,1.215,1.215,0,0,0,1.054.518,1.217,1.217,0,0,0,1.041-.512A2.809,2.809,0,0,0,17.859-3.5a2.542,2.542,0,0,0-.375-1.488,1.217,1.217,0,0,0-1.054-.528,1.2,1.2,0,0,0-1.041.524A2.857,2.857,0,0,0,15.022-3.367Z" transform="translate(717 4296)" fill="#111e61"/>
    <path id="Trazado_602925" data-name="Trazado 602925" d="M-28.491-3.079a3.27,3.27,0,0,1-1.1,2.349,3.868,3.868,0,0,1-2.618.857,3.478,3.478,0,0,1-2.8-1.2,4.906,4.906,0,0,1-1.019-3.285v-.565a5.54,5.54,0,0,1,.47-2.349,3.52,3.52,0,0,1,1.343-1.558,3.761,3.761,0,0,1,2.028-.543,3.768,3.768,0,0,1,2.577.857,3.515,3.515,0,0,1,1.13,2.406h-1.9a1.93,1.93,0,0,0-.5-1.3,1.845,1.845,0,0,0-1.3-.4,1.618,1.618,0,0,0-1.425.682A3.824,3.824,0,0,0-34.1-5.008v.7a4.093,4.093,0,0,0,.454,2.19,1.588,1.588,0,0,0,1.431.692,1.88,1.88,0,0,0,1.317-.4,1.821,1.821,0,0,0,.5-1.247Zm.844-.419a4.073,4.073,0,0,1,.394-1.822,2.881,2.881,0,0,1,1.133-1.238A3.306,3.306,0,0,1-24.4-7a3.127,3.127,0,0,1,2.269.851,3.414,3.414,0,0,1,.981,2.311l.013.47a3.59,3.59,0,0,1-.882,2.536,3.067,3.067,0,0,1-2.368.955,3.082,3.082,0,0,1-2.371-.952,3.653,3.653,0,0,1-.885-2.59Zm1.834.13a2.567,2.567,0,0,0,.368,1.5,1.215,1.215,0,0,0,1.054.518,1.217,1.217,0,0,0,1.041-.512A2.809,2.809,0,0,0-22.975-3.5a2.542,2.542,0,0,0-.375-1.488A1.217,1.217,0,0,0-24.4-5.516a1.2,1.2,0,0,0-1.041.524A2.857,2.857,0,0,0-25.813-3.367Zm5.516-.118a4.139,4.139,0,0,1,.72-2.558A2.338,2.338,0,0,1-17.605-7a2.1,2.1,0,0,1,1.657.749v-3.5h1.841V0h-1.657l-.089-.73a2.159,2.159,0,0,1-1.765.857,2.331,2.331,0,0,1-1.946-.955A4.272,4.272,0,0,1-20.3-3.485Zm1.834.137a2.711,2.711,0,0,0,.336,1.481,1.1,1.1,0,0,0,.978.515,1.227,1.227,0,0,0,1.2-.718V-4.785A1.21,1.21,0,0,0-17.135-5.5Q-18.462-5.5-18.462-3.348ZM-10.75,0h-1.841V-6.868h1.841ZM-12.7-8.646a.9.9,0,0,1,.276-.679,1.037,1.037,0,0,1,.752-.267,1.04,1.04,0,0,1,.749.267.9.9,0,0,1,.279.679.9.9,0,0,1-.282.686,1.042,1.042,0,0,1-.746.267,1.042,1.042,0,0,1-.746-.267A.9.9,0,0,1-12.7-8.646ZM-8.795,0V-5.522H-9.817V-6.868h1.022v-.317a2.576,2.576,0,0,1,.8-2,3.205,3.205,0,0,1,2.212-.7A7.338,7.338,0,0,1-3.7-9.509L-3.97-7.992a8.123,8.123,0,0,0-.965-.238,4.741,4.741,0,0,0-.736-.054q-1.282,0-1.282,1.136v.279H-5.6v1.346H-6.954V0Zm5.948,0H-4.688V-6.868h1.841ZM1.527-1.352a1.2,1.2,0,0,0,.825-.279.979.979,0,0,0,.33-.743H4.4a2.353,2.353,0,0,1-.381,1.279A2.513,2.513,0,0,1,3-.194,3.208,3.208,0,0,1,1.558.127,2.982,2.982,0,0,1-.765-.809,3.705,3.705,0,0,1-1.615-3.4v-.121A3.663,3.663,0,0,1-.771-6.049,2.947,2.947,0,0,1,1.546-7a2.889,2.889,0,0,1,2.066.733A2.6,2.6,0,0,1,4.4-4.31H2.682a1.261,1.261,0,0,0-.33-.871,1.1,1.1,0,0,0-.838-.335,1.1,1.1,0,0,0-.968.467A2.708,2.708,0,0,0,.219-3.533v.191A2.742,2.742,0,0,0,.543-1.816,1.119,1.119,0,0,0,1.527-1.352ZM9.429,0a2.037,2.037,0,0,1-.184-.616A2.22,2.22,0,0,1,7.512.127,2.439,2.439,0,0,1,5.84-.457,1.878,1.878,0,0,1,5.177-1.93a1.941,1.941,0,0,1,.809-1.676A3.994,3.994,0,0,1,8.325-4.2h.844v-.394a1.132,1.132,0,0,0-.244-.762.961.961,0,0,0-.771-.286,1.093,1.093,0,0,0-.727.222.755.755,0,0,0-.263.609H5.329A1.843,1.843,0,0,1,5.7-5.91a2.434,2.434,0,0,1,1.041-.8A3.794,3.794,0,0,1,8.249-7a3,3,0,0,1,2.015.638,2.232,2.232,0,0,1,.746,1.793v2.977a3.284,3.284,0,0,0,.273,1.479V0ZM7.912-1.276a1.58,1.58,0,0,0,.749-.181,1.188,1.188,0,0,0,.508-.486V-3.123H8.484q-1.377,0-1.466.952l-.006.108a.734.734,0,0,0,.241.565A.937.937,0,0,0,7.912-1.276Zm7.363-.076a1.2,1.2,0,0,0,.825-.279.979.979,0,0,0,.33-.743h1.72a2.353,2.353,0,0,1-.381,1.279,2.513,2.513,0,0,1-1.025.9,3.208,3.208,0,0,1-1.438.321,2.982,2.982,0,0,1-2.323-.936A3.705,3.705,0,0,1,12.134-3.4v-.121a3.663,3.663,0,0,1,.844-2.533A2.947,2.947,0,0,1,15.295-7a2.889,2.889,0,0,1,2.066.733,2.6,2.6,0,0,1,.79,1.952h-1.72a1.261,1.261,0,0,0-.33-.871,1.1,1.1,0,0,0-.838-.335,1.1,1.1,0,0,0-.968.467,2.708,2.708,0,0,0-.327,1.516v.191a2.742,2.742,0,0,0,.324,1.526A1.119,1.119,0,0,0,15.276-1.352ZM21.135,0H19.294V-6.868h1.841ZM19.186-8.646a.9.9,0,0,1,.276-.679,1.037,1.037,0,0,1,.752-.267,1.04,1.04,0,0,1,.749.267.9.9,0,0,1,.279.679.9.9,0,0,1-.282.686,1.042,1.042,0,0,1-.746.267,1.042,1.042,0,0,1-.746-.267A.9.9,0,0,1,19.186-8.646ZM22.36-3.5a4.073,4.073,0,0,1,.394-1.822,2.881,2.881,0,0,1,1.133-1.238A3.306,3.306,0,0,1,25.6-7a3.127,3.127,0,0,1,2.269.851,3.414,3.414,0,0,1,.981,2.311l.013.47a3.59,3.59,0,0,1-.882,2.536,3.067,3.067,0,0,1-2.368.955,3.082,3.082,0,0,1-2.371-.952,3.653,3.653,0,0,1-.885-2.59Zm1.834.13a2.567,2.567,0,0,0,.368,1.5,1.215,1.215,0,0,0,1.054.518,1.217,1.217,0,0,0,1.041-.512A2.809,2.809,0,0,0,27.031-3.5a2.542,2.542,0,0,0-.375-1.488A1.217,1.217,0,0,0,25.6-5.516a1.2,1.2,0,0,0-1.041.524A2.857,2.857,0,0,0,24.194-3.367ZM25.965-9.75h2L26.206-7.782H24.715Zm5.719,2.882.057.793A2.4,2.4,0,0,1,33.716-7a1.993,1.993,0,0,1,1.625.641,2.991,2.991,0,0,1,.546,1.917V0H34.052V-4.393A1.19,1.19,0,0,0,33.8-5.24a1.137,1.137,0,0,0-.844-.263,1.262,1.262,0,0,0-1.162.66V0H29.958V-6.868Z" transform="translate(792 4349)" fill="#111e61"/>
    <path id="Trazado_602926" data-name="Trazado 602926" d="M-21.471-3.256V0h-1.9V-9.242h3.605a4.171,4.171,0,0,1,1.831.381,2.807,2.807,0,0,1,1.216,1.082,3.018,3.018,0,0,1,.425,1.6,2.654,2.654,0,0,1-.93,2.142,3.873,3.873,0,0,1-2.574.784Zm0-1.542h1.7a1.673,1.673,0,0,0,1.152-.355,1.293,1.293,0,0,0,.4-1.016,1.524,1.524,0,0,0-.4-1.1,1.494,1.494,0,0,0-1.1-.432h-1.746Zm10.22-.349a4.984,4.984,0,0,0-.66-.051,1.344,1.344,0,0,0-1.365.7V0h-1.834V-6.868h1.733l.051.819A1.7,1.7,0,0,1-11.8-7a1.922,1.922,0,0,1,.571.083Zm5,4.45A2.3,2.3,0,0,1-8.135.127,2.17,2.17,0,0,1-9.82-.508a2.71,2.71,0,0,1-.594-1.86v-4.5h1.834v4.442q0,1.074.978,1.074A1.325,1.325,0,0,0-6.319-2V-6.868h1.841V0H-6.2ZM.067.127A3.372,3.372,0,0,1-2.393-.8a3.294,3.294,0,0,1-.949-2.469v-.178a4.149,4.149,0,0,1,.4-1.85A2.935,2.935,0,0,1-1.809-6.554,3.18,3.18,0,0,1-.136-7a2.85,2.85,0,0,1,2.219.889,3.611,3.611,0,0,1,.809,2.52v.749H-1.482A1.7,1.7,0,0,0-.946-1.758a1.621,1.621,0,0,0,1.133.406A1.98,1.98,0,0,0,1.844-2.12l.9,1.009A2.754,2.754,0,0,1,1.628-.2,3.665,3.665,0,0,1,.067.127ZM-.143-5.516a1.146,1.146,0,0,0-.885.37,1.915,1.915,0,0,0-.435,1.058H1.089v-.147a1.366,1.366,0,0,0-.33-.947A1.183,1.183,0,0,0-.143-5.516ZM10.121-3.371A4.159,4.159,0,0,1,9.417-.8,2.334,2.334,0,0,1,7.449.127,2.144,2.144,0,0,1,5.665-.73L5.583,0H3.932V-9.75H5.767v3.5A2.089,2.089,0,0,1,7.436-7a2.353,2.353,0,0,1,1.971.924,4.165,4.165,0,0,1,.714,2.6ZM8.287-3.5a2.732,2.732,0,0,0-.33-1.52A1.116,1.116,0,0,0,6.973-5.5a1.21,1.21,0,0,0-1.206.717v2.71a1.226,1.226,0,0,0,1.219.724,1.133,1.133,0,0,0,1.168-.876A4.519,4.519,0,0,0,8.287-3.5ZM15.231,0a2.037,2.037,0,0,1-.184-.616,2.22,2.22,0,0,1-1.733.743,2.439,2.439,0,0,1-1.673-.584,1.878,1.878,0,0,1-.663-1.473,1.941,1.941,0,0,1,.809-1.676,3.994,3.994,0,0,1,2.339-.59h.844v-.394a1.132,1.132,0,0,0-.244-.762.961.961,0,0,0-.771-.286,1.093,1.093,0,0,0-.727.222.755.755,0,0,0-.263.609H11.131a1.843,1.843,0,0,1,.368-1.1,2.434,2.434,0,0,1,1.041-.8A3.794,3.794,0,0,1,14.051-7a3,3,0,0,1,2.015.638,2.232,2.232,0,0,1,.746,1.793v2.977a3.284,3.284,0,0,0,.273,1.479V0ZM13.714-1.276a1.58,1.58,0,0,0,.749-.181,1.188,1.188,0,0,0,.508-.486V-3.123h-.686q-1.377,0-1.466.952l-.006.108a.734.734,0,0,0,.241.565A.937.937,0,0,0,13.714-1.276ZM21.941-1.9a.591.591,0,0,0-.333-.53,3.785,3.785,0,0,0-1.07-.346q-2.45-.514-2.45-2.082a1.887,1.887,0,0,1,.759-1.527A3.06,3.06,0,0,1,20.83-7a3.293,3.293,0,0,1,2.092.616,1.94,1.94,0,0,1,.784,1.6H21.871a.888.888,0,0,0-.254-.651,1.075,1.075,0,0,0-.793-.257,1.1,1.1,0,0,0-.717.209.661.661,0,0,0-.254.533.565.565,0,0,0,.289.492,2.971,2.971,0,0,0,.974.324,7.958,7.958,0,0,1,1.155.308,1.9,1.9,0,0,1,1.454,1.847,1.792,1.792,0,0,1-.806,1.52,3.478,3.478,0,0,1-2.082.581A3.632,3.632,0,0,1,19.3-.181a2.572,2.572,0,0,1-1.051-.844,1.962,1.962,0,0,1-.381-1.158h1.739a.958.958,0,0,0,.362.749,1.435,1.435,0,0,0,.9.26,1.328,1.328,0,0,0,.8-.2A.622.622,0,0,0,21.941-1.9Z" transform="translate(866 4403)" fill="#111e61"/>
    <path id="Trazado_602927" data-name="Trazado 602927" d="M-21.433-4.412a5.579,5.579,0,0,1-.482,2.393A3.633,3.633,0,0,1-23.3-.432a3.819,3.819,0,0,1-2.06.559,3.845,3.845,0,0,1-2.05-.552A3.669,3.669,0,0,1-28.8-2a5.42,5.42,0,0,1-.5-2.358v-.457a5.55,5.55,0,0,1,.492-2.4,3.663,3.663,0,0,1,1.39-1.593,3.824,3.824,0,0,1,2.053-.555,3.824,3.824,0,0,1,2.053.555,3.663,3.663,0,0,1,1.39,1.593,5.534,5.534,0,0,1,.492,2.4Zm-1.93-.419a3.889,3.889,0,0,0-.521-2.209,1.7,1.7,0,0,0-1.485-.755,1.7,1.7,0,0,0-1.479.746,3.845,3.845,0,0,0-.527,2.187v.451a3.938,3.938,0,0,0,.521,2.2,1.692,1.692,0,0,0,1.5.781,1.677,1.677,0,0,0,1.473-.752,3.915,3.915,0,0,0,.521-2.193Zm9.375,1.46a4.119,4.119,0,0,1-.72,2.542,2.31,2.31,0,0,1-1.946.955A2.14,2.14,0,0,1-18.335-.6V2.641H-20.17V-6.868h1.7l.063.673A2.156,2.156,0,0,1-16.666-7a2.326,2.326,0,0,1,1.974.939,4.231,4.231,0,0,1,.7,2.59ZM-15.822-3.5a2.7,2.7,0,0,0-.34-1.479,1.106,1.106,0,0,0-.987-.521,1.2,1.2,0,0,0-1.187.66v2.812a1.222,1.222,0,0,0,1.2.679Q-15.822-1.352-15.822-3.5ZM-9.69.127A3.372,3.372,0,0,1-12.149-.8,3.294,3.294,0,0,1-13.1-3.269v-.178a4.149,4.149,0,0,1,.4-1.85,2.935,2.935,0,0,1,1.133-1.257A3.18,3.18,0,0,1-9.893-7a2.85,2.85,0,0,1,2.219.889,3.611,3.611,0,0,1,.809,2.52v.749h-4.374A1.7,1.7,0,0,0-10.7-1.758a1.621,1.621,0,0,0,1.133.406A1.98,1.98,0,0,0-7.912-2.12l.9,1.009A2.754,2.754,0,0,1-8.128-.2,3.665,3.665,0,0,1-9.69.127ZM-9.9-5.516a1.146,1.146,0,0,0-.885.37,1.915,1.915,0,0,0-.435,1.058h2.552v-.147A1.366,1.366,0,0,0-9-5.181,1.183,1.183,0,0,0-9.9-5.516Zm7.935.368a4.984,4.984,0,0,0-.66-.051,1.344,1.344,0,0,0-1.365.7V0H-5.824V-6.868h1.733l.051.819A1.7,1.7,0,0,1-2.51-7a1.922,1.922,0,0,1,.571.083ZM2.707,0a2.037,2.037,0,0,1-.184-.616A2.22,2.22,0,0,1,.79.127,2.439,2.439,0,0,1-.882-.457,1.878,1.878,0,0,1-1.546-1.93,1.941,1.941,0,0,1-.736-3.605,3.994,3.994,0,0,1,1.6-4.2h.844v-.394A1.132,1.132,0,0,0,2.2-5.351a.961.961,0,0,0-.771-.286A1.093,1.093,0,0,0,.7-5.415a.755.755,0,0,0-.263.609H-1.393a1.843,1.843,0,0,1,.368-1.1,2.434,2.434,0,0,1,1.041-.8A3.794,3.794,0,0,1,1.527-7a3,3,0,0,1,2.015.638,2.232,2.232,0,0,1,.746,1.793v2.977A3.284,3.284,0,0,0,4.561-.108V0ZM1.19-1.276a1.58,1.58,0,0,0,.749-.181,1.188,1.188,0,0,0,.508-.486V-3.123H1.761Q.384-3.123.3-2.171l-.006.108A.734.734,0,0,0,.53-1.5.937.937,0,0,0,1.19-1.276Zm7.363-.076a1.2,1.2,0,0,0,.825-.279.979.979,0,0,0,.33-.743h1.72a2.353,2.353,0,0,1-.381,1.279,2.513,2.513,0,0,1-1.025.9A3.208,3.208,0,0,1,8.585.127,2.982,2.982,0,0,1,6.262-.809,3.705,3.705,0,0,1,5.411-3.4v-.121a3.663,3.663,0,0,1,.844-2.533A2.947,2.947,0,0,1,8.573-7a2.889,2.889,0,0,1,2.066.733,2.6,2.6,0,0,1,.79,1.952H9.709a1.261,1.261,0,0,0-.33-.871,1.1,1.1,0,0,0-.838-.335,1.1,1.1,0,0,0-.968.467,2.708,2.708,0,0,0-.327,1.516v.191A2.742,2.742,0,0,0,7.57-1.816,1.119,1.119,0,0,0,8.553-1.352ZM14.412,0H12.572V-6.868h1.841ZM12.464-8.646a.9.9,0,0,1,.276-.679,1.037,1.037,0,0,1,.752-.267,1.04,1.04,0,0,1,.749.267.9.9,0,0,1,.279.679.9.9,0,0,1-.282.686,1.042,1.042,0,0,1-.746.267,1.042,1.042,0,0,1-.746-.267A.9.9,0,0,1,12.464-8.646ZM15.637-3.5a4.073,4.073,0,0,1,.394-1.822,2.881,2.881,0,0,1,1.133-1.238A3.306,3.306,0,0,1,18.881-7a3.127,3.127,0,0,1,2.269.851,3.414,3.414,0,0,1,.981,2.311l.013.47a3.59,3.59,0,0,1-.882,2.536,3.067,3.067,0,0,1-2.368.955,3.082,3.082,0,0,1-2.371-.952,3.653,3.653,0,0,1-.885-2.59Zm1.834.13a2.567,2.567,0,0,0,.368,1.5,1.215,1.215,0,0,0,1.054.518,1.217,1.217,0,0,0,1.041-.512A2.809,2.809,0,0,0,20.309-3.5a2.542,2.542,0,0,0-.375-1.488,1.217,1.217,0,0,0-1.054-.528,1.2,1.2,0,0,0-1.041.524A2.857,2.857,0,0,0,17.472-3.367ZM19.243-9.75h2L19.484-7.782H17.992Zm5.719,2.882.057.793A2.4,2.4,0,0,1,26.993-7a1.993,1.993,0,0,1,1.625.641,2.991,2.991,0,0,1,.546,1.917V0H27.33V-4.393a1.19,1.19,0,0,0-.254-.847,1.137,1.137,0,0,0-.844-.263,1.262,1.262,0,0,0-1.162.66V0H23.236V-6.868Z" transform="translate(939 4455)" fill="#111e61"/>
  </g>
</svg>
