<svg xmlns="http://www.w3.org/2000/svg" xmlns:xlink="http://www.w3.org/1999/xlink" width="881" height="385" viewBox="0 0 881 385">
  <defs>
    <filter id="Trazado_602965" x="281.5" y="143" width="113" height="31.5" filterUnits="userSpaceOnUse">
      <feOffset dy="2" input="SourceAlpha"/>
      <feGaussianBlur stdDeviation="0.5" result="blur"/>
      <feFlood flood-opacity="0.251"/>
      <feComposite operator="in" in2="blur"/>
      <feComposite in="SourceGraphic"/>
    </filter>
    <filter id="Trazado_602966" x="483.5" y="235" width="112" height="31.5" filterUnits="userSpaceOnUse">
      <feOffset dy="2" input="SourceAlpha"/>
      <feGaussianBlur stdDeviation="0.5" result="blur-2"/>
      <feFlood flood-opacity="0.251"/>
      <feComposite operator="in" in2="blur-2"/>
      <feComposite in="SourceGraphic"/>
    </filter>
    <filter id="Trazado_602967" x="281.5" y="235" width="113" height="31.5" filterUnits="userSpaceOnUse">
      <feOffset dy="2" input="SourceAlpha"/>
      <feGaussianBlur stdDeviation="0.5" result="blur-3"/>
      <feFlood flood-opacity="0.251"/>
      <feComposite operator="in" in2="blur-3"/>
      <feComposite in="SourceGraphic"/>
    </filter>
    <filter id="Trazado_602971" x="483.5" y="143" width="112" height="31.5" filterUnits="userSpaceOnUse">
      <feOffset dy="2" input="SourceAlpha"/>
      <feGaussianBlur stdDeviation="0.5" result="blur-4"/>
      <feFlood flood-opacity="0.251"/>
      <feComposite operator="in" in2="blur-4"/>
      <feComposite in="SourceGraphic"/>
    </filter>
  </defs>
  <g id="Grupo_159408" data-name="Grupo 159408" transform="translate(3494 1992)">
    <path id="Trazado_602960" data-name="Trazado 602960" d="M10,0H871a10,10,0,0,1,10,10V385H0V10A10,10,0,0,1,10,0Z" transform="translate(-3494 -1992)" fill="#fff"/>
    <path id="Trazado_4523" data-name="Trazado 4523" d="M363.571,702.661c-55.179,0-100.071-43.325-100.071-96.58S308.392,509.5,363.571,509.5s100.071,43.325,100.071,96.581c0,31.33-15.85,60.84-42.4,78.936a4.654,4.654,0,1,1-5.243-7.69c24-16.363,38.332-43,38.332-71.246,0-48.122-40.716-87.272-90.762-87.272s-90.762,39.15-90.762,87.272,40.716,87.271,90.762,87.271a93.813,93.813,0,0,0,30.061-4.9,4.654,4.654,0,1,1,2.977,8.82A103.1,103.1,0,0,1,363.571,702.661Z" transform="translate(-3414.866 -2386.437)" fill="#ff6148"/>
    <path id="Trazado_4524" data-name="Trazado 4524" d="M267.5,540.712a1.745,1.745,0,0,1-1.745-1.745V503.579H212.372a1.745,1.745,0,1,1,0-3.491H267.5a1.745,1.745,0,0,1,1.745,1.745v37.134A1.745,1.745,0,0,1,267.5,540.712Z" transform="translate(-3423.518 -2387.977)" fill="#ff6148"/>
    <path id="Trazado_4525" data-name="Trazado 4525" d="M218.176,495.453l1.191,1.278-6.3,5.858,6.3,5.86-1.191,1.278L210.5,502.59Z" transform="translate(-3423.538 -2388.735)" fill="#ff6148"/>
    <path id="Trazado_4526" data-name="Trazado 4526" d="M432.745,543.181A1.745,1.745,0,0,1,431,541.436v-54.69A1.745,1.745,0,0,1,432.745,485h60.5a1.745,1.745,0,1,1,0,3.491H434.491v52.945A1.745,1.745,0,0,1,432.745,543.181Z" transform="translate(-3387.46 -2390.446)" fill="#ff6148"/>
    <path id="Trazado_4527" data-name="Trazado 4527" d="M479.688,480.365l-1.191,1.278,6.3,5.858-6.3,5.86,1.191,1.278,7.676-7.139Z" transform="translate(-3378.688 -2391.204)" fill="#ff6148"/>
    <path id="Trazado_4528" data-name="Trazado 4528" d="M493.243,517.344h-60.5a1.745,1.745,0,0,1,0-3.491h60.5a1.745,1.745,0,1,1,0,3.491Z" transform="translate(-3387.46 -2385.725)" fill="#ff6148"/>
    <path id="Trazado_4529" data-name="Trazado 4529" d="M479.688,509.218,478.5,510.5l6.3,5.859-6.3,5.86,1.191,1.278,7.676-7.138Z" transform="translate(-3378.688 -2386.483)" fill="#ff6148"/>
    <path id="Trazado_4530" data-name="Trazado 4530" d="M169.657,627.493a1.745,1.745,0,0,1-1.745-1.745V585.716a1.745,1.745,0,0,1,1.745-1.745h72.555a1.746,1.746,0,0,1,1.745,1.745v31.451a1.745,1.745,0,0,1-3.491,0V587.462H171.4v38.285A1.746,1.746,0,0,1,169.657,627.493Z" transform="translate(-3430.507 -2374.252)" fill="#ff6148"/>
    <path id="Trazado_4531" data-name="Trazado 4531" d="M163.277,615.07l1.278-1.191,5.858,6.3,5.86-6.3,1.278,1.191-7.139,7.676Z" transform="translate(-3431.265 -2369.358)" fill="#ff6148"/>
    <path id="Trazado_4532" data-name="Trazado 4532" d="M380.581,628.454H363.069a1.745,1.745,0,0,1-1.745-1.745V612.745A1.745,1.745,0,0,1,363.069,611h40.35a1.745,1.745,0,0,1,0,3.491h-38.6v10.473h15.766a1.745,1.745,0,0,1,0,3.491Z" transform="translate(-3398.86 -2367.613)" fill="#ff6148"/>
    <path id="Trazado_4533" data-name="Trazado 4533" d="M373.07,632.642l-1.191-1.278,6.3-5.858-6.3-5.86,1.191-1.278,7.676,7.139Z" transform="translate(-3397.133 -2366.408)" fill="#ff6148"/>
    <path id="Trazado_4534" data-name="Trazado 4534" d="M526.872,628.337H479.745a1.745,1.745,0,1,1,0-3.491h45.381V613.46a1.745,1.745,0,0,1,3.491,0v13.131A1.745,1.745,0,0,1,526.872,628.337Z" transform="translate(-3379.77 -2369.713)" fill="#ff6148"/>
    <path id="Trazado_4535" data-name="Trazado 4535" d="M528.142,619.265l-1.278,1.191-5.858-6.3-5.86,6.3-1.278-1.191,7.139-7.676Z" transform="translate(-3373.901 -2369.733)" fill="#ff6148"/>
    <path id="Trazado_4536" data-name="Trazado 4536" d="M441.2,716.829H415.989a1.745,1.745,0,0,1,0-3.491h23.468V636.745a1.745,1.745,0,0,1,3.491,0v78.338A1.746,1.746,0,0,1,441.2,716.829Z" transform="translate(-3390.201 -2365.903)" fill="#ff6148"/>
    <path id="Trazado_4537" data-name="Trazado 4537" d="M421.794,697.689l1.191,1.278-6.3,5.858,6.3,5.86-1.191,1.278-7.676-7.139Z" transform="translate(-3390.222 -2355.646)" fill="#ff6148"/>
    <path id="Trazado_4538" data-name="Trazado 4538" d="M293.1,707.491H235.284a1.745,1.745,0,1,1,0-3.491H293.1a1.745,1.745,0,1,1,0,3.491Z" transform="translate(-3419.769 -2354.613)" fill="#ff6148"/>
    <path id="Trazado_4539" data-name="Trazado 4539" d="M241.088,713.642l1.191-1.278-6.3-5.858,6.3-5.86-1.191-1.278-7.676,7.139Z" transform="translate(-3419.79 -2355.371)" fill="#ff6148"/>
    <path id="Trazado_4540" data-name="Trazado 4540" d="M279.923,713.642l-1.191-1.278,6.3-5.858-6.3-5.86,1.191-1.278,7.676,7.139Z" transform="translate(-3412.374 -2355.371)" fill="#ff6148"/>
    <path id="Trazado_4541" data-name="Trazado 4541" d="M260.127,718.781a1.746,1.746,0,0,1-1.745-1.745v-80.29a1.745,1.745,0,0,1,3.491,0v80.29A1.745,1.745,0,0,1,260.127,718.781Z" transform="translate(-3415.704 -2365.903)" fill="#ff6148"/>
    <path id="Trazado_4542" data-name="Trazado 4542" d="M395.636,648l9.309,20.945L384,665.454Z" transform="translate(-3395.15 -2363.776)" fill="#ff6148"/>
    <path id="Trazado_602961" data-name="Trazado 602961" d="M12,0H121a12,12,0,0,1,12,12v4a12,12,0,0,1-12,12H12A12,12,0,0,1,0,16V12A12,12,0,0,1,12,0Z" transform="translate(-3355 -1903)" fill="#4dd0e1"/>
    <path id="Trazado_602962" data-name="Trazado 602962" d="M12,0H121a12,12,0,0,1,12,12v4a12,12,0,0,1-12,12H12A12,12,0,0,1,0,16V12A12,12,0,0,1,12,0Z" transform="translate(-2884 -1918)" fill="#4dd0e1"/>
    <path id="Trazado_602963" data-name="Trazado 602963" d="M12,0H121a12,12,0,0,1,12,12v4a12,12,0,0,1-12,12H12A12,12,0,0,1,0,16V12A12,12,0,0,1,12,0Z" transform="translate(-2884 -1884)" fill="#4dd0e1"/>
    <path id="Trazado_602964" data-name="Trazado 602964" d="M12,0H142a12,12,0,0,1,12,12v4a12,12,0,0,1-12,12H12A12,12,0,0,1,0,16V12A12,12,0,0,1,12,0Z" transform="translate(-2921 -1792)" fill="#4dd0e1"/>
    <g transform="matrix(1, 0, 0, 1, -3494, -1992)" filter="url(#Trazado_602965)">
      <path id="Trazado_602965-2" data-name="Trazado 602965" d="M12,0H98a12,12,0,0,1,12,12v4A12,12,0,0,1,98,28H12A12,12,0,0,1,0,16V12A12,12,0,0,1,12,0Z" transform="translate(283 143)" fill="#ffca28"/>
    </g>
    <g transform="matrix(1, 0, 0, 1, -3494, -1992)" filter="url(#Trazado_602966)">
      <path id="Trazado_602966-2" data-name="Trazado 602966" d="M12,0H97a12,12,0,0,1,12,12v4A12,12,0,0,1,97,28H12A12,12,0,0,1,0,16V12A12,12,0,0,1,12,0Z" transform="translate(485 235)" fill="#ffca28"/>
    </g>
    <g transform="matrix(1, 0, 0, 1, -3494, -1992)" filter="url(#Trazado_602967)">
      <path id="Trazado_602967-2" data-name="Trazado 602967" d="M12,0H98a12,12,0,0,1,12,12v4A12,12,0,0,1,98,28H12A12,12,0,0,1,0,16V12A12,12,0,0,1,12,0Z" transform="translate(283 235)" fill="#ffca28"/>
    </g>
    <path id="Trazado_602968" data-name="Trazado 602968" d="M12,0H98a12,12,0,0,1,12,12v4A12,12,0,0,1,98,28H12A12,12,0,0,1,0,16V12A12,12,0,0,1,12,0Z" transform="translate(-3323 -1735)" fill="#ffa726"/>
    <path id="Trazado_602969" data-name="Trazado 602969" d="M12,0H135a12,12,0,0,1,12,12v4a12,12,0,0,1-12,12H12A12,12,0,0,1,0,16V12A12,12,0,0,1,12,0Z" transform="translate(-3339 -1663)" fill="#4dd0e1"/>
    <path id="Trazado_602970" data-name="Trazado 602970" d="M12,0H124a12,12,0,0,1,12,12v4a12,12,0,0,1-12,12H12A12,12,0,0,1,0,16V12A12,12,0,0,1,12,0Z" transform="translate(-3119 -1663)" fill="#4dd0e1"/>
    <g transform="matrix(1, 0, 0, 1, -3494, -1992)" filter="url(#Trazado_602971)">
      <path id="Trazado_602971-2" data-name="Trazado 602971" d="M12,0H97a12,12,0,0,1,12,12v4A12,12,0,0,1,97,28H12A12,12,0,0,1,0,16V12A12,12,0,0,1,12,0Z" transform="translate(485 143)" fill="#ffca28"/>
    </g>
    <path id="Trazado_602972" data-name="Trazado 602972" d="M7.705,0H5.947V-3.656H2.52V0H.762V-8.531H2.52v3.457H5.947V-8.531H7.705Zm3.211,0h-1.7V-6.34h1.7Zm-1.8-7.98a.834.834,0,0,1,.255-.627.958.958,0,0,1,.694-.246.96.96,0,0,1,.691.246.829.829,0,0,1,.258.627.831.831,0,0,1-.261.633.962.962,0,0,1-.688.246.962.962,0,0,1-.688-.246A.831.831,0,0,1,9.117-7.98Zm6.627,6.229a.546.546,0,0,0-.308-.489,3.494,3.494,0,0,0-.987-.319q-2.262-.475-2.262-1.922a1.742,1.742,0,0,1,.7-1.409,2.825,2.825,0,0,1,1.831-.565,3.04,3.04,0,0,1,1.931.568,1.791,1.791,0,0,1,.724,1.477H15.68a.819.819,0,0,0-.234-.6.992.992,0,0,0-.732-.237,1.013,1.013,0,0,0-.662.193.61.61,0,0,0-.234.492.522.522,0,0,0,.267.454,2.743,2.743,0,0,0,.9.3,7.346,7.346,0,0,1,1.066.284,1.752,1.752,0,0,1,1.342,1.705,1.654,1.654,0,0,1-.744,1.4,3.21,3.21,0,0,1-1.922.536A3.353,3.353,0,0,1,13.31-.167a2.374,2.374,0,0,1-.97-.779,1.811,1.811,0,0,1-.352-1.069h1.605a.884.884,0,0,0,.334.691,1.325,1.325,0,0,0,.832.24,1.226,1.226,0,0,0,.735-.185A.574.574,0,0,0,15.744-1.752ZM20.508-7.9V-6.34h1.084V-5.1H20.508v3.164a.756.756,0,0,0,.135.5.677.677,0,0,0,.516.152,2.7,2.7,0,0,0,.5-.041V-.035a3.486,3.486,0,0,1-1.025.152,1.617,1.617,0,0,1-1.816-1.8V-5.1h-.926V-6.34h.926V-7.9ZM22.1-3.229a3.76,3.76,0,0,1,.363-1.682A2.659,2.659,0,0,1,23.5-6.053a3.051,3.051,0,0,1,1.585-.4,2.887,2.887,0,0,1,2.095.785,3.151,3.151,0,0,1,.905,2.133l.012.434a3.314,3.314,0,0,1-.814,2.341A2.831,2.831,0,0,1,25.1.117a2.845,2.845,0,0,1-2.188-.879A3.372,3.372,0,0,1,22.1-3.152Zm1.693.12a2.37,2.37,0,0,0,.34,1.382,1.121,1.121,0,0,0,.973.478,1.124,1.124,0,0,0,.961-.472,2.593,2.593,0,0,0,.346-1.511A2.346,2.346,0,0,0,26.063-4.6a1.124,1.124,0,0,0-.973-.487,1.105,1.105,0,0,0-.961.484A2.637,2.637,0,0,0,23.789-3.108Zm8.918-1.644A4.6,4.6,0,0,0,32.1-4.8a1.24,1.24,0,0,0-1.26.65V0H29.145V-6.34h1.6l.047.756A1.569,1.569,0,0,1,32.2-6.457a1.774,1.774,0,0,1,.527.076ZM35.309,0h-1.7V-6.34h1.7Zm-1.8-7.98a.834.834,0,0,1,.255-.627.958.958,0,0,1,.694-.246.96.96,0,0,1,.691.246.829.829,0,0,1,.258.627.831.831,0,0,1-.261.633.962.962,0,0,1-.688.246.962.962,0,0,1-.688-.246A.831.831,0,0,1,33.51-7.98ZM40.377,0a1.88,1.88,0,0,1-.17-.568,2.049,2.049,0,0,1-1.6.686,2.251,2.251,0,0,1-1.544-.539,1.734,1.734,0,0,1-.612-1.359A1.792,1.792,0,0,1,37.2-3.328a3.686,3.686,0,0,1,2.159-.545h.779v-.363a1.045,1.045,0,0,0-.226-.7A.887.887,0,0,0,39.2-5.2,1.009,1.009,0,0,0,38.528-5a.7.7,0,0,0-.243.563H36.592a1.7,1.7,0,0,1,.34-1.02,2.246,2.246,0,0,1,.961-.735,3.5,3.5,0,0,1,1.395-.267,2.767,2.767,0,0,1,1.86.589,2.06,2.06,0,0,1,.688,1.655v2.748A3.031,3.031,0,0,0,42.088-.1V0Zm-1.4-1.178a1.458,1.458,0,0,0,.691-.167,1.1,1.1,0,0,0,.469-.448v-1.09H39.5q-1.271,0-1.354.879l-.006.1a.678.678,0,0,0,.223.521A.865.865,0,0,0,38.977-1.178Zm6.885-2.039a3.821,3.821,0,0,1,.665-2.361,2.158,2.158,0,0,1,1.819-.879,1.942,1.942,0,0,1,1.529.691V-9h1.7V0H50.045l-.082-.674a1.993,1.993,0,0,1-1.629.791,2.152,2.152,0,0,1-1.8-.882A3.944,3.944,0,0,1,45.861-3.217Zm1.693.126a2.5,2.5,0,0,0,.311,1.367,1.012,1.012,0,0,0,.9.475,1.133,1.133,0,0,0,1.107-.663V-4.417a1.117,1.117,0,0,0-1.1-.663Q47.555-5.08,47.555-3.091ZM55.8.117a3.112,3.112,0,0,1-2.271-.855,3.041,3.041,0,0,1-.876-2.279v-.164a3.83,3.83,0,0,1,.369-1.708,2.709,2.709,0,0,1,1.046-1.16,2.936,2.936,0,0,1,1.544-.407,2.631,2.631,0,0,1,2.048.82,3.333,3.333,0,0,1,.747,2.326v.691H54.375a1.573,1.573,0,0,0,.5,1,1.5,1.5,0,0,0,1.046.375,1.828,1.828,0,0,0,1.529-.709l.832.932a2.542,2.542,0,0,1-1.031.841A3.383,3.383,0,0,1,55.8.117Zm-.193-5.209a1.058,1.058,0,0,0-.817.341,1.768,1.768,0,0,0-.4.977h2.355v-.135a1.261,1.261,0,0,0-.3-.874A1.092,1.092,0,0,0,55.611-5.092ZM61.16,0h-1.7V-9h1.7ZM72.111-8.531v5.619A2.877,2.877,0,0,1,71.235-.7a3.377,3.377,0,0,1-2.394.814,3.415,3.415,0,0,1-2.373-.791,2.828,2.828,0,0,1-.9-2.174V-8.531H67.33V-2.9a1.626,1.626,0,0,0,.4,1.222,1.541,1.541,0,0,0,1.11.384q1.482,0,1.506-1.559V-8.531Zm4.764,6.779a.546.546,0,0,0-.308-.489,3.494,3.494,0,0,0-.987-.319q-2.262-.475-2.262-1.922a1.742,1.742,0,0,1,.7-1.409,2.825,2.825,0,0,1,1.831-.565,3.04,3.04,0,0,1,1.931.568A1.791,1.791,0,0,1,78.5-4.412H76.811a.819.819,0,0,0-.234-.6.992.992,0,0,0-.732-.237,1.013,1.013,0,0,0-.662.193.61.61,0,0,0-.234.492.522.522,0,0,0,.267.454,2.743,2.743,0,0,0,.9.3,7.346,7.346,0,0,1,1.066.284,1.752,1.752,0,0,1,1.342,1.705,1.654,1.654,0,0,1-.744,1.4,3.21,3.21,0,0,1-1.922.536A3.353,3.353,0,0,1,74.44-.167a2.374,2.374,0,0,1-.97-.779,1.811,1.811,0,0,1-.352-1.069h1.605a.884.884,0,0,0,.334.691,1.325,1.325,0,0,0,.832.24,1.226,1.226,0,0,0,.735-.185A.574.574,0,0,0,76.875-1.752ZM83.408-.645a2.124,2.124,0,0,1-1.734.762,2,2,0,0,1-1.556-.586,2.5,2.5,0,0,1-.548-1.717V-6.34h1.693v4.1q0,.991.9.991a1.223,1.223,0,0,0,1.184-.6V-6.34h1.7V0H83.455ZM90,0a1.88,1.88,0,0,1-.17-.568,2.049,2.049,0,0,1-1.6.686,2.251,2.251,0,0,1-1.544-.539,1.734,1.734,0,0,1-.612-1.359,1.792,1.792,0,0,1,.747-1.547,3.686,3.686,0,0,1,2.159-.545h.779v-.363a1.045,1.045,0,0,0-.226-.7.887.887,0,0,0-.712-.264A1.009,1.009,0,0,0,88.151-5a.7.7,0,0,0-.243.563H86.215a1.7,1.7,0,0,1,.34-1.02,2.246,2.246,0,0,1,.961-.735,3.5,3.5,0,0,1,1.395-.267,2.767,2.767,0,0,1,1.86.589,2.06,2.06,0,0,1,.688,1.655v2.748A3.031,3.031,0,0,0,91.711-.1V0ZM88.6-1.178a1.458,1.458,0,0,0,.691-.167,1.1,1.1,0,0,0,.469-.448v-1.09h-.633q-1.271,0-1.354.879l-.006.1a.678.678,0,0,0,.223.521A.865.865,0,0,0,88.6-1.178Zm7.723-3.574a4.6,4.6,0,0,0-.609-.047,1.24,1.24,0,0,0-1.26.65V0H92.76V-6.34h1.6l.047.756a1.569,1.569,0,0,1,1.412-.873,1.774,1.774,0,0,1,.527.076ZM98.924,0h-1.7V-6.34h1.7Zm-1.8-7.98a.834.834,0,0,1,.255-.627.958.958,0,0,1,.694-.246.96.96,0,0,1,.691.246.829.829,0,0,1,.258.627.831.831,0,0,1-.261.633.962.962,0,0,1-.688.246.962.962,0,0,1-.688-.246A.831.831,0,0,1,97.125-7.98Zm2.93,4.752a3.76,3.76,0,0,1,.363-1.682,2.659,2.659,0,0,1,1.046-1.143,3.051,3.051,0,0,1,1.585-.4,2.887,2.887,0,0,1,2.095.785,3.151,3.151,0,0,1,.905,2.133l.012.434a3.314,3.314,0,0,1-.814,2.341,2.831,2.831,0,0,1-2.186.882,2.845,2.845,0,0,1-2.188-.879,3.372,3.372,0,0,1-.817-2.391Zm1.693.12a2.37,2.37,0,0,0,.34,1.382,1.121,1.121,0,0,0,.973.478,1.124,1.124,0,0,0,.961-.472,2.593,2.593,0,0,0,.346-1.511,2.346,2.346,0,0,0-.346-1.373,1.124,1.124,0,0,0-.973-.487,1.105,1.105,0,0,0-.961.484A2.637,2.637,0,0,0,101.748-3.108Z" transform="translate(-3339 -1885)" fill="#00104e"/>
    <path id="Trazado_602973" data-name="Trazado 602973" d="M-37.989,0V-8.531h2.625a3.986,3.986,0,0,1,2.013.507,3.534,3.534,0,0,1,1.386,1.441,4.446,4.446,0,0,1,.5,2.124v.393a4.458,4.458,0,0,1-.489,2.115,3.5,3.5,0,0,1-1.38,1.436A4.016,4.016,0,0,1-35.347,0Zm1.758-7.107v5.7h.85a1.909,1.909,0,0,0,1.576-.674,3.045,3.045,0,0,0,.557-1.928v-.451a3.093,3.093,0,0,0-.539-1.972,1.9,1.9,0,0,0-1.576-.671ZM-28.515,0h-1.7V-6.34h1.7Zm-1.8-7.98a.834.834,0,0,1,.255-.627.958.958,0,0,1,.694-.246.96.96,0,0,1,.691.246.829.829,0,0,1,.258.627.831.831,0,0,1-.261.633.962.962,0,0,1-.688.246.962.962,0,0,1-.688-.246A.831.831,0,0,1-30.313-7.98Zm6.627,6.229a.546.546,0,0,0-.308-.489,3.494,3.494,0,0,0-.987-.319q-2.262-.475-2.262-1.922a1.742,1.742,0,0,1,.7-1.409,2.825,2.825,0,0,1,1.831-.565,3.04,3.04,0,0,1,1.931.568,1.791,1.791,0,0,1,.724,1.477h-1.693a.819.819,0,0,0-.234-.6.992.992,0,0,0-.732-.237,1.013,1.013,0,0,0-.662.193.61.61,0,0,0-.234.492.522.522,0,0,0,.267.454,2.743,2.743,0,0,0,.9.3,7.346,7.346,0,0,1,1.066.284A1.752,1.752,0,0,1-22.04-1.822a1.654,1.654,0,0,1-.744,1.4,3.21,3.21,0,0,1-1.922.536,3.353,3.353,0,0,1-1.415-.284,2.374,2.374,0,0,1-.97-.779,1.811,1.811,0,0,1-.352-1.069h1.605a.884.884,0,0,0,.334.691,1.325,1.325,0,0,0,.832.24,1.226,1.226,0,0,0,.735-.185A.574.574,0,0,0-23.687-1.752ZM-18.032.117A3.112,3.112,0,0,1-20.3-.738a3.041,3.041,0,0,1-.876-2.279v-.164A3.83,3.83,0,0,1-20.81-4.89a2.709,2.709,0,0,1,1.046-1.16,2.936,2.936,0,0,1,1.544-.407,2.631,2.631,0,0,1,2.048.82,3.333,3.333,0,0,1,.747,2.326v.691h-4.037a1.573,1.573,0,0,0,.5,1,1.5,1.5,0,0,0,1.046.375,1.828,1.828,0,0,0,1.529-.709l.832.932a2.542,2.542,0,0,1-1.031.841A3.383,3.383,0,0,1-18.032.117Zm-.193-5.209a1.058,1.058,0,0,0-.817.341,1.768,1.768,0,0,0-.4.977h2.355v-.135a1.261,1.261,0,0,0-.3-.874A1.092,1.092,0,0,0-18.226-5.092Zm5.32-1.248.053.732a2.213,2.213,0,0,1,1.822-.85,1.84,1.84,0,0,1,1.5.592,2.761,2.761,0,0,1,.5,1.77V0H-10.72V-4.055a1.1,1.1,0,0,0-.234-.782,1.049,1.049,0,0,0-.779-.243,1.165,1.165,0,0,0-1.072.609V0H-14.5V-6.34Zm3.363-2.584a1.64,1.64,0,0,1-.387,1.11,1.2,1.2,0,0,1-.943.448,1.431,1.431,0,0,1-.4-.05,2.654,2.654,0,0,1-.478-.214,2.576,2.576,0,0,0-.439-.2,1.074,1.074,0,0,0-.293-.038.47.47,0,0,0-.349.146.57.57,0,0,0-.144.416l-.984-.059a1.665,1.665,0,0,1,.384-1.107,1.184,1.184,0,0,1,.94-.457,1.211,1.211,0,0,1,.331.044,3.645,3.645,0,0,1,.507.214,3.294,3.294,0,0,0,.486.205,1.11,1.11,0,0,0,.281.035.494.494,0,0,0,.354-.144.546.546,0,0,0,.149-.413Zm1.535,5.7A3.76,3.76,0,0,1-7.644-4.91,2.659,2.659,0,0,1-6.6-6.053a3.051,3.051,0,0,1,1.585-.4,2.887,2.887,0,0,1,2.095.785,3.151,3.151,0,0,1,.905,2.133L-2-3.105A3.314,3.314,0,0,1-2.815-.765,2.831,2.831,0,0,1-5,.117,2.845,2.845,0,0,1-7.189-.762a3.372,3.372,0,0,1-.817-2.391Zm1.693.12a2.37,2.37,0,0,0,.34,1.382A1.121,1.121,0,0,0-5-1.248,1.124,1.124,0,0,0-4.04-1.72a2.593,2.593,0,0,0,.346-1.511A2.346,2.346,0,0,0-4.04-4.6a1.124,1.124,0,0,0-.973-.487,1.105,1.105,0,0,0-.961.484A2.637,2.637,0,0,0-6.313-3.108Zm12.879.87A.9.9,0,0,0,6.214-3a4.611,4.611,0,0,0-1.266-.562A8.972,8.972,0,0,1,3.5-4.148,2.365,2.365,0,0,1,2.048-6.264,2.06,2.06,0,0,1,2.438-7.5a2.542,2.542,0,0,1,1.119-.847,4.212,4.212,0,0,1,1.638-.3,3.834,3.834,0,0,1,1.629.331,2.594,2.594,0,0,1,1.11.935,2.445,2.445,0,0,1,.4,1.371H6.571A1.15,1.15,0,0,0,6.2-6.923a1.517,1.517,0,0,0-1.037-.325,1.621,1.621,0,0,0-1,.272.859.859,0,0,0-.357.718.823.823,0,0,0,.419.7,4.733,4.733,0,0,0,1.233.527A5.329,5.329,0,0,1,7.644-3.914,2.229,2.229,0,0,1,8.329-2.25,2.053,2.053,0,0,1,7.491-.513a3.668,3.668,0,0,1-2.256.63,4.356,4.356,0,0,1-1.793-.36A2.837,2.837,0,0,1,2.209-1.23a2.528,2.528,0,0,1-.425-1.453H3.548q0,1.412,1.688,1.412a1.642,1.642,0,0,0,.979-.255A.829.829,0,0,0,6.565-2.238ZM11.194,0H9.5V-6.34h1.7ZM9.4-7.98a.834.834,0,0,1,.255-.627.958.958,0,0,1,.694-.246.96.96,0,0,1,.691.246.829.829,0,0,1,.258.627.831.831,0,0,1-.261.633.962.962,0,0,1-.688.246.962.962,0,0,1-.688-.246A.831.831,0,0,1,9.4-7.98ZM14.177-6.34l.053.709a2.228,2.228,0,0,1,1.822-.826,1.691,1.691,0,0,1,1.682.967,2.177,2.177,0,0,1,1.9-.967,1.891,1.891,0,0,1,1.535.6,2.761,2.761,0,0,1,.5,1.808V0h-1.7V-4.043a1.207,1.207,0,0,0-.211-.788.935.935,0,0,0-.744-.249,1.057,1.057,0,0,0-1.055.727L17.974,0H16.28V-4.037a1.193,1.193,0,0,0-.217-.8.944.944,0,0,0-.738-.246,1.1,1.1,0,0,0-1.043.6V0H12.589V-6.34ZM28.685-3.111A3.8,3.8,0,0,1,28.02-.765a2.132,2.132,0,0,1-1.8.882,1.975,1.975,0,0,1-1.553-.668V2.438H22.978V-6.34h1.57l.059.621a1.99,1.99,0,0,1,1.605-.738,2.147,2.147,0,0,1,1.822.867,3.905,3.905,0,0,1,.65,2.391Zm-1.693-.123A2.5,2.5,0,0,0,26.678-4.6a1.021,1.021,0,0,0-.911-.48,1.109,1.109,0,0,0-1.1.609v2.6a1.128,1.128,0,0,0,1.107.627Q26.991-1.248,26.991-3.234ZM31.521,0h-1.7V-9h1.7Zm4.313.117a3.112,3.112,0,0,1-2.271-.855,3.041,3.041,0,0,1-.876-2.279v-.164a3.83,3.83,0,0,1,.369-1.708A2.709,2.709,0,0,1,34.1-6.05a2.936,2.936,0,0,1,1.544-.407,2.631,2.631,0,0,1,2.048.82,3.333,3.333,0,0,1,.747,2.326v.691H34.4a1.573,1.573,0,0,0,.5,1,1.5,1.5,0,0,0,1.046.375,1.828,1.828,0,0,0,1.529-.709l.832.932a2.542,2.542,0,0,1-1.031.841A3.383,3.383,0,0,1,35.833.117ZM35.64-5.092a1.058,1.058,0,0,0-.817.341,1.768,1.768,0,0,0-.4.977h2.355v-.135a1.261,1.261,0,0,0-.3-.874A1.092,1.092,0,0,0,35.64-5.092Z" transform="translate(-2819 -1901)" fill="#00104e"/>
    <path id="Trazado_602974" data-name="Trazado 602974" d="M-25.632-3.006V0H-27.39V-8.531h3.328a3.85,3.85,0,0,1,1.69.352,2.591,2.591,0,0,1,1.122,1,2.786,2.786,0,0,1,.393,1.474,2.45,2.45,0,0,1-.858,1.978,3.575,3.575,0,0,1-2.376.724Zm0-1.424h1.57A1.544,1.544,0,0,0-23-4.758a1.193,1.193,0,0,0,.366-.937A1.407,1.407,0,0,0-23-6.709a1.379,1.379,0,0,0-1.02-.4h-1.611Zm9.434-.322a4.6,4.6,0,0,0-.609-.047,1.24,1.24,0,0,0-1.26.65V0h-1.693V-6.34h1.6l.047.756A1.569,1.569,0,0,1-16.7-6.457a1.774,1.774,0,0,1,.527.076Zm.34,1.523A3.76,3.76,0,0,1-15.5-4.91a2.659,2.659,0,0,1,1.046-1.143,3.051,3.051,0,0,1,1.585-.4,2.887,2.887,0,0,1,2.095.785,3.151,3.151,0,0,1,.905,2.133l.012.434a3.314,3.314,0,0,1-.814,2.341,2.831,2.831,0,0,1-2.186.882,2.845,2.845,0,0,1-2.188-.879,3.372,3.372,0,0,1-.817-2.391Zm1.693.12a2.37,2.37,0,0,0,.34,1.382,1.121,1.121,0,0,0,.973.478,1.124,1.124,0,0,0,.961-.472,2.593,2.593,0,0,0,.346-1.511A2.346,2.346,0,0,0-11.892-4.6a1.124,1.124,0,0,0-.973-.487,1.105,1.105,0,0,0-.961.484A2.637,2.637,0,0,0-14.165-3.108ZM-6.782-7.9V-6.34H-5.7V-5.1H-6.782v3.164a.756.756,0,0,0,.135.5.677.677,0,0,0,.516.152,2.7,2.7,0,0,0,.5-.041V-.035A3.486,3.486,0,0,1-6.659.117a1.617,1.617,0,0,1-1.816-1.8V-5.1H-9.4V-6.34h.926V-7.9Zm1.588,4.67A3.76,3.76,0,0,1-4.831-4.91,2.659,2.659,0,0,1-3.785-6.053a3.051,3.051,0,0,1,1.585-.4,2.887,2.887,0,0,1,2.095.785A3.151,3.151,0,0,1,.8-3.539l.012.434A3.314,3.314,0,0,1,0-.765,2.831,2.831,0,0,1-2.188.117,2.845,2.845,0,0,1-4.377-.762a3.372,3.372,0,0,1-.817-2.391Zm1.693.12a2.37,2.37,0,0,0,.34,1.382,1.121,1.121,0,0,0,.973.478,1.124,1.124,0,0,0,.961-.472A2.593,2.593,0,0,0-.882-3.232,2.346,2.346,0,0,0-1.228-4.6,1.124,1.124,0,0,0-2.2-5.092a1.105,1.105,0,0,0-.961.484A2.637,2.637,0,0,0-3.5-3.108ZM3.882-7.9V-6.34H4.966V-5.1H3.882v3.164a.756.756,0,0,0,.135.5.677.677,0,0,0,.516.152,2.7,2.7,0,0,0,.5-.041V-.035A3.486,3.486,0,0,1,4,.117a1.617,1.617,0,0,1-1.816-1.8V-5.1H1.263V-6.34h.926V-7.9ZM7.7,0H6V-6.34H7.7ZM5.9-7.98a.834.834,0,0,1,.255-.627.958.958,0,0,1,.694-.246.96.96,0,0,1,.691.246A.829.829,0,0,1,7.8-7.98a.831.831,0,0,1-.261.633.962.962,0,0,1-.688.246.962.962,0,0,1-.688-.246A.831.831,0,0,1,5.9-7.98Zm8.9,4.869a3.8,3.8,0,0,1-.665,2.347,2.132,2.132,0,0,1-1.8.882,1.975,1.975,0,0,1-1.553-.668V2.438H9.091V-6.34h1.57l.059.621a1.99,1.99,0,0,1,1.605-.738,2.147,2.147,0,0,1,1.822.867A3.905,3.905,0,0,1,14.8-3.2ZM13.1-3.234A2.5,2.5,0,0,0,12.791-4.6a1.021,1.021,0,0,0-.911-.48,1.109,1.109,0,0,0-1.1.609v2.6a1.128,1.128,0,0,0,1.107.627Q13.1-1.248,13.1-3.234Zm2.479.006a3.76,3.76,0,0,1,.363-1.682,2.659,2.659,0,0,1,1.046-1.143,3.051,3.051,0,0,1,1.585-.4,2.887,2.887,0,0,1,2.095.785,3.151,3.151,0,0,1,.905,2.133l.012.434a3.314,3.314,0,0,1-.814,2.341,2.831,2.831,0,0,1-2.186.882A2.845,2.845,0,0,1,16.4-.762a3.372,3.372,0,0,1-.817-2.391Zm1.693.12a2.37,2.37,0,0,0,.34,1.382,1.121,1.121,0,0,0,.973.478,1.124,1.124,0,0,0,.961-.472A2.593,2.593,0,0,0,19.9-3.232,2.346,2.346,0,0,0,19.55-4.6a1.124,1.124,0,0,0-.973-.487,1.105,1.105,0,0,0-.961.484A2.637,2.637,0,0,0,17.276-3.108Zm8.789,1.356a.546.546,0,0,0-.308-.489,3.494,3.494,0,0,0-.987-.319q-2.262-.475-2.262-1.922a1.742,1.742,0,0,1,.7-1.409,2.825,2.825,0,0,1,1.831-.565,3.04,3.04,0,0,1,1.931.568,1.791,1.791,0,0,1,.724,1.477H26a.819.819,0,0,0-.234-.6.992.992,0,0,0-.732-.237,1.013,1.013,0,0,0-.662.193.61.61,0,0,0-.234.492.522.522,0,0,0,.267.454,2.743,2.743,0,0,0,.9.3,7.346,7.346,0,0,1,1.066.284,1.752,1.752,0,0,1,1.342,1.705,1.654,1.654,0,0,1-.744,1.4,3.21,3.21,0,0,1-1.922.536,3.353,3.353,0,0,1-1.415-.284,2.374,2.374,0,0,1-.97-.779,1.811,1.811,0,0,1-.352-1.069h1.605a.884.884,0,0,0,.334.691,1.325,1.325,0,0,0,.832.24,1.226,1.226,0,0,0,.735-.185A.574.574,0,0,0,26.065-1.752Z" transform="translate(-2821 -1868)" fill="#00104e"/>
    <path id="Trazado_602975" data-name="Trazado 602975" d="M-65.391-3.006V0h-1.758V-8.531h3.328a3.85,3.85,0,0,1,1.69.352,2.591,2.591,0,0,1,1.122,1,2.786,2.786,0,0,1,.393,1.474,2.45,2.45,0,0,1-.858,1.978,3.575,3.575,0,0,1-2.376.724Zm0-1.424h1.57a1.544,1.544,0,0,0,1.063-.328,1.193,1.193,0,0,0,.366-.937,1.407,1.407,0,0,0-.369-1.014,1.379,1.379,0,0,0-1.02-.4h-1.611Zm9.434-.322a4.6,4.6,0,0,0-.609-.047,1.24,1.24,0,0,0-1.26.65V0H-59.52V-6.34h1.6l.047.756a1.569,1.569,0,0,1,1.412-.873,1.774,1.774,0,0,1,.527.076Zm.34,1.523a3.76,3.76,0,0,1,.363-1.682,2.659,2.659,0,0,1,1.046-1.143,3.051,3.051,0,0,1,1.585-.4,2.887,2.887,0,0,1,2.095.785,3.151,3.151,0,0,1,.905,2.133l.012.434a3.314,3.314,0,0,1-.814,2.341,2.831,2.831,0,0,1-2.186.882A2.845,2.845,0,0,1-54.8-.762a3.372,3.372,0,0,1-.817-2.391Zm1.693.12a2.37,2.37,0,0,0,.34,1.382,1.121,1.121,0,0,0,.973.478,1.124,1.124,0,0,0,.961-.472A2.593,2.593,0,0,0-51.3-3.232,2.346,2.346,0,0,0-51.65-4.6a1.124,1.124,0,0,0-.973-.487,1.105,1.105,0,0,0-.961.484A2.637,2.637,0,0,0-53.924-3.108Zm5.109-.108a3.716,3.716,0,0,1,.694-2.35,2.25,2.25,0,0,1,1.872-.891,1.973,1.973,0,0,1,1.623.715l.07-.6h1.535V-.211A2.71,2.71,0,0,1-43.4,1.236a2.427,2.427,0,0,1-1.063.938,3.739,3.739,0,0,1-1.605.322,3.476,3.476,0,0,1-1.359-.278,2.413,2.413,0,0,1-1-.718l.75-1.031a1.984,1.984,0,0,0,1.535.709,1.452,1.452,0,0,0,1.049-.36,1.352,1.352,0,0,0,.375-1.022v-.34A1.959,1.959,0,0,1-46.26.117a2.244,2.244,0,0,1-1.849-.894,3.715,3.715,0,0,1-.706-2.37Zm1.693.126a2.314,2.314,0,0,0,.346,1.353,1.1,1.1,0,0,0,.949.49,1.176,1.176,0,0,0,1.107-.581V-4.5a1.173,1.173,0,0,0-1.1-.581,1.107,1.107,0,0,0-.958.5A2.608,2.608,0,0,0-47.121-3.091Zm8.965-1.661a4.6,4.6,0,0,0-.609-.047,1.24,1.24,0,0,0-1.26.65V0h-1.693V-6.34h1.6l.047.756a1.569,1.569,0,0,1,1.412-.873,1.774,1.774,0,0,1,.527.076ZM-33.844,0a1.88,1.88,0,0,1-.17-.568,2.049,2.049,0,0,1-1.6.686,2.251,2.251,0,0,1-1.544-.539,1.734,1.734,0,0,1-.612-1.359,1.792,1.792,0,0,1,.747-1.547,3.686,3.686,0,0,1,2.159-.545h.779v-.363a1.045,1.045,0,0,0-.226-.7.887.887,0,0,0-.712-.264A1.009,1.009,0,0,0-35.692-5a.7.7,0,0,0-.243.563h-1.693a1.7,1.7,0,0,1,.34-1.02,2.246,2.246,0,0,1,.961-.735,3.5,3.5,0,0,1,1.395-.267,2.767,2.767,0,0,1,1.86.589,2.06,2.06,0,0,1,.688,1.655v2.748A3.031,3.031,0,0,0-32.133-.1V0Zm-1.4-1.178a1.458,1.458,0,0,0,.691-.167,1.1,1.1,0,0,0,.469-.448v-1.09h-.633q-1.271,0-1.354.879l-.006.1a.678.678,0,0,0,.223.521A.865.865,0,0,0-35.244-1.178ZM-29.5-6.34l.053.709a2.228,2.228,0,0,1,1.822-.826,1.691,1.691,0,0,1,1.682.967,2.177,2.177,0,0,1,1.9-.967,1.891,1.891,0,0,1,1.535.6A2.761,2.761,0,0,1-22-4.049V0h-1.7V-4.043a1.207,1.207,0,0,0-.211-.788.935.935,0,0,0-.744-.249,1.057,1.057,0,0,0-1.055.727L-25.7,0h-1.693V-4.037a1.193,1.193,0,0,0-.217-.8.944.944,0,0,0-.738-.246,1.1,1.1,0,0,0-1.043.6V0h-1.693V-6.34ZM-17.021,0a1.88,1.88,0,0,1-.17-.568,2.049,2.049,0,0,1-1.6.686,2.251,2.251,0,0,1-1.544-.539,1.734,1.734,0,0,1-.612-1.359A1.792,1.792,0,0,1-20.2-3.328a3.686,3.686,0,0,1,2.159-.545h.779v-.363a1.045,1.045,0,0,0-.226-.7A.887.887,0,0,0-18.2-5.2,1.009,1.009,0,0,0-18.87-5a.7.7,0,0,0-.243.563h-1.693a1.7,1.7,0,0,1,.34-1.02,2.246,2.246,0,0,1,.961-.735,3.5,3.5,0,0,1,1.395-.267,2.767,2.767,0,0,1,1.86.589,2.06,2.06,0,0,1,.688,1.655v2.748A3.031,3.031,0,0,0-15.311-.1V0Zm-1.4-1.178a1.458,1.458,0,0,0,.691-.167,1.1,1.1,0,0,0,.469-.448v-1.09h-.633q-1.271,0-1.354.879l-.006.1a.678.678,0,0,0,.223.521A.865.865,0,0,0-18.422-1.178Zm6.8-.07a1.111,1.111,0,0,0,.762-.258.9.9,0,0,0,.3-.686h1.588a2.172,2.172,0,0,1-.352,1.181,2.32,2.32,0,0,1-.946.832,2.962,2.962,0,0,1-1.327.3A2.752,2.752,0,0,1-13.74-.747a3.42,3.42,0,0,1-.785-2.388v-.111a3.381,3.381,0,0,1,.779-2.338,2.72,2.72,0,0,1,2.139-.873A2.667,2.667,0,0,1-9.7-5.78a2.4,2.4,0,0,1,.729,1.8h-1.588a1.164,1.164,0,0,0-.3-.8,1.016,1.016,0,0,0-.773-.309,1.02,1.02,0,0,0-.894.431,2.5,2.5,0,0,0-.3,1.4v.176a2.531,2.531,0,0,0,.3,1.408A1.033,1.033,0,0,0-11.625-1.248ZM-6.217,0h-1.7V-6.34h1.7Zm-1.8-7.98a.834.834,0,0,1,.255-.627.958.958,0,0,1,.694-.246.96.96,0,0,1,.691.246.829.829,0,0,1,.258.627.831.831,0,0,1-.261.633.962.962,0,0,1-.688.246.962.962,0,0,1-.688-.246A.831.831,0,0,1-8.016-7.98Zm2.93,4.752A3.76,3.76,0,0,1-4.723-4.91,2.659,2.659,0,0,1-3.677-6.053a3.051,3.051,0,0,1,1.585-.4A2.887,2.887,0,0,1,0-5.672,3.151,3.151,0,0,1,.908-3.539l.012.434A3.314,3.314,0,0,1,.105-.765,2.831,2.831,0,0,1-2.08.117,2.845,2.845,0,0,1-4.269-.762a3.372,3.372,0,0,1-.817-2.391Zm1.693.12a2.37,2.37,0,0,0,.34,1.382,1.121,1.121,0,0,0,.973.478,1.124,1.124,0,0,0,.961-.472A2.593,2.593,0,0,0-.773-3.232,2.346,2.346,0,0,0-1.119-4.6a1.124,1.124,0,0,0-.973-.487,1.105,1.105,0,0,0-.961.484A2.637,2.637,0,0,0-3.393-3.108ZM-1.758-9H.088L-1.535-7.184H-2.912ZM3.521-6.34l.053.732A2.213,2.213,0,0,1,5.4-6.457a1.84,1.84,0,0,1,1.5.592A2.761,2.761,0,0,1,7.4-4.1V0H5.707V-4.055a1.1,1.1,0,0,0-.234-.782,1.049,1.049,0,0,0-.779-.243,1.165,1.165,0,0,0-1.072.609V0H1.928V-6.34ZM14.59.117a3.112,3.112,0,0,1-2.271-.855,3.041,3.041,0,0,1-.876-2.279v-.164a3.83,3.83,0,0,1,.369-1.708,2.709,2.709,0,0,1,1.046-1.16A2.936,2.936,0,0,1,14.4-6.457a2.631,2.631,0,0,1,2.048.82A3.333,3.333,0,0,1,17.2-3.311v.691H13.16a1.573,1.573,0,0,0,.5,1,1.5,1.5,0,0,0,1.046.375,1.828,1.828,0,0,0,1.529-.709l.832.932a2.542,2.542,0,0,1-1.031.841A3.383,3.383,0,0,1,14.59.117ZM14.4-5.092a1.058,1.058,0,0,0-.817.341,1.768,1.768,0,0,0-.4.977h2.355v-.135a1.261,1.261,0,0,0-.3-.874A1.092,1.092,0,0,0,14.4-5.092Zm5.32-1.248.053.732a2.213,2.213,0,0,1,1.822-.85,1.84,1.84,0,0,1,1.5.592,2.761,2.761,0,0,1,.5,1.77V0H21.9V-4.055a1.1,1.1,0,0,0-.234-.782,1.049,1.049,0,0,0-.779-.243,1.165,1.165,0,0,0-1.072.609V0H18.123V-6.34Zm10.02,3.334V0H27.979V-8.531h3.328A3.85,3.85,0,0,1,33-8.18a2.591,2.591,0,0,1,1.122,1,2.786,2.786,0,0,1,.393,1.474,2.45,2.45,0,0,1-.858,1.978,3.575,3.575,0,0,1-2.376.724Zm0-1.424h1.57a1.544,1.544,0,0,0,1.063-.328,1.193,1.193,0,0,0,.366-.937,1.407,1.407,0,0,0-.369-1.014,1.379,1.379,0,0,0-1.02-.4H29.736ZM39.217,0a1.88,1.88,0,0,1-.17-.568,2.049,2.049,0,0,1-1.6.686A2.251,2.251,0,0,1,35.9-.422a1.734,1.734,0,0,1-.612-1.359,1.792,1.792,0,0,1,.747-1.547A3.686,3.686,0,0,1,38.2-3.873h.779v-.363a1.045,1.045,0,0,0-.226-.7.887.887,0,0,0-.712-.264A1.009,1.009,0,0,0,37.368-5a.7.7,0,0,0-.243.563H35.432a1.7,1.7,0,0,1,.34-1.02,2.246,2.246,0,0,1,.961-.735,3.5,3.5,0,0,1,1.395-.267,2.767,2.767,0,0,1,1.86.589,2.06,2.06,0,0,1,.688,1.655v2.748A3.031,3.031,0,0,0,40.928-.1V0Zm-1.4-1.178a1.458,1.458,0,0,0,.691-.167,1.1,1.1,0,0,0,.469-.448v-1.09h-.633q-1.271,0-1.354.879l-.006.1a.678.678,0,0,0,.223.521A.865.865,0,0,0,37.816-1.178Zm7.723-3.574A4.6,4.6,0,0,0,44.93-4.8a1.24,1.24,0,0,0-1.26.65V0H41.977V-6.34h1.6l.047.756a1.569,1.569,0,0,1,1.412-.873,1.774,1.774,0,0,1,.527.076ZM49.271.117A3.112,3.112,0,0,1,47-.738a3.041,3.041,0,0,1-.876-2.279v-.164a3.83,3.83,0,0,1,.369-1.708A2.709,2.709,0,0,1,47.54-6.05a2.936,2.936,0,0,1,1.544-.407,2.631,2.631,0,0,1,2.048.82,3.333,3.333,0,0,1,.747,2.326v.691H47.842a1.573,1.573,0,0,0,.5,1,1.5,1.5,0,0,0,1.046.375,1.828,1.828,0,0,0,1.529-.709l.832.932a2.542,2.542,0,0,1-1.031.841A3.383,3.383,0,0,1,49.271.117Zm-.193-5.209a1.058,1.058,0,0,0-.817.341,1.768,1.768,0,0,0-.4.977h2.355v-.135a1.261,1.261,0,0,0-.3-.874A1.092,1.092,0,0,0,49.078-5.092ZM54.633-6.34V.346a2.268,2.268,0,0,1-.557,1.632,2.116,2.116,0,0,1-1.605.583,3.443,3.443,0,0,1-.838-.1V1.119a3.179,3.179,0,0,0,.533.053q.768,0,.768-.814v-6.7ZM52.8-7.98a.834.834,0,0,1,.255-.627.958.958,0,0,1,.694-.246.958.958,0,0,1,.694.246.834.834,0,0,1,.255.627.831.831,0,0,1-.261.633.962.962,0,0,1-.688.246.962.962,0,0,1-.688-.246A.831.831,0,0,1,52.8-7.98ZM59.631,0a1.88,1.88,0,0,1-.17-.568,2.049,2.049,0,0,1-1.6.686,2.251,2.251,0,0,1-1.544-.539,1.734,1.734,0,0,1-.612-1.359,1.792,1.792,0,0,1,.747-1.547,3.686,3.686,0,0,1,2.159-.545h.779v-.363a1.045,1.045,0,0,0-.226-.7.887.887,0,0,0-.712-.264A1.009,1.009,0,0,0,57.782-5a.7.7,0,0,0-.243.563H55.846a1.7,1.7,0,0,1,.34-1.02,2.246,2.246,0,0,1,.961-.735,3.5,3.5,0,0,1,1.395-.267,2.767,2.767,0,0,1,1.86.589,2.06,2.06,0,0,1,.688,1.655v2.748A3.031,3.031,0,0,0,61.342-.1V0Zm-1.4-1.178a1.458,1.458,0,0,0,.691-.167,1.1,1.1,0,0,0,.469-.448v-1.09h-.633q-1.271,0-1.354.879l-.006.1a.678.678,0,0,0,.223.521A.865.865,0,0,0,58.23-1.178Zm7.594-.574a.546.546,0,0,0-.308-.489,3.494,3.494,0,0,0-.987-.319q-2.262-.475-2.262-1.922a1.742,1.742,0,0,1,.7-1.409A2.825,2.825,0,0,1,64.8-6.457a3.04,3.04,0,0,1,1.931.568,1.791,1.791,0,0,1,.724,1.477H65.76a.819.819,0,0,0-.234-.6.992.992,0,0,0-.732-.237,1.013,1.013,0,0,0-.662.193.61.61,0,0,0-.234.492.522.522,0,0,0,.267.454,2.743,2.743,0,0,0,.9.3,7.346,7.346,0,0,1,1.066.284,1.752,1.752,0,0,1,1.342,1.705,1.654,1.654,0,0,1-.744,1.4A3.21,3.21,0,0,1,64.8.117,3.353,3.353,0,0,1,63.39-.167a2.374,2.374,0,0,1-.97-.779,1.811,1.811,0,0,1-.352-1.069h1.605a.884.884,0,0,0,.334.691,1.325,1.325,0,0,0,.832.24,1.226,1.226,0,0,0,.735-.185A.574.574,0,0,0,65.824-1.752Z" transform="translate(-2844 -1775)" fill="#00104e"/>
    <path id="Trazado_602976" data-name="Trazado 602976" d="M-20.6-3.451h-2V0h-1.131V-8.531h2.824a3.343,3.343,0,0,1,2.218.656,2.361,2.361,0,0,1,.776,1.91,2.3,2.3,0,0,1-.431,1.389,2.571,2.571,0,0,1-1.2.885l2,3.621V0h-1.207Zm-2-.92h1.729a1.95,1.95,0,0,0,1.333-.434,1.469,1.469,0,0,0,.5-1.162,1.547,1.547,0,0,0-.472-1.215,2,2,0,0,0-1.362-.429H-22.6ZM-13.878.117a2.77,2.77,0,0,1-2.1-.847,3.142,3.142,0,0,1-.809-2.265v-.2a3.8,3.8,0,0,1,.36-1.685,2.811,2.811,0,0,1,1.008-1.16,2.534,2.534,0,0,1,1.4-.419,2.374,2.374,0,0,1,1.922.814,3.526,3.526,0,0,1,.686,2.332v.451H-15.7a2.254,2.254,0,0,0,.548,1.515,1.722,1.722,0,0,0,1.333.577A1.888,1.888,0,0,0-12.847-1a2.444,2.444,0,0,0,.7-.621l.662.516A2.662,2.662,0,0,1-13.878.117Zm-.135-5.684a1.446,1.446,0,0,0-1.1.478,2.321,2.321,0,0,0-.551,1.339h3.176v-.082a2.065,2.065,0,0,0-.445-1.28A1.361,1.361,0,0,0-14.013-5.566Zm3.6,2.344a3.714,3.714,0,0,1,.691-2.347,2.186,2.186,0,0,1,1.811-.888A2.2,2.2,0,0,1-6.149-5.7V-9h1.084V0h-1l-.053-.68a2.208,2.208,0,0,1-1.811.8,2.165,2.165,0,0,1-1.8-.9,3.756,3.756,0,0,1-.694-2.355Zm1.084.123a2.812,2.812,0,0,0,.445,1.688A1.44,1.44,0,0,0-7.655-.8a1.581,1.581,0,0,0,1.506-.926V-4.641a1.593,1.593,0,0,0-1.494-.9,1.446,1.446,0,0,0-1.242.615A3.1,3.1,0,0,0-9.331-3.1ZM-2.206,0H-3.29V-6.34h1.084ZM-3.378-8.021a.647.647,0,0,1,.161-.445.6.6,0,0,1,.478-.182.614.614,0,0,1,.48.182.64.64,0,0,1,.164.445.619.619,0,0,1-.164.439.626.626,0,0,1-.48.176.616.616,0,0,1-.478-.176A.626.626,0,0,1-3.378-8.021Zm6.6,6.34a.8.8,0,0,0-.331-.683,3.187,3.187,0,0,0-1.154-.419A5.457,5.457,0,0,1,.428-3.205a1.859,1.859,0,0,1-.715-.586A1.4,1.4,0,0,1-.519-4.6,1.645,1.645,0,0,1,.141-5.918a2.574,2.574,0,0,1,1.685-.539A2.649,2.649,0,0,1,3.574-5.9a1.768,1.768,0,0,1,.671,1.424H3.155a.979.979,0,0,0-.378-.768,1.416,1.416,0,0,0-.952-.322A1.482,1.482,0,0,0,.9-5.309a.812.812,0,0,0-.334.674.658.658,0,0,0,.311.592A3.821,3.821,0,0,0,2-3.662a5.847,5.847,0,0,1,1.315.434,1.919,1.919,0,0,1,.747.606,1.491,1.491,0,0,1,.243.864A1.623,1.623,0,0,1,3.624-.4,2.851,2.851,0,0,1,1.86.117,3.193,3.193,0,0,1,.513-.152,2.192,2.192,0,0,1-.4-.905,1.815,1.815,0,0,1-.735-1.951H.349a1.122,1.122,0,0,0,.437.864A1.693,1.693,0,0,0,1.86-.768a1.748,1.748,0,0,0,.987-.249A.765.765,0,0,0,3.22-1.682ZM8.347.117a2.77,2.77,0,0,1-2.1-.847A3.142,3.142,0,0,1,5.44-2.994v-.2A3.8,3.8,0,0,1,5.8-4.878a2.811,2.811,0,0,1,1.008-1.16,2.534,2.534,0,0,1,1.4-.419,2.374,2.374,0,0,1,1.922.814,3.526,3.526,0,0,1,.686,2.332v.451H6.524a2.254,2.254,0,0,0,.548,1.515,1.722,1.722,0,0,0,1.333.577A1.888,1.888,0,0,0,9.378-1a2.444,2.444,0,0,0,.7-.621l.662.516A2.662,2.662,0,0,1,8.347.117ZM8.212-5.566a1.446,1.446,0,0,0-1.1.478A2.321,2.321,0,0,0,6.56-3.75H9.735v-.082a2.065,2.065,0,0,0-.445-1.28A1.361,1.361,0,0,0,8.212-5.566ZM13.1-6.34l.035.8a2.31,2.31,0,0,1,1.9-.914q2.01,0,2.027,2.268V0H15.976V-4.2a1.459,1.459,0,0,0-.313-1.014,1.256,1.256,0,0,0-.958-.328,1.564,1.564,0,0,0-.926.281,1.91,1.91,0,0,0-.621.738V0H12.073V-6.34Zm3.586-2.473a1.457,1.457,0,0,1-.36,1.025,1.17,1.17,0,0,1-.9.393,1.32,1.32,0,0,1-.416-.059,2.244,2.244,0,0,1-.46-.24,1.992,1.992,0,0,0-.41-.22,1,1,0,0,0-.29-.038.538.538,0,0,0-.41.185.669.669,0,0,0-.17.472l-.727-.041A1.529,1.529,0,0,1,12.9-8.373a1.137,1.137,0,0,1,.9-.41,1.092,1.092,0,0,1,.369.059,2.69,2.69,0,0,1,.445.229,2.62,2.62,0,0,0,.431.223.989.989,0,0,0,.331.053.524.524,0,0,0,.419-.2.7.7,0,0,0,.167-.463Zm1.723,5.584A3.745,3.745,0,0,1,18.773-4.9a2.732,2.732,0,0,1,1.02-1.148,2.775,2.775,0,0,1,1.491-.4,2.674,2.674,0,0,1,2.095.9,3.449,3.449,0,0,1,.8,2.385V-3.1a3.777,3.777,0,0,1-.354,1.661A2.692,2.692,0,0,1,22.811-.293,2.807,2.807,0,0,1,21.3.117a2.667,2.667,0,0,1-2.089-.9,3.432,3.432,0,0,1-.8-2.373ZM19.5-3.1a2.712,2.712,0,0,0,.489,1.693,1.566,1.566,0,0,0,1.31.639,1.556,1.556,0,0,0,1.313-.647,2.966,2.966,0,0,0,.486-1.813,2.708,2.708,0,0,0-.5-1.69,1.574,1.574,0,0,0-1.315-.647,1.557,1.557,0,0,0-1.295.639A2.944,2.944,0,0,0,19.5-3.1Z" transform="translate(-3016 -1762)" fill="#00104e"/>
    <path id="Trazado_602977" data-name="Trazado 602977" d="M-59.936-3.006V0h-1.758V-8.531h3.328a3.85,3.85,0,0,1,1.69.352,2.591,2.591,0,0,1,1.122,1,2.786,2.786,0,0,1,.393,1.474,2.45,2.45,0,0,1-.858,1.978,3.575,3.575,0,0,1-2.376.724Zm0-1.424h1.57A1.544,1.544,0,0,0-57.3-4.758a1.193,1.193,0,0,0,.366-.937A1.407,1.407,0,0,0-57.3-6.709a1.379,1.379,0,0,0-1.02-.4h-1.611Zm9.434-.322a4.6,4.6,0,0,0-.609-.047,1.24,1.24,0,0,0-1.26.65V0h-1.693V-6.34h1.6l.047.756a1.569,1.569,0,0,1,1.412-.873,1.774,1.774,0,0,1,.527.076Zm4.611,4.107a2.124,2.124,0,0,1-1.734.762,2,2,0,0,1-1.556-.586,2.5,2.5,0,0,1-.548-1.717V-6.34h1.693v4.1q0,.991.9.991a1.223,1.223,0,0,0,1.184-.6V-6.34h1.7V0h-1.594Zm5.836.762a3.112,3.112,0,0,1-2.271-.855A3.041,3.041,0,0,1-43.2-3.018v-.164a3.83,3.83,0,0,1,.369-1.708,2.709,2.709,0,0,1,1.046-1.16,2.936,2.936,0,0,1,1.544-.407,2.631,2.631,0,0,1,2.048.82,3.333,3.333,0,0,1,.747,2.326v.691h-4.037a1.573,1.573,0,0,0,.5,1,1.5,1.5,0,0,0,1.046.375,1.828,1.828,0,0,0,1.529-.709l.832.932a2.542,2.542,0,0,1-1.031.841A3.383,3.383,0,0,1-40.055.117Zm-.193-5.209a1.058,1.058,0,0,0-.817.341,1.768,1.768,0,0,0-.4.977h2.355v-.135a1.261,1.261,0,0,0-.3-.874A1.092,1.092,0,0,0-40.248-5.092Zm9.475,1.98a3.839,3.839,0,0,1-.65,2.376A2.154,2.154,0,0,1-33.24.117a1.979,1.979,0,0,1-1.646-.791L-34.963,0h-1.523V-9h1.693v3.229a1.929,1.929,0,0,1,1.541-.686,2.172,2.172,0,0,1,1.819.853,3.845,3.845,0,0,1,.659,2.4Zm-1.693-.123a2.522,2.522,0,0,0-.3-1.4,1.03,1.03,0,0,0-.908-.442,1.117,1.117,0,0,0-1.113.662v2.5a1.132,1.132,0,0,0,1.125.668,1.045,1.045,0,0,0,1.078-.809A4.171,4.171,0,0,0-32.467-3.234ZM-26.057,0a1.88,1.88,0,0,1-.17-.568,2.049,2.049,0,0,1-1.6.686A2.251,2.251,0,0,1-29.37-.422a1.734,1.734,0,0,1-.612-1.359,1.792,1.792,0,0,1,.747-1.547,3.686,3.686,0,0,1,2.159-.545h.779v-.363a1.045,1.045,0,0,0-.226-.7.887.887,0,0,0-.712-.264A1.009,1.009,0,0,0-27.905-5a.7.7,0,0,0-.243.563h-1.693a1.7,1.7,0,0,1,.34-1.02,2.246,2.246,0,0,1,.961-.735,3.5,3.5,0,0,1,1.395-.267,2.767,2.767,0,0,1,1.86.589A2.06,2.06,0,0,1-24.6-4.213v2.748A3.031,3.031,0,0,0-24.346-.1V0Zm-1.4-1.178a1.458,1.458,0,0,0,.691-.167,1.1,1.1,0,0,0,.469-.448v-1.09h-.633q-1.271,0-1.354.879l-.006.1a.678.678,0,0,0,.223.521A.865.865,0,0,0-27.457-1.178Zm7.594-.574a.546.546,0,0,0-.308-.489,3.494,3.494,0,0,0-.987-.319q-2.262-.475-2.262-1.922a1.742,1.742,0,0,1,.7-1.409,2.825,2.825,0,0,1,1.831-.565,3.04,3.04,0,0,1,1.931.568,1.791,1.791,0,0,1,.724,1.477h-1.693a.819.819,0,0,0-.234-.6.992.992,0,0,0-.732-.237,1.013,1.013,0,0,0-.662.193.61.61,0,0,0-.234.492.522.522,0,0,0,.267.454,2.743,2.743,0,0,0,.9.3,7.346,7.346,0,0,1,1.066.284,1.752,1.752,0,0,1,1.342,1.705,1.654,1.654,0,0,1-.744,1.4,3.21,3.21,0,0,1-1.922.536A3.353,3.353,0,0,1-22.3-.167a2.374,2.374,0,0,1-.97-.779,1.811,1.811,0,0,1-.352-1.069h1.605a.884.884,0,0,0,.334.691,1.325,1.325,0,0,0,.832.24,1.226,1.226,0,0,0,.735-.185A.574.574,0,0,0-19.863-1.752ZM-14.4-3.217a3.821,3.821,0,0,1,.665-2.361,2.158,2.158,0,0,1,1.819-.879,1.942,1.942,0,0,1,1.529.691V-9h1.7V0h-1.529L-10.3-.674A1.993,1.993,0,0,1-11.93.117a2.152,2.152,0,0,1-1.8-.882A3.944,3.944,0,0,1-14.4-3.217Zm1.693.126A2.5,2.5,0,0,0-12.4-1.723a1.012,1.012,0,0,0,.9.475,1.133,1.133,0,0,0,1.107-.663V-4.417a1.117,1.117,0,0,0-1.1-.663Q-12.709-5.08-12.709-3.091ZM-4.459.117A3.112,3.112,0,0,1-6.729-.738a3.041,3.041,0,0,1-.876-2.279v-.164A3.83,3.83,0,0,1-7.236-4.89,2.709,2.709,0,0,1-6.19-6.05a2.936,2.936,0,0,1,1.544-.407,2.631,2.631,0,0,1,2.048.82,3.333,3.333,0,0,1,.747,2.326v.691H-5.889a1.573,1.573,0,0,0,.5,1,1.5,1.5,0,0,0,1.046.375,1.828,1.828,0,0,0,1.529-.709l.832.932a2.542,2.542,0,0,1-1.031.841A3.383,3.383,0,0,1-4.459.117Zm-.193-5.209a1.058,1.058,0,0,0-.817.341,1.768,1.768,0,0,0-.4.977h2.355v-.135a1.261,1.261,0,0,0-.3-.874A1.092,1.092,0,0,0-4.652-5.092ZM7.025-1.758H3.943L3.357,0H1.488L4.664-8.531H6.293L9.486,0H7.617ZM4.418-3.182H6.551L5.479-6.375Zm8.391,1.934a1.111,1.111,0,0,0,.762-.258.9.9,0,0,0,.3-.686h1.588a2.172,2.172,0,0,1-.352,1.181,2.32,2.32,0,0,1-.946.832,2.962,2.962,0,0,1-1.327.3,2.752,2.752,0,0,1-2.145-.864,3.42,3.42,0,0,1-.785-2.388v-.111a3.381,3.381,0,0,1,.779-2.338,2.72,2.72,0,0,1,2.139-.873,2.667,2.667,0,0,1,1.907.677,2.4,2.4,0,0,1,.729,1.8H13.875a1.164,1.164,0,0,0-.3-.8,1.016,1.016,0,0,0-.773-.309,1.02,1.02,0,0,0-.894.431,2.5,2.5,0,0,0-.3,1.4v.176a2.531,2.531,0,0,0,.3,1.408A1.033,1.033,0,0,0,12.809-1.248ZM19.348.117a3.112,3.112,0,0,1-2.271-.855A3.041,3.041,0,0,1,16.2-3.018v-.164A3.83,3.83,0,0,1,16.57-4.89a2.709,2.709,0,0,1,1.046-1.16,2.936,2.936,0,0,1,1.544-.407,2.631,2.631,0,0,1,2.048.82,3.333,3.333,0,0,1,.747,2.326v.691H17.918a1.573,1.573,0,0,0,.5,1,1.5,1.5,0,0,0,1.046.375,1.828,1.828,0,0,0,1.529-.709l.832.932a2.542,2.542,0,0,1-1.031.841A3.383,3.383,0,0,1,19.348.117Zm-.193-5.209a1.058,1.058,0,0,0-.817.341,1.768,1.768,0,0,0-.4.977h2.355v-.135a1.261,1.261,0,0,0-.3-.874A1.092,1.092,0,0,0,19.154-5.092Zm9.469,1.98a3.8,3.8,0,0,1-.665,2.347,2.132,2.132,0,0,1-1.8.882,1.975,1.975,0,0,1-1.553-.668V2.438H22.916V-6.34h1.57l.059.621a1.99,1.99,0,0,1,1.605-.738,2.147,2.147,0,0,1,1.822.867,3.905,3.905,0,0,1,.65,2.391ZM26.93-3.234A2.5,2.5,0,0,0,26.616-4.6a1.021,1.021,0,0,0-.911-.48,1.109,1.109,0,0,0-1.1.609v2.6a1.128,1.128,0,0,0,1.107.627Q26.93-1.248,26.93-3.234ZM31.7-7.9V-6.34h1.084V-5.1H31.7v3.164a.756.756,0,0,0,.135.5.677.677,0,0,0,.516.152,2.7,2.7,0,0,0,.5-.041V-.035a3.486,3.486,0,0,1-1.025.152,1.617,1.617,0,0,1-1.816-1.8V-5.1H29.08V-6.34h.926V-7.9ZM37.4,0a1.88,1.88,0,0,1-.17-.568,2.049,2.049,0,0,1-1.6.686,2.251,2.251,0,0,1-1.544-.539,1.734,1.734,0,0,1-.612-1.359,1.792,1.792,0,0,1,.747-1.547,3.686,3.686,0,0,1,2.159-.545h.779v-.363a1.045,1.045,0,0,0-.226-.7.887.887,0,0,0-.712-.264A1.009,1.009,0,0,0,35.552-5a.7.7,0,0,0-.243.563H33.615a1.7,1.7,0,0,1,.34-1.02,2.246,2.246,0,0,1,.961-.735,3.5,3.5,0,0,1,1.395-.267,2.767,2.767,0,0,1,1.86.589,2.06,2.06,0,0,1,.688,1.655v2.748A3.031,3.031,0,0,0,39.111-.1V0ZM36-1.178a1.458,1.458,0,0,0,.691-.167,1.1,1.1,0,0,0,.469-.448v-1.09h-.633q-1.271,0-1.354.879l-.006.1a.678.678,0,0,0,.223.521A.865.865,0,0,0,36-1.178Zm6.8-.07a1.111,1.111,0,0,0,.762-.258.9.9,0,0,0,.3-.686h1.588A2.172,2.172,0,0,1,45.1-1.011a2.32,2.32,0,0,1-.946.832,2.962,2.962,0,0,1-1.327.3,2.752,2.752,0,0,1-2.145-.864A3.42,3.42,0,0,1,39.9-3.135v-.111a3.381,3.381,0,0,1,.779-2.338,2.72,2.72,0,0,1,2.139-.873,2.667,2.667,0,0,1,1.907.677,2.4,2.4,0,0,1,.729,1.8H43.863a1.164,1.164,0,0,0-.3-.8,1.016,1.016,0,0,0-.773-.309,1.02,1.02,0,0,0-.894.431,2.5,2.5,0,0,0-.3,1.4v.176a2.531,2.531,0,0,0,.3,1.408A1.033,1.033,0,0,0,42.8-1.248ZM48.205,0h-1.7V-6.34h1.7Zm-1.8-7.98a.834.834,0,0,1,.255-.627.958.958,0,0,1,.694-.246.96.96,0,0,1,.691.246.829.829,0,0,1,.258.627.831.831,0,0,1-.261.633.962.962,0,0,1-.688.246.962.962,0,0,1-.688-.246A.831.831,0,0,1,46.406-7.98Zm2.93,4.752A3.76,3.76,0,0,1,49.7-4.91a2.659,2.659,0,0,1,1.046-1.143,3.051,3.051,0,0,1,1.585-.4,2.887,2.887,0,0,1,2.095.785,3.151,3.151,0,0,1,.905,2.133l.012.434a3.314,3.314,0,0,1-.814,2.341,2.831,2.831,0,0,1-2.186.882,2.845,2.845,0,0,1-2.188-.879,3.372,3.372,0,0,1-.817-2.391Zm1.693.12a2.37,2.37,0,0,0,.34,1.382,1.121,1.121,0,0,0,.973.478A1.124,1.124,0,0,0,53.3-1.72a2.593,2.593,0,0,0,.346-1.511A2.346,2.346,0,0,0,53.3-4.6a1.124,1.124,0,0,0-.973-.487,1.105,1.105,0,0,0-.961.484A2.637,2.637,0,0,0,51.029-3.108ZM52.664-9H54.51L52.887-7.184H51.51Zm5.279,2.66L58-5.607a2.213,2.213,0,0,1,1.822-.85,1.84,1.84,0,0,1,1.5.592,2.761,2.761,0,0,1,.5,1.77V0H60.129V-4.055a1.1,1.1,0,0,0-.234-.782,1.049,1.049,0,0,0-.779-.243,1.165,1.165,0,0,0-1.072.609V0H56.35V-6.34Z" transform="translate(-3266 -1644)" fill="#00104e"/>
    <path id="Trazado_602978" data-name="Trazado 602978" d="M-45.539-3.006V0H-47.3V-8.531h3.328a3.85,3.85,0,0,1,1.69.352,2.591,2.591,0,0,1,1.122,1,2.786,2.786,0,0,1,.393,1.474,2.45,2.45,0,0,1-.858,1.978A3.575,3.575,0,0,1-44-3.006Zm0-1.424h1.57a1.544,1.544,0,0,0,1.063-.328,1.193,1.193,0,0,0,.366-.937,1.407,1.407,0,0,0-.369-1.014,1.379,1.379,0,0,0-1.02-.4h-1.611Zm9.434-.322a4.6,4.6,0,0,0-.609-.047,1.24,1.24,0,0,0-1.26.65V0h-1.693V-6.34h1.6l.047.756a1.569,1.569,0,0,1,1.412-.873,1.774,1.774,0,0,1,.527.076Zm4.611,4.107a2.124,2.124,0,0,1-1.734.762,2,2,0,0,1-1.556-.586,2.5,2.5,0,0,1-.548-1.717V-6.34h1.693v4.1q0,.991.9.991a1.223,1.223,0,0,0,1.184-.6V-6.34h1.7V0h-1.594Zm5.836.762a3.112,3.112,0,0,1-2.271-.855A3.041,3.041,0,0,1-28.8-3.018v-.164a3.83,3.83,0,0,1,.369-1.708A2.709,2.709,0,0,1-27.39-6.05a2.936,2.936,0,0,1,1.544-.407,2.631,2.631,0,0,1,2.048.82,3.333,3.333,0,0,1,.747,2.326v.691h-4.037a1.573,1.573,0,0,0,.5,1,1.5,1.5,0,0,0,1.046.375,1.828,1.828,0,0,0,1.529-.709l.832.932a2.542,2.542,0,0,1-1.031.841A3.383,3.383,0,0,1-25.658.117Zm-.193-5.209a1.058,1.058,0,0,0-.817.341,1.768,1.768,0,0,0-.4.977h2.355v-.135a1.261,1.261,0,0,0-.3-.874A1.092,1.092,0,0,0-25.852-5.092Zm9.475,1.98a3.839,3.839,0,0,1-.65,2.376,2.154,2.154,0,0,1-1.816.853A1.979,1.979,0,0,1-20.49-.674L-20.566,0H-22.09V-9H-20.4v3.229a1.929,1.929,0,0,1,1.541-.686,2.172,2.172,0,0,1,1.819.853,3.845,3.845,0,0,1,.659,2.4Zm-1.693-.123a2.522,2.522,0,0,0-.3-1.4,1.03,1.03,0,0,0-.908-.442,1.117,1.117,0,0,0-1.113.662v2.5a1.132,1.132,0,0,0,1.125.668,1.045,1.045,0,0,0,1.078-.809A4.171,4.171,0,0,0-18.07-3.234ZM-11.66,0a1.88,1.88,0,0,1-.17-.568,2.049,2.049,0,0,1-1.6.686,2.251,2.251,0,0,1-1.544-.539,1.734,1.734,0,0,1-.612-1.359,1.792,1.792,0,0,1,.747-1.547,3.686,3.686,0,0,1,2.159-.545h.779v-.363a1.045,1.045,0,0,0-.226-.7.887.887,0,0,0-.712-.264A1.009,1.009,0,0,0-13.509-5a.7.7,0,0,0-.243.563h-1.693a1.7,1.7,0,0,1,.34-1.02,2.246,2.246,0,0,1,.961-.735,3.5,3.5,0,0,1,1.395-.267,2.767,2.767,0,0,1,1.86.589A2.06,2.06,0,0,1-10.2-4.213v2.748A3.031,3.031,0,0,0-9.949-.1V0Zm-1.4-1.178a1.458,1.458,0,0,0,.691-.167,1.1,1.1,0,0,0,.469-.448v-1.09h-.633q-1.271,0-1.354.879l-.006.1a.678.678,0,0,0,.223.521A.865.865,0,0,0-13.061-1.178Zm7.594-.574a.546.546,0,0,0-.308-.489,3.494,3.494,0,0,0-.987-.319q-2.262-.475-2.262-1.922a1.742,1.742,0,0,1,.7-1.409,2.825,2.825,0,0,1,1.831-.565,3.04,3.04,0,0,1,1.931.568,1.791,1.791,0,0,1,.724,1.477H-5.531a.819.819,0,0,0-.234-.6A.992.992,0,0,0-6.5-5.25a1.013,1.013,0,0,0-.662.193.61.61,0,0,0-.234.492.522.522,0,0,0,.267.454,2.743,2.743,0,0,0,.9.3,7.346,7.346,0,0,1,1.066.284A1.752,1.752,0,0,1-3.82-1.822a1.654,1.654,0,0,1-.744,1.4A3.21,3.21,0,0,1-6.486.117,3.353,3.353,0,0,1-7.9-.167a2.374,2.374,0,0,1-.97-.779,1.811,1.811,0,0,1-.352-1.069h1.605a.884.884,0,0,0,.334.691,1.325,1.325,0,0,0,.832.24,1.226,1.226,0,0,0,.735-.185A.574.574,0,0,0-5.467-1.752ZM6.826-8.531v5.619A2.877,2.877,0,0,1,5.95-.7,3.377,3.377,0,0,1,3.557.117,3.415,3.415,0,0,1,1.184-.674a2.828,2.828,0,0,1-.9-2.174V-8.531H2.045V-2.9a1.626,1.626,0,0,0,.4,1.222,1.541,1.541,0,0,0,1.11.384q1.482,0,1.506-1.559V-8.531ZM9.715-6.34l.053.732a2.213,2.213,0,0,1,1.822-.85,1.84,1.84,0,0,1,1.5.592,2.761,2.761,0,0,1,.5,1.77V0H11.9V-4.055a1.1,1.1,0,0,0-.234-.782,1.049,1.049,0,0,0-.779-.243,1.165,1.165,0,0,0-1.072.609V0H8.121V-6.34ZM16.664,0h-1.7V-6.34h1.7Zm-1.8-7.98a.834.834,0,0,1,.255-.627.958.958,0,0,1,.694-.246.96.96,0,0,1,.691.246.829.829,0,0,1,.258.627.831.831,0,0,1-.261.633.962.962,0,0,1-.688.246.962.962,0,0,1-.688-.246A.831.831,0,0,1,14.865-7.98Zm5.221.082V-6.34H21.17V-5.1H20.086v3.164a.756.756,0,0,0,.135.5.677.677,0,0,0,.516.152,2.7,2.7,0,0,0,.5-.041V-.035a3.486,3.486,0,0,1-1.025.152,1.617,1.617,0,0,1-1.816-1.8V-5.1h-.926V-6.34h.926V-7.9Zm5.7,7.9a1.88,1.88,0,0,1-.17-.568,2.049,2.049,0,0,1-1.6.686,2.251,2.251,0,0,1-1.544-.539,1.734,1.734,0,0,1-.612-1.359,1.792,1.792,0,0,1,.747-1.547,3.686,3.686,0,0,1,2.159-.545h.779v-.363a1.045,1.045,0,0,0-.226-.7.887.887,0,0,0-.712-.264A1.009,1.009,0,0,0,23.938-5a.7.7,0,0,0-.243.563H22a1.7,1.7,0,0,1,.34-1.02A2.246,2.246,0,0,1,23.3-6.19,3.5,3.5,0,0,1,24.7-6.457a2.767,2.767,0,0,1,1.86.589,2.06,2.06,0,0,1,.688,1.655v2.748A3.031,3.031,0,0,0,27.5-.1V0Zm-1.4-1.178a1.458,1.458,0,0,0,.691-.167,1.1,1.1,0,0,0,.469-.448v-1.09h-.633q-1.271,0-1.354.879l-.006.1a.678.678,0,0,0,.223.521A.865.865,0,0,0,24.387-1.178Zm7.723-3.574A4.6,4.6,0,0,0,31.5-4.8a1.24,1.24,0,0,0-1.26.65V0H28.547V-6.34h1.6l.047.756a1.569,1.569,0,0,1,1.412-.873,1.774,1.774,0,0,1,.527.076ZM34.711,0h-1.7V-6.34h1.7Zm-1.8-7.98a.834.834,0,0,1,.255-.627.958.958,0,0,1,.694-.246.96.96,0,0,1,.691.246.829.829,0,0,1,.258.627.831.831,0,0,1-.261.633.962.962,0,0,1-.688.246.962.962,0,0,1-.688-.246A.831.831,0,0,1,32.912-7.98ZM39.779,0a1.88,1.88,0,0,1-.17-.568,2.049,2.049,0,0,1-1.6.686,2.251,2.251,0,0,1-1.544-.539,1.734,1.734,0,0,1-.612-1.359A1.792,1.792,0,0,1,36.6-3.328a3.686,3.686,0,0,1,2.159-.545h.779v-.363a1.045,1.045,0,0,0-.226-.7A.887.887,0,0,0,38.6-5.2,1.009,1.009,0,0,0,37.931-5a.7.7,0,0,0-.243.563H35.994a1.7,1.7,0,0,1,.34-1.02,2.246,2.246,0,0,1,.961-.735,3.5,3.5,0,0,1,1.395-.267,2.767,2.767,0,0,1,1.86.589,2.06,2.06,0,0,1,.688,1.655v2.748A3.031,3.031,0,0,0,41.49-.1V0Zm-1.4-1.178a1.458,1.458,0,0,0,.691-.167,1.1,1.1,0,0,0,.469-.448v-1.09h-.633q-1.271,0-1.354.879l-.006.1a.678.678,0,0,0,.223.521A.865.865,0,0,0,38.379-1.178Zm7.594-.574a.546.546,0,0,0-.308-.489,3.494,3.494,0,0,0-.987-.319q-2.262-.475-2.262-1.922a1.742,1.742,0,0,1,.7-1.409,2.825,2.825,0,0,1,1.831-.565,3.04,3.04,0,0,1,1.931.568A1.791,1.791,0,0,1,47.6-4.412H45.908a.819.819,0,0,0-.234-.6.992.992,0,0,0-.732-.237,1.013,1.013,0,0,0-.662.193.61.61,0,0,0-.234.492.522.522,0,0,0,.267.454,2.743,2.743,0,0,0,.9.3,7.346,7.346,0,0,1,1.066.284,1.752,1.752,0,0,1,1.342,1.705,1.654,1.654,0,0,1-.744,1.4,3.21,3.21,0,0,1-1.922.536,3.353,3.353,0,0,1-1.415-.284,2.374,2.374,0,0,1-.97-.779,1.811,1.811,0,0,1-.352-1.069h1.605a.884.884,0,0,0,.334.691,1.325,1.325,0,0,0,.832.24,1.226,1.226,0,0,0,.735-.185A.574.574,0,0,0,45.973-1.752ZM-53.689,11h-1.758V2.469h1.758Zm3.076-6.34.053.732a2.213,2.213,0,0,1,1.822-.85,1.84,1.84,0,0,1,1.5.592,2.761,2.761,0,0,1,.5,1.77V11h-1.693V6.945a1.1,1.1,0,0,0-.234-.782,1.049,1.049,0,0,0-.779-.243,1.165,1.165,0,0,0-1.072.609V11h-1.693V4.66ZM-43.424,3.1V4.66h1.084V5.9h-1.084V9.066a.756.756,0,0,0,.135.5.677.677,0,0,0,.516.152,2.7,2.7,0,0,0,.5-.041v1.283a3.486,3.486,0,0,1-1.025.152,1.617,1.617,0,0,1-1.816-1.8V5.9h-.926V4.66h.926V3.1Zm4.945,8.016a3.112,3.112,0,0,1-2.271-.855,3.041,3.041,0,0,1-.876-2.279V7.818a3.83,3.83,0,0,1,.369-1.708A2.709,2.709,0,0,1-40.21,4.95a2.936,2.936,0,0,1,1.544-.407,2.631,2.631,0,0,1,2.048.82,3.333,3.333,0,0,1,.747,2.326v.691h-4.037a1.573,1.573,0,0,0,.5,1,1.5,1.5,0,0,0,1.046.375,1.828,1.828,0,0,0,1.529-.709l.832.932a2.542,2.542,0,0,1-1.031.841A3.383,3.383,0,0,1-38.479,11.117Zm-.193-5.209a1.058,1.058,0,0,0-.817.341,1.768,1.768,0,0,0-.4.977h2.355V7.091a1.261,1.261,0,0,0-.3-.874A1.092,1.092,0,0,0-38.672,5.908Zm3.516,1.875a3.716,3.716,0,0,1,.694-2.35,2.25,2.25,0,0,1,1.872-.891,1.973,1.973,0,0,1,1.623.715l.07-.6h1.535v6.129a2.71,2.71,0,0,1-.378,1.447,2.427,2.427,0,0,1-1.063.938,3.739,3.739,0,0,1-1.605.322,3.476,3.476,0,0,1-1.359-.278,2.413,2.413,0,0,1-1-.718l.75-1.031a1.984,1.984,0,0,0,1.535.709,1.452,1.452,0,0,0,1.049-.36,1.352,1.352,0,0,0,.375-1.022v-.34a1.959,1.959,0,0,1-1.541.662,2.244,2.244,0,0,1-1.849-.894,3.715,3.715,0,0,1-.706-2.37Zm1.693.126a2.314,2.314,0,0,0,.346,1.353,1.1,1.1,0,0,0,.949.49,1.176,1.176,0,0,0,1.107-.581V6.5a1.173,1.173,0,0,0-1.1-.581,1.107,1.107,0,0,0-.958.5A2.608,2.608,0,0,0-33.463,7.909ZM-24.5,6.248a4.6,4.6,0,0,0-.609-.047,1.24,1.24,0,0,0-1.26.65V11h-1.693V4.66h1.6l.047.756A1.569,1.569,0,0,1-25,4.543a1.774,1.774,0,0,1,.527.076ZM-20.186,11a1.88,1.88,0,0,1-.17-.568,2.049,2.049,0,0,1-1.6.686,2.251,2.251,0,0,1-1.544-.539,1.734,1.734,0,0,1-.612-1.359,1.792,1.792,0,0,1,.747-1.547,3.686,3.686,0,0,1,2.159-.545h.779V6.764a1.045,1.045,0,0,0-.226-.7.887.887,0,0,0-.712-.264A1.009,1.009,0,0,0-22.034,6a.7.7,0,0,0-.243.563h-1.693a1.7,1.7,0,0,1,.34-1.02,2.246,2.246,0,0,1,.961-.735,3.5,3.5,0,0,1,1.395-.267,2.767,2.767,0,0,1,1.86.589,2.06,2.06,0,0,1,.688,1.655V9.535a3.031,3.031,0,0,0,.252,1.365V11Zm-1.4-1.178a1.458,1.458,0,0,0,.691-.167,1.1,1.1,0,0,0,.469-.448V8.117h-.633q-1.271,0-1.354.879l-.006.1a.678.678,0,0,0,.223.521A.865.865,0,0,0-21.586,9.822Zm6.8-.07a1.111,1.111,0,0,0,.762-.258.9.9,0,0,0,.3-.686h1.588a2.172,2.172,0,0,1-.352,1.181,2.32,2.32,0,0,1-.946.832,2.962,2.962,0,0,1-1.327.3,2.752,2.752,0,0,1-2.145-.864,3.42,3.42,0,0,1-.785-2.388V7.754a3.381,3.381,0,0,1,.779-2.338,2.72,2.72,0,0,1,2.139-.873,2.667,2.667,0,0,1,1.907.677,2.4,2.4,0,0,1,.729,1.8h-1.588a1.164,1.164,0,0,0-.3-.8,1.016,1.016,0,0,0-.773-.309,1.02,1.02,0,0,0-.894.431,2.5,2.5,0,0,0-.3,1.4v.176a2.531,2.531,0,0,0,.3,1.408A1.033,1.033,0,0,0-14.789,9.752ZM-9.381,11h-1.7V4.66h1.7Zm-1.8-7.98a.834.834,0,0,1,.255-.627.958.958,0,0,1,.694-.246.96.96,0,0,1,.691.246.829.829,0,0,1,.258.627.831.831,0,0,1-.261.633.962.962,0,0,1-.688.246.962.962,0,0,1-.688-.246A.831.831,0,0,1-11.18,3.02Zm2.93,4.752A3.76,3.76,0,0,1-7.887,6.09,2.659,2.659,0,0,1-6.841,4.947a3.051,3.051,0,0,1,1.585-.4,2.887,2.887,0,0,1,2.095.785,3.151,3.151,0,0,1,.905,2.133l.012.434a3.314,3.314,0,0,1-.814,2.341,2.831,2.831,0,0,1-2.186.882,2.845,2.845,0,0,1-2.188-.879A3.372,3.372,0,0,1-8.25,7.848Zm1.693.12a2.37,2.37,0,0,0,.34,1.382,1.121,1.121,0,0,0,.973.478,1.124,1.124,0,0,0,.961-.472,2.593,2.593,0,0,0,.346-1.511A2.346,2.346,0,0,0-4.283,6.4a1.124,1.124,0,0,0-.973-.487,1.105,1.105,0,0,0-.961.484A2.637,2.637,0,0,0-6.557,7.892ZM-4.922,2h1.846L-4.7,3.816H-6.076ZM.357,4.66l.053.732a2.213,2.213,0,0,1,1.822-.85,1.84,1.84,0,0,1,1.5.592,2.761,2.761,0,0,1,.5,1.77V11H2.543V6.945a1.1,1.1,0,0,0-.234-.782,1.049,1.049,0,0,0-.779-.243,1.165,1.165,0,0,0-1.072.609V11H-1.236V4.66Zm14.959,3.5A3.019,3.019,0,0,1,14.3,10.326a3.57,3.57,0,0,1-2.417.791,3.21,3.21,0,0,1-2.581-1.1,4.529,4.529,0,0,1-.94-3.032V6.459a5.114,5.114,0,0,1,.434-2.168,3.249,3.249,0,0,1,1.239-1.438,3.471,3.471,0,0,1,1.872-.5,3.478,3.478,0,0,1,2.379.791,3.244,3.244,0,0,1,1.043,2.221H13.57a1.782,1.782,0,0,0-.46-1.2,1.7,1.7,0,0,0-1.2-.372,1.494,1.494,0,0,0-1.315.63,3.53,3.53,0,0,0-.448,1.954v.645a3.778,3.778,0,0,0,.419,2.021,1.466,1.466,0,0,0,1.321.639A1.735,1.735,0,0,0,13.1,9.31a1.681,1.681,0,0,0,.46-1.151Zm.779-.387a3.76,3.76,0,0,1,.363-1.682A2.659,2.659,0,0,1,17.5,4.947a3.051,3.051,0,0,1,1.585-.4,2.887,2.887,0,0,1,2.095.785,3.151,3.151,0,0,1,.905,2.133l.012.434a3.314,3.314,0,0,1-.814,2.341,2.831,2.831,0,0,1-2.186.882,2.845,2.845,0,0,1-2.188-.879A3.372,3.372,0,0,1,16.1,7.848Zm1.693.12a2.37,2.37,0,0,0,.34,1.382,1.221,1.221,0,0,0,1.934.006,2.593,2.593,0,0,0,.346-1.511A2.346,2.346,0,0,0,20.063,6.4a1.124,1.124,0,0,0-.973-.487,1.105,1.105,0,0,0-.961.484A2.637,2.637,0,0,0,17.789,7.892ZM24.7,4.66l.053.732a2.213,2.213,0,0,1,1.822-.85,1.84,1.84,0,0,1,1.5.592,2.761,2.761,0,0,1,.5,1.77V11H26.889V6.945a1.1,1.1,0,0,0-.234-.782,1.049,1.049,0,0,0-.779-.243,1.165,1.165,0,0,0-1.072.609V11H23.109V4.66ZM31.893,3.1V4.66h1.084V5.9H31.893V9.066a.756.756,0,0,0,.135.5.677.677,0,0,0,.516.152,2.7,2.7,0,0,0,.5-.041v1.283a3.486,3.486,0,0,1-1.025.152,1.617,1.617,0,0,1-1.816-1.8V5.9h-.926V4.66H30.2V3.1ZM35.707,11h-1.7V4.66h1.7Zm-1.8-7.98a.834.834,0,0,1,.255-.627,1.1,1.1,0,0,1,1.386,0,.829.829,0,0,1,.258.627.831.831,0,0,1-.261.633,1.086,1.086,0,0,1-1.377,0A.831.831,0,0,1,33.908,3.02ZM38.66,4.66l.053.732a2.213,2.213,0,0,1,1.822-.85,1.84,1.84,0,0,1,1.5.592,2.761,2.761,0,0,1,.5,1.77V11H40.846V6.945a1.1,1.1,0,0,0-.234-.782,1.049,1.049,0,0,0-.779-.243,1.165,1.165,0,0,0-1.072.609V11H37.066V4.66Zm8.959,5.7a2.124,2.124,0,0,1-1.734.762,2,2,0,0,1-1.556-.586,2.5,2.5,0,0,1-.548-1.717V4.66h1.693v4.1q0,.991.9.991a1.223,1.223,0,0,0,1.184-.6V4.66h1.7V11H47.666ZM54.211,11a1.88,1.88,0,0,1-.17-.568,2.049,2.049,0,0,1-1.6.686,2.251,2.251,0,0,1-1.544-.539,1.734,1.734,0,0,1-.612-1.359,1.792,1.792,0,0,1,.747-1.547,3.686,3.686,0,0,1,2.159-.545h.779V6.764a1.045,1.045,0,0,0-.226-.7.887.887,0,0,0-.712-.264A1.009,1.009,0,0,0,52.362,6a.7.7,0,0,0-.243.563H50.426a1.7,1.7,0,0,1,.34-1.02,2.246,2.246,0,0,1,.961-.735,3.5,3.5,0,0,1,1.395-.267,2.767,2.767,0,0,1,1.86.589,2.06,2.06,0,0,1,.688,1.655V9.535a3.031,3.031,0,0,0,.252,1.365V11Zm-1.4-1.178a1.458,1.458,0,0,0,.691-.167,1.1,1.1,0,0,0,.469-.448V8.117h-.633q-1.271,0-1.354.879l-.006.1a.678.678,0,0,0,.223.521A.865.865,0,0,0,52.811,9.822Z" transform="translate(-3049 -1651)" fill="#00104e"/>
    <path id="Trazado_602979" data-name="Trazado 602979" d="M-32.578-3.006V0h-1.758V-8.531h3.328a3.85,3.85,0,0,1,1.69.352,2.591,2.591,0,0,1,1.122,1A2.786,2.786,0,0,1-27.8-5.707a2.45,2.45,0,0,1-.858,1.978,3.575,3.575,0,0,1-2.376.724Zm0-1.424h1.57a1.544,1.544,0,0,0,1.063-.328,1.193,1.193,0,0,0,.366-.937,1.407,1.407,0,0,0-.369-1.014,1.379,1.379,0,0,0-1.02-.4h-1.611ZM-24.92,0h-1.7V-9h1.7Zm5.068,0a1.88,1.88,0,0,1-.17-.568,2.049,2.049,0,0,1-1.6.686,2.251,2.251,0,0,1-1.544-.539,1.734,1.734,0,0,1-.612-1.359,1.792,1.792,0,0,1,.747-1.547,3.686,3.686,0,0,1,2.159-.545h.779v-.363a1.045,1.045,0,0,0-.226-.7.887.887,0,0,0-.712-.264A1.009,1.009,0,0,0-21.7-5a.7.7,0,0,0-.243.563h-1.693a1.7,1.7,0,0,1,.34-1.02,2.246,2.246,0,0,1,.961-.735,3.5,3.5,0,0,1,1.395-.267,2.767,2.767,0,0,1,1.86.589,2.06,2.06,0,0,1,.688,1.655v2.748A3.031,3.031,0,0,0-18.141-.1V0Zm-1.4-1.178a1.458,1.458,0,0,0,.691-.167,1.1,1.1,0,0,0,.469-.448v-1.09h-.633Q-22-2.883-22.078-2l-.006.1a.678.678,0,0,0,.223.521A.865.865,0,0,0-21.252-1.178Zm5.719-5.162.053.732a2.213,2.213,0,0,1,1.822-.85,1.84,1.84,0,0,1,1.5.592,2.761,2.761,0,0,1,.5,1.77V0h-1.693V-4.055a1.1,1.1,0,0,0-.234-.782,1.049,1.049,0,0,0-.779-.243,1.165,1.165,0,0,0-1.072.609V0h-1.693V-6.34ZM-8.584,0h-1.7V-6.34h1.7Zm-1.8-7.98a.834.834,0,0,1,.255-.627.958.958,0,0,1,.694-.246.96.96,0,0,1,.691.246.829.829,0,0,1,.258.627.831.831,0,0,1-.261.633.962.962,0,0,1-.688.246.962.962,0,0,1-.688-.246A.831.831,0,0,1-10.383-7.98ZM-6.779,0V-5.1h-.943V-6.34h.943v-.293a2.378,2.378,0,0,1,.735-1.843A2.959,2.959,0,0,1-4-9.123a6.773,6.773,0,0,1,1.922.346l-.246,1.4a7.5,7.5,0,0,0-.891-.22,4.376,4.376,0,0,0-.68-.05Q-5.08-7.646-5.08-6.6v.258h1.248V-5.1H-5.08V0Zm5.49,0h-1.7V-6.34h1.7ZM2.748-1.248a1.111,1.111,0,0,0,.762-.258.9.9,0,0,0,.3-.686H5.4a2.172,2.172,0,0,1-.352,1.181A2.32,2.32,0,0,1,4.1-.179a2.962,2.962,0,0,1-1.327.3A2.752,2.752,0,0,1,.633-.747,3.42,3.42,0,0,1-.152-3.135v-.111A3.381,3.381,0,0,1,.627-5.584a2.72,2.72,0,0,1,2.139-.873,2.667,2.667,0,0,1,1.907.677,2.4,2.4,0,0,1,.729,1.8H3.814a1.164,1.164,0,0,0-.3-.8,1.016,1.016,0,0,0-.773-.309,1.02,1.02,0,0,0-.894.431,2.5,2.5,0,0,0-.3,1.4v.176a2.531,2.531,0,0,0,.3,1.408A1.033,1.033,0,0,0,2.748-1.248ZM10.043,0a1.88,1.88,0,0,1-.17-.568,2.049,2.049,0,0,1-1.6.686A2.251,2.251,0,0,1,6.729-.422a1.734,1.734,0,0,1-.612-1.359,1.792,1.792,0,0,1,.747-1.547,3.686,3.686,0,0,1,2.159-.545H9.8v-.363a1.045,1.045,0,0,0-.226-.7A.887.887,0,0,0,8.865-5.2,1.009,1.009,0,0,0,8.194-5a.7.7,0,0,0-.243.563H6.258a1.7,1.7,0,0,1,.34-1.02,2.246,2.246,0,0,1,.961-.735,3.5,3.5,0,0,1,1.395-.267,2.767,2.767,0,0,1,1.86.589A2.06,2.06,0,0,1,11.5-4.213v2.748A3.031,3.031,0,0,0,11.754-.1V0Zm-1.4-1.178a1.458,1.458,0,0,0,.691-.167A1.1,1.1,0,0,0,9.8-1.793v-1.09H9.17Q7.9-2.883,7.816-2l-.006.1a.678.678,0,0,0,.223.521A.865.865,0,0,0,8.643-1.178Zm6.8-.07a1.111,1.111,0,0,0,.762-.258.9.9,0,0,0,.3-.686h1.588a2.172,2.172,0,0,1-.352,1.181,2.32,2.32,0,0,1-.946.832,2.962,2.962,0,0,1-1.327.3,2.752,2.752,0,0,1-2.145-.864,3.42,3.42,0,0,1-.785-2.388v-.111a3.381,3.381,0,0,1,.779-2.338,2.72,2.72,0,0,1,2.139-.873,2.667,2.667,0,0,1,1.907.677,2.4,2.4,0,0,1,.729,1.8H16.506a1.164,1.164,0,0,0-.3-.8,1.016,1.016,0,0,0-.773-.309,1.02,1.02,0,0,0-.894.431,2.5,2.5,0,0,0-.3,1.4v.176a2.531,2.531,0,0,0,.3,1.408A1.033,1.033,0,0,0,15.439-1.248ZM20.848,0h-1.7V-6.34h1.7Zm-1.8-7.98a.834.834,0,0,1,.255-.627A.958.958,0,0,1,20-8.854a.96.96,0,0,1,.691.246.829.829,0,0,1,.258.627.831.831,0,0,1-.261.633A.962.962,0,0,1,20-7.1a.962.962,0,0,1-.688-.246A.831.831,0,0,1,19.049-7.98Zm2.93,4.752a3.76,3.76,0,0,1,.363-1.682,2.659,2.659,0,0,1,1.046-1.143,3.051,3.051,0,0,1,1.585-.4,2.887,2.887,0,0,1,2.095.785,3.151,3.151,0,0,1,.905,2.133l.012.434A3.314,3.314,0,0,1,27.17-.765a2.831,2.831,0,0,1-2.186.882A2.845,2.845,0,0,1,22.8-.762a3.372,3.372,0,0,1-.817-2.391Zm1.693.12a2.37,2.37,0,0,0,.34,1.382,1.121,1.121,0,0,0,.973.478,1.124,1.124,0,0,0,.961-.472,2.593,2.593,0,0,0,.346-1.511A2.346,2.346,0,0,0,25.945-4.6a1.124,1.124,0,0,0-.973-.487,1.105,1.105,0,0,0-.961.484A2.637,2.637,0,0,0,23.672-3.108ZM30.586-6.34l.053.732a2.213,2.213,0,0,1,1.822-.85,1.84,1.84,0,0,1,1.5.592,2.761,2.761,0,0,1,.5,1.77V0H32.771V-4.055a1.1,1.1,0,0,0-.234-.782,1.049,1.049,0,0,0-.779-.243,1.165,1.165,0,0,0-1.072.609V0H28.992V-6.34Z" transform="translate(-3156 -1832)" fill="#00104e"/>
    <path id="Trazado_602980" data-name="Trazado 602980" d="M-17.81,0V-8.531h2.625a3.986,3.986,0,0,1,2.013.507,3.534,3.534,0,0,1,1.386,1.441,4.446,4.446,0,0,1,.5,2.124v.393a4.458,4.458,0,0,1-.489,2.115,3.5,3.5,0,0,1-1.38,1.436A4.016,4.016,0,0,1-15.167,0Zm1.758-7.107v5.7h.85a1.909,1.909,0,0,0,1.576-.674,3.045,3.045,0,0,0,.557-1.928v-.451a3.093,3.093,0,0,0-.539-1.972,1.9,1.9,0,0,0-1.576-.671ZM-8.335,0h-1.7V-6.34h1.7Zm-1.8-7.98a.834.834,0,0,1,.255-.627.958.958,0,0,1,.694-.246.96.96,0,0,1,.691.246.829.829,0,0,1,.258.627.831.831,0,0,1-.261.633.962.962,0,0,1-.688.246.962.962,0,0,1-.688-.246A.831.831,0,0,1-10.134-7.98Zm6.627,6.229a.546.546,0,0,0-.308-.489A3.494,3.494,0,0,0-4.8-2.561q-2.262-.475-2.262-1.922a1.742,1.742,0,0,1,.7-1.409,2.825,2.825,0,0,1,1.831-.565A3.04,3.04,0,0,1-2.6-5.889a1.791,1.791,0,0,1,.724,1.477H-3.571a.819.819,0,0,0-.234-.6.992.992,0,0,0-.732-.237,1.013,1.013,0,0,0-.662.193.61.61,0,0,0-.234.492.522.522,0,0,0,.267.454,2.743,2.743,0,0,0,.9.3A7.346,7.346,0,0,1-3.2-3.527,1.752,1.752,0,0,1-1.86-1.822,1.654,1.654,0,0,1-2.6-.419,3.21,3.21,0,0,1-4.526.117,3.353,3.353,0,0,1-5.941-.167a2.374,2.374,0,0,1-.97-.779,1.811,1.811,0,0,1-.352-1.069h1.605a.884.884,0,0,0,.334.691,1.325,1.325,0,0,0,.832.24,1.226,1.226,0,0,0,.735-.185A.574.574,0,0,0-3.507-1.752ZM2.147.117A3.112,3.112,0,0,1-.123-.738,3.041,3.041,0,0,1-1-3.018v-.164A3.83,3.83,0,0,1-.63-4.89,2.709,2.709,0,0,1,.416-6.05,2.936,2.936,0,0,1,1.96-6.457a2.631,2.631,0,0,1,2.048.82,3.333,3.333,0,0,1,.747,2.326v.691H.718a1.573,1.573,0,0,0,.5,1,1.5,1.5,0,0,0,1.046.375,1.828,1.828,0,0,0,1.529-.709l.832.932a2.542,2.542,0,0,1-1.031.841A3.383,3.383,0,0,1,2.147.117ZM1.954-5.092a1.058,1.058,0,0,0-.817.341,1.768,1.768,0,0,0-.4.977H3.091v-.135a1.261,1.261,0,0,0-.3-.874A1.092,1.092,0,0,0,1.954-5.092ZM7.274-6.34l.053.732a2.213,2.213,0,0,1,1.822-.85,1.84,1.84,0,0,1,1.5.592,2.761,2.761,0,0,1,.5,1.77V0H9.46V-4.055a1.1,1.1,0,0,0-.234-.782,1.049,1.049,0,0,0-.779-.243,1.165,1.165,0,0,0-1.072.609V0H5.681V-6.34Zm3.363-2.584a1.64,1.64,0,0,1-.387,1.11,1.2,1.2,0,0,1-.943.448,1.431,1.431,0,0,1-.4-.05,2.654,2.654,0,0,1-.478-.214A2.576,2.576,0,0,0,8-7.831,1.074,1.074,0,0,0,7.7-7.869a.47.47,0,0,0-.349.146.57.57,0,0,0-.144.416l-.984-.059a1.665,1.665,0,0,1,.384-1.107,1.184,1.184,0,0,1,.94-.457,1.211,1.211,0,0,1,.331.044,3.645,3.645,0,0,1,.507.214,3.294,3.294,0,0,0,.486.205,1.11,1.11,0,0,0,.281.035.494.494,0,0,0,.354-.144.546.546,0,0,0,.149-.413Zm1.535,5.7a3.76,3.76,0,0,1,.363-1.682,2.659,2.659,0,0,1,1.046-1.143,3.051,3.051,0,0,1,1.585-.4,2.887,2.887,0,0,1,2.095.785,3.151,3.151,0,0,1,.905,2.133l.012.434a3.314,3.314,0,0,1-.814,2.341,2.831,2.831,0,0,1-2.186.882A2.845,2.845,0,0,1,12.99-.762a3.372,3.372,0,0,1-.817-2.391Zm1.693.12a2.37,2.37,0,0,0,.34,1.382,1.121,1.121,0,0,0,.973.478,1.124,1.124,0,0,0,.961-.472,2.593,2.593,0,0,0,.346-1.511A2.346,2.346,0,0,0,16.14-4.6a1.124,1.124,0,0,0-.973-.487,1.105,1.105,0,0,0-.961.484A2.637,2.637,0,0,0,13.866-3.108Z" transform="translate(-2958 -1832)" fill="#00104e"/>
    <path id="Trazado_602981" data-name="Trazado 602981" d="M-19.819-3.006V0h-1.758V-8.531h3.328a3.85,3.85,0,0,1,1.69.352,2.591,2.591,0,0,1,1.122,1,2.786,2.786,0,0,1,.393,1.474A2.45,2.45,0,0,1-15.9-3.729a3.575,3.575,0,0,1-2.376.724Zm0-1.424h1.57a1.544,1.544,0,0,0,1.063-.328,1.193,1.193,0,0,0,.366-.937,1.407,1.407,0,0,0-.369-1.014,1.379,1.379,0,0,0-1.02-.4h-1.611Zm9.434-.322A4.6,4.6,0,0,0-11-4.8a1.24,1.24,0,0,0-1.26.65V0h-1.693V-6.34h1.6l.047.756a1.569,1.569,0,0,1,1.412-.873,1.774,1.774,0,0,1,.527.076ZM-5.774-.645A2.124,2.124,0,0,1-7.509.117,2,2,0,0,1-9.064-.469a2.5,2.5,0,0,1-.548-1.717V-6.34h1.693v4.1q0,.991.9.991a1.223,1.223,0,0,0,1.184-.6V-6.34h1.7V0H-5.728ZM.062.117A3.112,3.112,0,0,1-2.209-.738a3.041,3.041,0,0,1-.876-2.279v-.164A3.83,3.83,0,0,1-2.716-4.89,2.709,2.709,0,0,1-1.67-6.05,2.936,2.936,0,0,1-.126-6.457a2.631,2.631,0,0,1,2.048.82,3.333,3.333,0,0,1,.747,2.326v.691H-1.368a1.573,1.573,0,0,0,.5,1,1.5,1.5,0,0,0,1.046.375A1.828,1.828,0,0,0,1.7-1.957l.832.932A2.542,2.542,0,0,1,1.5-.185,3.383,3.383,0,0,1,.062.117ZM-.132-5.092a1.058,1.058,0,0,0-.817.341,1.768,1.768,0,0,0-.4.977H1v-.135a1.261,1.261,0,0,0-.3-.874A1.092,1.092,0,0,0-.132-5.092Zm9.475,1.98a3.839,3.839,0,0,1-.65,2.376A2.154,2.154,0,0,1,6.876.117,1.979,1.979,0,0,1,5.229-.674L5.153,0H3.63V-9H5.323v3.229a1.929,1.929,0,0,1,1.541-.686A2.172,2.172,0,0,1,8.684-5.6a3.845,3.845,0,0,1,.659,2.4ZM7.649-3.234a2.522,2.522,0,0,0-.3-1.4,1.03,1.03,0,0,0-.908-.442,1.117,1.117,0,0,0-1.113.662v2.5a1.132,1.132,0,0,0,1.125.668,1.045,1.045,0,0,0,1.078-.809A4.171,4.171,0,0,0,7.649-3.234ZM14.06,0a1.88,1.88,0,0,1-.17-.568,2.049,2.049,0,0,1-1.6.686,2.251,2.251,0,0,1-1.544-.539,1.734,1.734,0,0,1-.612-1.359,1.792,1.792,0,0,1,.747-1.547,3.686,3.686,0,0,1,2.159-.545h.779v-.363a1.045,1.045,0,0,0-.226-.7.887.887,0,0,0-.712-.264A1.009,1.009,0,0,0,12.211-5a.7.7,0,0,0-.243.563H10.274a1.7,1.7,0,0,1,.34-1.02,2.246,2.246,0,0,1,.961-.735,3.5,3.5,0,0,1,1.395-.267,2.767,2.767,0,0,1,1.86.589,2.06,2.06,0,0,1,.688,1.655v2.748A3.031,3.031,0,0,0,15.771-.1V0Zm-1.4-1.178a1.458,1.458,0,0,0,.691-.167,1.1,1.1,0,0,0,.469-.448v-1.09h-.633q-1.271,0-1.354.879l-.006.1a.678.678,0,0,0,.223.521A.865.865,0,0,0,12.659-1.178Zm7.594-.574a.546.546,0,0,0-.308-.489,3.494,3.494,0,0,0-.987-.319Q16.7-3.035,16.7-4.482a1.742,1.742,0,0,1,.7-1.409,2.825,2.825,0,0,1,1.831-.565,3.04,3.04,0,0,1,1.931.568,1.791,1.791,0,0,1,.724,1.477H20.188a.819.819,0,0,0-.234-.6.992.992,0,0,0-.732-.237,1.013,1.013,0,0,0-.662.193.61.61,0,0,0-.234.492.522.522,0,0,0,.267.454,2.743,2.743,0,0,0,.9.3,7.346,7.346,0,0,1,1.066.284A1.752,1.752,0,0,1,21.9-1.822a1.654,1.654,0,0,1-.744,1.4,3.21,3.21,0,0,1-1.922.536,3.353,3.353,0,0,1-1.415-.284,2.374,2.374,0,0,1-.97-.779A1.811,1.811,0,0,1,16.5-2.016H18.1a.884.884,0,0,0,.334.691,1.325,1.325,0,0,0,.832.24A1.226,1.226,0,0,0,20-1.269.574.574,0,0,0,20.253-1.752Z" transform="translate(-3151 -1739)" fill="#00104e"/>
    <path id="Trazado_602982" data-name="Trazado 602982" d="M-32.3-1.412h3.732V0h-5.49V-8.531H-32.3ZM-23.994,0a1.88,1.88,0,0,1-.17-.568,2.049,2.049,0,0,1-1.6.686,2.251,2.251,0,0,1-1.544-.539,1.734,1.734,0,0,1-.612-1.359,1.792,1.792,0,0,1,.747-1.547,3.686,3.686,0,0,1,2.159-.545h.779v-.363a1.045,1.045,0,0,0-.226-.7.887.887,0,0,0-.712-.264A1.009,1.009,0,0,0-25.843-5a.7.7,0,0,0-.243.563h-1.693a1.7,1.7,0,0,1,.34-1.02,2.246,2.246,0,0,1,.961-.735,3.5,3.5,0,0,1,1.395-.267,2.767,2.767,0,0,1,1.86.589,2.06,2.06,0,0,1,.688,1.655v2.748A3.031,3.031,0,0,0-22.283-.1V0Zm-1.4-1.178a1.458,1.458,0,0,0,.691-.167,1.1,1.1,0,0,0,.469-.448v-1.09h-.633q-1.271,0-1.354.879l-.006.1A.678.678,0,0,0-26-1.383.865.865,0,0,0-25.395-1.178Zm5.719-5.162.053.732a2.213,2.213,0,0,1,1.822-.85,1.84,1.84,0,0,1,1.5.592,2.761,2.761,0,0,1,.5,1.77V0H-17.49V-4.055a1.1,1.1,0,0,0-.234-.782A1.049,1.049,0,0,0-18.5-5.08a1.165,1.165,0,0,0-1.072.609V0H-21.27V-6.34Zm7.107,4.975h3.1V0H-14.73V-1.031l2.982-3.943h-2.895V-6.34h5.08v1ZM-4.734,0A1.88,1.88,0,0,1-4.9-.568,2.049,2.049,0,0,1-6.5.117,2.251,2.251,0,0,1-8.048-.422,1.734,1.734,0,0,1-8.66-1.781a1.792,1.792,0,0,1,.747-1.547,3.686,3.686,0,0,1,2.159-.545h.779v-.363a1.045,1.045,0,0,0-.226-.7A.887.887,0,0,0-5.912-5.2,1.009,1.009,0,0,0-6.583-5a.7.7,0,0,0-.243.563H-8.52a1.7,1.7,0,0,1,.34-1.02,2.246,2.246,0,0,1,.961-.735,3.5,3.5,0,0,1,1.395-.267,2.767,2.767,0,0,1,1.86.589,2.06,2.06,0,0,1,.688,1.655v2.748A3.031,3.031,0,0,0-3.023-.1V0Zm-1.4-1.178a1.458,1.458,0,0,0,.691-.167,1.1,1.1,0,0,0,.469-.448v-1.09h-.633q-1.271,0-1.354.879l-.006.1a.678.678,0,0,0,.223.521A.865.865,0,0,0-6.135-1.178ZM-.387-6.34l.053.709a2.228,2.228,0,0,1,1.822-.826A1.691,1.691,0,0,1,3.17-5.49a2.177,2.177,0,0,1,1.9-.967,1.891,1.891,0,0,1,1.535.6,2.761,2.761,0,0,1,.5,1.808V0h-1.7V-4.043A1.207,1.207,0,0,0,5.2-4.831a.935.935,0,0,0-.744-.249A1.057,1.057,0,0,0,3.4-4.354L3.41,0H1.717V-4.037a1.193,1.193,0,0,0-.217-.8A.944.944,0,0,0,.762-5.08a1.1,1.1,0,0,0-1.043.6V0H-1.975V-6.34ZM10.2,0H8.5V-6.34h1.7ZM8.4-7.98a.834.834,0,0,1,.255-.627.958.958,0,0,1,.694-.246.96.96,0,0,1,.691.246.829.829,0,0,1,.258.627.831.831,0,0,1-.261.633.962.962,0,0,1-.688.246.962.962,0,0,1-.688-.246A.831.831,0,0,1,8.4-7.98Zm6.111,8.1a3.112,3.112,0,0,1-2.271-.855,3.041,3.041,0,0,1-.876-2.279v-.164a3.83,3.83,0,0,1,.369-1.708,2.709,2.709,0,0,1,1.046-1.16,2.936,2.936,0,0,1,1.544-.407,2.631,2.631,0,0,1,2.048.82,3.333,3.333,0,0,1,.747,2.326v.691H13.084a1.573,1.573,0,0,0,.5,1,1.5,1.5,0,0,0,1.046.375,1.828,1.828,0,0,0,1.529-.709l.832.932a2.542,2.542,0,0,1-1.031.841A3.383,3.383,0,0,1,14.514.117ZM14.32-5.092a1.058,1.058,0,0,0-.817.341,1.768,1.768,0,0,0-.4.977h2.355v-.135a1.261,1.261,0,0,0-.3-.874A1.092,1.092,0,0,0,14.32-5.092Zm5.32-1.248.053.732a2.213,2.213,0,0,1,1.822-.85,1.84,1.84,0,0,1,1.5.592,2.761,2.761,0,0,1,.5,1.77V0H21.826V-4.055a1.1,1.1,0,0,0-.234-.782,1.049,1.049,0,0,0-.779-.243,1.165,1.165,0,0,0-1.072.609V0H18.047V-6.34ZM26.83-7.9V-6.34h1.084V-5.1H26.83v3.164a.756.756,0,0,0,.135.5.677.677,0,0,0,.516.152,2.7,2.7,0,0,0,.5-.041V-.035a3.486,3.486,0,0,1-1.025.152,1.617,1.617,0,0,1-1.816-1.8V-5.1h-.926V-6.34h.926V-7.9Zm1.588,4.67a3.76,3.76,0,0,1,.363-1.682,2.659,2.659,0,0,1,1.046-1.143,3.051,3.051,0,0,1,1.585-.4,2.887,2.887,0,0,1,2.095.785,3.151,3.151,0,0,1,.905,2.133l.012.434a3.314,3.314,0,0,1-.814,2.341,2.831,2.831,0,0,1-2.186.882,2.845,2.845,0,0,1-2.188-.879,3.372,3.372,0,0,1-.817-2.391Zm1.693.12a2.37,2.37,0,0,0,.34,1.382,1.121,1.121,0,0,0,.973.478,1.124,1.124,0,0,0,.961-.472,2.593,2.593,0,0,0,.346-1.511A2.346,2.346,0,0,0,32.385-4.6a1.124,1.124,0,0,0-.973-.487,1.105,1.105,0,0,0-.961.484A2.637,2.637,0,0,0,30.111-3.108Z" transform="translate(-3268 -1718)" fill="#00104e"/>
    <path id="Trazado_602983" data-name="Trazado 602983" d="M-26.3-2.842A3.019,3.019,0,0,1-27.316-.674a3.57,3.57,0,0,1-2.417.791,3.21,3.21,0,0,1-2.581-1.1,4.529,4.529,0,0,1-.94-3.032v-.521a5.114,5.114,0,0,1,.434-2.168,3.249,3.249,0,0,1,1.239-1.438,3.471,3.471,0,0,1,1.872-.5,3.478,3.478,0,0,1,2.379.791,3.244,3.244,0,0,1,1.043,2.221h-1.758a1.782,1.782,0,0,0-.46-1.2,1.7,1.7,0,0,0-1.2-.372,1.494,1.494,0,0,0-1.315.63,3.53,3.53,0,0,0-.448,1.954v.645a3.778,3.778,0,0,0,.419,2.021,1.466,1.466,0,0,0,1.321.639,1.735,1.735,0,0,0,1.216-.372,1.681,1.681,0,0,0,.46-1.151Zm.779-.387a3.76,3.76,0,0,1,.363-1.682,2.659,2.659,0,0,1,1.046-1.143,3.051,3.051,0,0,1,1.585-.4,2.887,2.887,0,0,1,2.095.785,3.151,3.151,0,0,1,.905,2.133l.012.434a3.314,3.314,0,0,1-.814,2.341,2.831,2.831,0,0,1-2.186.882A2.845,2.845,0,0,1-24.7-.762a3.372,3.372,0,0,1-.817-2.391Zm1.693.12a2.37,2.37,0,0,0,.34,1.382,1.121,1.121,0,0,0,.973.478,1.124,1.124,0,0,0,.961-.472,2.593,2.593,0,0,0,.346-1.511A2.346,2.346,0,0,0-21.554-4.6a1.124,1.124,0,0,0-.973-.487,1.105,1.105,0,0,0-.961.484A2.637,2.637,0,0,0-23.827-3.108Zm5.092-.108a3.821,3.821,0,0,1,.665-2.361,2.158,2.158,0,0,1,1.819-.879,1.942,1.942,0,0,1,1.529.691V-9h1.7V0h-1.529l-.082-.674a1.993,1.993,0,0,1-1.629.791,2.152,2.152,0,0,1-1.8-.882A3.944,3.944,0,0,1-18.735-3.217Zm1.693.126a2.5,2.5,0,0,0,.311,1.367,1.012,1.012,0,0,0,.9.475,1.133,1.133,0,0,0,1.107-.663V-4.417a1.117,1.117,0,0,0-1.1-.663Q-17.042-5.08-17.042-3.091ZM-9.923,0h-1.7V-6.34h1.7Zm-1.8-7.98a.834.834,0,0,1,.255-.627.958.958,0,0,1,.694-.246.96.96,0,0,1,.691.246.829.829,0,0,1,.258.627.831.831,0,0,1-.261.633.962.962,0,0,1-.688.246.962.962,0,0,1-.688-.246A.831.831,0,0,1-11.722-7.98ZM-8.118,0V-5.1h-.943V-6.34h.943v-.293a2.378,2.378,0,0,1,.735-1.843,2.959,2.959,0,0,1,2.042-.647,6.773,6.773,0,0,1,1.922.346l-.246,1.4a7.5,7.5,0,0,0-.891-.22,4.376,4.376,0,0,0-.68-.05q-1.184,0-1.184,1.049v.258h1.248V-5.1H-6.419V0Zm5.49,0h-1.7V-6.34h1.7ZM1.409-1.248a1.111,1.111,0,0,0,.762-.258.9.9,0,0,0,.3-.686H4.063a2.172,2.172,0,0,1-.352,1.181,2.32,2.32,0,0,1-.946.832,2.962,2.962,0,0,1-1.327.3A2.752,2.752,0,0,1-.706-.747a3.42,3.42,0,0,1-.785-2.388v-.111A3.381,3.381,0,0,1-.712-5.584a2.72,2.72,0,0,1,2.139-.873,2.667,2.667,0,0,1,1.907.677,2.4,2.4,0,0,1,.729,1.8H2.476a1.164,1.164,0,0,0-.3-.8A1.016,1.016,0,0,0,1.4-5.092,1.02,1.02,0,0,0,.5-4.66a2.5,2.5,0,0,0-.3,1.4v.176A2.531,2.531,0,0,0,.5-1.676,1.033,1.033,0,0,0,1.409-1.248ZM8.7,0a1.88,1.88,0,0,1-.17-.568,2.049,2.049,0,0,1-1.6.686A2.251,2.251,0,0,1,5.391-.422a1.734,1.734,0,0,1-.612-1.359,1.792,1.792,0,0,1,.747-1.547,3.686,3.686,0,0,1,2.159-.545h.779v-.363a1.045,1.045,0,0,0-.226-.7A.887.887,0,0,0,7.526-5.2,1.009,1.009,0,0,0,6.855-5a.7.7,0,0,0-.243.563H4.919a1.7,1.7,0,0,1,.34-1.02A2.246,2.246,0,0,1,6.22-6.19a3.5,3.5,0,0,1,1.395-.267,2.767,2.767,0,0,1,1.86.589,2.06,2.06,0,0,1,.688,1.655v2.748A3.031,3.031,0,0,0,10.415-.1V0ZM7.3-1.178A1.458,1.458,0,0,0,8-1.345a1.1,1.1,0,0,0,.469-.448v-1.09H7.831Q6.56-2.883,6.478-2l-.006.1a.678.678,0,0,0,.223.521A.865.865,0,0,0,7.3-1.178Zm6.8-.07a1.111,1.111,0,0,0,.762-.258.9.9,0,0,0,.3-.686h1.588A2.172,2.172,0,0,1,16.4-1.011a2.32,2.32,0,0,1-.946.832,2.962,2.962,0,0,1-1.327.3,2.752,2.752,0,0,1-2.145-.864A3.42,3.42,0,0,1,11.2-3.135v-.111a3.381,3.381,0,0,1,.779-2.338,2.72,2.72,0,0,1,2.139-.873,2.667,2.667,0,0,1,1.907.677,2.4,2.4,0,0,1,.729,1.8H15.167a1.164,1.164,0,0,0-.3-.8,1.016,1.016,0,0,0-.773-.309,1.02,1.02,0,0,0-.894.431,2.5,2.5,0,0,0-.3,1.4v.176a2.531,2.531,0,0,0,.3,1.408A1.033,1.033,0,0,0,14.1-1.248ZM19.509,0h-1.7V-6.34h1.7Zm-1.8-7.98a.834.834,0,0,1,.255-.627.958.958,0,0,1,.694-.246.96.96,0,0,1,.691.246.829.829,0,0,1,.258.627.831.831,0,0,1-.261.633.962.962,0,0,1-.688.246.962.962,0,0,1-.688-.246A.831.831,0,0,1,17.71-7.98Zm2.93,4.752A3.76,3.76,0,0,1,21-4.91a2.659,2.659,0,0,1,1.046-1.143,3.051,3.051,0,0,1,1.585-.4,2.887,2.887,0,0,1,2.095.785,3.151,3.151,0,0,1,.905,2.133l.012.434a3.314,3.314,0,0,1-.814,2.341,2.831,2.831,0,0,1-2.186.882,2.845,2.845,0,0,1-2.188-.879,3.372,3.372,0,0,1-.817-2.391Zm1.693.12a2.37,2.37,0,0,0,.34,1.382,1.121,1.121,0,0,0,.973.478,1.124,1.124,0,0,0,.961-.472,2.593,2.593,0,0,0,.346-1.511A2.346,2.346,0,0,0,24.606-4.6a1.124,1.124,0,0,0-.973-.487,1.105,1.105,0,0,0-.961.484A2.637,2.637,0,0,0,22.333-3.108ZM23.968-9h1.846L24.19-7.184H22.813Zm5.279,2.66.053.732a2.213,2.213,0,0,1,1.822-.85,1.84,1.84,0,0,1,1.5.592,2.761,2.761,0,0,1,.5,1.77V0H31.433V-4.055a1.1,1.1,0,0,0-.234-.782,1.049,1.049,0,0,0-.779-.243,1.165,1.165,0,0,0-1.072.609V0H27.653V-6.34Z" transform="translate(-2952 -1739)" fill="#00104e"/>
    <path id="Trazado_602984" data-name="Trazado 602984" d="M4.952-5.307V0H1.182V-15.641H7.423a7.269,7.269,0,0,1,3.174.661,4.979,4.979,0,0,1,2.138,1.88,5.134,5.134,0,0,1,.757,2.766,4.526,4.526,0,0,1-1.638,3.658,6.8,6.8,0,0,1-4.5,1.37Zm0-2.911H7.423a2.33,2.33,0,0,0,1.67-.548,2.035,2.035,0,0,0,.575-1.547,2.516,2.516,0,0,0-.591-1.751,2.092,2.092,0,0,0-1.611-.666H4.952Zm17.413-.129-1.192-.086a2.142,2.142,0,0,0-2.191,1.074V0h-3.62V-11.623h3.395l.118,1.493a2.8,2.8,0,0,1,2.546-1.708,3.53,3.53,0,0,1,1.01.129Zm.462,2.428a6.86,6.86,0,0,1,.677-3.1,4.84,4.84,0,0,1,1.944-2.089,5.856,5.856,0,0,1,2.976-.73,5.344,5.344,0,0,1,4.114,1.617,6.2,6.2,0,0,1,1.5,4.4v.129A6.019,6.019,0,0,1,32.533-1.38a5.359,5.359,0,0,1-4.087,1.6A5.42,5.42,0,0,1,24.46-1.273a5.819,5.819,0,0,1-1.622-4.034Zm3.62.226a4.325,4.325,0,0,0,.5,2.363,1.682,1.682,0,0,0,1.493.752q1.934,0,1.977-2.976v-.365q0-3.126-2-3.126-1.815,0-1.966,2.7Zm8.766-.2a7.848,7.848,0,0,1,.58-3.115A4.67,4.67,0,0,1,37.458-11.1a4.389,4.389,0,0,1,2.524-.736,3.49,3.49,0,0,1,2.836,1.225l.129-1.01h3.287V-.44a4.9,4.9,0,0,1-.714,2.669,4.584,4.584,0,0,1-2.068,1.74,7.6,7.6,0,0,1-3.137.607,6.557,6.557,0,0,1-2.476-.483,4.47,4.47,0,0,1-1.832-1.257L37.522.709A3.319,3.319,0,0,0,40.187,1.9,2.156,2.156,0,0,0,42.593-.569V-.935A3.4,3.4,0,0,1,39.961.215a4.2,4.2,0,0,1-3.437-1.627,6.743,6.743,0,0,1-1.311-4.356Zm3.631.226a4.135,4.135,0,0,0,.537,2.261,1.7,1.7,0,0,0,1.5.833,1.923,1.923,0,0,0,1.708-.784V-8.25a1.875,1.875,0,0,0-1.687-.795,1.706,1.706,0,0,0-1.515.865A4.715,4.715,0,0,0,38.844-5.672ZM55.322-8.347,54.13-8.433a2.142,2.142,0,0,0-2.191,1.074V0h-3.62V-11.623h3.395l.118,1.493a2.8,2.8,0,0,1,2.546-1.708,3.53,3.53,0,0,1,1.01.129ZM62.853,0a4.088,4.088,0,0,1-.344-1.042A3.366,3.366,0,0,1,59.716.215a4.124,4.124,0,0,1-2.793-.994,3.163,3.163,0,0,1-1.149-2.5,3.251,3.251,0,0,1,1.4-2.857A7.114,7.114,0,0,1,61.23-7.1h1.117v-.615q0-1.608-1.386-1.608A1.133,1.133,0,0,0,59.673-8.05h-3.62a3.245,3.245,0,0,1,1.434-2.736,6.027,6.027,0,0,1,3.658-1.051,5.284,5.284,0,0,1,3.513,1.085,3.772,3.772,0,0,1,1.321,2.976v5.146a5.269,5.269,0,0,0,.494,2.449V0ZM60.586-2.363a2.019,2.019,0,0,0,1.123-.29,1.818,1.818,0,0,0,.639-.655V-5.167H61.295q-1.891,0-1.891,1.7a1.036,1.036,0,0,0,.333.8A1.205,1.205,0,0,0,60.586-2.363ZM71.4-11.623l.118,1.364a4,4,0,0,1,3.319-1.579,2.942,2.942,0,0,1,2.976,1.751,3.868,3.868,0,0,1,3.416-1.751q3.534,0,3.631,4.275V0H81.232V-7.337a2.216,2.216,0,0,0-.3-1.3,1.28,1.28,0,0,0-1.1-.408,1.715,1.715,0,0,0-1.6.956l.011.15V0H74.615V-7.315a2.329,2.329,0,0,0-.29-1.321,1.277,1.277,0,0,0-1.106-.408,1.736,1.736,0,0,0-1.59.956V0h-3.62V-11.623ZM93.479,0a4.087,4.087,0,0,1-.344-1.042A3.366,3.366,0,0,1,90.342.215a4.124,4.124,0,0,1-2.793-.994,3.163,3.163,0,0,1-1.149-2.5,3.251,3.251,0,0,1,1.4-2.857A7.114,7.114,0,0,1,91.856-7.1h1.117v-.615q0-1.608-1.386-1.608A1.133,1.133,0,0,0,90.3-8.05h-3.62a3.245,3.245,0,0,1,1.434-2.736,6.027,6.027,0,0,1,3.658-1.051,5.284,5.284,0,0,1,3.513,1.085A3.772,3.772,0,0,1,96.6-7.777v5.146A5.269,5.269,0,0,0,97.1-.183V0ZM91.212-2.363a2.019,2.019,0,0,0,1.123-.29,1.818,1.818,0,0,0,.639-.655V-5.167H91.921q-1.891,0-1.891,1.7a1.036,1.036,0,0,0,.333.8A1.205,1.205,0,0,0,91.212-2.363Zm12.311-.215a1.61,1.61,0,0,0,1.182-.414,1.517,1.517,0,0,0,.408-1.155h3.395a4.018,4.018,0,0,1-1.37,3.137A5.1,5.1,0,0,1,103.608.215a5.158,5.158,0,0,1-4-1.59,6.264,6.264,0,0,1-1.461-4.4v-.15a7.08,7.08,0,0,1,.65-3.11,4.732,4.732,0,0,1,1.875-2.073,5.589,5.589,0,0,1,2.9-.725,5.03,5.03,0,0,1,3.6,1.257,4.458,4.458,0,0,1,1.332,3.405h-3.395a1.987,1.987,0,0,0-.44-1.386,1.52,1.52,0,0,0-1.182-.483q-1.407,0-1.644,1.794a12.658,12.658,0,0,0-.075,1.568,4.972,4.972,0,0,0,.419,2.428A1.45,1.45,0,0,0,103.522-2.578ZM113.856,0h-3.631V-11.623h3.631Zm-3.846-14.62a1.616,1.616,0,0,1,.559-1.268,2.108,2.108,0,0,1,1.45-.494,2.108,2.108,0,0,1,1.45.494,1.616,1.616,0,0,1,.559,1.268,1.616,1.616,0,0,1-.559,1.268,2.108,2.108,0,0,1-1.45.494,2.108,2.108,0,0,1-1.45-.494A1.616,1.616,0,0,1,110.011-14.62Zm5.618,8.7a6.86,6.86,0,0,1,.677-3.1,4.84,4.84,0,0,1,1.944-2.089,5.856,5.856,0,0,1,2.976-.73,5.344,5.344,0,0,1,4.114,1.617,6.2,6.2,0,0,1,1.5,4.4v.129a6.019,6.019,0,0,1-1.509,4.313,5.359,5.359,0,0,1-4.087,1.6,5.42,5.42,0,0,1-3.985-1.488,5.819,5.819,0,0,1-1.622-4.034Zm3.62.226a4.325,4.325,0,0,0,.5,2.363,1.682,1.682,0,0,0,1.493.752q1.934,0,1.977-2.976v-.365q0-3.126-2-3.126-1.815,0-1.966,2.7ZM121.72-16.5h3.824l-2.986,3.373-2.954-.005Zm10.044,4.877.118,1.364a3.942,3.942,0,0,1,3.319-1.579,3.316,3.316,0,0,1,2.712,1.085,5.165,5.165,0,0,1,.929,3.266V0h-3.631V-7.337a1.961,1.961,0,0,0-.354-1.294,1.64,1.64,0,0,0-1.289-.414,1.726,1.726,0,0,0-1.579.838V0h-3.62V-11.623Zm24.428,4.984h-5.93V-2.9h7V0H146.491V-15.641h10.8v2.911h-7.025v3.3h5.93Zm7.154-1.783,1.687-3.2h3.76L165.73-5.962,168.942,0h-3.781l-1.826-3.437L161.541,0h-3.8l3.223-5.962-3.051-5.661h3.8Zm10.828-6.091v2.89h1.912v2.514h-1.912v5.317a1.358,1.358,0,0,0,.236.913,1.268,1.268,0,0,0,.935.258,5.311,5.311,0,0,0,.9-.064V-.1a6.681,6.681,0,0,1-2.041.312,3.792,3.792,0,0,1-2.761-.881,3.61,3.61,0,0,1-.892-2.675V-9.109h-1.482v-2.514h1.482v-2.89ZM184.54-8.347l-1.192-.086a2.142,2.142,0,0,0-2.191,1.074V0h-3.62V-11.623h3.395l.118,1.493a2.8,2.8,0,0,1,2.546-1.708,3.53,3.53,0,0,1,1.01.129ZM191.469.215a5.975,5.975,0,0,1-4.329-1.6,5.509,5.509,0,0,1-1.654-4.152v-.3a7.138,7.138,0,0,1,.661-3.147,4.834,4.834,0,0,1,1.928-2.111,5.821,5.821,0,0,1,3.008-.747,5.031,5.031,0,0,1,3.867,1.52,5.973,5.973,0,0,1,1.418,4.238v1.407h-7.2a2.609,2.609,0,0,0,.849,1.536,2.525,2.525,0,0,0,1.7.559,3.254,3.254,0,0,0,2.686-1.2l1.654,1.955a4.624,4.624,0,0,1-1.917,1.488A6.48,6.48,0,0,1,191.469.215Zm-.408-9.26q-1.59,0-1.891,2.105h3.652v-.279a1.793,1.793,0,0,0-.44-1.348A1.753,1.753,0,0,0,191.061-9.045Zm10.184-2.578.118,1.364a4,4,0,0,1,3.319-1.579,2.942,2.942,0,0,1,2.976,1.751,3.868,3.868,0,0,1,3.416-1.751q3.534,0,3.631,4.275V0h-3.631V-7.337a2.216,2.216,0,0,0-.3-1.3,1.28,1.28,0,0,0-1.1-.408,1.715,1.715,0,0,0-1.6.956l.011.15V0h-3.631V-7.315a2.329,2.329,0,0,0-.29-1.321,1.277,1.277,0,0,0-1.106-.408,1.736,1.736,0,0,0-1.59.956V0h-3.62V-11.623ZM223.319,0a4.088,4.088,0,0,1-.344-1.042A3.366,3.366,0,0,1,220.183.215a4.124,4.124,0,0,1-2.793-.994,3.163,3.163,0,0,1-1.149-2.5,3.251,3.251,0,0,1,1.4-2.857A7.114,7.114,0,0,1,221.7-7.1h1.117v-.615q0-1.608-1.386-1.608A1.133,1.133,0,0,0,220.14-8.05h-3.62a3.245,3.245,0,0,1,1.434-2.736,6.027,6.027,0,0,1,3.658-1.051,5.284,5.284,0,0,1,3.513,1.085,3.772,3.772,0,0,1,1.321,2.976v5.146a5.269,5.269,0,0,0,.494,2.449V0Zm-2.267-2.363a2.019,2.019,0,0,0,1.123-.29,1.818,1.818,0,0,0,.639-.655V-5.167h-1.053q-1.891,0-1.891,1.7a1.036,1.036,0,0,0,.333.8A1.205,1.205,0,0,0,221.053-2.363Zm13.148-4a16.416,16.416,0,0,1,.7-4.877,11.769,11.769,0,0,1,1.928-3.824,6.848,6.848,0,0,1,2.734-2.191l.688,1.783a7,7,0,0,0-2.326,3.454,16.844,16.844,0,0,0-.833,5.505v.473a17.173,17.173,0,0,0,.822,5.607,6.974,6.974,0,0,0,2.336,3.48l-.687,1.783a6.779,6.779,0,0,1-2.734-2.2A11.592,11.592,0,0,1,234.9-1.171a16.5,16.5,0,0,1-.7-4.705Zm13.492-4.082,2.557-5.2h4.308l-4.372,7.756L254.676,0h-4.351l-2.632-5.3L245.062,0h-4.34L245.2-7.885l-4.361-7.756h4.3Zm11.978,5.135V0H255.9V-15.641h6.241a7.269,7.269,0,0,1,3.174.661,4.979,4.979,0,0,1,2.138,1.88,5.134,5.134,0,0,1,.757,2.766,4.526,4.526,0,0,1-1.638,3.658,6.8,6.8,0,0,1-4.5,1.37Zm0-2.911h2.471a2.33,2.33,0,0,0,1.67-.548,2.035,2.035,0,0,0,.575-1.547,2.516,2.516,0,0,0-.591-1.751,2.092,2.092,0,0,0-1.611-.666h-2.514Zm16.092,2.159a15.317,15.317,0,0,1-.741,4.791,12.232,12.232,0,0,1-2.046,3.894,6.813,6.813,0,0,1-2.82,2.208l-.687-1.783a7.073,7.073,0,0,0,2.31-3.437,16.593,16.593,0,0,0,.849-5.339v-.655a17.173,17.173,0,0,0-.822-5.607,6.974,6.974,0,0,0-2.336-3.48l.688-1.783a6.938,6.938,0,0,1,2.8,2.186,12.082,12.082,0,0,1,2.041,3.835,15.188,15.188,0,0,1,.768,4.7Z" transform="translate(-3194 -1942)" fill="#00104e"/>
  </g>
</svg>
