<svg xmlns="http://www.w3.org/2000/svg" width="400" height="298" viewBox="0 0 400 298">
  <g id="Grupo_159420" data-name="Grupo 159420" transform="translate(-1020 -3251.5)">
    <g id="Grupo_159403" data-name="Grupo 159403">
      <rect id="Rect치ngulo_45554" data-name="Rect치ngulo 45554" width="400" height="298" transform="translate(1020 3251.5)" fill="#ff8e7c"/>
      <g id="Grupo_157755" data-name="Grupo 157755" transform="translate(833.75 205.5)">
        <g id="Grupo_157752" data-name="Grupo 157752" transform="translate(-414.75 2027.2)">
          <rect id="Rect치ngulo_36139" data-name="Rect치ngulo 36139" width="290" height="37" rx="18.5" transform="translate(656 1247)" fill="#fff"/>
          <path id="Feature_One" data-name="Feature One" d="M104.854,14.658V19H101.77V6.2h5.106a5.948,5.948,0,0,1,2.6.541,4.074,4.074,0,0,1,1.749,1.538,4.2,4.2,0,0,1,.62,2.263,3.7,3.7,0,0,1-1.34,2.993,5.561,5.561,0,0,1-3.678,1.121Zm0-2.382h2.021a1.906,1.906,0,0,0,1.367-.448,1.665,1.665,0,0,0,.47-1.266,2.059,2.059,0,0,0-.483-1.433,1.712,1.712,0,0,0-1.318-.545h-2.057Zm14.247-.105-.976-.07a1.752,1.752,0,0,0-1.793.879V19h-2.962V9.49h2.777l.1,1.222a2.294,2.294,0,0,1,2.083-1.4,2.888,2.888,0,0,1,.826.105Zm6.732,5.8a3.054,3.054,0,0,1-2.54,1.2,3,3,0,0,1-2.369-.91,3.826,3.826,0,0,1-.8-2.615V9.49h2.962v6.179a1.065,1.065,0,0,0,1.187,1.222,1.548,1.548,0,0,0,1.45-.729V9.49H128.7V19h-2.777Zm9.088,1.2a4.889,4.889,0,0,1-3.542-1.305,4.507,4.507,0,0,1-1.354-3.4v-.246a5.84,5.84,0,0,1,.541-2.575,3.955,3.955,0,0,1,1.578-1.727,4.763,4.763,0,0,1,2.461-.611,4.117,4.117,0,0,1,3.164,1.244,4.887,4.887,0,0,1,1.16,3.467v1.151h-5.889a2.135,2.135,0,0,0,.694,1.257,2.066,2.066,0,0,0,1.389.457,2.662,2.662,0,0,0,2.2-.984l1.354,1.6a3.784,3.784,0,0,1-1.569,1.217A5.3,5.3,0,0,1,134.922,19.176Zm-.334-7.576q-1.3,0-1.547,1.723h2.988v-.229a1.467,1.467,0,0,0-.36-1.1A1.434,1.434,0,0,0,134.588,11.6Zm14.361,2.725a5.8,5.8,0,0,1-.967,3.595,3.238,3.238,0,0,1-2.725,1.257,2.81,2.81,0,0,1-2.338-1.151L142.8,19h-2.654V5.5H143.1v4.755a2.711,2.711,0,0,1,2.136-.94,3.239,3.239,0,0,1,2.742,1.274,5.826,5.826,0,0,1,.967,3.586Zm-2.971-.189a3.866,3.866,0,0,0-.365-1.952,1.229,1.229,0,0,0-1.121-.584,1.418,1.418,0,0,0-1.389.763v3.773a1.426,1.426,0,0,0,1.406.755,1.258,1.258,0,0,0,1.327-1.018A7.309,7.309,0,0,0,145.979,14.135ZM155.611,19a3.344,3.344,0,0,1-.281-.853,2.754,2.754,0,0,1-2.285,1.028,3.374,3.374,0,0,1-2.285-.813,2.588,2.588,0,0,1-.94-2.043,2.66,2.66,0,0,1,1.143-2.338,5.821,5.821,0,0,1,3.322-.791h.914v-.5q0-1.316-1.134-1.316a.927.927,0,0,0-1.055,1.042h-2.962a2.655,2.655,0,0,1,1.173-2.239,4.931,4.931,0,0,1,2.993-.86,4.323,4.323,0,0,1,2.874.888,3.086,3.086,0,0,1,1.081,2.435v4.21a4.311,4.311,0,0,0,.4,2V19Zm-1.854-1.934a1.652,1.652,0,0,0,.918-.237,1.487,1.487,0,0,0,.523-.536V14.772h-.861q-1.547,0-1.547,1.389a.848.848,0,0,0,.272.655A.986.986,0,0,0,153.757,17.066Zm11.03-.738a.684.684,0,0,0-.4-.606,6.016,6.016,0,0,0-1.5-.475,6.853,6.853,0,0,1-1.828-.646,3.062,3.062,0,0,1-1.1-.971,2.319,2.319,0,0,1-.378-1.31,2.628,2.628,0,0,1,1.081-2.158,4.453,4.453,0,0,1,2.83-.848,4.934,4.934,0,0,1,3.023.853,2.666,2.666,0,0,1,1.143,2.241H164.69q0-1.143-1.2-1.143a1.194,1.194,0,0,0-.782.259.8.8,0,0,0-.316.646.737.737,0,0,0,.387.642,3.654,3.654,0,0,0,1.235.4,10.671,10.671,0,0,1,1.49.378,2.706,2.706,0,0,1,2.145,2.646,2.491,2.491,0,0,1-1.156,2.118,5.068,5.068,0,0,1-2.993.817,5.172,5.172,0,0,1-2.18-.439,3.645,3.645,0,0,1-1.494-1.2,2.707,2.707,0,0,1-.536-1.591h2.769a1.145,1.145,0,0,0,.439.962,1.808,1.808,0,0,0,1.081.3,1.422,1.422,0,0,0,.91-.246A.787.787,0,0,0,164.787,16.328Z" transform="translate(667 1253)" fill="#12263f"/>
        </g>
        <g id="Elipse_5562" data-name="Elipse 5562" transform="translate(496 3279.2)" fill="#fff" stroke="#707070" stroke-width="1">
          <circle cx="14" cy="14" r="14" stroke="none"/>
          <circle cx="14" cy="14" r="13.5" fill="none"/>
        </g>
        <path id="Icon_ionic-ios-arrow-back" data-name="Icon ionic-ios-arrow-back" d="M1.94,5.9,6.2,1.437A.868.868,0,0,0,6.2.246a.782.782,0,0,0-1.139,0L.234,5.3A.871.871,0,0,0,.211,6.464l4.846,5.09a.783.783,0,0,0,1.139,0,.868.868,0,0,0,0-1.191Z" transform="translate(515.8 3289.201) rotate(90)" fill="#636363"/>
      </g>
      <ellipse id="Elipse_5565" data-name="Elipse 5565" cx="90.5" cy="91" rx="90.5" ry="91" transform="translate(1130 3279.5)" fill="#ffe7e3"/>
      <g id="_28_Class" data-name="28 Class" transform="translate(1167 3316.5)">
        <g id="_28_Class-2" data-name="28 Class" transform="translate(0 0)">
          <g id="Class" transform="translate(1.576 1.576)">
            <path id="Trazado_601439" data-name="Trazado 601439" d="M211.745,423.442,200.711,420.5l-11.033,2.942L186,430.8l14.711,3.152,14.711-3.152Z" transform="translate(-148.486 -333.703)" fill="#eee1dc"/>
            <path id="Trazado_601440" data-name="Trazado 601440" d="M111.95,137.816,59.725,143.6,7.5,137.816V84.856A7.356,7.356,0,0,1,14.856,77.5h89.739a7.356,7.356,0,0,1,7.356,7.356Z" transform="translate(-7.5 -62.789)" fill="#27aae1"/>
            <path id="Trazado_601441" data-name="Trazado 601441" d="M14.856,77.5H97.239v28.431a24.53,24.53,0,0,1-24.53,24.53H7.5v-45.6A7.356,7.356,0,0,1,14.856,77.5Z" transform="translate(-7.5 -62.789)" fill="#0cf"/>
            <path id="Trazado_601442" data-name="Trazado 601442" d="M14.856,77.5h71.35v44.029H7.5V84.856A7.356,7.356,0,0,1,14.856,77.5Z" transform="translate(-7.5 -62.789)" fill="#75eeff"/>
            <g id="Teacher" transform="translate(29.107)">
              <path id="Trazado_601443" data-name="Trazado 601443" d="M195.554,36.25a22.739,22.739,0,0,0-7.507-16.912c-3.472-2.135-6.935-4.2-11.3-4.2l-3.783-.105C160.369,15.024,151,26.179,151,38.772l2.312,42.347h42.242Z" transform="translate(-149.949 -13.447)" fill="#ed844d"/>
              <path id="Trazado_601444" data-name="Trazado 601444" d="M215.782,92.623H181V57.947A15.447,15.447,0,0,1,196.447,42.5a19.335,19.335,0,0,1,19.335,19.335Z" transform="translate(-173.644 -35.144)" fill="#f26522"/>
              <path id="Trazado_601445" data-name="Trazado 601445" d="M168.8,7.5A22.8,22.8,0,0,0,146,30.3V75.172h3.363V32.824a22.8,22.8,0,0,1,13.015-20.6,1.845,1.845,0,0,1,1.678,3.282,9.341,9.341,0,0,1-.918.42A15.453,15.453,0,0,0,153.356,30.3v2.942H168.8V13.393a3.363,3.363,0,0,1,3.329-3.363h.033A22.7,22.7,0,0,1,184.1,13.393,22.721,22.721,0,0,0,168.8,7.5Z" transform="translate(-146 -7.5)" fill="#f19d71"/>
              <path id="Trazado_601446" data-name="Trazado 601446" d="M160.711,217.5h16.182A14.711,14.711,0,0,1,191.6,232.211v16.182H146V232.211A14.711,14.711,0,0,1,160.711,217.5Z" transform="translate(-146 -173.366)" fill="#fae77d"/>
              <path id="Trazado_601447" data-name="Trazado 601447" d="M403.265,190.16l.956-1.721-1.587-.874a4.674,4.674,0,0,0-6.347,1.843,5.8,5.8,0,0,0-.647,3.743,11.559,11.559,0,0,1-1.192,7.45l-.189.347,6.444,3.543a12.881,12.881,0,0,1,5.824-5.523,6.127,6.127,0,0,0,.609-.334l-1.948-1.137a5.422,5.422,0,0,1-1.923-7.337Z" transform="translate(-342.085 -149.264)" fill="#ffdecf"/>
              <path id="Trazado_601448" data-name="Trazado 601448" d="M419.938,204.115l-1.986-.7a3.987,3.987,0,0,0-4.058.75c-2.2,2.49-.912,5.658,2.909,7.131l.21.082c1.965.746,4.535.357,5.691-.908l.059-.063C424.732,208.182,423.41,205.345,419.938,204.115Z" transform="translate(-356.745 -162.052)" fill="#ffcdbe"/>
              <path id="Trazado_601449" data-name="Trazado 601449" d="M438.487,195.571l-3.112-1.711-.956,1.721a5.422,5.422,0,0,0,1.923,7.345l1.948,1.152a5.762,5.762,0,0,0,2.041-2.146,4.672,4.672,0,0,0-1.843-6.362Z" transform="translate(-373.238 -154.694)" fill="#ffeee4"/>
              <path id="Trazado_601450" data-name="Trazado 601450" d="M384.16,263.433l-1.076-.593-9.262.857-1.032,1.877,3.722,3.5L382,270.637l2.785-5.063A1.576,1.576,0,0,0,384.16,263.433Z" transform="translate(-325.128 -209.177)" fill="#ff637b"/>
              <path id="Trazado_601451" data-name="Trazado 601451" d="M346.025,293l-12.032,6.391-2.608,4.748a5.254,5.254,0,1,0,9.207,5.044l8.1-14.732Z" transform="translate(-291.824 -232.999)" fill="#fae77d"/>
              <path id="Trazado_601452" data-name="Trazado 601452" d="M357.278,282.077l1.4-2.591-6.538-3.6-5.494,9.987,3.84.118A7.456,7.456,0,0,0,357.278,282.077Z" transform="translate(-304.481 -219.485)" fill="#fcf3be"/>
              <path id="Trazado_601453" data-name="Trazado 601453" d="M386.138,252.466l.79-1.437-5.367-2.942a1.576,1.576,0,0,0-2.148.612l-1.753,3.188,3.619,1.99a3.573,3.573,0,0,0,4.859-1.41Z" transform="translate(-328.974 -197.366)" fill="#f58c98"/>
              <path id="Trazado_601454" data-name="Trazado 601454" d="M177.291,237.886H146v-5.674A14.711,14.711,0,0,1,160.711,217.5v10.647a3.762,3.762,0,0,0,3.533,3.749l12.677.773a2.883,2.883,0,0,1,2.7,2.881,2.333,2.333,0,0,1-2.335,2.335Z" transform="translate(-146 -173.366)" fill="#fcf3be"/>
              <path id="Trazado_601455" data-name="Trazado 601455" d="M216,200h16.182v7.145a8.091,8.091,0,1,1-16.182,0Z" transform="translate(-201.289 -159.544)" fill="#ffdecf"/>
              <path id="Trazado_601456" data-name="Trazado 601456" d="M216,200h16.182v4.834a5.145,5.145,0,0,1-5.145,5.145h-5.885A5.145,5.145,0,0,1,216,204.834V200Z" transform="translate(-201.289 -159.544)" fill="#ffcdbe"/>
              <path id="Trazado_601457" data-name="Trazado 601457" d="M196.447,79.278A15.447,15.447,0,0,1,181,63.831V57.947A15.447,15.447,0,0,0,196.447,42.5a15.447,15.447,0,0,1,15.447,15.447v5.885A15.447,15.447,0,0,1,196.447,79.278Z" transform="translate(-173.644 -35.144)" fill="#ffdecf"/>
              <path id="Trazado_601458" data-name="Trazado 601458" d="M196.447,86.684h-3.2A12.242,12.242,0,0,1,181,74.442V73.181A17.181,17.181,0,0,0,198.181,56a10.508,10.508,0,0,1,10.508,10.508v7.934A12.242,12.242,0,0,1,196.447,86.684Z" transform="translate(-173.644 -45.807)" fill="#ffeee4"/>
              <path id="Trazado_601459" data-name="Trazado 601459" d="M224.091,229.059h-6.515A1.576,1.576,0,0,1,216,227.483V217.5Z" transform="translate(-201.289 -173.366)" fill="#ff637b"/>
              <path id="Trazado_601460" data-name="Trazado 601460" d="M224.091,250.085h-6.515A1.576,1.576,0,0,1,216,248.509V246.7a2.575,2.575,0,0,1,4.689-1.471Z" transform="translate(-201.289 -194.393)" fill="#f58c98"/>
              <path id="Trazado_601461" data-name="Trazado 601461" d="M254.5,229.059h6.515a1.576,1.576,0,0,0,1.576-1.576V217.5Z" transform="translate(-231.698 -173.366)" fill="#ff637b"/>
              <path id="Trazado_601462" data-name="Trazado 601462" d="M254.5,249.465h6.515a1.576,1.576,0,0,0,1.576-1.576v-2.047a2.5,2.5,0,0,0-4.55-1.433Z" transform="translate(-231.698 -193.772)" fill="#f58c98"/>
            </g>
            <path id="Trazado_601463" data-name="Trazado 601463" d="M177.882,469.5h-.841l-42.728,3.678a7.37,7.37,0,0,0-.7,1.652,1.582,1.582,0,0,0,1.513,2.026h48.327a1.58,1.58,0,0,0,1.511-2.028A7.356,7.356,0,0,0,177.882,469.5Z" transform="translate(-107.058 -372.406)" fill="#f6efea"/>
            <path id="Trazado_601464" data-name="Trazado 601464" d="M179.918,469.5H143.56a7.356,7.356,0,0,0-6.37,3.678h39.05a3.676,3.676,0,0,0,3.678-3.678Z" transform="translate(-109.935 -372.406)" fill="#fff4f4"/>
            <path id="Trazado_601465" data-name="Trazado 601465" d="M7.5,364.5H111.95v7.356a7.356,7.356,0,0,1-7.356,7.356H14.856A7.356,7.356,0,0,1,7.5,371.856Z" transform="translate(-7.5 -289.472)" fill="#f6efea"/>
            <path id="Trazado_601466" data-name="Trazado 601466" d="M7.5,364.5H97.239v1.576a7.356,7.356,0,0,1-7.356,7.356H14.856A7.356,7.356,0,0,1,7.5,366.076Z" transform="translate(-7.5 -289.472)" fill="#fff4f4"/>
          </g>
          <g id="Class-2" data-name="Class">
            <path id="Trazado_601467" data-name="Trazado 601467" d="M229.788,395.152H215.076a1.576,1.576,0,0,1,0-3.152h14.711a1.576,1.576,0,1,1,0,3.152Z" transform="translate(-168.631 -309.617)"/>
            <path id="Trazado_601468" data-name="Trazado 601468" d="M98.673,14.711H92.345V8.932a1.576,1.576,0,1,0-3.152,0v5.779H82.45a1.576,1.576,0,0,0,0,3.152h6.742V37.726a6.286,6.286,0,0,0-2,.244,6.2,6.2,0,0,0-3.732,2.991,7.326,7.326,0,0,0-.822,4.754,10.388,10.388,0,0,1-.187,4.359,1.576,1.576,0,0,0-1.988.7l-2.644,4.808v-31.2a24.379,24.379,0,0,0-48.757,0V75.028H3.152V23.643a5.788,5.788,0,0,1,5.782-5.779h14.89a1.576,1.576,0,1,0,0-3.152H8.934A8.942,8.942,0,0,0,0,23.643V83.959a8.942,8.942,0,0,0,8.934,8.932H40.221l-2.1,4.2H35.2a8.942,8.942,0,0,0-8.934,8.932,1.576,1.576,0,0,0,1.576,1.576h51.91a1.576,1.576,0,0,0,1.576-1.576A8.942,8.942,0,0,0,72.4,97.095H69.49l-2.1-4.2H98.673a8.942,8.942,0,0,0,8.93-8.932V23.643a8.942,8.942,0,0,0-8.93-8.932Zm-12.927,30.5a4.2,4.2,0,0,1,.473-2.732,3.1,3.1,0,0,1,4.2-1.223l.21.111-.183.324a7.043,7.043,0,0,0,2.1,9.218,14.637,14.637,0,0,0-3.2,2.942l-4.071-2.238A13.383,13.383,0,0,0,85.746,45.208Zm-3.283,8.461L88.9,57.212,86.872,60.9l-6.444-3.545Zm-3.545,6.437,6.446,3.543L79.109,75.028H71.123a3.659,3.659,0,0,1,.45-1.564ZM32.209,24.379a21.226,21.226,0,0,1,42.453,0V50.806a16.279,16.279,0,0,0-11.494-6.589,17.023,17.023,0,0,0,7.29-13.955V24.379A17.044,17.044,0,0,0,53.436,7.356a1.576,1.576,0,0,0-1.576,1.576A13.887,13.887,0,0,1,37.989,22.8a1.576,1.576,0,0,0-1.576,1.576v5.885a17.023,17.023,0,0,0,7.3,13.955A16.283,16.283,0,0,0,32.22,50.806ZM53.436,54.52l-5.063-7.234H58.5Zm6.515-3.81v4.983H56.464Zm-6.515-6.576A13.887,13.887,0,0,1,39.565,30.263v-4.38a17.052,17.052,0,0,0,15.367-15.3A13.89,13.89,0,0,1,67.306,24.379v5.885A13.887,13.887,0,0,1,53.436,44.134ZM46.921,50.71l3.489,4.983H46.921ZM32.209,60.421a13.15,13.15,0,0,1,11.559-13.03v9.878a1.576,1.576,0,0,0,1.576,1.576H61.527A1.576,1.576,0,0,0,63.1,57.269V47.391a13.15,13.15,0,0,1,11.559,13.03v.887L68.882,71.816V61.892a1.576,1.576,0,0,0-3.152,0V75.028H41.141V61.892a1.576,1.576,0,0,0-3.152,0V75.028H32.209ZM72.4,100.247a5.788,5.788,0,0,1,5.567,4.2H29.643a5.79,5.79,0,0,1,5.561-4.2H43.19a1.576,1.576,0,1,0,0-3.152H41.643l2.1-4.2H63.864l2.1,4.2H50.546a1.576,1.576,0,0,0,0,3.152ZM104.45,75.028H91.315a1.576,1.576,0,0,0,0,3.152H104.45v5.779a5.786,5.786,0,0,1-5.779,5.779H8.932a5.788,5.788,0,0,1-5.779-5.779V78.18H83.959a1.576,1.576,0,1,0,0-3.152H82.7l9.722-17.677a1.572,1.572,0,0,0,.132-1.2,1.589,1.589,0,0,0-.435-.708,11.042,11.042,0,0,1,3.613-2.732,7.356,7.356,0,0,0,3.363-3.152,6.256,6.256,0,0,0-2.465-8.488l-4.283-2.354V17.864h6.328a5.788,5.788,0,0,1,5.777,5.779ZM93.183,43.251l.21-.364,1.734.954a3.1,3.1,0,0,1,1.221,4.2,4.237,4.237,0,0,1-.775,1.015l-1.021-.614a3.867,3.867,0,0,1-1.368-5.2Z" transform="translate(0 0)"/>
          </g>
        </g>
      </g>
    </g>
  </g>
</svg>
